<svg width="1089" height="712" viewBox="0 0 1089 712" fill="none" xmlns="http://www.w3.org/2000/svg">
<path style="mix-blend-mode:screen" d="M216.338 542.807C216.347 545.845 217.351 548.811 219.224 551.332C221.096 553.853 223.753 555.815 226.858 556.969C229.963 558.123 233.377 558.418 236.667 557.817C239.957 557.215 242.976 555.744 245.342 553.589C247.708 551.435 249.315 548.693 249.959 545.712C250.603 542.731 250.256 539.644 248.96 536.842C247.665 534.04 245.481 531.648 242.683 529.97C239.885 528.291 236.6 527.401 233.244 527.412C228.746 527.427 224.44 529.057 221.27 531.944C218.1 534.83 216.326 538.738 216.338 542.807V542.807Z" fill="url(#paint0_radial_189_2213)"/>
<path style="mix-blend-mode:screen" d="M214.968 206.19C214.98 209.227 215.987 212.192 217.862 214.711C219.737 217.23 222.395 219.189 225.5 220.341C228.605 221.492 232.018 221.785 235.307 221.182C238.597 220.578 241.614 219.106 243.978 216.951C246.343 214.795 247.948 212.054 248.59 209.074C249.233 206.093 248.884 203.007 247.588 200.206C246.293 197.404 244.108 195.013 241.311 193.336C238.514 191.658 235.229 190.768 231.873 190.779C227.373 190.794 223.064 192.426 219.893 195.317C216.723 198.207 214.951 202.118 214.968 206.19Z" fill="url(#paint1_radial_189_2213)"/>
<path style="mix-blend-mode:screen" d="M636.756 707.849C645.869 705.871 651.484 697.583 649.298 689.337C647.111 681.091 637.952 676.01 628.839 677.988C619.726 679.967 614.111 688.255 616.297 696.501C618.484 704.747 627.643 709.828 636.756 707.849Z" fill="url(#paint2_radial_189_2213)"/>
<path style="mix-blend-mode:screen" d="M562.605 692.738C571.717 690.76 577.332 682.471 575.146 674.226C572.96 665.98 563.8 660.899 554.688 662.877C545.575 664.855 539.96 673.144 542.146 681.39C544.332 689.636 553.492 694.716 562.605 692.738Z" fill="url(#paint3_radial_189_2213)"/>
<path style="mix-blend-mode:screen" d="M953.203 168.978C962.316 167 967.931 158.712 965.745 150.466C963.559 142.22 954.399 137.139 945.286 139.117C936.173 141.096 930.558 149.384 932.745 157.63C934.931 165.876 944.091 170.957 953.203 168.978Z" fill="url(#paint4_radial_189_2213)"/>
<path style="mix-blend-mode:screen" d="M565.762 159.016C574.875 157.037 580.49 148.749 578.303 140.503C576.117 132.257 566.958 127.176 557.845 129.154C548.732 131.133 543.117 139.421 545.303 147.667C547.49 155.913 556.649 160.994 565.762 159.016Z" fill="url(#paint5_radial_189_2213)"/>
<path style="mix-blend-mode:screen" d="M950.806 391.805C959.919 389.826 965.534 381.538 963.348 373.292C961.162 365.046 952.002 359.965 942.889 361.943C933.776 363.922 928.161 372.21 930.348 380.456C932.534 388.702 941.694 393.783 950.806 391.805Z" fill="url(#paint6_radial_189_2213)"/>
<path style="mix-blend-mode:screen" d="M635.806 633.803C644.919 631.824 650.534 623.536 648.348 615.29C646.162 607.044 637.002 601.963 627.889 603.941C618.776 605.92 613.161 614.208 615.348 622.454C617.534 630.7 626.694 635.781 635.806 633.803Z" fill="url(#paint7_radial_189_2213)"/>
<path style="mix-blend-mode:screen" d="M24.3918 422.222C33.5065 420.251 39.1295 411.967 36.9512 403.72C34.7729 395.472 25.6182 390.384 16.5035 392.355C7.38887 394.326 1.76585 402.61 3.94415 410.858C6.12244 419.105 15.2772 424.193 24.3918 422.222Z" fill="url(#paint8_radial_189_2213)"/>
<path style="mix-blend-mode:screen" d="M795.258 614.491C794.656 617.709 795.202 621.017 796.816 623.935C798.43 626.854 801.029 629.232 804.237 630.724C807.445 632.217 811.094 632.747 814.656 632.237C818.219 631.728 821.51 630.206 824.053 627.891C826.595 625.576 828.257 622.589 828.799 619.362C829.34 616.135 828.732 612.836 827.063 609.943C825.394 607.05 822.75 604.712 819.515 603.269C816.28 601.826 812.621 601.353 809.069 601.917C805.614 602.466 802.431 603.969 799.958 606.22C797.485 608.472 795.843 611.361 795.258 614.491Z" fill="url(#paint9_radial_189_2213)"/>
<path style="mix-blend-mode:screen" d="M912.134 207.121C921.247 205.143 926.862 196.854 924.676 188.608C922.489 180.362 913.33 175.281 904.217 177.26C895.104 179.238 889.489 187.526 891.675 195.772C893.862 204.018 903.021 209.099 912.134 207.121Z" fill="url(#paint10_radial_189_2213)"/>
<path d="M138.414 367.31C138.415 367.521 138.486 367.727 138.616 367.902C138.747 368.077 138.932 368.213 139.148 368.292C139.365 368.371 139.602 368.391 139.83 368.347C140.059 368.304 140.268 368.201 140.431 368.05C140.594 367.899 140.704 367.708 140.746 367.5C140.789 367.292 140.762 367.078 140.67 366.884C140.577 366.691 140.423 366.526 140.227 366.412C140.031 366.297 139.802 366.238 139.568 366.242C139.26 366.248 138.965 366.362 138.75 366.562C138.534 366.762 138.413 367.031 138.414 367.31V367.31Z" fill="#07EAD3"/>
<path d="M187.763 420.114C187.761 420.471 187.876 420.819 188.094 421.116C188.312 421.413 188.622 421.644 188.986 421.781C189.349 421.917 189.75 421.953 190.136 421.883C190.522 421.813 190.876 421.64 191.153 421.388C191.431 421.135 191.618 420.813 191.693 420.463C191.767 420.114 191.725 419.752 191.572 419.424C191.418 419.096 191.16 418.816 190.831 418.622C190.501 418.427 190.115 418.325 189.721 418.329C189.2 418.331 188.701 418.52 188.334 418.855C187.966 419.19 187.761 419.643 187.763 420.114Z" fill="#07EAD3"/>
<path d="M613.573 131.822C613.574 132.032 613.643 132.237 613.773 132.412C613.903 132.587 614.087 132.722 614.302 132.802C614.518 132.882 614.754 132.902 614.982 132.86C615.21 132.819 615.419 132.717 615.583 132.567C615.747 132.418 615.858 132.228 615.902 132.021C615.947 131.815 615.923 131.601 615.833 131.407C615.743 131.213 615.592 131.047 615.398 130.931C615.204 130.815 614.977 130.753 614.744 130.754C614.432 130.755 614.134 130.868 613.914 131.068C613.694 131.268 613.572 131.539 613.573 131.822V131.822Z" fill="#07EAD3"/>
<path d="M998.617 364.611C998.617 364.821 998.687 365.027 998.817 365.201C998.947 365.376 999.131 365.511 999.346 365.591C999.562 365.671 999.798 365.691 1000.03 365.649C1000.25 365.608 1000.46 365.506 1000.63 365.356C1000.79 365.207 1000.9 365.017 1000.95 364.81C1000.99 364.604 1000.97 364.39 1000.88 364.196C1000.79 364.002 1000.64 363.836 1000.44 363.72C1000.25 363.604 1000.02 363.542 999.788 363.543C999.476 363.544 999.178 363.657 998.958 363.857C998.738 364.058 998.615 364.329 998.617 364.611V364.611Z" fill="#07EAD3"/>
<path d="M683.617 606.611C683.617 606.821 683.687 607.027 683.817 607.201C683.947 607.376 684.131 607.511 684.346 607.591C684.562 607.671 684.798 607.691 685.026 607.649C685.254 607.608 685.463 607.506 685.627 607.356C685.79 607.207 685.902 607.017 685.946 606.81C685.991 606.604 685.967 606.39 685.877 606.196C685.787 606.002 685.636 605.836 685.442 605.72C685.248 605.604 685.02 605.542 684.788 605.543C684.476 605.544 684.178 605.657 683.958 605.857C683.738 606.058 683.615 606.329 683.617 606.611V606.611Z" fill="#07EAD3"/>
<path d="M267.695 589.208C267.695 589.348 267.726 589.486 267.786 589.615C267.846 589.744 267.933 589.861 268.042 589.959C268.152 590.058 268.282 590.136 268.425 590.189C268.567 590.242 268.72 590.269 268.875 590.268C269.029 590.268 269.182 590.24 269.324 590.186C269.467 590.132 269.596 590.053 269.705 589.954C269.814 589.855 269.9 589.737 269.958 589.608C270.017 589.479 270.047 589.34 270.046 589.201C270.045 588.918 269.92 588.648 269.699 588.449C269.477 588.251 269.178 588.14 268.866 588.141C268.554 588.142 268.256 588.255 268.036 588.455C267.816 588.655 267.694 588.926 267.695 589.208Z" fill="#07EAD3"/>
<path d="M110.765 472.23C110.766 472.512 110.891 472.782 111.112 472.981C111.334 473.18 111.633 473.291 111.945 473.29C112.099 473.289 112.25 473.261 112.392 473.207C112.533 473.153 112.661 473.074 112.769 472.974C112.876 472.875 112.961 472.757 113.017 472.628C113.074 472.499 113.102 472.361 113.099 472.222C113.101 472.084 113.072 471.947 113.014 471.819C112.956 471.691 112.87 471.575 112.762 471.477C112.653 471.38 112.524 471.303 112.383 471.252C112.241 471.2 112.089 471.175 111.936 471.178C111.783 471.176 111.63 471.202 111.488 471.254C111.346 471.307 111.216 471.384 111.107 471.482C110.998 471.58 110.912 471.696 110.853 471.825C110.794 471.953 110.764 472.091 110.765 472.23V472.23Z" fill="#07EAD3"/>
<path d="M679.799 20.4525C679.8 20.6629 679.87 20.8684 680 21.0429C680.13 21.2174 680.314 21.3532 680.529 21.433C680.744 21.5128 680.981 21.533 681.209 21.4912C681.436 21.4494 681.645 21.3474 681.809 21.1981C681.973 21.0487 682.084 20.8588 682.129 20.6523C682.173 20.4458 682.149 20.232 682.059 20.0379C681.97 19.8438 681.818 19.6781 681.624 19.5619C681.431 19.4456 681.203 19.384 680.971 19.3848C680.659 19.3858 680.36 19.4989 680.141 19.6991C679.921 19.8994 679.798 20.1704 679.799 20.4525V20.4525Z" fill="#07EAD3"/>
<path d="M191.004 250.056C191.002 250.267 191.069 250.474 191.196 250.65C191.324 250.827 191.507 250.965 191.722 251.048C191.937 251.13 192.174 251.152 192.403 251.112C192.632 251.072 192.843 250.972 193.008 250.823C193.174 250.674 193.287 250.484 193.333 250.277C193.379 250.07 193.355 249.856 193.266 249.661C193.177 249.466 193.026 249.299 192.831 249.182C192.637 249.065 192.409 249.003 192.176 249.004C191.867 249.005 191.571 249.116 191.352 249.313C191.133 249.509 191.008 249.776 191.004 250.056V250.056Z" fill="#07EAD3"/>
<path d="M961.338 341.441C961.337 341.58 961.365 341.718 961.423 341.846C961.481 341.975 961.566 342.092 961.674 342.191C961.783 342.29 961.911 342.368 962.053 342.421C962.195 342.474 962.347 342.501 962.501 342.501C962.813 342.5 963.111 342.387 963.331 342.186C963.551 341.986 963.673 341.715 963.672 341.433C963.671 341.151 963.546 340.881 963.325 340.682C963.104 340.483 962.804 340.372 962.492 340.373C962.339 340.374 962.187 340.402 962.045 340.456C961.904 340.51 961.776 340.589 961.668 340.688C961.561 340.788 961.476 340.905 961.42 341.035C961.363 341.164 961.336 341.302 961.338 341.441Z" fill="#07EAD3"/>
<path d="M646.338 583.441C646.337 583.58 646.365 583.718 646.423 583.846C646.481 583.975 646.566 584.092 646.674 584.191C646.783 584.29 646.911 584.368 647.053 584.421C647.195 584.474 647.347 584.501 647.501 584.501C647.813 584.5 648.111 584.387 648.331 584.186C648.551 583.986 648.673 583.715 648.672 583.433C648.671 583.151 648.546 582.881 648.325 582.682C648.104 582.483 647.804 582.372 647.492 582.373C647.339 582.374 647.187 582.402 647.045 582.456C646.904 582.51 646.776 582.589 646.668 582.688C646.561 582.788 646.476 582.905 646.42 583.035C646.363 583.164 646.336 583.302 646.338 583.441Z" fill="#07EAD3"/>
<path d="M600.807 618.937C600.808 619.147 600.878 619.353 601.008 619.527C601.138 619.702 601.322 619.838 601.537 619.917C601.752 619.997 601.989 620.017 602.216 619.976C602.444 619.934 602.653 619.832 602.817 619.682C602.981 619.533 603.092 619.343 603.137 619.137C603.181 618.93 603.157 618.716 603.067 618.522C602.978 618.328 602.826 618.162 602.632 618.046C602.439 617.93 602.211 617.868 601.978 617.869C601.824 617.87 601.671 617.898 601.529 617.952C601.386 618.006 601.257 618.084 601.148 618.184C601.04 618.283 600.954 618.4 600.895 618.529C600.836 618.659 600.806 618.797 600.807 618.937V618.937Z" fill="#07EAD3"/>
<path d="M817.916 615.954C817.917 616.165 817.987 616.37 818.117 616.545C818.247 616.719 818.431 616.855 818.646 616.935C818.861 617.015 819.098 617.035 819.326 616.993C819.554 616.951 819.763 616.849 819.927 616.7C820.09 616.551 820.202 616.361 820.246 616.154C820.291 615.948 820.266 615.734 820.177 615.54C820.087 615.346 819.935 615.18 819.742 615.064C819.548 614.948 819.32 614.886 819.088 614.887C818.776 614.888 818.477 615.001 818.258 615.201C818.038 615.401 817.915 615.672 817.916 615.954V615.954Z" fill="#07EAD3"/>
<path d="M446.842 659.538C446.843 659.749 446.913 659.954 447.043 660.129C447.173 660.303 447.357 660.439 447.572 660.519C447.787 660.599 448.024 660.619 448.252 660.577C448.479 660.535 448.688 660.433 448.852 660.284C449.016 660.135 449.127 659.945 449.172 659.738C449.216 659.532 449.192 659.318 449.102 659.124C449.013 658.93 448.861 658.764 448.667 658.648C448.474 658.532 448.246 658.47 448.014 658.471C447.702 658.472 447.403 658.585 447.183 658.785C446.964 658.985 446.841 659.256 446.842 659.538V659.538Z" fill="#07EAD3"/>
<path d="M772.625 697.626C772.627 697.909 772.752 698.179 772.973 698.377C773.194 698.576 773.494 698.687 773.806 698.686C774.117 698.685 774.416 698.572 774.636 698.372C774.855 698.172 774.978 697.901 774.977 697.619C774.976 697.336 774.851 697.066 774.629 696.867C774.408 696.669 774.109 696.558 773.797 696.559C773.485 696.56 773.186 696.673 772.967 696.873C772.747 697.073 772.624 697.344 772.625 697.626V697.626Z" fill="#07EAD3"/>
<path d="M260.577 285.341C260.578 285.747 260.713 286.143 260.964 286.48C261.215 286.816 261.571 287.077 261.986 287.23C262.401 287.384 262.857 287.422 263.297 287.34C263.736 287.258 264.138 287.06 264.453 286.771C264.768 286.482 264.98 286.115 265.064 285.716C265.148 285.318 265.099 284.905 264.923 284.532C264.748 284.159 264.454 283.841 264.078 283.619C263.703 283.397 263.263 283.281 262.815 283.286C262.518 283.287 262.225 283.341 261.952 283.445C261.678 283.549 261.431 283.701 261.222 283.892C261.014 284.083 260.85 284.309 260.74 284.558C260.629 284.807 260.573 285.073 260.577 285.341V285.341Z" fill="#07EAD3"/>
<path d="M732.56 127.187C732.563 127.96 732.819 128.714 733.296 129.355C733.773 129.996 734.449 130.494 735.239 130.787C736.029 131.08 736.897 131.155 737.734 131.001C738.571 130.848 739.339 130.473 739.94 129.925C740.542 129.376 740.95 128.679 741.113 127.921C741.277 127.163 741.188 126.377 740.858 125.665C740.529 124.952 739.973 124.344 739.261 123.917C738.55 123.49 737.714 123.264 736.861 123.267C736.294 123.269 735.733 123.372 735.21 123.57C734.687 123.768 734.212 124.057 733.813 124.421C733.414 124.785 733.097 125.217 732.882 125.691C732.667 126.166 732.558 126.674 732.56 127.187Z" fill="white"/>
<path d="M587.293 116.412C587.293 117.185 587.546 117.941 588.021 118.584C588.496 119.226 589.171 119.727 589.96 120.023C590.75 120.318 591.619 120.395 592.457 120.243C593.295 120.092 594.064 119.718 594.667 119.171C595.27 118.623 595.68 117.926 595.845 117.167C596.01 116.408 595.923 115.622 595.594 114.909C595.264 114.195 594.709 113.586 593.997 113.159C593.285 112.731 592.449 112.504 591.594 112.507C590.452 112.511 589.359 112.924 588.552 113.656C587.746 114.387 587.294 115.378 587.293 116.412V116.412Z" fill="white"/>
<path d="M972.337 349.201C972.337 349.974 972.59 350.73 973.065 351.373C973.54 352.016 974.215 352.516 975.004 352.812C975.794 353.107 976.663 353.184 977.501 353.032C978.339 352.881 979.108 352.507 979.711 351.96C980.314 351.412 980.724 350.715 980.889 349.956C981.054 349.197 980.967 348.411 980.637 347.698C980.308 346.984 979.753 346.375 979.041 345.948C978.329 345.52 977.492 345.293 976.638 345.296C975.496 345.3 974.402 345.713 973.596 346.445C972.79 347.177 972.338 348.167 972.337 349.201V349.201Z" fill="white"/>
<path d="M657.337 591.199C657.337 591.972 657.59 592.728 658.065 593.371C658.54 594.014 659.215 594.514 660.004 594.81C660.794 595.105 661.663 595.182 662.501 595.03C663.339 594.879 664.108 594.505 664.711 593.958C665.314 593.41 665.724 592.713 665.889 591.954C666.054 591.195 665.967 590.409 665.637 589.696C665.308 588.982 664.753 588.373 664.041 587.946C663.329 587.518 662.492 587.291 661.638 587.294C660.496 587.298 659.402 587.711 658.596 588.443C657.79 589.175 657.338 590.166 657.337 591.199V591.199Z" fill="white"/>
<path d="M203.223 390.308C203.225 390.713 203.359 391.109 203.609 391.445C203.859 391.781 204.214 392.042 204.628 392.196C205.042 392.349 205.498 392.388 205.937 392.308C206.375 392.227 206.778 392.031 207.093 391.744C207.409 391.456 207.623 391.09 207.708 390.693C207.794 390.295 207.748 389.883 207.575 389.51C207.402 389.136 207.111 388.817 206.737 388.593C206.364 388.369 205.926 388.251 205.478 388.252C204.878 388.254 204.303 388.472 203.88 388.857C203.457 389.243 203.221 389.765 203.223 390.308V390.308Z" fill="#07EAD3"/>
<path d="M276.208 521.013C276.206 521.524 276.373 522.023 276.685 522.447C276.998 522.871 277.443 523.202 277.964 523.397C278.485 523.592 279.058 523.642 279.611 523.542C280.164 523.441 280.671 523.194 281.068 522.832C281.465 522.47 281.734 522.009 281.841 521.508C281.948 521.008 281.888 520.489 281.669 520.019C281.45 519.549 281.081 519.149 280.61 518.869C280.139 518.589 279.586 518.443 279.022 518.448C278.275 518.454 277.56 518.727 277.033 519.208C276.506 519.688 276.21 520.337 276.208 521.013V521.013Z" fill="white"/>
<path d="M783.972 609.654C785.222 609.649 786.231 608.729 786.227 607.598C786.222 606.466 785.205 605.553 783.955 605.557C782.705 605.561 781.695 606.482 781.7 607.613C781.704 608.744 782.722 609.658 783.972 609.654Z" fill="#07EAD3"/>
<path d="M923.62 188.3C923.618 188.706 923.749 189.103 923.997 189.441C924.245 189.779 924.599 190.043 925.013 190.199C925.426 190.355 925.882 190.396 926.322 190.318C926.762 190.239 927.166 190.044 927.483 189.757C927.801 189.47 928.017 189.104 928.104 188.706C928.191 188.308 928.145 187.896 927.973 187.521C927.801 187.147 927.509 186.827 927.136 186.602C926.762 186.378 926.323 186.259 925.875 186.26C925.278 186.262 924.705 186.478 924.283 186.86C923.861 187.242 923.622 187.759 923.62 188.3V188.3Z" fill="#07EAD3"/>
<path d="M764.579 656.558C765.829 656.554 766.839 655.633 766.834 654.502C766.83 653.371 765.812 652.457 764.562 652.461C763.312 652.465 762.303 653.386 762.307 654.517C762.312 655.648 763.329 656.562 764.579 656.558Z" fill="#07EAD3"/>
<path d="M925.353 558.132C925.356 558.902 925.612 559.654 926.087 560.293C926.563 560.931 927.238 561.428 928.025 561.719C928.813 562.01 929.679 562.084 930.513 561.929C931.346 561.775 932.111 561.401 932.709 560.853C933.307 560.305 933.713 559.609 933.874 558.853C934.034 558.097 933.944 557.315 933.613 556.605C933.282 555.896 932.725 555.291 932.014 554.868C931.303 554.445 930.47 554.222 929.619 554.228C929.055 554.23 928.497 554.332 927.977 554.53C927.457 554.727 926.986 555.016 926.589 555.378C926.193 555.741 925.88 556.171 925.668 556.644C925.455 557.116 925.348 557.622 925.353 558.132V558.132Z" fill="#1CB0EA"/>
<path d="M1065.03 416.859C1065.04 417.629 1065.29 418.381 1065.77 419.019C1066.24 419.658 1066.92 420.154 1067.71 420.446C1068.49 420.737 1069.36 420.81 1070.19 420.656C1071.03 420.502 1071.79 420.127 1072.39 419.58C1072.99 419.032 1073.39 418.336 1073.56 417.58C1073.72 416.824 1073.63 416.041 1073.29 415.332C1072.96 414.622 1072.41 414.018 1071.7 413.594C1070.98 413.171 1070.15 412.949 1069.3 412.955C1068.74 412.956 1068.18 413.059 1067.66 413.256C1067.14 413.454 1066.67 413.742 1066.27 414.105C1065.87 414.468 1065.56 414.898 1065.35 415.37C1065.14 415.843 1065.03 416.349 1065.03 416.859V416.859Z" fill="#33599E"/>
<path d="M853.014 151.919C853.018 152.69 853.273 153.441 853.749 154.08C854.225 154.718 854.899 155.215 855.687 155.506C856.475 155.797 857.34 155.871 858.174 155.716C859.008 155.562 859.772 155.188 860.371 154.64C860.969 154.092 861.374 153.396 861.535 152.64C861.696 151.884 861.605 151.102 861.274 150.392C860.943 149.683 860.387 149.078 859.676 148.655C858.965 148.232 858.131 148.009 857.28 148.015C856.716 148.017 856.159 148.12 855.639 148.317C855.119 148.514 854.647 148.803 854.251 149.165C853.855 149.528 853.541 149.958 853.329 150.431C853.117 150.904 853.01 151.409 853.014 151.919V151.919Z" fill="#33599E"/>
<path d="M431.163 505.919C431.166 506.69 431.422 507.441 431.897 508.08C432.373 508.718 433.048 509.215 433.835 509.506C434.623 509.797 435.489 509.871 436.323 509.716C437.156 509.562 437.921 509.188 438.519 508.64C439.117 508.092 439.523 507.396 439.684 506.64C439.844 505.884 439.754 505.102 439.423 504.392C439.092 503.683 438.535 503.078 437.824 502.655C437.113 502.232 436.28 502.009 435.429 502.015C434.865 502.017 434.307 502.12 433.787 502.317C433.267 502.514 432.796 502.803 432.399 503.165C432.003 503.528 431.69 503.958 431.478 504.431C431.265 504.904 431.158 505.409 431.163 505.919V505.919Z" fill="#33599E"/>
<path d="M986.228 597.785C988.593 597.777 990.503 596.036 990.494 593.897C990.485 591.757 988.561 590.029 986.197 590.037C983.832 590.044 981.922 591.785 981.931 593.925C981.94 596.065 983.863 597.793 986.228 597.785Z" fill="#16316D"/>
<path d="M249.949 316.99C249.949 317.892 250.245 318.774 250.8 319.524C251.354 320.273 252.142 320.857 253.063 321.202C253.984 321.546 254.998 321.635 255.975 321.458C256.952 321.28 257.85 320.845 258.553 320.206C259.257 319.567 259.735 318.753 259.927 317.868C260.119 316.983 260.017 316.066 259.633 315.234C259.248 314.401 258.6 313.691 257.77 313.192C256.939 312.694 255.963 312.429 254.967 312.432C253.634 312.437 252.358 312.919 251.417 313.773C250.477 314.628 249.949 315.785 249.949 316.99V316.99Z" fill="#53E3F2"/>
<path d="M294.813 164.005C294.814 164.216 294.884 164.421 295.013 164.596C295.143 164.77 295.328 164.906 295.543 164.986C295.758 165.066 295.994 165.086 296.222 165.044C296.45 165.002 296.659 164.9 296.823 164.751C296.987 164.601 297.098 164.412 297.143 164.205C297.187 163.999 297.163 163.785 297.073 163.591C296.983 163.397 296.832 163.231 296.638 163.115C296.444 162.998 296.217 162.937 295.984 162.937C295.83 162.938 295.677 162.966 295.535 163.02C295.392 163.074 295.263 163.153 295.154 163.252C295.045 163.351 294.959 163.469 294.901 163.598C294.842 163.727 294.812 163.866 294.813 164.005V164.005Z" fill="#07EAD3"/>
<path d="M1019.44 487.592C1019.44 487.783 1019.5 487.97 1019.62 488.129C1019.74 488.288 1019.91 488.412 1020.1 488.484C1020.3 488.557 1020.51 488.575 1020.72 488.537C1020.93 488.499 1021.12 488.406 1021.27 488.27C1021.42 488.135 1021.52 487.962 1021.56 487.774C1021.6 487.586 1021.58 487.391 1021.49 487.214C1021.41 487.037 1021.27 486.887 1021.1 486.781C1020.92 486.675 1020.71 486.619 1020.5 486.619C1020.22 486.62 1019.95 486.723 1019.75 486.906C1019.55 487.088 1019.44 487.335 1019.44 487.592V487.592Z" fill="#07EAD3"/>
<path d="M385.564 576.65C385.565 576.842 385.629 577.029 385.747 577.188C385.865 577.347 386.033 577.47 386.229 577.543C386.425 577.616 386.64 577.634 386.848 577.596C387.055 577.558 387.245 577.465 387.394 577.329C387.544 577.193 387.645 577.02 387.685 576.832C387.726 576.644 387.704 576.449 387.622 576.273C387.541 576.096 387.403 575.945 387.226 575.839C387.05 575.734 386.843 575.677 386.631 575.678C386.347 575.679 386.075 575.782 385.875 575.964C385.675 576.147 385.563 576.393 385.564 576.65V576.65Z" fill="#07EAD3"/>
<path d="M183.505 521.116C183.49 521.747 183.683 522.368 184.06 522.899C184.438 523.431 184.981 523.848 185.622 524.099C186.262 524.349 186.971 524.421 187.657 524.305C188.343 524.19 188.975 523.892 189.473 523.449C189.971 523.007 190.311 522.44 190.451 521.821C190.592 521.203 190.525 520.56 190.26 519.976C189.994 519.392 189.543 518.893 188.962 518.543C188.382 518.192 187.7 518.006 187.002 518.008C186.086 518.011 185.208 518.337 184.554 518.918C183.901 519.499 183.524 520.287 183.505 521.116V521.116Z" fill="#07EAD3"/>
<path d="M984.626 260.043C984.624 260.44 984.753 260.828 984.995 261.158C985.237 261.488 985.582 261.746 985.987 261.898C986.391 262.051 986.836 262.091 987.266 262.015C987.696 261.938 988.09 261.747 988.4 261.467C988.71 261.187 988.921 260.83 989.006 260.441C989.091 260.052 989.047 259.649 988.879 259.283C988.71 258.917 988.426 258.605 988.061 258.385C987.696 258.166 987.267 258.05 986.829 258.051C986.246 258.053 985.687 258.264 985.274 258.637C984.862 259.01 984.629 259.515 984.626 260.043V260.043Z" fill="#07EAD3"/>
<path d="M168.163 355.603C168.168 355.882 168.295 356.148 168.516 356.344C168.737 356.539 169.034 356.648 169.342 356.647C169.627 356.614 169.889 356.489 170.078 356.294C170.268 356.098 170.372 355.847 170.371 355.588C170.369 355.328 170.263 355.078 170.073 354.884C169.882 354.69 169.619 354.566 169.334 354.535C169.179 354.536 169.027 354.564 168.884 354.618C168.742 354.672 168.613 354.75 168.504 354.85C168.395 354.949 168.309 355.066 168.25 355.196C168.192 355.325 168.162 355.463 168.163 355.603V355.603Z" fill="#07EAD3"/>
<path d="M550.062 74.2686C550.059 74.4797 550.126 74.6867 550.254 74.8633C550.382 75.0399 550.565 75.1781 550.78 75.2604C550.994 75.3426 551.231 75.3652 551.46 75.3252C551.689 75.2852 551.9 75.1844 552.066 75.0357C552.231 74.887 552.344 74.6972 552.39 74.4902C552.436 74.2833 552.413 74.0686 552.324 73.8736C552.235 73.6786 552.083 73.512 551.889 73.3951C551.695 73.2781 551.467 73.216 551.233 73.2168C550.925 73.2178 550.629 73.3287 550.409 73.5255C550.19 73.7223 550.065 73.9892 550.062 74.2686Z" fill="#07EAD3"/>
<path d="M935.106 307.056C935.103 307.267 935.17 307.474 935.298 307.65C935.426 307.827 935.609 307.965 935.823 308.047C936.038 308.13 936.275 308.152 936.504 308.112C936.733 308.072 936.944 307.972 937.11 307.823C937.275 307.674 937.388 307.484 937.434 307.277C937.48 307.07 937.457 306.856 937.368 306.661C937.279 306.466 937.127 306.299 936.933 306.182C936.739 306.065 936.511 306.003 936.277 306.004C935.969 306.005 935.673 306.116 935.453 306.313C935.234 306.509 935.109 306.776 935.106 307.056Z" fill="#07EAD3"/>
<path d="M620.106 549.056C620.103 549.267 620.17 549.474 620.298 549.65C620.426 549.827 620.609 549.965 620.823 550.047C621.038 550.13 621.275 550.152 621.504 550.112C621.733 550.072 621.944 549.972 622.11 549.823C622.275 549.674 622.388 549.484 622.434 549.277C622.48 549.07 622.457 548.856 622.368 548.661C622.279 548.466 622.127 548.299 621.933 548.182C621.739 548.065 621.511 548.003 621.277 548.004C620.969 548.005 620.673 548.116 620.453 548.313C620.234 548.509 620.109 548.776 620.106 549.056Z" fill="#07EAD3"/>
<path d="M470.521 588.007C470.518 588.218 470.585 588.425 470.713 588.602C470.841 588.778 471.024 588.916 471.238 588.999C471.453 589.081 471.69 589.103 471.919 589.063C472.148 589.023 472.359 588.923 472.525 588.774C472.69 588.625 472.803 588.435 472.849 588.228C472.895 588.022 472.872 587.807 472.783 587.612C472.693 587.417 472.542 587.25 472.348 587.133C472.154 587.016 471.926 586.954 471.692 586.955C471.384 586.956 471.088 587.067 470.868 587.264C470.649 587.461 470.524 587.728 470.521 588.007V588.007Z" fill="#07EAD3"/>
<path d="M160.168 404.933C160.169 405.143 160.239 405.349 160.369 405.523C160.499 405.698 160.683 405.834 160.898 405.913C161.113 405.993 161.35 406.014 161.578 405.972C161.806 405.93 162.015 405.828 162.178 405.679C162.342 405.529 162.454 405.339 162.498 405.133C162.543 404.926 162.518 404.712 162.429 404.518C162.339 404.324 162.187 404.159 161.994 404.042C161.8 403.926 161.572 403.864 161.34 403.865C161.028 403.866 160.729 403.979 160.51 404.18C160.29 404.38 160.167 404.651 160.168 404.933V404.933Z" fill="#07EAD3"/>
<path d="M991.074 438.763C991.075 438.973 991.144 439.179 991.274 439.353C991.404 439.528 991.588 439.664 991.803 439.743C992.019 439.823 992.255 439.844 992.483 439.802C992.711 439.76 992.92 439.658 993.084 439.509C993.247 439.359 993.359 439.169 993.403 438.963C993.448 438.756 993.424 438.542 993.334 438.348C993.244 438.154 993.093 437.989 992.899 437.872C992.705 437.756 992.477 437.695 992.245 437.695C992.091 437.696 991.938 437.724 991.795 437.778C991.653 437.832 991.524 437.911 991.415 438.01C991.306 438.109 991.22 438.226 991.162 438.356C991.103 438.485 991.073 438.623 991.074 438.763V438.763Z" fill="#07EAD3"/>
<path d="M357.202 527.822C357.203 528.032 357.273 528.237 357.403 528.412C357.533 528.587 357.717 528.722 357.932 528.802C358.147 528.882 358.383 528.902 358.611 528.86C358.839 528.819 359.048 528.717 359.212 528.567C359.376 528.418 359.487 528.228 359.532 528.021C359.576 527.815 359.552 527.601 359.462 527.407C359.372 527.213 359.221 527.047 359.027 526.931C358.833 526.815 358.606 526.753 358.373 526.754C358.219 526.754 358.066 526.782 357.924 526.836C357.781 526.89 357.652 526.969 357.543 527.068C357.435 527.167 357.349 527.285 357.29 527.414C357.231 527.543 357.202 527.682 357.202 527.822V527.822Z" fill="#07EAD3"/>
<path d="M888.307 239.149C888.307 240.025 888.594 240.883 889.133 241.611C889.672 242.34 890.438 242.908 891.333 243.243C892.229 243.577 893.214 243.664 894.164 243.492C895.114 243.319 895.987 242.896 896.671 242.275C897.355 241.653 897.819 240.863 898.006 240.002C898.193 239.142 898.093 238.251 897.72 237.441C897.347 236.632 896.716 235.942 895.909 235.457C895.102 234.972 894.153 234.715 893.184 234.718C892.542 234.718 891.906 234.833 891.313 235.056C890.721 235.279 890.182 235.605 889.729 236.017C889.276 236.428 888.917 236.917 888.673 237.454C888.429 237.992 888.304 238.568 888.307 239.149V239.149Z" fill="white"/>
<path d="M897.876 433.818C897.877 434.028 897.947 434.234 898.077 434.408C898.207 434.583 898.391 434.718 898.606 434.798C898.821 434.878 899.058 434.898 899.286 434.856C899.513 434.815 899.723 434.713 899.886 434.563C900.05 434.414 900.161 434.224 900.206 434.018C900.25 433.811 900.226 433.597 900.137 433.403C900.047 433.209 899.895 433.043 899.702 432.927C899.508 432.811 899.28 432.749 899.048 432.75C898.736 432.751 898.437 432.864 898.218 433.064C897.998 433.265 897.875 433.536 897.876 433.818Z" fill="#07EAD3"/>
<path d="M264.004 522.876C264.005 523.087 264.075 523.292 264.205 523.467C264.335 523.641 264.519 523.777 264.734 523.857C264.949 523.937 265.186 523.957 265.413 523.915C265.641 523.873 265.85 523.771 266.014 523.622C266.178 523.473 266.289 523.283 266.334 523.076C266.378 522.87 266.354 522.656 266.264 522.462C266.175 522.268 266.023 522.102 265.83 521.986C265.636 521.869 265.408 521.808 265.176 521.809C264.864 521.81 264.565 521.923 264.346 522.123C264.126 522.323 264.003 522.594 264.004 522.876Z" fill="#07EAD3"/>
<path d="M1049.95 475.452C1049.95 475.664 1050.02 475.872 1050.15 476.049C1050.28 476.226 1050.46 476.364 1050.68 476.446C1050.89 476.527 1051.13 476.549 1051.36 476.508C1051.59 476.466 1051.8 476.364 1051.96 476.214C1052.13 476.063 1052.24 475.872 1052.29 475.664C1052.33 475.456 1052.3 475.241 1052.21 475.046C1052.12 474.851 1051.97 474.686 1051.77 474.571C1051.57 474.456 1051.34 474.397 1051.11 474.401C1050.96 474.401 1050.81 474.429 1050.67 474.482C1050.53 474.535 1050.4 474.613 1050.29 474.71C1050.18 474.808 1050.1 474.924 1050.04 475.051C1049.98 475.178 1049.95 475.315 1049.95 475.452Z" fill="#07EAD3"/>
<path d="M837.934 210.513C837.931 210.725 837.999 210.932 838.127 211.109C838.256 211.286 838.44 211.424 838.656 211.506C838.872 211.588 839.11 211.609 839.339 211.568C839.569 211.527 839.779 211.425 839.944 211.274C840.109 211.124 840.221 210.933 840.265 210.725C840.309 210.517 840.283 210.301 840.191 210.107C840.099 209.912 839.945 209.747 839.748 209.632C839.552 209.517 839.322 209.457 839.088 209.461C838.936 209.462 838.785 209.489 838.645 209.542C838.505 209.595 838.378 209.673 838.27 209.771C838.163 209.868 838.078 209.984 838.021 210.112C837.963 210.239 837.934 210.375 837.934 210.513Z" fill="#07EAD3"/>
<path d="M416.083 564.513C416.08 564.725 416.147 564.932 416.276 565.109C416.404 565.286 416.588 565.424 416.804 565.506C417.02 565.588 417.258 565.609 417.488 565.568C417.717 565.527 417.928 565.425 418.093 565.274C418.257 565.124 418.369 564.933 418.413 564.725C418.457 564.517 418.431 564.301 418.339 564.107C418.247 563.912 418.093 563.747 417.897 563.632C417.7 563.517 417.47 563.457 417.236 563.461C417.084 563.462 416.934 563.489 416.794 563.542C416.653 563.595 416.526 563.673 416.419 563.771C416.312 563.868 416.227 563.984 416.169 564.112C416.111 564.239 416.082 564.375 416.083 564.513Z" fill="#07EAD3"/>
<path d="M1028.53 454.025C1028.53 454.235 1028.6 454.441 1028.73 454.615C1028.86 454.79 1029.04 454.925 1029.26 455.005C1029.47 455.085 1029.71 455.105 1029.94 455.064C1030.17 455.022 1030.38 454.92 1030.54 454.77C1030.7 454.621 1030.81 454.431 1030.86 454.225C1030.9 454.018 1030.88 453.804 1030.79 453.61C1030.7 453.416 1030.55 453.25 1030.35 453.134C1030.16 453.018 1029.93 452.956 1029.7 452.957C1029.39 452.958 1029.09 453.071 1028.87 453.271C1028.65 453.472 1028.53 453.743 1028.53 454.025Z" fill="#07EAD3"/>
<path d="M816.509 189.085C816.51 189.296 816.58 189.501 816.71 189.676C816.84 189.85 817.024 189.986 817.239 190.066C817.454 190.146 817.691 190.166 817.918 190.124C818.146 190.082 818.355 189.98 818.519 189.831C818.683 189.682 818.794 189.492 818.839 189.285C818.883 189.079 818.859 188.865 818.769 188.671C818.68 188.477 818.528 188.311 818.334 188.195C818.141 188.078 817.913 188.017 817.681 188.018C817.369 188.019 817.07 188.132 816.85 188.332C816.631 188.532 816.508 188.803 816.509 189.085Z" fill="#07EAD3"/>
<path d="M394.658 543.083C394.659 543.294 394.728 543.499 394.858 543.674C394.988 543.848 395.172 543.984 395.387 544.064C395.602 544.144 395.839 544.164 396.067 544.122C396.295 544.08 396.504 543.978 396.668 543.829C396.831 543.68 396.943 543.49 396.987 543.283C397.032 543.077 397.008 542.863 396.918 542.669C396.828 542.475 396.677 542.309 396.483 542.193C396.289 542.076 396.061 542.015 395.829 542.016C395.517 542.017 395.219 542.13 394.999 542.33C394.779 542.53 394.657 542.801 394.658 543.083Z" fill="#07EAD3"/>
<path d="M1033.81 526.507C1033.81 526.718 1033.88 526.924 1034.01 527.099C1034.14 527.274 1034.33 527.41 1034.54 527.489C1034.76 527.568 1035 527.588 1035.22 527.545C1035.45 527.502 1035.66 527.398 1035.82 527.247C1035.99 527.096 1036.1 526.905 1036.14 526.697C1036.18 526.49 1036.16 526.275 1036.06 526.082C1035.97 525.888 1035.82 525.723 1035.62 525.609C1035.42 525.495 1035.2 525.436 1034.96 525.44C1034.65 525.445 1034.36 525.56 1034.14 525.759C1033.93 525.959 1033.81 526.228 1033.81 526.507V526.507Z" fill="#07EAD3"/>
<path d="M399.936 615.568C399.937 615.779 400.007 615.985 400.138 616.16C400.268 616.335 400.454 616.47 400.67 616.55C400.886 616.629 401.123 616.648 401.352 616.605C401.58 616.562 401.789 616.459 401.952 616.308C402.115 616.157 402.225 615.965 402.268 615.758C402.31 615.55 402.283 615.336 402.191 615.142C402.099 614.948 401.944 614.784 401.748 614.67C401.552 614.555 401.323 614.496 401.09 614.5C400.781 614.505 400.487 614.62 400.271 614.82C400.055 615.02 399.935 615.288 399.936 615.568V615.568Z" fill="#07EAD3"/>
<path d="M552.178 572.937C552.179 573.147 552.249 573.353 552.379 573.527C552.509 573.702 552.693 573.838 552.908 573.917C553.123 573.997 553.36 574.017 553.587 573.976C553.815 573.934 554.024 573.832 554.188 573.682C554.352 573.533 554.463 573.343 554.508 573.137C554.552 572.93 554.528 572.716 554.438 572.522C554.349 572.328 554.197 572.162 554.003 572.046C553.81 571.93 553.582 571.868 553.349 571.869C553.038 571.87 552.739 571.983 552.519 572.183C552.3 572.384 552.177 572.655 552.178 572.937V572.937Z" fill="#07EAD3"/>
<path d="M374.145 707.415C374.146 707.626 374.216 707.831 374.345 708.006C374.475 708.18 374.66 708.316 374.875 708.396C375.09 708.476 375.326 708.496 375.554 708.454C375.782 708.412 375.991 708.31 376.155 708.161C376.319 708.012 376.43 707.822 376.475 707.615C376.519 707.409 376.495 707.195 376.405 707.001C376.315 706.807 376.164 706.641 375.97 706.525C375.776 706.409 375.549 706.347 375.316 706.348C375.005 706.349 374.706 706.462 374.486 706.662C374.267 706.862 374.144 707.133 374.145 707.415V707.415Z" fill="#07EAD3"/>
<path d="M723.507 153.369C723.508 153.58 723.578 153.786 723.709 153.961C723.84 154.135 724.025 154.271 724.241 154.35C724.457 154.43 724.695 154.449 724.923 154.406C725.151 154.363 725.36 154.259 725.523 154.108C725.687 153.957 725.796 153.766 725.839 153.559C725.881 153.351 725.855 153.137 725.762 152.943C725.67 152.749 725.516 152.585 725.32 152.47C725.123 152.356 724.894 152.297 724.661 152.301C724.352 152.306 724.058 152.421 723.842 152.621C723.626 152.821 723.506 153.089 723.507 153.369V153.369Z" fill="#07EAD3"/>
<path d="M677.852 654.798C677.853 655.009 677.923 655.214 678.053 655.389C678.182 655.563 678.367 655.699 678.582 655.779C678.797 655.858 679.033 655.879 679.261 655.837C679.489 655.795 679.698 655.693 679.862 655.544C680.026 655.394 680.137 655.205 680.182 654.998C680.226 654.792 680.202 654.578 680.112 654.384C680.022 654.189 679.871 654.024 679.677 653.908C679.483 653.791 679.256 653.73 679.023 653.73C678.712 653.731 678.413 653.845 678.193 654.045C677.974 654.245 677.851 654.516 677.852 654.798V654.798Z" fill="#07EAD3"/>
<path d="M467.578 701.279C467.579 701.561 467.704 701.831 467.925 702.03C468.146 702.229 468.446 702.34 468.758 702.339C469.069 702.338 469.368 702.225 469.588 702.024C469.807 701.824 469.93 701.553 469.929 701.271C469.928 700.989 469.803 700.719 469.582 700.52C469.36 700.321 469.061 700.21 468.749 700.211C468.437 700.212 468.139 700.325 467.919 700.525C467.699 700.726 467.576 700.997 467.578 701.279V701.279Z" fill="#07EAD3"/>
<path d="M895.414 622.318C895.415 622.528 895.485 622.734 895.615 622.908C895.745 623.083 895.929 623.218 896.144 623.298C896.359 623.378 896.596 623.398 896.824 623.356C897.052 623.315 897.261 623.213 897.425 623.063C897.588 622.914 897.7 622.724 897.744 622.518C897.789 622.311 897.765 622.097 897.675 621.903C897.585 621.709 897.434 621.543 897.24 621.427C897.046 621.311 896.818 621.249 896.586 621.25C896.274 621.251 895.975 621.364 895.756 621.564C895.536 621.765 895.413 622.036 895.414 622.318V622.318Z" fill="#07EAD3"/>
<path d="M405.153 669.205C405.154 669.415 405.223 669.62 405.353 669.795C405.483 669.969 405.667 670.105 405.883 670.185C406.098 670.265 406.334 670.285 406.562 670.243C406.79 670.201 406.999 670.099 407.163 669.95C407.327 669.801 407.438 669.611 407.482 669.404C407.527 669.198 407.503 668.984 407.413 668.79C407.323 668.596 407.172 668.43 406.978 668.314C406.784 668.198 406.557 668.136 406.324 668.137C406.012 668.138 405.714 668.251 405.494 668.451C405.274 668.651 405.152 668.922 405.153 669.205V669.205Z" fill="#07EAD3"/>
<path d="M896.101 635.812C896.102 636.126 896.207 636.433 896.4 636.694C896.594 636.954 896.869 637.157 897.19 637.276C897.511 637.395 897.865 637.425 898.205 637.363C898.545 637.3 898.857 637.148 899.101 636.925C899.346 636.702 899.512 636.419 899.578 636.111C899.645 635.802 899.609 635.483 899.475 635.194C899.341 634.904 899.115 634.657 898.825 634.483C898.536 634.31 898.196 634.218 897.849 634.219C897.384 634.22 896.938 634.389 896.611 634.688C896.283 634.987 896.099 635.391 896.101 635.812Z" fill="#07EAD3"/>
<path d="M305.777 564.737C305.779 565.208 305.935 565.668 306.226 566.059C306.517 566.45 306.929 566.754 307.411 566.932C307.893 567.111 308.422 567.156 308.932 567.063C309.442 566.969 309.911 566.741 310.277 566.406C310.644 566.072 310.893 565.647 310.993 565.184C311.092 564.722 311.038 564.243 310.837 563.809C310.636 563.374 310.297 563.004 309.864 562.743C309.43 562.483 308.92 562.345 308.4 562.347C307.703 562.353 307.037 562.608 306.546 563.055C306.056 563.502 305.779 564.107 305.777 564.737V564.737Z" fill="#07EAD3"/>
<path d="M1009.27 422.3C1009.27 422.511 1009.34 422.716 1009.47 422.891C1009.6 423.065 1009.79 423.201 1010 423.281C1010.22 423.36 1010.45 423.381 1010.68 423.339C1010.91 423.297 1011.12 423.195 1011.28 423.046C1011.45 422.896 1011.56 422.706 1011.6 422.5C1011.65 422.293 1011.62 422.08 1011.53 421.886C1011.44 421.691 1011.29 421.526 1011.1 421.41C1010.9 421.293 1010.68 421.232 1010.44 421.232C1010.13 421.233 1009.83 421.347 1009.61 421.547C1009.39 421.747 1009.27 422.018 1009.27 422.3Z" fill="#07EAD3"/>
<path d="M797.252 157.361C797.253 157.571 797.323 157.777 797.453 157.951C797.583 158.126 797.767 158.261 797.982 158.341C798.197 158.421 798.434 158.441 798.662 158.399C798.89 158.358 799.099 158.256 799.262 158.106C799.426 157.957 799.537 157.767 799.582 157.561C799.626 157.354 799.602 157.14 799.513 156.946C799.423 156.752 799.271 156.586 799.078 156.47C798.884 156.354 798.656 156.292 798.424 156.293C798.112 156.294 797.813 156.407 797.594 156.607C797.374 156.808 797.251 157.079 797.252 157.361Z" fill="#07EAD3"/>
<path d="M820.65 593.4C820.648 593.539 820.677 593.677 820.735 593.805C820.792 593.934 820.878 594.051 820.986 594.15C821.094 594.249 821.223 594.327 821.365 594.38C821.507 594.433 821.659 594.46 821.812 594.46C822.124 594.459 822.423 594.346 822.642 594.145C822.862 593.945 822.985 593.674 822.984 593.392C822.983 593.11 822.858 592.84 822.636 592.641C822.415 592.442 822.116 592.331 821.804 592.332C821.65 592.333 821.498 592.361 821.357 592.415C821.215 592.469 821.087 592.548 820.98 592.647C820.872 592.747 820.788 592.864 820.731 592.994C820.675 593.123 820.647 593.261 820.65 593.4Z" fill="#07EAD3"/>
<path d="M317.689 589.597C317.691 590.128 317.867 590.646 318.195 591.087C318.522 591.527 318.987 591.869 319.529 592.071C320.072 592.272 320.669 592.323 321.243 592.218C321.818 592.112 322.346 591.855 322.759 591.478C323.172 591.101 323.453 590.622 323.565 590.101C323.677 589.581 323.616 589.041 323.39 588.552C323.163 588.062 322.782 587.644 322.293 587.351C321.804 587.058 321.23 586.902 320.643 586.904C319.857 586.907 319.104 587.192 318.55 587.697C317.995 588.202 317.686 588.886 317.689 589.597Z" fill="#41EAF7"/>
<path d="M615.953 31.2572C615.953 31.4676 616.023 31.6731 616.153 31.8476C616.283 32.0221 616.467 32.1578 616.682 32.2376C616.897 32.3174 617.134 32.3377 617.362 32.2959C617.59 32.2541 617.799 32.1521 617.963 32.0027C618.126 31.8534 618.238 31.6635 618.282 31.457C618.327 31.2505 618.302 31.0366 618.213 30.8425C618.123 30.6485 617.972 30.4828 617.778 30.3666C617.584 30.2503 617.356 30.1887 617.124 30.1894C616.812 30.1905 616.514 30.3036 616.294 30.5038C616.074 30.704 615.951 30.975 615.953 31.2572Z" fill="#41EAF7"/>
<path d="M474.96 104.767C474.961 104.978 475.032 105.184 475.162 105.359C475.293 105.534 475.478 105.67 475.694 105.749C475.91 105.828 476.148 105.848 476.376 105.804C476.605 105.761 476.814 105.658 476.977 105.507C477.14 105.356 477.25 105.165 477.292 104.957C477.335 104.749 477.308 104.535 477.215 104.341C477.123 104.148 476.969 103.983 476.773 103.869C476.577 103.754 476.347 103.695 476.114 103.699C475.805 103.705 475.511 103.819 475.295 104.019C475.08 104.219 474.959 104.488 474.96 104.767Z" fill="#41EAF7"/>
<path d="M860.004 337.554C860.005 337.765 860.075 337.971 860.206 338.146C860.337 338.321 860.522 338.457 860.738 338.536C860.954 338.615 861.192 338.635 861.42 338.592C861.648 338.548 861.857 338.445 862.021 338.294C862.184 338.143 862.293 337.952 862.336 337.744C862.378 337.537 862.352 337.322 862.259 337.128C862.167 336.935 862.013 336.77 861.817 336.656C861.621 336.542 861.391 336.483 861.158 336.486C860.849 336.492 860.555 336.607 860.339 336.806C860.124 337.006 860.003 337.275 860.004 337.554Z" fill="#41EAF7"/>
<path d="M545.004 579.554C545.005 579.765 545.075 579.971 545.206 580.146C545.337 580.321 545.522 580.457 545.738 580.536C545.954 580.615 546.192 580.635 546.42 580.592C546.648 580.548 546.857 580.445 547.021 580.294C547.184 580.143 547.293 579.952 547.336 579.744C547.378 579.537 547.352 579.322 547.259 579.128C547.167 578.935 547.013 578.77 546.817 578.656C546.621 578.542 546.391 578.483 546.158 578.486C545.849 578.492 545.555 578.607 545.339 578.806C545.124 579.006 545.003 579.275 545.004 579.554Z" fill="#41EAF7"/>
<path d="M338.135 103.095C338.136 103.377 338.261 103.647 338.483 103.846C338.704 104.045 339.003 104.156 339.315 104.155C339.627 104.154 339.926 104.041 340.145 103.841C340.365 103.64 340.488 103.369 340.487 103.087C340.485 102.805 340.36 102.535 340.139 102.336C339.918 102.137 339.618 102.026 339.307 102.027C338.995 102.028 338.696 102.141 338.477 102.342C338.257 102.542 338.134 102.813 338.135 103.095V103.095Z" fill="#41EAF7"/>
<path d="M990.025 478.542C990.026 478.824 990.151 479.095 990.372 479.293C990.594 479.492 990.893 479.603 991.205 479.602C991.517 479.601 991.815 479.488 992.035 479.288C992.255 479.088 992.377 478.817 992.376 478.534C992.375 478.252 992.25 477.982 992.029 477.783C991.807 477.585 991.508 477.474 991.196 477.475C990.884 477.476 990.586 477.589 990.366 477.789C990.146 477.989 990.024 478.26 990.025 478.542V478.542Z" fill="#07EAD3"/>
<path d="M778.004 213.603C778.005 213.885 778.13 214.155 778.352 214.354C778.573 214.553 778.873 214.664 779.184 214.663C779.496 214.662 779.795 214.549 780.014 214.348C780.234 214.148 780.357 213.877 780.356 213.595C780.355 213.313 780.23 213.043 780.008 212.844C779.787 212.645 779.487 212.534 779.176 212.535C778.864 212.536 778.565 212.649 778.346 212.849C778.126 213.05 778.003 213.321 778.004 213.603V213.603Z" fill="#07EAD3"/>
<path d="M516.765 145.259C516.766 145.47 516.836 145.675 516.966 145.85C517.096 146.024 517.28 146.16 517.495 146.24C517.71 146.319 517.946 146.34 518.174 146.298C518.402 146.256 518.611 146.154 518.775 146.005C518.939 145.855 519.05 145.665 519.095 145.459C519.139 145.252 519.115 145.039 519.025 144.845C518.935 144.65 518.784 144.485 518.59 144.369C518.397 144.252 518.169 144.191 517.936 144.191C517.625 144.192 517.326 144.306 517.106 144.506C516.887 144.706 516.764 144.977 516.765 145.259V145.259Z" fill="#07EAD3"/>
<path d="M901.809 378.048C901.81 378.259 901.88 378.464 902.01 378.639C902.139 378.813 902.324 378.949 902.539 379.029C902.754 379.108 902.99 379.129 903.218 379.087C903.446 379.045 903.655 378.943 903.819 378.794C903.983 378.644 904.094 378.455 904.139 378.248C904.183 378.041 904.159 377.828 904.069 377.634C903.979 377.439 903.828 377.274 903.634 377.158C903.44 377.041 903.213 376.98 902.98 376.98C902.669 376.981 902.37 377.095 902.15 377.295C901.931 377.495 901.808 377.766 901.809 378.048V378.048Z" fill="#07EAD3"/>
<path d="M586.809 620.048C586.81 620.259 586.88 620.464 587.01 620.639C587.139 620.813 587.324 620.949 587.539 621.029C587.754 621.108 587.99 621.129 588.218 621.087C588.446 621.045 588.655 620.943 588.819 620.794C588.983 620.644 589.094 620.455 589.139 620.248C589.183 620.041 589.159 619.828 589.069 619.634C588.979 619.439 588.828 619.274 588.634 619.158C588.44 619.041 588.213 618.98 587.98 618.98C587.669 618.981 587.37 619.095 587.15 619.295C586.931 619.495 586.808 619.766 586.809 620.048V620.048Z" fill="#07EAD3"/>
<path d="M456.727 22.642C456.728 22.8524 456.798 23.0578 456.928 23.2323C457.057 23.4068 457.242 23.5426 457.457 23.6224C457.672 23.7022 457.908 23.7225 458.136 23.6807C458.364 23.6389 458.573 23.5368 458.737 23.3875C458.901 23.2382 459.012 23.0483 459.057 22.8417C459.101 22.6352 459.077 22.4214 458.987 22.2273C458.897 22.0332 458.746 21.8676 458.552 21.7513C458.358 21.6351 458.131 21.5734 457.898 21.5742C457.586 21.5752 457.288 21.6883 457.068 21.8886C456.849 22.0888 456.726 22.3598 456.727 22.642V22.642Z" fill="#07EAD3"/>
<path d="M151.236 294.853C151.237 295.135 151.362 295.405 151.583 295.604C151.804 295.803 152.104 295.914 152.416 295.913C152.728 295.912 153.026 295.799 153.246 295.598C153.465 295.398 153.588 295.127 153.587 294.845C153.586 294.563 153.461 294.293 153.24 294.094C153.018 293.895 152.719 293.784 152.407 293.785C152.095 293.786 151.797 293.899 151.577 294.1C151.357 294.3 151.235 294.571 151.236 294.853V294.853Z" fill="#07EAD3"/>
<path d="M740.31 608.814C740.311 609.024 740.381 609.23 740.511 609.404C740.64 609.579 740.825 609.714 741.04 609.794C741.255 609.874 741.491 609.894 741.719 609.853C741.947 609.811 742.156 609.709 742.32 609.559C742.484 609.41 742.595 609.22 742.64 609.014C742.684 608.807 742.66 608.593 742.57 608.399C742.48 608.205 742.329 608.039 742.135 607.923C741.941 607.807 741.714 607.745 741.481 607.746C741.17 607.747 740.871 607.86 740.651 608.06C740.432 608.261 740.309 608.532 740.31 608.814Z" fill="#07EAD3"/>
<path d="M243.027 590.13C243.028 590.412 243.153 590.682 243.374 590.881C243.595 591.08 243.895 591.191 244.207 591.19C244.36 591.19 244.512 591.161 244.654 591.107C244.795 591.053 244.923 590.974 245.031 590.875C245.138 590.775 245.222 590.658 245.279 590.529C245.336 590.399 245.363 590.261 245.361 590.122C245.362 589.984 245.333 589.847 245.276 589.719C245.218 589.591 245.132 589.475 245.024 589.378C244.915 589.28 244.786 589.204 244.644 589.152C244.503 589.101 244.351 589.076 244.198 589.078C244.045 589.077 243.892 589.103 243.75 589.155C243.608 589.207 243.478 589.284 243.369 589.382C243.26 589.48 243.174 589.597 243.115 589.725C243.056 589.853 243.026 589.991 243.027 590.13V590.13Z" fill="#07EAD3"/>
<path d="M376.516 99.8706C376.517 100.082 376.587 100.288 376.718 100.463C376.849 100.637 377.034 100.773 377.25 100.852C377.466 100.932 377.704 100.951 377.932 100.908C378.16 100.865 378.369 100.761 378.532 100.61C378.695 100.459 378.805 100.268 378.848 100.06C378.89 99.8529 378.863 99.6386 378.771 99.4449C378.679 99.2511 378.524 99.0865 378.328 98.9722C378.132 98.8579 377.903 98.799 377.67 98.8029C377.361 98.8081 377.067 98.923 376.851 99.1228C376.635 99.3226 376.515 99.5912 376.516 99.8706V99.8706Z" fill="#07EAD3"/>
<path d="M506.229 1.07165C506.23 1.28206 506.3 1.48751 506.429 1.66203C506.559 1.83655 506.744 1.97229 506.959 2.0521C507.174 2.1319 507.41 2.15218 507.638 2.11037C507.866 2.06856 508.075 1.96655 508.239 1.81722C508.403 1.66789 508.514 1.47796 508.559 1.27144C508.603 1.06493 508.579 0.851099 508.489 0.657004C508.399 0.462909 508.248 0.297262 508.054 0.18101C507.86 0.0647572 507.633 0.00312166 507.4 0.00389621C507.088 0.00493486 506.79 0.118014 506.57 0.318257C506.351 0.5185 506.228 0.789505 506.229 1.07165Z" fill="#07EAD3"/>
<path d="M293.374 366.808C293.375 367.018 293.445 367.224 293.575 367.398C293.705 367.573 293.889 367.709 294.104 367.788C294.319 367.868 294.556 367.888 294.784 367.847C295.012 367.805 295.221 367.703 295.385 367.553C295.548 367.404 295.659 367.214 295.704 367.008C295.749 366.801 295.724 366.587 295.635 366.393C295.545 366.199 295.394 366.034 295.2 365.917C295.006 365.801 294.778 365.739 294.546 365.74C294.234 365.741 293.935 365.854 293.716 366.055C293.496 366.255 293.373 366.526 293.374 366.808V366.808Z" fill="#07EAD3"/>
<path d="M502.15 24.808C502.151 25.0184 502.22 25.2238 502.35 25.3984C502.48 25.5729 502.664 25.7086 502.88 25.7884C503.095 25.8682 503.331 25.8885 503.559 25.8467C503.787 25.8049 503.996 25.7029 504.16 25.5535C504.324 25.4042 504.435 25.2143 504.48 25.0078C504.524 24.8013 504.5 24.5874 504.41 24.3933C504.32 24.1992 504.169 24.0336 503.975 23.9173C503.781 23.8011 503.554 23.7394 503.321 23.7402C503.167 23.7407 503.014 23.7688 502.872 23.8227C502.729 23.8766 502.6 23.9554 502.491 24.0546C502.382 24.1537 502.296 24.2713 502.238 24.4006C502.179 24.5298 502.149 24.6683 502.15 24.808V24.808Z" fill="#07EAD3"/>
<path d="M295.888 139.232C295.889 139.443 295.959 139.649 296.09 139.824C296.221 139.999 296.406 140.134 296.622 140.214C296.838 140.293 297.076 140.312 297.304 140.269C297.532 140.226 297.741 140.123 297.904 139.972C298.067 139.821 298.177 139.629 298.22 139.422C298.262 139.214 298.236 139 298.143 138.806C298.051 138.612 297.897 138.448 297.701 138.334C297.504 138.219 297.275 138.16 297.042 138.164C296.733 138.169 296.439 138.284 296.223 138.484C296.007 138.684 295.887 138.953 295.888 139.232V139.232Z" fill="#07EAD3"/>
<path d="M245.008 227.064C245.01 227.469 245.144 227.865 245.395 228.201C245.645 228.537 245.999 228.798 246.413 228.952C246.828 229.105 247.283 229.144 247.722 229.064C248.161 228.983 248.563 228.787 248.879 228.499C249.194 228.212 249.408 227.846 249.494 227.449C249.579 227.051 249.533 226.639 249.36 226.266C249.187 225.892 248.896 225.573 248.523 225.349C248.15 225.125 247.711 225.007 247.264 225.008C246.966 225.007 246.671 225.06 246.395 225.163C246.12 225.266 245.87 225.417 245.66 225.609C245.45 225.8 245.285 226.027 245.173 226.277C245.061 226.527 245.005 226.794 245.008 227.064Z" fill="#07EAD3"/>
<path d="M869.912 121.935C869.652 122.827 869.725 123.771 870.12 124.622C870.514 125.473 871.207 126.182 872.092 126.64C872.977 127.097 874.004 127.278 875.014 127.154C876.025 127.03 876.961 126.608 877.679 125.954C878.397 125.299 878.857 124.448 878.987 123.533C879.116 122.619 878.909 121.691 878.396 120.893C877.884 120.096 877.095 119.474 876.152 119.123C875.209 118.773 874.165 118.713 873.181 118.955C872.39 119.14 871.669 119.514 871.094 120.039C870.519 120.563 870.11 121.218 869.912 121.935V121.935Z" fill="#59F7F7"/>
<path d="M301.488 278.679C302.738 278.675 303.748 277.754 303.743 276.623C303.739 275.492 302.722 274.578 301.472 274.582C300.221 274.586 299.212 275.507 299.216 276.638C299.221 277.769 300.238 278.683 301.488 278.679Z" fill="#07EAD3"/>
<defs>
<radialGradient id="paint0_radial_189_2213" cx="0" cy="0" r="1" gradientUnits="userSpaceOnUse" gradientTransform="translate(-15600.1 11359.6) rotate(179.809) scale(328.166 296.952)">
<stop stop-color="#00AEEF"/>
<stop offset="0.06" stop-color="#0094CB"/>
<stop offset="0.15" stop-color="#00719C"/>
<stop offset="0.24" stop-color="#005372"/>
<stop offset="0.34" stop-color="#00394F"/>
<stop offset="0.44" stop-color="#002432"/>
<stop offset="0.55" stop-color="#00141C"/>
<stop offset="0.67" stop-color="#00090C"/>
<stop offset="0.81" stop-color="#000203"/>
<stop offset="1"/>
</radialGradient>
<radialGradient id="paint1_radial_189_2213" cx="0" cy="0" r="1" gradientUnits="userSpaceOnUse" gradientTransform="translate(-15627.9 4512.13) rotate(179.809) scale(328.165 296.952)">
<stop stop-color="#00AEEF"/>
<stop offset="0.06" stop-color="#0094CB"/>
<stop offset="0.15" stop-color="#00719C"/>
<stop offset="0.24" stop-color="#005372"/>
<stop offset="0.34" stop-color="#00394F"/>
<stop offset="0.44" stop-color="#002432"/>
<stop offset="0.55" stop-color="#00141C"/>
<stop offset="0.67" stop-color="#00090C"/>
<stop offset="0.81" stop-color="#000203"/>
<stop offset="1"/>
</radialGradient>
<radialGradient id="paint2_radial_189_2213" cx="0" cy="0" r="1" gradientUnits="userSpaceOnUse" gradientTransform="translate(-8259.14 14361.8) rotate(179.863) scale(327.148 296.03)">
<stop stop-color="#00AEEF"/>
<stop offset="0.06" stop-color="#0094CB"/>
<stop offset="0.15" stop-color="#00719C"/>
<stop offset="0.24" stop-color="#005372"/>
<stop offset="0.34" stop-color="#00394F"/>
<stop offset="0.44" stop-color="#002432"/>
<stop offset="0.55" stop-color="#00141C"/>
<stop offset="0.67" stop-color="#00090C"/>
<stop offset="0.81" stop-color="#000203"/>
<stop offset="1"/>
</radialGradient>
<radialGradient id="paint3_radial_189_2213" cx="0" cy="0" r="1" gradientUnits="userSpaceOnUse" gradientTransform="translate(-9614.51 14053.7) rotate(179.863) scale(327.147 296.03)">
<stop stop-color="#00AEEF"/>
<stop offset="0.06" stop-color="#0094CB"/>
<stop offset="0.15" stop-color="#00719C"/>
<stop offset="0.24" stop-color="#005372"/>
<stop offset="0.34" stop-color="#00394F"/>
<stop offset="0.44" stop-color="#002432"/>
<stop offset="0.55" stop-color="#00141C"/>
<stop offset="0.67" stop-color="#00090C"/>
<stop offset="0.81" stop-color="#000203"/>
<stop offset="1"/>
</radialGradient>
<radialGradient id="paint4_radial_189_2213" cx="0" cy="0" r="1" gradientUnits="userSpaceOnUse" gradientTransform="translate(-2465.92 3442.4) rotate(179.863) scale(327.147 296.03)">
<stop stop-color="#00AEEF"/>
<stop offset="0.06" stop-color="#0094CB"/>
<stop offset="0.15" stop-color="#00719C"/>
<stop offset="0.24" stop-color="#005372"/>
<stop offset="0.34" stop-color="#00394F"/>
<stop offset="0.44" stop-color="#002432"/>
<stop offset="0.55" stop-color="#00141C"/>
<stop offset="0.67" stop-color="#00090C"/>
<stop offset="0.81" stop-color="#000203"/>
<stop offset="1"/>
</radialGradient>
<radialGradient id="paint5_radial_189_2213" cx="0" cy="0" r="1" gradientUnits="userSpaceOnUse" gradientTransform="translate(-9549.29 3231.44) rotate(179.863) scale(327.147 296.03)">
<stop stop-color="#00AEEF"/>
<stop offset="0.06" stop-color="#0094CB"/>
<stop offset="0.15" stop-color="#00719C"/>
<stop offset="0.24" stop-color="#005372"/>
<stop offset="0.34" stop-color="#00394F"/>
<stop offset="0.44" stop-color="#002432"/>
<stop offset="0.55" stop-color="#00141C"/>
<stop offset="0.67" stop-color="#00090C"/>
<stop offset="0.81" stop-color="#000203"/>
<stop offset="1"/>
</radialGradient>
<radialGradient id="paint6_radial_189_2213" cx="0" cy="0" r="1" gradientUnits="userSpaceOnUse" gradientTransform="translate(-9164.24 3464.23) rotate(179.863) scale(327.147 296.03)">
<stop stop-color="#00AEEF"/>
<stop offset="0.06" stop-color="#0094CB"/>
<stop offset="0.15" stop-color="#00719C"/>
<stop offset="0.24" stop-color="#005372"/>
<stop offset="0.34" stop-color="#00394F"/>
<stop offset="0.44" stop-color="#002432"/>
<stop offset="0.55" stop-color="#00141C"/>
<stop offset="0.67" stop-color="#00090C"/>
<stop offset="0.81" stop-color="#000203"/>
<stop offset="1"/>
</radialGradient>
<radialGradient id="paint7_radial_189_2213" cx="0" cy="0" r="1" gradientUnits="userSpaceOnUse" gradientTransform="translate(-9479.24 3706.23) rotate(179.863) scale(327.147 296.03)">
<stop stop-color="#00AEEF"/>
<stop offset="0.06" stop-color="#0094CB"/>
<stop offset="0.15" stop-color="#00719C"/>
<stop offset="0.24" stop-color="#005372"/>
<stop offset="0.34" stop-color="#00394F"/>
<stop offset="0.44" stop-color="#002432"/>
<stop offset="0.55" stop-color="#00141C"/>
<stop offset="0.67" stop-color="#00090C"/>
<stop offset="0.81" stop-color="#000203"/>
<stop offset="1"/>
</radialGradient>
<radialGradient id="paint8_radial_189_2213" cx="0" cy="0" r="1" gradientUnits="userSpaceOnUse" gradientTransform="translate(-19459.5 8540.23) rotate(179.908) scale(327.147 296.029)">
<stop stop-color="#00AEEF"/>
<stop offset="0.06" stop-color="#0094CB"/>
<stop offset="0.15" stop-color="#00719C"/>
<stop offset="0.24" stop-color="#005372"/>
<stop offset="0.34" stop-color="#00394F"/>
<stop offset="0.44" stop-color="#002432"/>
<stop offset="0.55" stop-color="#00141C"/>
<stop offset="0.67" stop-color="#00090C"/>
<stop offset="0.81" stop-color="#000203"/>
<stop offset="1"/>
</radialGradient>
<radialGradient id="paint9_radial_189_2213" cx="0" cy="0" r="1" gradientUnits="userSpaceOnUse" gradientTransform="translate(-4991.28 12886.5) rotate(179.809) scale(328.505 297.259)">
<stop stop-color="#00AEEF"/>
<stop offset="0.06" stop-color="#0094CB"/>
<stop offset="0.15" stop-color="#00719C"/>
<stop offset="0.24" stop-color="#005372"/>
<stop offset="0.34" stop-color="#00394F"/>
<stop offset="0.44" stop-color="#002432"/>
<stop offset="0.55" stop-color="#00141C"/>
<stop offset="0.67" stop-color="#00090C"/>
<stop offset="0.81" stop-color="#000203"/>
<stop offset="1"/>
</radialGradient>
<radialGradient id="paint10_radial_189_2213" cx="0" cy="0" r="1" gradientUnits="userSpaceOnUse" gradientTransform="translate(-3217.28 4214.98) rotate(179.863) scale(327.148 296.03)">
<stop stop-color="#00AEEF"/>
<stop offset="0.06" stop-color="#0094CB"/>
<stop offset="0.15" stop-color="#00719C"/>
<stop offset="0.24" stop-color="#005372"/>
<stop offset="0.34" stop-color="#00394F"/>
<stop offset="0.44" stop-color="#002432"/>
<stop offset="0.55" stop-color="#00141C"/>
<stop offset="0.67" stop-color="#00090C"/>
<stop offset="0.81" stop-color="#000203"/>
<stop offset="1"/>
</radialGradient>
</defs>
</svg>
