<svg width="369" height="396" viewBox="0 0 369 396" fill="none" xmlns="http://www.w3.org/2000/svg">
<path opacity="0.2" d="M163.293 279.009L116.019 251.71V215.748H117.889V250.65L164.228 277.388L163.293 279.009Z" fill="#4271E8"/>
<g style="mix-blend-mode:lighten">
<path d="M168.996 194.713C167.89 194.673 166.814 194.34 165.88 193.747L146.123 182.248L147.057 180.627L166.784 192.002C167.25 192.352 167.799 192.576 168.378 192.653C168.957 192.729 169.545 192.655 170.087 192.438C170.548 192.071 170.907 191.591 171.131 191.046C171.354 190.501 171.435 189.907 171.364 189.322V184.585C171.209 183.67 171.337 182.728 171.731 181.887C172.126 181.047 172.769 180.347 173.573 179.882C174.377 179.417 175.304 179.21 176.229 179.287C177.155 179.365 178.034 179.724 178.75 180.316L182.895 182.684L181.929 184.305L177.815 181.936C177.348 181.586 176.799 181.362 176.221 181.285C175.642 181.209 175.054 181.283 174.512 181.5C174.051 181.868 173.692 182.347 173.468 182.892C173.244 183.438 173.164 184.031 173.234 184.616V189.353C173.32 190.264 173.16 191.181 172.771 192.008C172.382 192.836 171.778 193.544 171.022 194.059C170.414 194.448 169.716 194.674 168.996 194.713Z" fill="#28FFFF"/>
</g>
<g style="mix-blend-mode:lighten">
<path d="M161.33 198.983C160.227 198.953 159.151 198.63 158.214 198.048L138.612 186.674L139.547 185.053L159.273 196.428C159.739 196.781 160.29 197.005 160.87 197.076C161.45 197.148 162.039 197.063 162.577 196.833C163.047 196.473 163.413 195.995 163.638 195.448C163.862 194.9 163.937 194.302 163.854 193.716V188.948C163.698 188.033 163.826 187.091 164.221 186.251C164.616 185.41 165.258 184.71 166.062 184.246C166.866 183.781 167.794 183.573 168.719 183.651C169.645 183.728 170.524 184.087 171.24 184.679L175.353 187.079L174.418 188.699L170.305 186.3C169.833 185.96 169.283 185.744 168.705 185.674C168.128 185.603 167.542 185.679 167.002 185.894C166.531 186.254 166.165 186.732 165.94 187.279C165.716 187.827 165.641 188.425 165.724 189.011V193.779C165.807 194.689 165.645 195.605 165.256 196.432C164.867 197.259 164.265 197.967 163.511 198.484C162.844 198.847 162.089 199.02 161.33 198.983Z" fill="#28FFFF"/>
</g>
<g style="mix-blend-mode:lighten">
<path d="M153.664 203.409C152.56 203.379 151.485 203.056 150.547 202.474L130.821 191.068L131.756 189.448L151.482 200.822C151.91 201.246 152.465 201.517 153.061 201.593C153.658 201.67 154.264 201.549 154.784 201.248C155.305 200.946 155.713 200.482 155.944 199.927C156.175 199.371 156.217 198.755 156.063 198.173V193.437C155.907 192.521 156.035 191.58 156.43 190.739C156.825 189.898 157.467 189.199 158.271 188.734C159.075 188.269 160.002 188.061 160.928 188.139C161.854 188.216 162.733 188.575 163.449 189.167L167.562 191.536L166.627 193.156L162.514 190.788C162.048 190.434 161.497 190.21 160.917 190.139C160.337 190.068 159.748 190.152 159.211 190.383C158.74 190.742 158.374 191.22 158.149 191.768C157.925 192.315 157.85 192.913 157.933 193.499V198.236C158.019 199.146 157.859 200.063 157.47 200.891C157.081 201.719 156.476 202.427 155.72 202.941C155.086 203.271 154.378 203.432 153.664 203.409Z" fill="#28FFFF"/>
</g>
<g style="mix-blend-mode:lighten">
<path d="M145.998 207.833C144.893 207.783 143.82 207.45 142.881 206.866L123.031 195.492L123.966 193.872L143.692 205.246C144.129 205.584 144.648 205.799 145.195 205.87C145.743 205.941 146.299 205.866 146.808 205.651C147.287 205.298 147.661 204.822 147.891 204.273C148.122 203.725 148.199 203.124 148.117 202.535V197.829C147.961 196.914 148.089 195.972 148.484 195.132C148.878 194.291 149.521 193.591 150.325 193.126C151.129 192.662 152.056 192.454 152.982 192.531C153.907 192.609 154.787 192.968 155.502 193.56L159.616 195.959L158.681 197.58L154.568 195.212C154.105 194.853 153.555 194.623 152.975 194.546C152.395 194.47 151.804 194.549 151.264 194.775C150.799 195.139 150.436 195.617 150.212 196.164C149.988 196.71 149.91 197.306 149.987 197.892V202.66C150.06 203.523 149.912 204.39 149.558 205.181C149.203 205.971 148.654 206.658 147.961 207.178C147.372 207.558 146.697 207.783 145.998 207.833Z" fill="#28FFFF"/>
</g>
<g style="mix-blend-mode:lighten">
<path d="M138.301 212.229C137.198 212.199 136.123 211.876 135.185 211.294L115.459 199.888L116.394 198.268L136.12 209.674C136.586 210.013 137.131 210.229 137.703 210.3C138.276 210.371 138.857 210.295 139.392 210.079C139.871 209.725 140.245 209.249 140.475 208.701C140.706 208.152 140.784 207.552 140.701 206.962V202.194C140.545 201.279 140.673 200.338 141.068 199.497C141.462 198.656 142.105 197.956 142.909 197.492C143.713 197.027 144.64 196.819 145.566 196.897C146.491 196.974 147.371 197.333 148.086 197.925L152.2 200.294L151.265 201.914L147.152 199.546C146.686 199.192 146.135 198.968 145.555 198.897C144.974 198.826 144.385 198.91 143.848 199.141C143.378 199.5 143.012 199.978 142.787 200.526C142.562 201.073 142.488 201.671 142.571 202.257V207.181C142.658 208.087 142.498 209 142.108 209.823C141.719 210.646 141.114 211.348 140.358 211.855C139.719 212.165 139.008 212.294 138.301 212.229Z" fill="#28FFFF"/>
</g>
<g style="mix-blend-mode:lighten">
<path d="M130.635 216.528C129.529 216.489 128.453 216.155 127.519 215.562L107.824 204.188L108.759 202.568L128.454 213.942C128.881 214.365 129.436 214.636 130.033 214.713C130.629 214.79 131.235 214.668 131.756 214.367C132.277 214.066 132.684 213.602 132.915 213.046C133.146 212.491 133.188 211.875 133.034 211.293V206.556C132.881 205.638 133.012 204.694 133.409 203.852C133.806 203.009 134.45 202.308 135.255 201.841C136.061 201.374 136.99 201.163 137.918 201.237C138.846 201.311 139.73 201.667 140.451 202.256L144.565 204.655L143.63 206.276L139.516 203.908C139.089 203.484 138.534 203.213 137.937 203.136C137.34 203.06 136.735 203.181 136.214 203.482C135.693 203.783 135.286 204.248 135.055 204.803C134.824 205.359 134.782 205.975 134.935 206.556V211.293C135.015 212.206 134.849 213.124 134.454 213.951C134.06 214.779 133.451 215.486 132.692 215.999C132.066 216.356 131.356 216.539 130.635 216.528Z" fill="#28FFFF"/>
</g>
<g style="mix-blend-mode:lighten">
<path d="M123.031 221.047C121.93 221.005 120.858 220.684 119.915 220.112L100.22 208.707L101.155 207.086L120.85 218.492C121.322 218.832 121.872 219.047 122.45 219.118C123.027 219.188 123.613 219.112 124.153 218.897C124.629 218.542 124.999 218.065 125.224 217.516C125.449 216.967 125.52 216.367 125.431 215.781V211.013C125.286 210.097 125.422 209.158 125.822 208.321C126.222 207.484 126.866 206.788 127.67 206.326C128.474 205.863 129.399 205.655 130.324 205.73C131.248 205.804 132.128 206.158 132.848 206.743L136.961 209.112L136.026 210.763L131.913 208.364C131.485 207.94 130.93 207.669 130.334 207.593C129.737 207.516 129.131 207.637 128.611 207.938C128.09 208.24 127.682 208.704 127.451 209.259C127.22 209.815 127.178 210.431 127.332 211.013V215.781C127.412 216.689 127.246 217.603 126.851 218.426C126.457 219.248 125.848 219.949 125.088 220.455C124.476 220.85 123.76 221.056 123.031 221.047Z" fill="#28FFFF"/>
</g>
<g style="mix-blend-mode:lighten">
<path d="M115.303 225.473C114.201 225.431 113.129 225.11 112.187 224.538L92.4917 213.133L93.4265 211.512L113.121 222.887C113.549 223.31 114.104 223.581 114.701 223.658C115.297 223.735 115.903 223.613 116.424 223.312C116.945 223.011 117.352 222.547 117.583 221.991C117.814 221.436 117.856 220.819 117.702 220.238V215.501C117.557 214.585 117.694 213.646 118.093 212.809C118.493 211.972 119.138 211.277 119.942 210.814C120.745 210.351 121.671 210.143 122.595 210.218C123.52 210.293 124.4 210.646 125.119 211.232L129.233 213.6L128.298 215.22L124.184 212.852C123.757 212.429 123.202 212.158 122.605 212.081C122.008 212.004 121.403 212.126 120.882 212.427C120.361 212.728 119.954 213.192 119.723 213.748C119.492 214.303 119.45 214.919 119.603 215.501V220.238C119.683 221.151 119.516 222.069 119.122 222.896C118.727 223.723 118.119 224.43 117.36 224.943C116.734 225.301 116.023 225.484 115.303 225.473Z" fill="#28FFFF"/>
</g>
<g style="mix-blend-mode:lighten">
<path d="M107.636 229.865C106.533 229.835 105.458 229.513 104.52 228.931L84.7939 217.556L85.7288 215.936L105.455 227.31C105.923 227.658 106.474 227.879 107.053 227.95C107.632 228.021 108.22 227.94 108.758 227.715C109.234 227.36 109.604 226.883 109.829 226.334C110.054 225.785 110.125 225.185 110.036 224.599V219.831C109.891 218.915 110.027 217.976 110.427 217.139C110.827 216.303 111.471 215.607 112.275 215.144C113.079 214.681 114.004 214.473 114.929 214.548C115.853 214.623 116.733 214.976 117.453 215.562L121.566 217.961L120.631 219.582L116.518 217.182C116.09 216.759 115.535 216.488 114.939 216.411C114.342 216.334 113.736 216.456 113.215 216.757C112.695 217.058 112.287 217.522 112.056 218.078C111.825 218.633 111.783 219.249 111.937 219.831V224.599C112.017 225.508 111.851 226.421 111.456 227.244C111.061 228.067 110.452 228.768 109.693 229.273C109.081 229.669 108.365 229.875 107.636 229.865Z" fill="#28FFFF"/>
</g>
<g style="mix-blend-mode:lighten">
<path d="M99.9703 234.29C98.8671 234.259 97.7917 233.937 96.854 233.355L77.1279 221.949L78.0629 220.329L97.7889 231.703C98.2719 232.071 98.8447 232.302 99.4476 232.374C100.05 232.445 100.661 232.353 101.217 232.108C101.687 231.749 102.054 231.271 102.278 230.723C102.503 230.176 102.577 229.578 102.495 228.992V224.318C102.339 223.402 102.467 222.461 102.861 221.62C103.256 220.779 103.899 220.079 104.703 219.615C105.507 219.15 106.434 218.942 107.359 219.02C108.285 219.097 109.165 219.456 109.88 220.048L114.025 222.417L113.09 224.037L108.945 221.669C108.492 221.302 107.946 221.07 107.367 220.998C106.789 220.926 106.202 221.018 105.673 221.264C105.195 221.617 104.82 222.093 104.59 222.642C104.36 223.19 104.282 223.791 104.364 224.38V228.992C104.451 229.898 104.292 230.811 103.902 231.634C103.513 232.457 102.908 233.159 102.152 233.666C101.496 234.071 100.741 234.287 99.9703 234.29Z" fill="#28FFFF"/>
</g>
<g style="mix-blend-mode:lighten">
<path d="M92.3043 238.717C91.1999 238.667 90.1269 238.335 89.188 237.751L69.4619 226.377L70.3968 224.756L90.1229 236.131C90.5884 236.484 91.1394 236.708 91.7197 236.78C92.3001 236.851 92.8889 236.767 93.4261 236.536C93.8965 236.176 94.2628 235.698 94.4874 235.151C94.7119 234.603 94.7866 234.006 94.7038 233.419V228.652C94.5479 227.736 94.6759 226.795 95.0706 225.954C95.4654 225.113 96.1079 224.413 96.912 223.949C97.7161 223.484 98.6431 223.276 99.5686 223.354C100.494 223.431 101.374 223.79 102.089 224.382L106.234 226.782L105.268 228.402L101.155 226.034C100.694 225.683 100.15 225.459 99.5762 225.382C99.0025 225.306 98.4188 225.38 97.8824 225.598C97.4038 225.951 97.0296 226.427 96.7992 226.976C96.5688 227.524 96.4909 228.125 96.5736 228.714V233.482C96.6596 234.392 96.4996 235.309 96.1105 236.137C95.7213 236.965 95.1171 237.673 94.361 238.187C93.7325 238.538 93.0241 238.721 92.3043 238.717Z" fill="#28FFFF"/>
</g>
<g style="mix-blend-mode:lighten">
<path d="M84.6382 243.112C83.535 243.082 82.4596 242.759 81.5219 242.177L61.7959 230.771L62.7307 229.151L82.5192 240.525C82.9859 240.876 83.535 241.1 84.1136 241.176C84.6922 241.253 85.2807 241.179 85.8224 240.962C86.2928 240.602 86.6591 240.124 86.8836 239.577C87.1082 239.029 87.1829 238.431 87.1001 237.845V233.077C86.9442 232.162 87.0722 231.22 87.4669 230.38C87.8616 229.539 88.5043 228.839 89.3083 228.374C90.1124 227.91 91.0395 227.702 91.965 227.78C92.8905 227.857 93.7701 228.216 94.4857 228.808L98.6304 231.176L97.6642 232.797L93.5508 230.428C93.0853 230.075 92.5342 229.851 91.9539 229.78C91.3735 229.708 90.7848 229.793 90.2476 230.023C89.7772 230.383 89.4109 230.861 89.1863 231.408C88.9618 231.956 88.8871 232.554 88.9699 233.14V237.908C89.0568 238.814 88.8971 239.727 88.5076 240.55C88.1181 241.373 87.5133 242.075 86.7573 242.582C86.1165 242.959 85.3808 243.143 84.6382 243.112Z" fill="#28FFFF"/>
</g>
<g style="mix-blend-mode:lighten">
<path d="M76.9731 247.69C75.867 247.651 74.7914 247.317 73.8568 246.724L54.0996 235.225L55.0345 233.605L74.7606 244.979C75.2273 245.329 75.7765 245.554 76.355 245.63C76.9336 245.706 77.5221 245.632 78.0638 245.415C78.5247 245.048 78.884 244.568 79.1076 244.023C79.3312 243.478 79.4117 242.884 79.3415 242.299V237.562C79.2555 236.652 79.4154 235.735 79.8046 234.907C80.1937 234.079 80.7979 233.371 81.554 232.857C82.3741 232.451 83.2896 232.277 84.2014 232.354C85.1132 232.431 85.9866 232.755 86.7271 233.293L90.8406 235.661L89.9057 237.282L85.7921 234.913C85.3254 234.563 84.7763 234.339 84.1977 234.262C83.6191 234.186 83.0306 234.26 82.4889 234.477C82.0281 234.845 81.6688 235.324 81.4452 235.869C81.2215 236.415 81.141 237.008 81.2112 237.593V242.33C81.2972 243.241 81.1373 244.158 80.7482 244.985C80.359 245.813 79.7548 246.521 78.9987 247.036C78.3913 247.425 77.6935 247.651 76.9731 247.69Z" fill="#28FFFF"/>
</g>
<g style="mix-blend-mode:lighten">
<path d="M69.3068 251.928C68.2035 251.898 67.1281 251.575 66.1905 250.993L46.4644 239.588L47.3993 237.967L67.1253 249.373C67.5529 249.796 68.1077 250.067 68.7045 250.144C69.3012 250.221 69.9067 250.099 70.4275 249.798C70.9484 249.497 71.3557 249.033 71.5868 248.477C71.8179 247.922 71.8599 247.306 71.7063 246.724V241.956C71.5503 241.041 71.6783 240.099 72.0731 239.259C72.4678 238.418 73.1104 237.718 73.9145 237.253C74.7186 236.789 75.6457 236.581 76.5712 236.658C77.4967 236.736 78.3763 237.095 79.0918 237.687L83.2053 240.055L82.2705 241.707L78.157 239.307C77.7294 238.884 77.1746 238.613 76.5778 238.536C75.9811 238.459 75.3756 238.581 74.8548 238.882C74.3339 239.183 73.9266 239.647 73.6955 240.203C73.4644 240.758 73.4224 241.374 73.576 241.956V246.724C73.663 247.63 73.5033 248.543 73.1138 249.366C72.7243 250.189 72.1195 250.891 71.3635 251.399C70.7409 251.764 70.0284 251.947 69.3068 251.928Z" fill="#28FFFF"/>
</g>
<g style="mix-blend-mode:lighten">
<path d="M61.6088 256.354C60.5027 256.314 59.4271 255.981 58.4926 255.388L38.8911 244.014L39.826 242.393L59.5521 253.768C60.0127 254.118 60.5567 254.343 61.1304 254.419C61.7041 254.496 62.2878 254.421 62.8241 254.204C63.2953 253.844 63.6641 253.367 63.8937 252.82C64.1234 252.273 64.2058 251.676 64.133 251.088V246.351C63.9771 245.435 64.1051 244.494 64.4998 243.653C64.8946 242.812 65.5371 242.113 66.3412 241.648C67.1453 241.183 68.0723 240.975 68.9978 241.053C69.9233 241.13 70.803 241.489 71.5186 242.081L75.6321 244.45L74.6972 246.07L70.5837 243.702C70.117 243.352 69.5679 243.127 68.9893 243.051C68.4107 242.975 67.8221 243.048 67.2804 243.266C66.8196 243.633 66.4604 244.112 66.2368 244.658C66.0131 245.203 65.9326 245.797 66.0028 246.382V251.119C66.0888 252.029 65.9288 252.946 65.5397 253.774C65.1505 254.602 64.5463 255.31 63.7902 255.824C63.1244 256.195 62.3705 256.378 61.6088 256.354Z" fill="#28FFFF"/>
</g>
<g style="mix-blend-mode:lighten">
<path d="M53.9434 260.747C52.8421 260.705 51.7695 260.383 50.8272 259.812L31.1323 248.437L32.0672 246.786L51.7621 258.191C52.2304 258.539 52.7811 258.76 53.3602 258.831C53.9393 258.902 54.5269 258.821 55.0653 258.597C55.5439 258.243 55.9182 257.767 56.1486 257.218C56.3789 256.67 56.4568 256.069 56.3741 255.48V250.806C56.2182 249.89 56.3463 248.949 56.741 248.108C57.1358 247.267 57.7783 246.568 58.5824 246.103C59.3865 245.638 60.3135 245.431 61.239 245.508C62.1646 245.586 63.0442 245.944 63.7598 246.537L67.8732 248.936L66.9384 250.557L62.8249 248.157C62.3527 247.817 61.8025 247.602 61.2252 247.531C60.6478 247.46 60.0619 247.536 59.5216 247.752C59.0512 248.111 58.6849 248.589 58.4604 249.137C58.2358 249.685 58.1611 250.282 58.2439 250.868V255.636C58.32 256.549 58.1524 257.465 57.7581 258.292C57.3639 259.119 56.7573 259.826 56.0002 260.342C55.363 260.658 54.6529 260.798 53.9434 260.747Z" fill="#28FFFF"/>
</g>
<g style="mix-blend-mode:lighten">
<path d="M46.2766 265.172C45.1752 265.131 44.1027 264.809 43.1603 264.237L23.3096 252.832L24.2444 251.211L43.9393 262.586C44.3669 263.009 44.9218 263.28 45.5185 263.357C46.1152 263.434 46.7207 263.312 47.2415 263.011C47.7624 262.71 48.1698 262.246 48.4008 261.69C48.6319 261.135 48.6739 260.519 48.5203 259.937V255.2C48.3751 254.284 48.5115 253.346 48.9113 252.509C49.3112 251.672 49.9556 250.976 50.7594 250.513C51.5633 250.05 52.4886 249.843 53.4132 249.917C54.3377 249.992 55.2178 250.345 55.937 250.931L60.0506 253.299L59.1156 254.92L55.0022 252.551C54.5747 252.128 54.0197 251.857 53.4229 251.78C52.8262 251.703 52.2208 251.825 51.6999 252.126C51.179 252.427 50.7717 252.891 50.5406 253.447C50.3095 254.002 50.2677 254.618 50.4213 255.2V259.937C50.5006 260.85 50.3344 261.768 49.94 262.595C49.5455 263.422 48.937 264.129 48.1775 264.642C47.5977 264.974 46.9444 265.156 46.2766 265.172Z" fill="#28FFFF"/>
</g>
<g style="mix-blend-mode:lighten">
<path d="M38.611 269.506C37.5073 269.452 36.4352 269.12 35.4947 268.54L15.7686 257.166L16.7347 255.545L36.4295 266.92C36.8571 267.343 37.4119 267.614 38.0087 267.691C38.6054 267.768 39.2109 267.646 39.7317 267.345C40.2526 267.044 40.6599 266.58 40.891 266.024C41.1221 265.469 41.1641 264.853 41.0105 264.271V259.503C40.8653 258.587 41.0017 257.648 41.4015 256.811C41.8013 255.974 42.4458 255.279 43.2496 254.816C44.0535 254.353 44.9788 254.145 45.9033 254.22C46.8278 254.295 47.708 254.648 48.4272 255.234L52.5407 257.633L51.6058 259.254L47.4924 256.885C47.0256 256.535 46.4765 256.311 45.8979 256.234C45.3193 256.158 44.7308 256.232 44.1891 256.449C43.7137 256.804 43.3435 257.281 43.1185 257.83C42.8934 258.379 42.8219 258.979 42.9114 259.565V264.333C42.9908 265.246 42.8246 266.164 42.4301 266.991C42.0356 267.819 41.4272 268.526 40.6677 269.039C40.036 269.375 39.3259 269.536 38.611 269.506Z" fill="#28FFFF"/>
</g>
<g style="mix-blend-mode:lighten">
<path d="M30.9449 273.992C29.8417 273.962 28.7663 273.64 27.8287 273.058L8.10254 261.652L9.03748 260.031L28.7635 271.406C29.2302 271.756 29.7794 271.98 30.358 272.057C30.9366 272.133 31.5251 272.059 32.0668 271.842C32.5422 271.487 32.9123 271.01 33.1373 270.461C33.3624 269.912 33.434 269.312 33.3444 268.726V263.958C33.1993 263.042 33.3357 262.103 33.7355 261.266C34.1353 260.429 34.7798 259.734 35.5836 259.271C36.3874 258.808 37.3128 258.6 38.2373 258.675C39.1618 258.75 40.0419 259.103 40.7612 259.689L44.8747 262.057L43.9398 263.678L39.8263 261.309C39.3987 260.886 38.8438 260.615 38.2471 260.538C37.6504 260.461 37.0449 260.583 36.5241 260.884C36.0032 261.185 35.5958 261.649 35.3648 262.205C35.1337 262.76 35.0917 263.376 35.2453 263.958V268.726C35.3256 269.635 35.1597 270.548 34.7649 271.371C34.3701 272.193 33.7609 272.894 33.0016 273.4C32.3869 273.791 31.6731 273.996 30.9449 273.992Z" fill="#28FFFF"/>
</g>
<g style="mix-blend-mode:lighten">
<path d="M23.3111 278.418C22.2067 278.368 21.1336 278.035 20.1948 277.452L0.46875 266.077L1.4036 264.457L21.1296 275.831C21.5951 276.185 22.1462 276.409 22.7266 276.48C23.3069 276.551 23.8957 276.467 24.4329 276.236C24.9033 275.877 25.2696 275.399 25.4941 274.851C25.7187 274.304 25.7934 273.706 25.7106 273.12V268.383C25.5472 267.462 25.6718 266.513 26.0673 265.665C26.4628 264.818 27.11 264.112 27.9207 263.646C28.7314 263.179 29.6663 262.974 30.598 263.057C31.5297 263.141 32.4129 263.51 33.1273 264.114L37.2408 266.482L36.306 268.103L32.1613 265.734C31.7007 265.384 31.1567 265.159 30.583 265.083C30.0093 265.006 29.4256 265.081 28.8892 265.298C28.418 265.658 28.0492 266.135 27.8196 266.682C27.59 267.229 27.5075 267.826 27.5803 268.414V273.151C27.6664 274.062 27.5065 274.979 27.1173 275.806C26.7281 276.634 26.1239 277.342 25.3678 277.857C24.7423 278.218 24.0336 278.412 23.3111 278.418Z" fill="#28FFFF"/>
</g>
<g style="mix-blend-mode:lighten">
<path d="M200.408 194.932C199.697 194.946 198.996 194.762 198.383 194.403C197.627 193.895 197.022 193.193 196.633 192.37C196.243 191.547 196.083 190.634 196.17 189.728V184.96C196.253 184.374 196.178 183.777 195.954 183.229C195.729 182.681 195.363 182.203 194.893 181.844C194.355 181.613 193.767 181.529 193.186 181.6C192.606 181.671 192.055 181.895 191.589 182.249L187.476 184.617L186.51 182.997L190.623 180.598C191.376 180.072 192.255 179.757 193.17 179.685C194.085 179.614 195.003 179.789 195.827 180.192C196.583 180.7 197.188 181.402 197.578 182.225C197.967 183.048 198.127 183.961 198.04 184.867V189.635C197.886 190.216 197.928 190.833 198.159 191.388C198.391 191.944 198.798 192.408 199.319 192.709C199.84 193.01 200.445 193.132 201.042 193.055C201.639 192.978 202.193 192.707 202.621 192.284L222.347 180.909L223.282 182.53L203.556 193.904C202.619 194.524 201.531 194.88 200.408 194.932Z" fill="#28FFFF"/>
</g>
<g style="mix-blend-mode:lighten">
<path d="M208.075 199.358C207.366 199.356 206.669 199.174 206.049 198.828C205.293 198.321 204.689 197.619 204.299 196.796C203.91 195.973 203.75 195.06 203.837 194.154V189.386C203.92 188.8 203.845 188.202 203.62 187.654C203.396 187.107 203.03 186.629 202.559 186.269C202.022 186.039 201.433 185.954 200.853 186.026C200.272 186.097 199.721 186.321 199.256 186.675L195.142 189.043L194.208 187.422L198.321 185.054C199.037 184.462 199.916 184.103 200.842 184.026C201.767 183.948 202.694 184.156 203.498 184.62C204.302 185.085 204.945 185.785 205.34 186.626C205.735 187.466 205.863 188.408 205.707 189.323V194.091C205.624 194.677 205.699 195.275 205.923 195.823C206.148 196.37 206.514 196.848 206.984 197.208C207.526 197.425 208.114 197.499 208.693 197.422C209.272 197.346 209.821 197.122 210.288 196.771L230.014 185.397L230.949 187.017L211.222 198.423C210.276 199.01 209.189 199.333 208.075 199.358Z" fill="#28FFFF"/>
</g>
<g style="mix-blend-mode:lighten">
<path d="M215.741 203.783C215.032 203.781 214.335 203.599 213.715 203.253C212.959 202.738 212.355 202.03 211.966 201.203C211.577 200.375 211.417 199.458 211.503 198.547V193.779C211.586 193.193 211.511 192.596 211.286 192.048C211.062 191.5 210.696 191.022 210.225 190.663C209.684 190.446 209.095 190.372 208.516 190.448C207.938 190.525 207.389 190.749 206.922 191.099L202.808 193.468L201.874 191.847L205.987 189.448C206.705 188.836 207.596 188.463 208.535 188.379C209.475 188.296 210.418 188.506 211.232 188.982C212.047 189.458 212.694 190.175 213.083 191.035C213.472 191.894 213.584 192.853 213.404 193.779V198.547C213.321 199.133 213.396 199.731 213.62 200.279C213.845 200.826 214.211 201.304 214.682 201.664C215.219 201.894 215.808 201.979 216.388 201.907C216.968 201.836 217.519 201.612 217.985 201.259L237.711 189.884L238.646 191.505L218.92 202.879C217.957 203.451 216.861 203.763 215.741 203.783Z" fill="#28FFFF"/>
</g>
<g style="mix-blend-mode:lighten">
<path d="M223.438 208.178C222.717 208.195 222.005 208.012 221.381 207.648C220.625 207.141 220.021 206.439 219.631 205.616C219.242 204.793 219.082 203.88 219.169 202.974V198.206C219.252 197.62 219.177 197.022 218.952 196.475C218.728 195.927 218.362 195.449 217.891 195.09C217.354 194.859 216.765 194.775 216.185 194.846C215.604 194.917 215.053 195.141 214.588 195.495L210.474 197.863L209.54 196.243L213.653 193.874C214.369 193.282 215.248 192.923 216.174 192.846C217.099 192.768 218.026 192.976 218.83 193.441C219.634 193.906 220.277 194.605 220.672 195.446C221.066 196.287 221.195 197.228 221.039 198.144V202.912C220.895 203.491 220.945 204.101 221.18 204.65C221.415 205.198 221.822 205.655 222.34 205.951C222.858 206.247 223.459 206.366 224.051 206.29C224.642 206.214 225.193 205.947 225.62 205.529L245.346 194.155L246.28 195.775L226.554 207.181C225.623 207.785 224.547 208.129 223.438 208.178Z" fill="#28FFFF"/>
</g>
<g style="mix-blend-mode:lighten">
<path d="M231.104 212.603C230.385 212.605 229.676 212.422 229.047 212.073C228.296 211.554 227.696 210.845 227.307 210.018C226.918 209.192 226.755 208.277 226.835 207.367V202.63C226.905 202.045 226.825 201.452 226.601 200.906C226.377 200.361 226.018 199.882 225.557 199.514C225.015 199.297 224.427 199.223 223.848 199.299C223.27 199.376 222.721 199.6 222.254 199.95L218.14 202.319L217.206 200.698L221.319 198.33C222.06 197.792 222.933 197.468 223.845 197.391C224.757 197.314 225.672 197.488 226.492 197.894C227.248 198.408 227.852 199.116 228.242 199.944C228.631 200.772 228.791 201.689 228.705 202.599V207.336C228.632 207.925 228.714 208.522 228.944 209.069C229.174 209.615 229.542 210.092 230.013 210.452C230.55 210.67 231.134 210.744 231.707 210.668C232.281 210.591 232.825 210.367 233.286 210.016L253.012 198.642L253.947 200.262L234.252 211.637C233.308 212.235 232.221 212.569 231.104 212.603Z" fill="#28FFFF"/>
</g>
<g style="mix-blend-mode:lighten">
<path d="M238.77 216.995C238.058 217.016 237.354 216.832 236.744 216.465C235.985 215.959 235.376 215.258 234.981 214.436C234.586 213.613 234.42 212.699 234.5 211.791V207.178C234.59 206.592 234.518 205.992 234.293 205.443C234.068 204.894 233.698 204.417 233.223 204.062C232.684 203.838 232.097 203.757 231.518 203.828C230.938 203.899 230.388 204.119 229.919 204.467L225.806 206.867L224.871 205.215L228.985 202.847C229.704 202.261 230.584 201.908 231.509 201.833C232.433 201.759 233.358 201.966 234.162 202.429C234.966 202.892 235.61 203.588 236.01 204.425C236.41 205.261 236.547 206.2 236.401 207.116V211.884C236.312 212.471 236.383 213.07 236.608 213.619C236.833 214.168 237.204 214.646 237.679 215C238.218 215.225 238.805 215.306 239.384 215.235C239.963 215.164 240.514 214.943 240.982 214.595L260.677 203.19L261.612 204.81L241.917 216.216C240.951 216.738 239.868 217.006 238.77 216.995Z" fill="#28FFFF"/>
</g>
<g style="mix-blend-mode:lighten">
<path d="M246.436 221.422C245.726 221.428 245.027 221.245 244.411 220.892C243.651 220.379 243.043 219.672 242.648 218.845C242.254 218.018 242.088 217.1 242.167 216.187V211.45C242.321 210.868 242.279 210.252 242.047 209.697C241.816 209.141 241.409 208.677 240.888 208.376C240.367 208.075 239.762 207.953 239.165 208.03C238.568 208.107 238.014 208.378 237.586 208.801L233.472 211.17L232.538 209.549L236.651 207.181C237.37 206.595 238.25 206.242 239.175 206.167C240.099 206.093 241.025 206.3 241.829 206.763C242.632 207.226 243.277 207.922 243.677 208.759C244.077 209.595 244.213 210.534 244.068 211.45V216.187C243.914 216.769 243.956 217.385 244.187 217.94C244.418 218.496 244.826 218.96 245.347 219.261C245.867 219.562 246.473 219.684 247.07 219.607C247.666 219.53 248.221 219.259 248.649 218.836L268.344 207.461L269.31 209.082L249.584 220.456C248.64 221.054 247.553 221.388 246.436 221.422Z" fill="#28FFFF"/>
</g>
<g style="mix-blend-mode:lighten">
<path d="M254.102 225.875C253.39 225.897 252.686 225.713 252.076 225.345C251.317 224.84 250.708 224.139 250.313 223.316C249.918 222.494 249.752 221.58 249.832 220.671V215.903C249.922 215.317 249.85 214.717 249.625 214.168C249.4 213.619 249.03 213.142 248.555 212.787C248.014 212.571 247.429 212.495 246.851 212.566C246.274 212.637 245.724 212.852 245.251 213.192L241.138 215.591L240.203 213.971L244.317 211.571C245.036 210.986 245.916 210.632 246.84 210.558C247.765 210.483 248.69 210.691 249.494 211.154C250.298 211.616 250.943 212.312 251.342 213.149C251.742 213.986 251.878 214.925 251.733 215.841V220.609C251.644 221.195 251.715 221.795 251.94 222.344C252.165 222.893 252.536 223.37 253.011 223.725C253.549 223.95 254.137 224.03 254.716 223.959C255.295 223.888 255.846 223.668 256.314 223.32L276.04 211.945L276.975 213.566L257.249 224.94C256.298 225.517 255.214 225.839 254.102 225.875Z" fill="#28FFFF"/>
</g>
<g style="mix-blend-mode:lighten">
<path d="M261.768 230.24C261.058 230.243 260.36 230.06 259.742 229.711C258.985 229.202 258.378 228.501 257.984 227.679C257.589 226.857 257.421 225.945 257.498 225.036V220.268C257.588 219.682 257.516 219.082 257.291 218.533C257.066 217.984 256.696 217.507 256.221 217.152C255.692 216.907 255.105 216.815 254.527 216.886C253.948 216.958 253.402 217.19 252.949 217.557L248.804 219.926L247.869 218.305L251.983 215.937C252.702 215.351 253.582 214.998 254.507 214.923C255.431 214.848 256.356 215.056 257.16 215.519C257.964 215.982 258.609 216.678 259.008 217.514C259.408 218.351 259.545 219.29 259.399 220.206V224.974C259.313 225.56 259.386 226.159 259.611 226.707C259.836 227.255 260.204 227.733 260.677 228.09C261.219 228.307 261.807 228.381 262.386 228.305C262.964 228.228 263.514 228.004 263.98 227.654L283.706 216.279L284.641 217.9L264.915 229.306C263.968 229.893 262.882 230.216 261.768 230.24Z" fill="#28FFFF"/>
</g>
<g style="mix-blend-mode:lighten">
<path d="M269.496 234.666C268.787 234.664 268.09 234.482 267.471 234.136C266.715 233.622 266.11 232.914 265.721 232.086C265.332 231.258 265.172 230.341 265.258 229.431V224.663C265.401 224.084 265.352 223.473 265.117 222.925C264.882 222.376 264.475 221.919 263.957 221.623C263.439 221.327 262.838 221.208 262.246 221.284C261.654 221.36 261.104 221.628 260.677 222.045L256.564 224.413L255.598 222.793L259.711 220.393C260.462 219.864 261.342 219.548 262.258 219.476C263.173 219.405 264.092 219.582 264.915 219.988C265.671 220.496 266.276 221.198 266.666 222.021C267.055 222.844 267.215 223.757 267.128 224.663V229.431C267.045 230.017 267.12 230.614 267.344 231.162C267.569 231.71 267.935 232.188 268.406 232.547C268.943 232.778 269.532 232.862 270.112 232.791C270.692 232.72 271.243 232.496 271.709 232.142L291.435 220.767L292.37 222.388L272.613 233.7C271.674 234.284 270.601 234.616 269.496 234.666Z" fill="#28FFFF"/>
</g>
<g style="mix-blend-mode:lighten">
<path d="M277.1 239.059C276.389 239.072 275.688 238.889 275.074 238.529C274.318 238.022 273.713 237.32 273.324 236.497C272.934 235.674 272.775 234.761 272.862 233.855V228.993C272.944 228.404 272.866 227.803 272.636 227.255C272.406 226.706 272.031 226.23 271.553 225.877C271.024 225.632 270.437 225.54 269.859 225.611C269.28 225.683 268.734 225.915 268.281 226.282L264.167 228.65L263.201 227.03L267.346 224.662C268.061 224.069 268.941 223.711 269.867 223.633C270.792 223.556 271.719 223.763 272.523 224.228C273.327 224.693 273.97 225.393 274.365 226.233C274.759 227.074 274.887 228.015 274.731 228.931V233.699C274.649 234.285 274.723 234.882 274.948 235.43C275.172 235.978 275.539 236.456 276.009 236.815C276.551 237.032 277.139 237.106 277.718 237.03C278.296 236.953 278.846 236.729 279.312 236.379L299.038 225.004L299.973 226.625L280.247 238.03C279.31 238.651 278.222 239.006 277.1 239.059Z" fill="#28FFFF"/>
</g>
<g style="mix-blend-mode:lighten">
<path d="M284.766 243.485C284.057 243.484 283.36 243.301 282.741 242.956C281.985 242.441 281.38 241.733 280.991 240.905C280.602 240.078 280.442 239.161 280.528 238.25V233.513C280.598 232.928 280.518 232.335 280.294 231.789C280.071 231.244 279.711 230.765 279.251 230.397C278.709 230.18 278.12 230.106 277.542 230.182C276.963 230.259 276.414 230.483 275.947 230.833L271.834 233.202L270.899 231.581L275.012 229.213C275.753 228.675 276.626 228.351 277.538 228.274C278.45 228.197 279.365 228.371 280.185 228.777C280.942 229.291 281.546 229.999 281.935 230.827C282.324 231.655 282.484 232.572 282.398 233.482V238.344C282.315 238.93 282.39 239.527 282.614 240.075C282.839 240.623 283.205 241.101 283.676 241.46C284.213 241.691 284.802 241.775 285.382 241.704C285.962 241.632 286.513 241.408 286.979 241.055L306.705 229.68L307.64 231.301L287.914 242.675C286.951 243.209 285.867 243.488 284.766 243.485Z" fill="#28FFFF"/>
</g>
<g style="mix-blend-mode:lighten">
<path d="M292.432 247.879C291.721 247.892 291.02 247.709 290.407 247.35C289.651 246.842 289.046 246.14 288.657 245.317C288.267 244.494 288.107 243.581 288.194 242.675V237.907C288.277 237.321 288.202 236.724 287.978 236.176C287.753 235.628 287.387 235.15 286.917 234.791C286.379 234.56 285.79 234.476 285.21 234.547C284.63 234.618 284.079 234.842 283.613 235.196L279.5 237.596L278.565 235.944L282.678 233.576C283.394 232.984 284.274 232.625 285.199 232.547C286.125 232.47 287.052 232.677 287.856 233.142C288.66 233.607 289.302 234.307 289.697 235.147C290.092 235.988 290.22 236.929 290.064 237.845V242.613C289.91 243.195 289.952 243.811 290.183 244.366C290.415 244.922 290.822 245.386 291.343 245.687C291.864 245.988 292.469 246.11 293.066 246.033C293.663 245.956 294.217 245.685 294.645 245.262L314.371 233.856L315.306 235.508L295.58 246.882C294.639 247.491 293.552 247.836 292.432 247.879Z" fill="#28FFFF"/>
</g>
<g style="mix-blend-mode:lighten">
<path d="M300.098 252.303C299.389 252.301 298.692 252.119 298.073 251.773C297.317 251.259 296.713 250.551 296.323 249.723C295.934 248.895 295.774 247.978 295.86 247.068V242.331C295.93 241.746 295.85 241.152 295.626 240.607C295.403 240.062 295.043 239.582 294.583 239.215C294.041 238.998 293.452 238.924 292.874 239C292.295 239.077 291.746 239.301 291.279 239.651L287.166 242.019L286.231 240.399L290.344 238.031C291.06 237.439 291.94 237.08 292.865 237.002C293.791 236.925 294.718 237.132 295.522 237.597C296.326 238.062 296.968 238.762 297.363 239.602C297.758 240.443 297.886 241.384 297.73 242.3V247.037C297.657 247.625 297.74 248.222 297.969 248.769C298.199 249.316 298.568 249.793 299.039 250.153C299.554 250.342 300.108 250.402 300.652 250.326C301.195 250.249 301.712 250.04 302.155 249.717L321.881 238.342L322.816 239.963L303.09 251.337C302.192 251.91 301.162 252.242 300.098 252.303Z" fill="#28FFFF"/>
</g>
<g style="mix-blend-mode:lighten">
<path d="M307.796 256.698C307.084 256.719 306.38 256.536 305.77 256.168C305.011 255.662 304.402 254.961 304.007 254.139C303.612 253.316 303.446 252.402 303.526 251.494V246.726C303.68 246.144 303.638 245.528 303.407 244.972C303.176 244.417 302.768 243.953 302.248 243.652C301.727 243.35 301.121 243.229 300.525 243.306C299.928 243.383 299.373 243.654 298.945 244.077L294.832 246.476L293.897 244.856L298.01 242.456C298.726 241.864 299.606 241.505 300.531 241.428C301.457 241.35 302.384 241.558 303.188 242.023C303.992 242.488 304.635 243.187 305.029 244.028C305.424 244.869 305.552 245.81 305.396 246.726V251.494C305.313 252.083 305.391 252.683 305.622 253.232C305.852 253.78 306.226 254.257 306.705 254.61C307.234 254.855 307.821 254.947 308.399 254.876C308.977 254.804 309.524 254.572 309.977 254.205L329.703 242.799L330.638 244.451L310.943 255.825C309.986 256.38 308.902 256.68 307.796 256.698Z" fill="#28FFFF"/>
</g>
<g style="mix-blend-mode:lighten">
<path d="M315.461 261.121C314.751 261.127 314.052 260.944 313.436 260.592C312.676 260.079 312.068 259.372 311.673 258.544C311.279 257.717 311.112 256.799 311.192 255.886V251.149C311.345 250.568 311.303 249.952 311.072 249.396C310.841 248.841 310.434 248.376 309.913 248.075C309.392 247.774 308.787 247.653 308.19 247.729C307.593 247.806 307.038 248.077 306.611 248.501L302.497 250.869L301.562 249.248L305.676 246.88C306.395 246.294 307.275 245.941 308.2 245.866C309.124 245.792 310.05 246 310.854 246.462C311.657 246.925 312.302 247.621 312.702 248.458C313.102 249.295 313.238 250.233 313.093 251.149V255.886C312.939 256.468 312.981 257.084 313.212 257.639C313.443 258.195 313.851 258.659 314.371 258.96C314.892 259.261 315.498 259.383 316.094 259.306C316.691 259.229 317.246 258.958 317.674 258.535L337.369 247.161L338.303 248.781L318.609 260.155C317.665 260.754 316.578 261.087 315.461 261.121Z" fill="#28FFFF"/>
</g>
<g style="mix-blend-mode:lighten">
<path d="M323.127 265.549C322.417 265.554 321.718 265.372 321.102 265.019C320.342 264.506 319.734 263.799 319.339 262.972C318.945 262.144 318.778 261.227 318.858 260.314V255.546C318.947 254.959 318.876 254.359 318.651 253.811C318.426 253.262 318.056 252.784 317.58 252.429C317.038 252.212 316.45 252.138 315.871 252.215C315.293 252.291 314.744 252.515 314.277 252.866L310.163 255.234L309.229 253.614L313.342 251.214C314.061 250.628 314.941 250.275 315.866 250.2C316.79 250.126 317.716 250.334 318.52 250.796C319.323 251.259 319.968 251.955 320.368 252.792C320.768 253.629 320.904 254.567 320.759 255.483V260.251C320.605 260.833 320.647 261.449 320.878 262.005C321.109 262.56 321.517 263.024 322.037 263.325C322.558 263.627 323.164 263.748 323.76 263.671C324.357 263.594 324.912 263.323 325.34 262.9L345.035 251.526L345.97 253.146L326.275 264.521C325.331 265.127 324.247 265.482 323.127 265.549Z" fill="#28FFFF"/>
</g>
<g style="mix-blend-mode:lighten">
<path d="M330.793 269.942C330.07 269.987 329.349 269.837 328.705 269.506C327.946 269 327.337 268.299 326.942 267.476C326.547 266.654 326.381 265.74 326.461 264.831V260.063C326.615 259.482 326.573 258.866 326.342 258.31C326.111 257.755 325.703 257.29 325.183 256.989C324.662 256.688 324.056 256.567 323.46 256.643C322.863 256.72 322.308 256.991 321.88 257.415L317.767 259.783L316.832 258.163L320.946 255.794C321.665 255.209 322.545 254.855 323.469 254.78C324.394 254.706 325.319 254.914 326.123 255.376C326.927 255.839 327.571 256.535 327.971 257.372C328.371 258.209 328.507 259.147 328.362 260.063V264.831C328.273 265.418 328.344 266.018 328.569 266.567C328.794 267.115 329.164 267.593 329.64 267.948C330.18 268.171 330.77 268.248 331.35 268.172C331.93 268.095 332.479 267.867 332.943 267.511L352.638 256.137L353.604 257.757L333.878 269.163C332.93 269.675 331.87 269.943 330.793 269.942Z" fill="#28FFFF"/>
</g>
<g style="mix-blend-mode:lighten">
<path d="M338.461 274.366C337.751 274.365 337.054 274.182 336.435 273.837C335.679 273.322 335.075 272.614 334.686 271.786C334.296 270.959 334.136 270.042 334.222 269.131V264.394C334.361 263.812 334.307 263.201 334.07 262.652C333.833 262.103 333.424 261.646 332.905 261.348C332.387 261.05 331.786 260.928 331.192 260.999C330.598 261.071 330.043 261.333 329.61 261.745L325.497 264.114L324.562 262.493L328.707 260.156C329.447 259.619 330.321 259.294 331.232 259.217C332.144 259.14 333.06 259.314 333.88 259.72C334.639 260.233 335.248 260.94 335.642 261.767C336.037 262.595 336.203 263.512 336.123 264.425V269.162C336.041 269.748 336.115 270.346 336.34 270.894C336.564 271.441 336.931 271.919 337.401 272.279C337.938 272.509 338.527 272.594 339.107 272.522C339.688 272.451 340.239 272.227 340.704 271.873L360.43 260.499L361.365 262.119L341.639 273.494C340.673 274.055 339.578 274.356 338.461 274.366Z" fill="#28FFFF"/>
</g>
<g style="mix-blend-mode:lighten">
<path d="M346.127 278.854C345.416 278.867 344.715 278.684 344.101 278.324C343.345 277.817 342.74 277.115 342.351 276.292C341.961 275.469 341.802 274.556 341.889 273.65V268.882C341.971 268.293 341.893 267.692 341.663 267.144C341.432 266.595 341.058 266.119 340.58 265.766C340.051 265.52 339.464 265.428 338.886 265.5C338.307 265.572 337.761 265.804 337.308 266.171L333.163 268.57L332.228 266.919L336.373 264.55C337.088 263.958 337.968 263.599 338.893 263.522C339.819 263.444 340.746 263.652 341.55 264.117C342.354 264.581 342.997 265.281 343.391 266.122C343.786 266.963 343.914 267.904 343.758 268.819V273.587C343.675 274.173 343.75 274.771 343.975 275.319C344.199 275.866 344.566 276.344 345.036 276.704C345.576 276.919 346.162 276.995 346.739 276.925C347.317 276.854 347.867 276.638 348.339 276.299L368.065 264.893L369 266.513L349.274 277.919C348.327 278.506 347.24 278.829 346.127 278.854Z" fill="#28FFFF"/>
</g>
<path d="M336.278 269.412V286.926L184.764 374.4L33.2505 286.926V269.412H336.278Z" fill="url(#paint0_linear_189_2070)"/>
<path d="M184.764 356.886L33.2505 269.412L184.764 181.938L336.278 269.412L184.764 356.886Z" fill="#BCBEFF"/>
<path d="M184.764 354.862L35.0268 268.385L33.2505 269.413L184.764 356.887L336.278 269.413L334.501 268.385L184.764 354.862Z" fill="white"/>
<path d="M184.764 336.723L68.2461 269.443L184.764 202.162L301.313 269.443L184.764 336.723Z" fill="#0F054C"/>
<path opacity="0.5" d="M184.765 336.723L68.2158 269.443L184.765 202.162L301.314 269.443L184.765 336.723Z" fill="url(#paint1_linear_189_2070)"/>
<path opacity="0.5" d="M184.765 185.178L301.314 252.489V269.442L184.765 202.161V185.178Z" fill="url(#paint2_linear_189_2070)"/>
<path opacity="0.5" d="M184.765 202.161L68.2158 269.442V252.489L184.765 185.178V202.161Z" fill="url(#paint3_linear_189_2070)"/>
<path opacity="0.5" d="M184.765 319.77L68.2158 252.489L184.765 185.178L301.314 252.489L184.765 319.77Z" fill="url(#paint4_linear_189_2070)"/>
<path opacity="0.5" d="M184.765 279.352L138.208 252.489L184.765 225.596L231.353 252.489L184.765 279.352Z" fill="#28FFFF"/>
<path opacity="0.5" d="M184.765 228.058L229.203 253.705L231.353 252.489L184.765 225.596L138.208 252.489L140.358 253.705L184.765 228.058Z" fill="#28FFFF"/>
<path opacity="0.5" d="M184.765 319.769V336.721L301.314 269.441V252.488L184.765 319.769Z" fill="url(#paint5_linear_189_2070)"/>
<path opacity="0.5" d="M68.2158 252.488V269.441L184.765 336.721V319.769L68.2158 252.488Z" fill="url(#paint6_linear_189_2070)"/>
<path opacity="0.8" d="M184.765 317.9L69.8363 251.555L68.2158 252.49L184.765 319.77L301.314 252.49L299.693 251.555L184.765 317.9Z" fill="#28FFFF"/>
<g style="mix-blend-mode:lighten">
<path d="M222.347 395.526L202.621 384.152C200.732 382.937 199.16 381.287 198.038 379.341C196.916 377.395 196.275 375.208 196.17 372.964V368.196C196.064 366.285 195.51 364.426 194.552 362.77C193.593 361.113 192.258 359.705 190.654 358.661L186.51 356.261L187.476 354.641L191.589 357.009C193.479 358.224 195.05 359.874 196.172 361.82C197.295 363.766 197.935 365.952 198.04 368.196V372.964C198.163 374.876 198.724 376.733 199.681 378.392C200.637 380.051 201.963 381.468 203.556 382.531L223.282 393.906L222.347 395.526Z" fill="#28FFFF"/>
</g>
<g style="mix-blend-mode:lighten">
<path d="M230.014 391.04L210.288 379.728C208.398 378.513 206.827 376.863 205.705 374.917C204.582 372.971 203.942 370.785 203.837 368.541V363.773C203.726 361.863 203.169 360.005 202.212 358.35C201.254 356.694 199.921 355.285 198.321 354.237L194.208 351.837L195.142 350.217L199.256 352.585C201.145 353.8 202.717 355.45 203.839 357.396C204.961 359.342 205.601 361.529 205.707 363.773V368.541C205.829 370.452 206.391 372.309 207.347 373.968C208.304 375.627 209.63 377.044 211.222 378.108L230.949 389.482L230.014 391.04Z" fill="#28FFFF"/>
</g>
<g style="mix-blend-mode:lighten">
<path d="M237.68 386.71L217.954 375.46C216.064 374.245 214.493 372.595 213.371 370.649C212.248 368.703 211.608 366.516 211.503 364.272V359.536C211.38 357.624 210.819 355.767 209.862 354.108C208.906 352.449 207.58 351.032 205.987 349.969L201.874 347.413L202.808 345.762L206.922 348.13C208.812 349.352 210.383 351.007 211.505 352.959C212.627 354.91 213.267 357.1 213.373 359.349V364.085C213.495 365.997 214.057 367.854 215.013 369.513C215.97 371.172 217.296 372.589 218.889 373.652L238.615 385.027L237.68 386.71Z" fill="#28FFFF"/>
</g>
<g style="mix-blend-mode:lighten">
<path d="M245.346 382.282L225.62 370.876C223.728 369.663 222.156 368.014 221.033 366.068C219.911 364.121 219.271 361.934 219.169 359.689V354.952C219.046 353.041 218.485 351.184 217.528 349.525C216.572 347.866 215.246 346.449 213.653 345.385L209.54 343.017L210.474 341.396L214.588 343.765C216.477 344.98 218.049 346.63 219.171 348.576C220.293 350.522 220.933 352.708 221.039 354.952V359.689C221.161 361.6 221.723 363.458 222.679 365.117C223.636 366.776 224.962 368.192 226.554 369.256L246.28 380.662L245.346 382.282Z" fill="#28FFFF"/>
</g>
<g style="mix-blend-mode:lighten">
<path d="M253.012 377.858L233.286 366.484C231.4 365.265 229.831 363.614 228.709 361.669C227.588 359.724 226.945 357.539 226.835 355.296V350.529C226.712 348.617 226.151 346.76 225.194 345.101C224.238 343.442 222.912 342.025 221.319 340.961L217.206 338.593L218.14 336.973L222.254 339.341C224.143 340.556 225.715 342.206 226.837 344.152C227.959 346.098 228.599 348.284 228.705 350.529V355.296C228.814 357.21 229.373 359.071 230.337 360.728C231.301 362.385 232.642 363.791 234.252 364.832L253.947 376.238L253.012 377.858Z" fill="#28FFFF"/>
</g>
<g style="mix-blend-mode:lighten">
<path d="M260.677 373.433L240.982 362.058C239.085 360.848 237.506 359.201 236.378 357.254C235.251 355.307 234.606 353.118 234.5 350.871V346.103C234.378 344.191 233.816 342.334 232.86 340.675C231.903 339.016 230.577 337.599 228.985 336.536L224.871 334.167L225.806 332.547L229.919 334.915C231.813 336.129 233.389 337.777 234.517 339.723C235.644 341.669 236.29 343.856 236.401 346.103V350.871C236.529 352.776 237.092 354.628 238.049 356.281C239.005 357.934 240.329 359.346 241.917 360.406L261.612 371.812L260.677 373.433Z" fill="#28FFFF"/>
</g>
<g style="mix-blend-mode:lighten">
<path d="M268.344 369.009L248.649 357.634C246.752 356.424 245.173 354.777 244.045 352.83C242.917 350.883 242.273 348.694 242.167 346.447V341.679C242.058 339.764 241.503 337.902 240.545 336.24C239.587 334.579 238.254 333.165 236.651 332.112L232.538 329.744L233.472 328.123L237.586 330.491C239.483 331.701 241.062 333.349 242.19 335.296C243.318 337.242 243.962 339.431 244.068 341.679V346.447C244.19 348.358 244.752 350.215 245.708 351.874C246.665 353.534 247.991 354.95 249.584 356.014L269.31 367.388L268.344 369.009Z" fill="#28FFFF"/>
</g>
<g style="mix-blend-mode:lighten">
<path d="M276.04 364.583L256.314 353.208C254.417 351.999 252.838 350.351 251.71 348.404C250.583 346.458 249.938 344.268 249.832 342.021V337.253C249.705 335.347 249.141 333.496 248.185 331.843C247.229 330.189 245.905 328.778 244.317 327.717L240.203 325.318L241.138 323.697L245.251 326.066C247.147 327.277 248.724 328.925 249.852 330.872C250.98 332.818 251.625 335.006 251.733 337.253V342.021C251.832 343.938 252.383 345.804 253.342 347.467C254.301 349.13 255.64 350.542 257.249 351.588L276.975 362.994L276.04 364.583Z" fill="#28FFFF"/>
</g>
<g style="mix-blend-mode:lighten">
<path d="M283.706 360.19L263.98 348.785C262.087 347.571 260.511 345.923 259.383 343.977C258.256 342.031 257.61 339.843 257.498 337.597V332.86C257.376 330.949 256.814 329.092 255.858 327.433C254.901 325.774 253.575 324.357 251.983 323.293L247.869 320.925L248.804 319.273L252.949 321.673C254.838 322.888 256.409 324.538 257.532 326.484C258.654 328.43 259.294 330.616 259.399 332.86V337.597C259.498 339.514 260.049 341.38 261.008 343.043C261.967 344.706 263.306 346.118 264.915 347.164L284.641 358.539L283.706 360.19Z" fill="#28FFFF"/>
</g>
<g style="mix-blend-mode:lighten">
<path d="M291.31 355.764L271.646 344.296C269.756 343.074 268.185 341.419 267.063 339.468C265.941 337.517 265.301 335.326 265.196 333.078V328.341C265.073 326.43 264.512 324.572 263.555 322.913C262.598 321.254 261.272 319.838 259.68 318.774L255.535 316.406L256.501 314.785L260.615 317.154C262.504 318.369 264.076 320.018 265.198 321.964C266.32 323.911 266.96 326.097 267.065 328.341V333.078C267.153 335.014 267.702 336.9 268.667 338.581C269.632 340.261 270.985 341.687 272.612 342.738L292.338 354.144L291.31 355.764Z" fill="#28FFFF"/>
</g>
<g style="mix-blend-mode:lighten">
<path d="M299.038 351.339L279.312 339.964C277.423 338.749 275.852 337.1 274.729 335.153C273.607 333.207 272.967 331.021 272.862 328.777V324.009C272.739 322.098 272.178 320.24 271.221 318.581C270.264 316.922 268.938 315.506 267.346 314.442L263.201 312.074L264.167 310.453L268.281 312.821C270.17 314.037 271.742 315.686 272.864 317.632C273.986 319.579 274.626 321.765 274.731 324.009V328.715C274.859 330.62 275.422 332.471 276.379 334.125C277.335 335.778 278.659 337.19 280.247 338.25L299.973 349.656L299.038 351.339Z" fill="#28FFFF"/>
</g>
<g style="mix-blend-mode:lighten">
<path d="M306.705 346.915L286.979 335.54C285.089 334.325 283.518 332.676 282.396 330.73C281.274 328.783 280.633 326.597 280.528 324.353V319.585C280.406 317.674 279.844 315.817 278.888 314.157C277.931 312.498 276.605 311.082 275.012 310.018L270.899 307.65L271.834 306.029L275.947 308.398C277.837 309.613 279.408 311.262 280.53 313.209C281.652 315.155 282.293 317.341 282.398 319.585V324.353C282.521 326.264 283.082 328.122 284.039 329.781C284.995 331.44 286.321 332.856 287.914 333.92L307.64 345.294L306.705 346.915Z" fill="#28FFFF"/>
</g>
<g style="mix-blend-mode:lighten">
<path d="M314.371 342.489L294.645 331.115C292.756 329.899 291.184 328.25 290.062 326.304C288.94 324.358 288.299 322.171 288.194 319.927V315.159C288.067 313.253 287.503 311.402 286.547 309.749C285.591 308.096 284.267 306.684 282.678 305.623L278.565 303.224L279.5 301.604L283.613 303.972C285.499 305.191 287.068 306.841 288.19 308.787C289.311 310.732 289.954 312.916 290.064 315.159V319.927C290.187 321.838 290.748 323.696 291.705 325.355C292.661 327.014 293.987 328.43 295.58 329.494L315.306 340.869L314.371 342.489Z" fill="#28FFFF"/>
</g>
<g style="mix-blend-mode:lighten">
<path d="M322.037 338.061L302.311 326.656C300.422 325.441 298.85 323.791 297.728 321.845C296.606 319.899 295.965 317.712 295.86 315.468V310.732C295.738 308.82 295.176 306.963 294.22 305.304C293.263 303.645 291.937 302.228 290.344 301.165L286.231 298.765L287.166 297.145L291.279 299.544C293.171 300.757 294.743 302.406 295.866 304.353C296.988 306.3 297.627 308.487 297.73 310.732V315.468C297.853 317.38 298.414 319.237 299.371 320.896C300.327 322.555 301.653 323.972 303.246 325.035L322.972 336.41L322.037 338.061Z" fill="#28FFFF"/>
</g>
<g style="mix-blend-mode:lighten">
<path d="M329.704 333.671L310.009 322.265C308.118 321.052 306.545 319.403 305.422 317.456C304.3 315.51 303.661 313.322 303.558 311.078V306.341C303.435 304.43 302.874 302.572 301.917 300.913C300.961 299.254 299.635 297.838 298.042 296.774L293.929 294.406L294.864 292.785L298.977 295.154C300.867 296.369 302.438 298.018 303.56 299.964C304.682 301.911 305.323 304.097 305.428 306.341V311.078C305.554 312.992 306.12 314.851 307.082 316.51C308.044 318.169 309.376 319.584 310.975 320.645L330.67 332.05L329.704 333.671Z" fill="#28FFFF"/>
</g>
<g style="mix-blend-mode:lighten">
<path d="M337.369 329.245L317.674 317.871C315.777 316.661 314.198 315.013 313.07 313.066C311.942 311.12 311.298 308.931 311.192 306.683V301.915C311.069 300.004 310.508 298.147 309.551 296.488C308.595 294.828 307.268 293.412 305.676 292.348L301.562 289.98L302.497 288.359L306.611 290.728C308.51 291.938 310.092 293.585 311.225 295.531C312.358 297.477 313.009 299.666 313.124 301.915V306.683C313.227 308.595 313.781 310.455 314.739 312.112C315.698 313.769 317.034 315.176 318.64 316.219L338.335 327.625L337.369 329.245Z" fill="#28FFFF"/>
</g>
<g style="mix-blend-mode:lighten">
<path d="M345.035 324.819L325.34 313.445C323.443 312.235 321.864 310.588 320.736 308.641C319.608 306.694 318.964 304.505 318.858 302.258V297.552C318.754 295.636 318.201 293.772 317.243 292.11C316.284 290.447 314.948 289.034 313.342 287.985L309.229 285.617L310.163 283.996L314.277 286.364C316.174 287.574 317.753 289.222 318.881 291.169C320.009 293.115 320.653 295.305 320.759 297.552V302.32C320.886 304.226 321.45 306.077 322.406 307.73C323.362 309.384 324.686 310.795 326.275 311.856L345.97 323.261L345.035 324.819Z" fill="#28FFFF"/>
</g>
<g style="mix-blend-mode:lighten">
<path d="M352.701 320.395L333.006 309.021C331.112 307.807 329.536 306.159 328.409 304.213C327.281 302.267 326.635 300.08 326.524 297.833V293.066C326.401 291.154 325.84 289.297 324.883 287.638C323.927 285.979 322.601 284.562 321.008 283.499L316.895 281.13L317.829 279.51L321.943 281.878C323.84 283.088 325.419 284.735 326.547 286.682C327.675 288.629 328.319 290.818 328.425 293.066V297.833C328.547 299.745 329.109 301.602 330.066 303.261C331.022 304.92 332.348 306.337 333.941 307.4L353.667 318.775L352.701 320.395Z" fill="#28FFFF"/>
</g>
<g style="mix-blend-mode:lighten">
<path d="M360.399 315.968L340.673 304.593C338.784 303.378 337.212 301.728 336.09 299.782C334.968 297.836 334.328 295.65 334.222 293.406V288.669C334.115 286.75 333.557 284.884 332.594 283.222C331.63 281.56 330.287 280.148 328.675 279.102L324.562 276.703L325.497 275.082L329.61 277.482C331.511 278.687 333.093 280.334 334.221 282.282C335.349 284.229 335.991 286.42 336.092 288.669V293.406C336.215 295.317 336.776 297.174 337.733 298.833C338.689 300.493 340.016 301.909 341.608 302.973L361.334 314.347L360.399 315.968Z" fill="#28FFFF"/>
</g>
<g style="mix-blend-mode:lighten">
<path d="M368.065 311.573L348.339 300.167C346.448 298.954 344.875 297.305 343.753 295.358C342.63 293.412 341.991 291.225 341.889 288.98V284.243C341.766 282.332 341.204 280.475 340.248 278.816C339.291 277.156 337.965 275.74 336.373 274.676L332.228 272.308L333.163 270.656L337.308 273.056C339.199 274.269 340.772 275.918 341.894 277.865C343.016 279.811 343.656 281.999 343.758 284.243V288.98C343.881 290.891 344.442 292.748 345.399 294.408C346.355 296.067 347.682 297.483 349.274 298.547L369 309.921L368.065 311.573Z" fill="#28FFFF"/>
</g>
<g style="mix-blend-mode:lighten">
<path d="M146.653 395.526L145.718 393.906L165.444 382.531C167.037 381.468 168.363 380.051 169.319 378.392C170.276 376.733 170.837 374.876 170.96 372.964V368.196C171.065 365.952 171.706 363.766 172.828 361.82C173.95 359.874 175.521 358.224 177.411 357.009L181.524 354.641L182.459 356.261L178.346 358.629C176.753 359.693 175.427 361.11 174.471 362.769C173.514 364.428 172.953 366.285 172.83 368.196V372.964C172.725 375.208 172.084 377.395 170.962 379.341C169.84 381.287 168.269 382.937 166.379 384.152L146.653 395.526Z" fill="#28FFFF"/>
</g>
<g style="mix-blend-mode:lighten">
<path d="M138.987 391.042L138.052 389.421L157.778 378.047C159.371 376.983 160.697 375.567 161.653 373.908C162.61 372.248 163.171 370.391 163.294 368.48V363.712C163.399 361.468 164.04 359.282 165.162 357.336C166.284 355.389 167.855 353.74 169.745 352.525L173.858 350.156L174.793 351.777L170.68 354.176C169.079 355.224 167.747 356.633 166.789 358.289C165.831 359.945 165.275 361.802 165.164 363.712V368.48C165.059 370.724 164.418 372.91 163.296 374.857C162.174 376.803 160.603 378.452 158.713 379.667L138.987 391.042Z" fill="#28FFFF"/>
</g>
<g style="mix-blend-mode:lighten">
<path d="M131.321 386.71L130.386 385.058L150.112 373.684C151.705 372.62 153.031 371.204 153.988 369.544C154.944 367.885 155.505 366.028 155.628 364.117V359.38C155.731 357.135 156.37 354.948 157.493 353.001C158.615 351.055 160.188 349.406 162.079 348.193L166.192 345.793L167.127 347.413L163.014 349.813C161.421 350.877 160.095 352.293 159.139 353.952C158.182 355.611 157.621 357.469 157.498 359.38V364.117C157.421 366.385 156.797 368.601 155.679 370.576C154.561 372.551 152.983 374.226 151.078 375.46L131.321 386.71Z" fill="#28FFFF"/>
</g>
<g style="mix-blend-mode:lighten">
<path d="M123.654 382.282L122.719 380.662L142.414 369.256C144.006 368.192 145.332 366.776 146.289 365.117C147.245 363.458 147.807 361.6 147.929 359.689V354.952C148.041 352.706 148.687 350.519 149.814 348.573C150.942 346.627 152.518 344.978 154.411 343.765L158.525 341.396L159.46 343.017L155.346 345.385C153.754 346.449 152.428 347.866 151.471 349.525C150.515 351.184 149.953 353.041 149.83 354.952V359.689C149.73 361.938 149.088 364.129 147.959 366.076C146.831 368.024 145.249 369.671 143.349 370.876L123.654 382.282Z" fill="#28FFFF"/>
</g>
<g style="mix-blend-mode:lighten">
<path d="M115.988 377.858L115.053 376.238L134.748 364.832C136.353 363.789 137.69 362.382 138.648 360.725C139.607 359.068 140.16 357.208 140.263 355.296V350.529C140.369 348.281 141.014 346.092 142.142 344.145C143.269 342.198 144.848 340.551 146.745 339.341L150.859 336.973L151.794 338.593L147.68 340.961C146.088 342.025 144.762 343.442 143.805 345.101C142.848 346.76 142.287 348.617 142.164 350.529V355.296C142.056 357.543 141.411 359.731 140.283 361.678C139.155 363.624 137.578 365.272 135.683 366.484L115.988 377.858Z" fill="#28FFFF"/>
</g>
<g style="mix-blend-mode:lighten">
<path d="M108.322 373.433L107.387 371.812L127.082 360.438C128.674 359.374 130 357.957 130.957 356.298C131.913 354.639 132.475 352.782 132.597 350.871V346.103C132.703 343.855 133.348 341.666 134.475 339.719C135.603 337.773 137.182 336.125 139.079 334.915L143.193 332.547L144.128 334.167L140.014 336.536C138.422 337.599 137.096 339.016 136.139 340.675C135.182 342.334 134.621 344.191 134.498 346.103V350.871C134.392 353.118 133.748 355.307 132.62 357.254C131.492 359.201 129.914 360.848 128.016 362.058L108.322 373.433Z" fill="#28FFFF"/>
</g>
<g style="mix-blend-mode:lighten">
<path d="M100.656 369.009L99.6904 367.388L119.416 356.014C121.009 354.95 122.335 353.534 123.292 351.874C124.248 350.215 124.81 348.358 124.932 346.447V341.679C125.038 339.431 125.682 337.242 126.81 335.296C127.938 333.349 129.517 331.701 131.414 330.491L135.528 328.123L136.463 329.744L132.349 332.112C130.746 333.165 129.413 334.579 128.455 336.24C127.497 337.902 126.942 339.764 126.833 341.679V346.447C126.722 348.693 126.076 350.88 124.948 352.826C123.821 354.772 122.245 356.421 120.351 357.634L100.656 369.009Z" fill="#28FFFF"/>
</g>
<g style="mix-blend-mode:lighten">
<path d="M92.9594 364.583L92.0244 362.962L111.751 351.588C113.343 350.524 114.669 349.108 115.626 347.449C116.582 345.789 117.144 343.932 117.266 342.021V337.253C117.375 335.006 118.02 332.818 119.148 330.872C120.276 328.925 121.853 327.277 123.748 326.066L127.862 323.697L128.797 325.318L124.683 327.717C123.074 328.758 121.732 330.165 120.769 331.821C119.805 333.478 119.245 335.339 119.136 337.253V342.021C119.031 344.265 118.391 346.451 117.268 348.398C116.146 350.344 114.575 351.993 112.685 353.208L92.9594 364.583Z" fill="#28FFFF"/>
</g>
<g style="mix-blend-mode:lighten">
<path d="M85.2938 360.19L84.3589 358.539L104.085 347.164C105.678 346.1 107.004 344.684 107.96 343.025C108.917 341.366 109.478 339.508 109.601 337.597V332.86C109.706 330.616 110.346 328.43 111.468 326.484C112.591 324.538 114.162 322.888 116.052 321.673L120.196 319.273L121.131 320.925L116.986 323.293C115.394 324.357 114.068 325.774 113.111 327.433C112.155 329.092 111.593 330.949 111.471 332.86V337.597C111.365 339.841 110.725 342.028 109.603 343.974C108.481 345.92 106.909 347.569 105.02 348.785L85.2938 360.19Z" fill="#28FFFF"/>
</g>
<g style="mix-blend-mode:lighten">
<path d="M77.6277 355.765L76.6929 354.144L96.4189 342.738C98.0285 341.693 99.3675 340.281 100.326 338.618C101.285 336.955 101.836 335.088 101.935 333.171V328.435C102.04 326.191 102.68 324.004 103.802 322.058C104.925 320.112 106.496 318.463 108.385 317.247L112.499 314.879L113.465 316.499L109.32 318.868C107.728 319.932 106.402 321.348 105.445 323.007C104.489 324.666 103.927 326.524 103.804 328.435V333.171C103.699 335.42 103.059 337.61 101.937 339.562C100.815 341.513 99.2439 343.168 97.3538 344.39L77.6277 355.765Z" fill="#28FFFF"/>
</g>
<g style="mix-blend-mode:lighten">
<path d="M70.0545 351.339L69.1196 349.718L88.8457 338.313C90.4342 337.252 91.7578 335.841 92.7142 334.187C93.6706 332.534 94.2341 330.683 94.3614 328.777V324.009C94.4666 321.765 95.1071 319.579 96.2292 317.632C97.3514 315.686 98.9227 314.037 100.812 312.821L104.926 310.453L105.861 312.074L101.747 314.442C100.155 315.506 98.8285 316.922 97.8719 318.581C96.9153 320.24 96.3539 322.098 96.2312 324.009V328.715C96.1261 330.959 95.4857 333.145 94.3635 335.091C93.2414 337.037 91.67 338.687 89.7805 339.902L70.0545 351.339Z" fill="#28FFFF"/>
</g>
<g style="mix-blend-mode:lighten">
<path d="M62.2943 346.915L61.3594 345.294L81.0855 333.92C82.6781 332.856 84.004 331.44 84.9606 329.781C85.9172 328.122 86.4786 326.264 86.6013 324.353V319.585C86.7064 317.341 87.3468 315.155 88.469 313.209C89.5911 311.262 91.1626 309.613 93.052 308.398L97.1655 306.029L98.1004 307.65L93.9869 310.018C92.3808 311.068 91.0445 312.481 90.0862 314.143C89.1279 315.805 88.5746 317.669 88.4711 319.585V324.353C88.3659 326.597 87.7255 328.783 86.6034 330.73C85.4812 332.676 83.9098 334.325 82.0203 335.54L62.2943 346.915Z" fill="#28FFFF"/>
</g>
<g style="mix-blend-mode:lighten">
<path d="M54.6282 342.489L53.6934 340.869L73.4194 329.494C75.0119 328.43 76.338 327.014 77.2946 325.355C78.2512 323.696 78.8126 321.838 78.9353 319.927V315.159C79.0455 312.916 79.688 310.732 80.8097 308.787C81.9314 306.841 83.5001 305.191 85.386 303.972L89.4994 301.604L90.4344 303.224L86.3208 305.623C84.7323 306.684 83.4087 308.096 82.4523 309.749C81.4959 311.402 80.9324 313.253 80.8051 315.159V319.927C80.6999 322.171 80.0594 324.358 78.9373 326.304C77.8151 328.25 76.2438 329.899 74.3543 331.115L54.6282 342.489Z" fill="#28FFFF"/>
</g>
<g style="mix-blend-mode:lighten">
<path d="M46.9627 338.061L46.0278 336.41L65.7227 325.035C67.321 323.975 68.6531 322.56 69.6152 320.901C70.5773 319.241 71.1435 317.382 71.2697 315.468V310.732C71.3724 308.487 72.0116 306.3 73.134 304.353C74.2564 302.406 75.8291 300.757 77.7204 299.544L81.8339 297.145L82.7687 298.765L78.6553 301.165C77.0628 302.228 75.7367 303.645 74.7801 305.304C73.8235 306.963 73.2621 308.82 73.1394 310.732V315.468C73.0343 317.712 72.3939 319.899 71.2717 321.845C70.1496 323.791 68.5782 325.441 66.6888 326.656L46.9627 338.061Z" fill="#28FFFF"/>
</g>
<g style="mix-blend-mode:lighten">
<path d="M39.2968 333.671L38.3618 332.05L58.0567 320.645C59.6663 319.599 61.0053 318.187 61.964 316.524C62.9227 314.861 63.474 312.995 63.5726 311.078V306.341C63.6838 304.095 64.33 301.908 65.4574 299.962C66.5849 298.016 68.161 296.367 70.0544 295.154L74.168 292.785L75.1028 294.406L70.9893 296.774C69.3967 297.838 68.0708 299.254 67.1142 300.913C66.1576 302.572 65.5962 304.43 65.4735 306.341V311.078C65.3726 313.326 64.7307 315.517 63.6023 317.465C62.4739 319.413 60.8923 321.059 58.9917 322.265L39.2968 333.671Z" fill="#28FFFF"/>
</g>
<g style="mix-blend-mode:lighten">
<path d="M31.6317 329.245L30.6655 327.625L50.3916 316.219C51.9971 315.176 53.3335 313.769 54.292 312.112C55.2506 310.455 55.804 308.595 55.9074 306.683V301.915C56.0135 299.668 56.6575 297.479 57.7855 295.532C58.9134 293.585 60.4923 291.938 62.3893 290.728L66.5028 288.359L67.4377 289.98L63.3242 292.348C61.7316 293.412 60.4056 294.828 59.449 296.488C58.4924 298.147 57.9311 300.004 57.8084 301.915V306.683C57.7024 308.931 57.0583 311.12 55.9303 313.066C54.8024 315.013 53.2235 316.661 51.3265 317.871L31.6317 329.245Z" fill="#28FFFF"/>
</g>
<g style="mix-blend-mode:lighten">
<path d="M23.933 324.819L22.998 323.199L42.7242 311.825C44.3167 310.761 45.6427 309.344 46.5993 307.685C47.5558 306.026 48.1173 304.169 48.2399 302.258V297.552C48.346 295.305 48.9901 293.115 50.118 291.169C51.246 289.222 52.8248 287.574 54.7218 286.364L58.8353 283.996L59.7702 285.617L55.6567 287.985C54.0506 289.034 52.7143 290.447 51.756 292.11C50.7977 293.772 50.2444 295.636 50.1408 297.552V302.32C50.0297 304.566 49.3835 306.753 48.256 308.699C47.1285 310.645 45.5525 312.294 43.659 313.507L23.933 324.819Z" fill="#28FFFF"/>
</g>
<g style="mix-blend-mode:lighten">
<path d="M16.2669 320.395L15.332 318.775L35.0581 307.4C36.6506 306.337 37.9767 304.92 38.9332 303.261C39.8898 301.602 40.4513 299.745 40.5739 297.833V293.066C40.6791 290.822 41.3195 288.635 42.4416 286.689C43.5638 284.743 45.1351 283.093 47.0246 281.878L51.1693 279.51L52.1041 281.13L47.9907 283.499C46.3981 284.562 45.0721 285.979 44.1155 287.638C43.1589 289.297 42.5975 291.154 42.4748 293.066V297.833C42.3637 300.08 41.7175 302.267 40.59 304.213C39.4625 306.159 37.8865 307.807 35.993 309.021L16.2669 320.395Z" fill="#28FFFF"/>
</g>
<g style="mix-blend-mode:lighten">
<path d="M8.60086 315.968L7.66602 314.347L27.392 302.973C28.9846 301.909 30.3107 300.493 31.2672 298.833C32.2238 297.174 32.7852 295.317 32.9078 293.406V288.669C33.0104 286.424 33.6498 284.237 34.7722 282.291C35.8946 280.344 37.4673 278.695 39.3586 277.482L43.5033 275.082L44.4381 276.703L40.2935 279.102C38.7009 280.166 37.3749 281.582 36.4183 283.241C35.4617 284.901 34.9003 286.758 34.7776 288.669V293.406C34.6724 295.65 34.0321 297.836 32.9099 299.782C31.7878 301.728 30.2163 303.378 28.3269 304.593L8.60086 315.968Z" fill="#28FFFF"/>
</g>
<g style="mix-blend-mode:lighten">
<path d="M0.934942 311.573L0 309.921L19.7261 298.547C21.3187 297.483 22.6446 296.067 23.6012 294.408C24.5578 292.748 25.1192 290.891 25.2419 288.98V284.243C25.3445 281.999 25.9839 279.811 27.1063 277.865C28.2287 275.918 29.8014 274.269 31.6926 273.056L35.8061 270.656L36.7722 272.308L32.6275 274.676C31.0349 275.74 29.709 277.156 28.7524 278.816C27.7958 280.475 27.2344 282.332 27.1117 284.243V288.98C27.0091 291.225 26.3697 293.412 25.2473 295.358C24.1249 297.305 22.5522 298.954 20.661 300.167L0.934942 311.573Z" fill="#28FFFF"/>
</g>
<path opacity="0.5" d="M184.765 319.771L68.2158 252.491V200.231L184.204 264.582L301.314 197.488V252.491L184.765 319.771Z" fill="url(#paint7_linear_189_2070)"/>
<path opacity="0.7" d="M301.314 210.67V197.488L184.173 264.582L68.2158 200.231V211.169L177.286 274.055C179.672 275.14 182.278 275.652 184.897 275.549C187.516 275.446 190.075 274.732 192.368 273.463L301.314 210.67Z" fill="#28FFFF"/>
<path d="M192.306 265.517L304.804 200.73C305.794 200.294 306.654 199.608 307.299 198.739C307.943 197.87 308.351 196.849 308.481 195.775V175.488L304.648 178.916L301.314 176.984C301.687 176.578 301.937 176.204 301.875 176.08L300.223 173.244L220.851 126.5L195.64 111.822L185.762 108.955L70.3035 175.332L70.6152 178.012L67.4989 179.757L62.5752 177.576V197.738C62.6088 198.558 62.8681 199.352 63.3245 200.034C63.7809 200.716 64.4166 201.259 65.1617 201.602L177.192 266.265C179.592 267.339 182.212 267.831 184.839 267.701C187.465 267.571 190.023 266.823 192.306 265.517ZM237.96 215.47L187.04 243.298L182.646 243.08L97.571 195.494L74.0119 183.31L185.014 119.363C185.543 119.088 186.131 118.944 186.728 118.944C187.325 118.944 187.913 119.088 188.442 119.363L296.483 181.689L237.96 215.47Z" fill="url(#paint8_linear_189_2070)"/>
<path d="M192.306 265.517L304.804 200.73C305.794 200.294 306.654 199.608 307.299 198.739C307.943 197.87 308.351 196.849 308.481 195.775V175.488L304.648 178.916L301.314 176.984C301.687 176.578 301.937 176.204 301.875 176.08L300.223 173.244L220.851 126.5L195.64 111.822L185.762 108.955L70.3035 175.332L70.6152 178.012L67.4989 179.757L62.5752 177.576V197.738C62.6088 198.558 62.8681 199.352 63.3245 200.034C63.7809 200.716 64.4166 201.259 65.1617 201.602L177.192 266.265C179.592 267.339 182.212 267.831 184.839 267.701C187.465 267.571 190.023 266.823 192.306 265.517ZM237.96 215.47L187.04 243.298L182.646 243.08L97.571 195.494L74.0119 183.31L185.014 119.363C185.543 119.088 186.131 118.944 186.728 118.944C187.325 118.944 187.913 119.088 188.442 119.363L296.483 181.689L237.96 215.47Z" fill="url(#paint9_linear_189_2070)"/>
<path opacity="0.6" d="M184.173 267.635V243.141L187.009 243.297L237.929 215.468L296.452 181.594L294.52 180.441C296.328 179.413 306.58 176.546 308.45 175.486V195.773C308.32 196.847 307.913 197.869 307.268 198.738C306.623 199.607 305.763 200.292 304.773 200.728L192.275 265.516C189.785 266.866 187.005 267.593 184.173 267.635Z" fill="#0F054C"/>
<path d="M192.307 244.981L304.804 180.194C309.261 177.639 309.759 173.712 305.895 171.5L193.865 106.837C191.479 105.752 188.872 105.24 186.253 105.343C183.634 105.446 181.076 106.16 178.782 107.429L66.2843 172.247C61.828 174.803 61.3294 178.698 65.1936 180.942L177.224 245.605C179.61 246.692 182.219 247.202 184.84 247.094C187.46 246.986 190.018 246.262 192.307 244.981ZM186.074 241.211C185.539 241.487 184.946 241.631 184.345 241.631C183.743 241.631 183.15 241.487 182.615 241.211L72.5791 177.701C71.7066 177.202 71.8313 176.299 72.8285 175.706L185.015 111.106C185.549 110.83 186.142 110.686 186.744 110.686C187.346 110.686 187.939 110.83 188.474 111.106L298.51 174.616C299.382 175.114 299.289 175.987 298.26 176.579L186.074 241.211Z" fill="url(#paint10_linear_189_2070)"/>
<path d="M192.307 244.981L304.804 180.194C309.261 177.639 309.759 173.712 305.895 171.5L193.865 106.837C191.479 105.752 188.872 105.24 186.253 105.343C183.634 105.446 181.076 106.16 178.782 107.429L66.2843 172.247C61.828 174.803 61.3294 178.698 65.1936 180.942L177.224 245.605C179.61 246.692 182.219 247.202 184.84 247.094C187.46 246.986 190.018 246.262 192.307 244.981ZM186.074 241.211C185.539 241.487 184.946 241.631 184.345 241.631C183.743 241.631 183.15 241.487 182.615 241.211L72.5791 177.701C71.7066 177.202 71.8313 176.299 72.8285 175.706L185.015 111.106C185.549 110.83 186.142 110.686 186.744 110.686C187.346 110.686 187.939 110.83 188.474 111.106L298.51 174.616C299.382 175.114 299.289 175.987 298.26 176.579L186.074 241.211Z" fill="url(#paint11_linear_189_2070)"/>
<path d="M298.509 173.492L188.473 109.982C187.924 109.739 187.326 109.627 186.726 109.654C186.126 109.681 185.54 109.847 185.014 110.138L72.8282 174.738C72.018 175.206 71.7998 175.891 72.2049 176.39C72.3834 176.173 72.5935 175.984 72.8282 175.829L185.014 111.228C185.549 110.952 186.142 110.808 186.744 110.808C187.346 110.808 187.939 110.952 188.473 111.228L298.509 174.738C298.653 174.817 298.78 174.922 298.883 175.05C299.008 174.941 299.1 174.801 299.151 174.644C299.201 174.486 299.207 174.318 299.169 174.157C299.13 173.997 299.048 173.85 298.932 173.733C298.816 173.615 298.67 173.532 298.509 173.492Z" fill="#28FFFF"/>
<path d="M304.803 179.133L192.305 243.92C190.012 245.189 187.453 245.903 184.834 246.006C182.215 246.109 179.608 245.597 177.223 244.512L65.1921 179.881C64.5633 179.581 64.0082 179.146 63.5665 178.608C63.1248 178.069 62.8074 177.44 62.6368 176.764C62.559 177.662 62.7634 178.562 63.2214 179.339C63.6795 180.115 64.3684 180.73 65.1921 181.096L177.223 245.759C179.609 246.846 182.218 247.357 184.838 247.248C187.459 247.14 190.017 246.416 192.305 245.136L304.803 180.348C307.514 178.79 308.73 176.764 308.449 174.895C308.179 175.82 307.713 176.677 307.085 177.408C306.456 178.139 305.678 178.727 304.803 179.133Z" fill="#28FFFF"/>
<path d="M188.473 119.239C187.944 118.963 187.356 118.819 186.759 118.819C186.162 118.819 185.574 118.963 185.045 119.239L78.0629 180.848L72.6094 177.732C71.7368 177.233 71.8615 176.329 72.8587 175.737L185.045 111.137C185.58 110.861 186.173 110.717 186.774 110.717C187.376 110.717 187.969 110.861 188.504 111.137L298.54 174.647C299.412 175.145 299.319 176.018 298.29 176.61L293.086 179.726L188.473 119.239Z" fill="#251C72"/>
<path opacity="0.7" d="M298.26 176.579C299.289 175.987 299.382 175.114 298.51 174.615L188.474 111.106C187.939 110.83 187.346 110.686 186.744 110.686C186.142 110.686 185.549 110.83 185.015 111.106L72.8284 175.706C71.8312 176.298 71.7065 177.202 72.5791 177.701L182.615 241.46C183.15 241.736 183.743 241.88 184.345 241.88C184.946 241.88 185.539 241.736 186.074 241.46L298.26 176.579Z" fill="#28FFFF"/>
<path d="M192.306 230.459L304.804 165.671C305.798 165.233 306.661 164.542 307.306 163.667C307.951 162.793 308.356 161.765 308.481 160.685V140.398L304.648 143.826L301.314 141.925C301.687 141.489 301.937 141.115 301.875 141.021C301.812 140.928 300.223 138.154 300.223 138.154L220.851 91.41L195.64 76.7323L185.762 73.8965L70.3035 140.242L70.6152 142.922L67.4989 144.698L62.5752 142.486V162.679C62.6053 163.5 62.8631 164.296 63.3199 164.979C63.7767 165.661 64.4144 166.203 65.1617 166.544L177.192 231.206C179.594 232.273 182.213 232.761 184.838 232.631C187.463 232.501 190.021 231.757 192.306 230.459ZM237.96 180.411L187.04 208.208L182.646 207.99L97.571 160.436L74.0119 148.251L185.014 84.336C185.546 84.07 186.133 83.9315 186.728 83.9315C187.323 83.9315 187.91 84.07 188.442 84.336L296.483 146.662L237.96 180.411Z" fill="url(#paint12_linear_189_2070)"/>
<path d="M192.306 230.459L304.804 165.671C305.798 165.233 306.661 164.542 307.306 163.667C307.951 162.793 308.356 161.765 308.481 160.685V140.398L304.648 143.826L301.314 141.925C301.687 141.489 301.937 141.115 301.875 141.021C301.812 140.928 300.223 138.154 300.223 138.154L220.851 91.41L195.64 76.7323L185.762 73.8965L70.3035 140.242L70.6152 142.922L67.4989 144.698L62.5752 142.486V162.679C62.6053 163.5 62.8631 164.296 63.3199 164.979C63.7767 165.661 64.4144 166.203 65.1617 166.544L177.192 231.206C179.594 232.273 182.213 232.761 184.838 232.631C187.463 232.501 190.021 231.757 192.306 230.459ZM237.96 180.411L187.04 208.208L182.646 207.99L97.571 160.436L74.0119 148.251L185.014 84.336C185.546 84.07 186.133 83.9315 186.728 83.9315C187.323 83.9315 187.91 84.07 188.442 84.336L296.483 146.662L237.96 180.411Z" fill="url(#paint13_linear_189_2070)"/>
<path opacity="0.6" d="M184.173 232.545V208.082H187.009L237.929 180.285L296.452 146.379L294.52 145.258C296.328 144.198 306.58 141.362 308.45 140.271V160.558C308.325 161.638 307.92 162.666 307.275 163.541C306.63 164.415 305.767 165.106 304.773 165.545L192.275 230.332C189.8 231.73 187.015 232.49 184.173 232.545Z" fill="#0F054C"/>
<path d="M192.307 209.92L304.804 145.132C309.261 142.546 309.759 138.65 305.895 136.407L193.865 71.7439C191.478 70.6564 188.869 70.1462 186.249 70.2545C183.629 70.3628 181.071 71.0865 178.782 72.3672L66.2843 137.155C61.828 139.71 61.3294 143.637 65.1936 145.849L177.224 210.512C179.61 211.597 182.217 212.108 184.836 212.006C187.455 211.903 190.013 211.189 192.307 209.92ZM186.074 206.118C185.549 206.409 184.963 206.574 184.363 206.601C183.763 206.628 183.165 206.516 182.615 206.274L72.5791 142.764C71.7066 142.234 71.8313 141.362 72.8285 140.77L185.015 76.1379C185.554 75.8782 186.145 75.7434 186.744 75.7434C187.343 75.7434 187.934 75.8782 188.474 76.1379L298.51 139.648C299.382 140.146 299.289 141.05 298.26 141.642L186.074 206.118Z" fill="url(#paint14_linear_189_2070)"/>
<path d="M192.307 209.92L304.804 145.132C309.261 142.546 309.759 138.65 305.895 136.407L193.865 71.7439C191.478 70.6564 188.869 70.1462 186.249 70.2545C183.629 70.3628 181.071 71.0865 178.782 72.3672L66.2843 137.155C61.828 139.71 61.3294 143.637 65.1936 145.849L177.224 210.512C179.61 211.597 182.217 212.108 184.836 212.006C187.455 211.903 190.013 211.189 192.307 209.92ZM186.074 206.118C185.549 206.409 184.963 206.574 184.363 206.601C183.763 206.628 183.165 206.516 182.615 206.274L72.5791 142.764C71.7066 142.234 71.8313 141.362 72.8285 140.77L185.015 76.1379C185.554 75.8782 186.145 75.7434 186.744 75.7434C187.343 75.7434 187.934 75.8782 188.474 76.1379L298.51 139.648C299.382 140.146 299.289 141.05 298.26 141.642L186.074 206.118Z" fill="url(#paint15_linear_189_2070)"/>
<path d="M298.509 138.403L188.473 74.9239C187.939 74.6479 187.346 74.5039 186.744 74.5039C186.142 74.5039 185.549 74.6479 185.014 74.9239L72.8282 139.524C72.018 140.023 71.7998 140.678 72.2049 141.176C72.3769 140.961 72.5885 140.781 72.8282 140.646L185.014 76.0146C185.554 75.755 186.145 75.6202 186.744 75.6202C187.343 75.6202 187.934 75.755 188.473 76.0146L298.509 139.524C298.655 139.614 298.782 139.73 298.883 139.867C298.977 139.754 299.043 139.62 299.075 139.476C299.108 139.332 299.105 139.183 299.069 139.04C299.033 138.897 298.963 138.765 298.866 138.654C298.768 138.543 298.646 138.457 298.509 138.403Z" fill="#28FFFF"/>
<path d="M304.804 144.012L192.306 208.799C190.018 210.08 187.46 210.804 184.839 210.912C182.219 211.02 179.61 210.51 177.223 209.423L65.1931 144.853C64.5616 144.557 64.0044 144.124 63.5623 143.585C63.1201 143.045 62.8042 142.414 62.6377 141.737C62.5503 142.637 62.7507 143.541 63.2099 144.319C63.6691 145.097 64.3635 145.71 65.1931 146.069L177.223 210.731C179.609 211.816 182.216 212.328 184.835 212.225C187.454 212.122 190.013 211.408 192.306 210.139L304.804 145.352C307.515 143.794 308.73 141.737 308.45 139.867C308.172 140.777 307.702 141.618 307.074 142.332C306.445 143.047 305.671 143.62 304.804 144.012Z" fill="#28FFFF"/>
<path d="M188.473 84.1491C187.941 83.883 187.354 83.7445 186.759 83.7445C186.164 83.7445 185.577 83.883 185.045 84.1491L78.0629 145.758L72.6094 142.642C71.7368 142.112 71.8615 141.239 72.8587 140.647L185.045 76.0156C185.584 75.7559 186.176 75.6211 186.774 75.6211C187.373 75.6211 187.964 75.7559 188.504 76.0156L298.54 139.525C299.412 140.024 299.319 140.928 298.29 141.52L293.086 144.636L188.473 84.1491Z" fill="#251C72"/>
<path opacity="0.7" d="M298.26 141.52C299.289 140.928 299.382 140.024 298.51 139.525L188.474 76.0156C187.934 75.7559 187.343 75.6211 186.744 75.6211C186.145 75.6211 185.554 75.7559 185.015 76.0156L72.8284 140.647C71.8312 141.239 71.7065 142.112 72.5791 142.642L182.615 206.151C183.165 206.394 183.763 206.506 184.363 206.479C184.963 206.452 185.549 206.287 186.074 205.996L298.26 141.52Z" fill="#28FFFF"/>
<path d="M192.306 195.367L304.804 130.579C305.798 130.141 306.661 129.45 307.306 128.575C307.951 127.701 308.356 126.673 308.481 125.593V105.275L304.648 108.734L301.314 106.802C301.687 106.365 301.937 106.023 301.875 105.898C301.812 105.773 300.223 103.031 300.223 103.031L220.851 56.2869L195.64 41.578L185.762 38.7422L70.3035 105.119L70.6152 107.768L67.4989 109.544L62.5752 107.332V127.525C62.6088 128.345 62.8681 129.139 63.3245 129.821C63.7809 130.503 64.4166 131.046 65.1617 131.389L177.192 196.052C179.589 197.128 182.206 197.626 184.831 197.507C187.456 197.388 190.016 196.655 192.306 195.367ZM237.96 145.319L187.04 173.147L182.646 172.929L97.571 125.312L74.0119 113.159L185.014 49.2129C185.543 48.9371 186.131 48.7931 186.728 48.7931C187.325 48.7931 187.913 48.9371 188.442 49.2129L296.483 111.539L237.96 145.319Z" fill="url(#paint16_linear_189_2070)"/>
<path d="M192.306 195.367L304.804 130.579C305.798 130.141 306.661 129.45 307.306 128.575C307.951 127.701 308.356 126.673 308.481 125.593V105.275L304.648 108.734L301.314 106.802C301.687 106.365 301.937 106.023 301.875 105.898C301.812 105.773 300.223 103.031 300.223 103.031L220.851 56.2869L195.64 41.578L185.762 38.7422L70.3035 105.119L70.6152 107.768L67.4989 109.544L62.5752 107.332V127.525C62.6088 128.345 62.8681 129.139 63.3245 129.821C63.7809 130.503 64.4166 131.046 65.1617 131.389L177.192 196.052C179.589 197.128 182.206 197.626 184.831 197.507C187.456 197.388 190.016 196.655 192.306 195.367ZM237.96 145.319L187.04 173.147L182.646 172.929L97.571 125.312L74.0119 113.159L185.014 49.2129C185.543 48.9371 186.131 48.7931 186.728 48.7931C187.325 48.7931 187.913 48.9371 188.442 49.2129L296.483 111.539L237.96 145.319Z" fill="url(#paint17_linear_189_2070)"/>
<path opacity="0.6" d="M184.173 197.488V172.9L187.009 173.056L237.929 145.228L296.452 111.323L294.52 110.201C296.328 109.173 306.58 106.306 308.45 105.215V125.533C308.325 126.613 307.92 127.641 307.275 128.515C306.63 129.39 305.767 130.081 304.773 130.519L192.275 195.307C189.791 196.678 187.01 197.427 184.173 197.488Z" fill="#0F054C"/>
<path d="M192.307 174.831L304.804 110.044C309.261 107.457 309.759 103.562 305.895 101.318L193.865 36.6862C191.479 35.6013 188.872 35.0898 186.253 35.1926C183.634 35.2954 181.076 36.0097 178.782 37.2783L66.2843 102.066C61.828 104.652 61.3294 108.548 65.1936 110.791L177.224 175.454C179.612 176.535 182.22 177.041 184.839 176.933C187.458 176.824 190.016 176.105 192.307 174.831ZM186.074 171.029C185.537 171.296 184.945 171.434 184.345 171.434C183.745 171.434 183.153 171.296 182.615 171.029L72.5791 107.519C71.7066 106.99 71.8313 106.117 72.8285 105.525L185.015 40.9244C185.552 40.658 186.144 40.5194 186.744 40.5194C187.344 40.5194 187.936 40.658 188.474 40.9244L298.51 104.341C299.382 104.87 299.289 105.743 298.26 106.335L186.074 171.029Z" fill="url(#paint18_linear_189_2070)"/>
<path d="M192.307 174.831L304.804 110.044C309.261 107.457 309.759 103.562 305.895 101.318L193.865 36.6862C191.479 35.6013 188.872 35.0898 186.253 35.1926C183.634 35.2954 181.076 36.0097 178.782 37.2783L66.2843 102.066C61.828 104.652 61.3294 108.548 65.1936 110.791L177.224 175.454C179.612 176.535 182.22 177.041 184.839 176.933C187.458 176.824 190.016 176.105 192.307 174.831ZM186.074 171.029C185.537 171.296 184.945 171.434 184.345 171.434C183.745 171.434 183.153 171.296 182.615 171.029L72.5791 107.519C71.7066 106.99 71.8313 106.117 72.8285 105.525L185.015 40.9244C185.552 40.658 186.144 40.5194 186.744 40.5194C187.344 40.5194 187.936 40.658 188.474 40.9244L298.51 104.341C299.382 104.87 299.289 105.743 298.26 106.335L186.074 171.029Z" fill="url(#paint19_linear_189_2070)"/>
<path d="M298.509 103.346L188.473 39.8361C187.939 39.5601 187.346 39.416 186.744 39.416C186.142 39.416 185.549 39.5601 185.014 39.8361L72.8282 104.468C72.018 104.935 71.7998 105.59 72.2049 106.119C72.3667 105.887 72.58 105.695 72.8282 105.558L185.014 40.9579C185.552 40.6915 186.144 40.5529 186.744 40.5529C187.344 40.5529 187.936 40.6915 188.473 40.9579L298.509 104.343C298.655 104.433 298.782 104.549 298.883 104.686C298.959 104.577 299.01 104.452 299.032 104.321C299.054 104.19 299.047 104.056 299.011 103.928C298.975 103.8 298.912 103.682 298.825 103.581C298.738 103.48 298.631 103.4 298.509 103.346Z" fill="#28FFFF"/>
<path d="M304.805 108.922L192.307 173.741C190.013 175.009 187.455 175.723 184.836 175.826C182.217 175.929 179.61 175.418 177.224 174.333L65.1939 109.67C64.5625 109.374 64.0052 108.94 63.5631 108.401C63.1209 107.862 62.805 107.231 62.6385 106.553C62.5539 107.457 62.7551 108.364 63.2136 109.146C63.672 109.929 64.3647 110.548 65.1939 110.916L177.224 175.579C179.613 176.659 182.221 177.166 184.84 177.057C187.459 176.949 190.016 176.229 192.307 174.956L304.805 110.168C307.516 108.61 308.731 106.553 308.451 104.715C308.184 105.638 307.72 106.493 307.09 107.219C306.461 107.945 305.681 108.526 304.805 108.922Z" fill="#28FFFF"/>
<path d="M188.473 49.0894C187.944 48.8136 187.356 48.6695 186.759 48.6695C186.162 48.6695 185.574 48.8136 185.045 49.0894L78.0629 110.698L72.6094 107.582C71.7368 107.052 71.8615 106.18 72.8587 105.588L185.045 40.987C185.582 40.7206 186.174 40.582 186.774 40.582C187.374 40.582 187.966 40.7206 188.504 40.987L298.509 104.341C299.381 104.871 299.288 105.743 298.259 106.335L293.055 109.452L188.473 49.0894Z" fill="#251C72"/>
<path opacity="0.7" d="M298.26 106.431C299.289 105.839 299.382 104.966 298.51 104.436L188.474 40.9265C187.936 40.6601 187.344 40.5215 186.744 40.5215C186.144 40.5215 185.552 40.6601 185.015 40.9265L72.8284 105.527C71.8312 106.119 71.7065 106.992 72.5791 107.521L182.615 171.031C183.153 171.298 183.745 171.436 184.345 171.436C184.945 171.436 185.537 171.298 186.074 171.031L298.26 106.431Z" fill="#28FFFF"/>
<path d="M192.306 160.435L304.804 95.6477C305.794 95.212 306.654 94.526 307.299 93.6572C307.943 92.7884 308.351 91.7668 308.481 90.6927V70.4058L304.648 73.8337L301.314 71.9016C301.687 71.4965 301.937 71.1225 301.875 70.9979C301.812 70.8732 300.223 68.162 300.223 68.162L220.851 21.4178L195.64 6.74013L185.762 3.9043L70.3035 70.063L70.6152 72.743L67.4989 74.5192L62.5752 72.3067V92.4691C62.6088 93.2888 62.8681 94.0834 63.3245 94.7652C63.7809 95.4471 64.4166 95.9896 65.1617 96.3332L177.192 160.996C179.578 162.098 182.19 162.622 184.816 162.524C187.442 162.427 190.009 161.711 192.306 160.435ZM237.96 110.388L187.04 138.216L182.646 137.998L97.571 90.4123L74.0119 78.2276L185.014 14.2815C185.543 14.0057 186.131 13.8617 186.728 13.8617C187.325 13.8617 187.913 14.0057 188.442 14.2815L296.483 76.6072L237.96 110.388Z" fill="url(#paint20_linear_189_2070)"/>
<path d="M192.306 160.435L304.804 95.6477C305.794 95.212 306.654 94.526 307.299 93.6572C307.943 92.7884 308.351 91.7668 308.481 90.6927V70.4058L304.648 73.8337L301.314 71.9016C301.687 71.4965 301.937 71.1225 301.875 70.9979C301.812 70.8732 300.223 68.162 300.223 68.162L220.851 21.4178L195.64 6.74013L185.762 3.9043L70.3035 70.063L70.6152 72.743L67.4989 74.5192L62.5752 72.3067V92.4691C62.6088 93.2888 62.8681 94.0834 63.3245 94.7652C63.7809 95.4471 64.4166 95.9896 65.1617 96.3332L177.192 160.996C179.578 162.098 182.19 162.622 184.816 162.524C187.442 162.427 190.009 161.711 192.306 160.435ZM237.96 110.388L187.04 138.216L182.646 137.998L97.571 90.4123L74.0119 78.2276L185.014 14.2815C185.543 14.0057 186.131 13.8617 186.728 13.8617C187.325 13.8617 187.913 14.0057 188.442 14.2815L296.483 76.6072L237.96 110.388Z" fill="url(#paint21_linear_189_2070)"/>
<path opacity="0.6" d="M184.173 162.396V137.934H187.009L237.929 110.105L296.484 76.2935L294.552 75.1716C296.359 74.1121 306.612 71.2451 308.481 70.1855V90.4726C308.351 91.5466 307.944 92.5682 307.299 93.437C306.654 94.3057 305.794 94.9917 304.804 95.4274L192.306 160.433C189.793 161.734 187.003 162.407 184.173 162.396Z" fill="#0F054C"/>
<path d="M192.307 139.742L304.804 74.9545C309.261 72.3991 309.759 68.5037 305.895 66.26L193.865 1.5037C191.478 0.416219 188.869 -0.0940344 186.249 0.014244C183.629 0.122522 181.071 0.84628 178.782 2.12694L66.2843 66.9456C61.828 69.501 61.3294 73.3963 65.1936 75.64L177.224 140.303C179.606 141.4 182.212 141.921 184.832 141.823C187.453 141.726 190.013 141.013 192.307 139.742ZM186.074 135.971C185.539 136.247 184.946 136.391 184.345 136.391C183.743 136.391 183.15 136.247 182.615 135.971L72.5791 72.4614C71.7066 71.9628 71.8313 71.0591 72.8285 70.467L185.015 5.8665C185.549 5.59048 186.142 5.44646 186.744 5.44646C187.346 5.44646 187.939 5.59048 188.474 5.8665L298.51 69.3763C299.382 69.8749 299.289 70.7786 298.26 71.3396L186.074 135.971Z" fill="url(#paint22_linear_189_2070)"/>
<path d="M192.307 139.742L304.804 74.9545C309.261 72.3991 309.759 68.5037 305.895 66.26L193.865 1.5037C191.478 0.416219 188.869 -0.0940344 186.249 0.014244C183.629 0.122522 181.071 0.84628 178.782 2.12694L66.2843 66.9456C61.828 69.501 61.3294 73.3963 65.1936 75.64L177.224 140.303C179.606 141.4 182.212 141.921 184.832 141.823C187.453 141.726 190.013 141.013 192.307 139.742ZM186.074 135.971C185.539 136.247 184.946 136.391 184.345 136.391C183.743 136.391 183.15 136.247 182.615 135.971L72.5791 72.4614C71.7066 71.9628 71.8313 71.0591 72.8285 70.467L185.015 5.8665C185.549 5.59048 186.142 5.44646 186.744 5.44646C187.346 5.44646 187.939 5.59048 188.474 5.8665L298.51 69.3763C299.382 69.8749 299.289 70.7786 298.26 71.3396L186.074 135.971Z" fill="url(#paint23_linear_189_2070)"/>
<path d="M298.509 68.2543L188.473 4.61986C187.936 4.35345 187.344 4.21484 186.744 4.21484C186.144 4.21484 185.552 4.35345 185.014 4.61986L72.8282 69.2204C72.018 69.6878 71.7998 70.3734 72.2049 70.872C72.3834 70.6548 72.5935 70.4658 72.8282 70.3111L185.014 5.71055C185.549 5.43453 186.142 5.29051 186.744 5.29051C187.346 5.29051 187.939 5.43453 188.473 5.71055L298.509 69.2204C298.653 69.2987 298.78 69.4046 298.883 69.532C298.948 69.4249 298.99 69.3055 299.006 69.1814C299.022 69.0573 299.012 68.9311 298.977 68.811C298.942 68.6909 298.882 68.5794 298.802 68.4836C298.721 68.3877 298.622 68.3097 298.509 68.2543Z" fill="#28FFFF"/>
<path d="M304.803 73.865L192.305 138.621C190.014 139.895 187.457 140.615 184.838 140.723C182.219 140.831 179.611 140.325 177.223 139.245L65.1921 74.5817C64.5633 74.2821 64.0082 73.8475 63.5665 73.3089C63.1248 72.7702 62.8074 72.1408 62.6368 71.4654C62.559 72.3636 62.7634 73.2636 63.2214 74.0401C63.6795 74.8165 64.3684 75.4308 65.1921 75.7971L177.223 140.46C179.609 141.547 182.218 142.058 184.838 141.949C187.459 141.841 190.017 141.117 192.305 139.837L304.803 75.0492C307.514 73.4911 308.73 71.4655 308.449 69.5957C308.186 70.5287 307.724 71.3936 307.095 72.1307C306.465 72.8678 305.683 73.4595 304.803 73.865Z" fill="#28FFFF"/>
<path d="M188.473 13.9696C187.944 13.6938 187.356 13.5498 186.759 13.5498C186.162 13.5498 185.574 13.6938 185.045 13.9696L78.0629 75.5785L72.6094 72.4623C71.7368 71.9637 71.8615 71.0599 72.8587 70.4678L185.045 5.8673C185.58 5.59129 186.173 5.44727 186.774 5.44727C187.376 5.44727 187.969 5.59129 188.504 5.8673L298.54 69.3771C299.412 69.8757 299.319 70.7795 298.29 71.3404L293.086 74.4567L188.473 13.9696Z" fill="#251C72"/>
<path opacity="0.7" d="M298.26 71.3404C299.289 70.7795 299.382 69.8757 298.51 69.3771L188.474 5.8673C187.939 5.59129 187.346 5.44727 186.744 5.44727C186.142 5.44727 185.549 5.59129 185.015 5.8673L72.8284 70.4678C71.8312 71.0599 71.7065 71.9637 72.5791 72.4623L182.615 135.972C183.15 136.248 183.743 136.392 184.345 136.392C184.946 136.392 185.539 136.248 186.074 135.972L298.26 71.3404Z" fill="#28FFFF"/>
<path d="M283.8 97.8589C283.759 98.4859 283.571 99.0944 283.251 99.6356C282.932 100.177 282.49 100.636 281.962 100.975C280.964 101.567 280.123 100.975 280.123 99.9157C280.169 99.2899 280.359 98.6832 280.678 98.1427C280.997 97.6023 281.436 97.1426 281.962 96.7994C282.99 96.2073 283.8 96.7059 283.8 97.8589Z" fill="#28FFFF"/>
<path d="M290.188 94.1829C290.144 94.8093 289.955 95.4169 289.636 95.9577C289.317 96.4985 288.876 96.9578 288.349 97.2992C287.352 97.8602 286.511 97.2992 286.511 96.2397C286.555 95.6133 286.744 95.0057 287.063 94.4649C287.382 93.9241 287.822 93.4648 288.349 93.1234C289.378 92.5313 290.188 92.9988 290.188 94.1829Z" fill="#28FFFF"/>
<path d="M296.577 90.4742C296.536 91.1011 296.347 91.7097 296.028 92.2508C295.709 92.792 295.267 93.2508 294.738 93.5904C293.741 94.1825 292.9 93.5905 292.9 92.5309C292.951 91.9063 293.143 91.3013 293.461 90.7615C293.78 90.2217 294.216 89.7613 294.738 89.4146C295.767 88.7602 296.577 89.3211 296.577 90.4742Z" fill="#28FFFF"/>
<path d="M283.8 133.667C283.764 134.296 283.578 134.906 283.258 135.448C282.938 135.99 282.494 136.448 281.962 136.784C280.964 137.376 280.123 136.784 280.123 135.724C280.174 135.099 280.366 134.494 280.684 133.955C281.003 133.415 281.44 132.954 281.962 132.608C282.99 132.047 283.8 132.39 283.8 133.667Z" fill="#28FFFF"/>
<path d="M290.188 129.99C290.144 130.616 289.955 131.224 289.636 131.764C289.317 132.305 288.876 132.764 288.349 133.106C287.352 133.698 286.511 133.106 286.511 132.046C286.557 131.421 286.747 130.814 287.066 130.273C287.385 129.733 287.824 129.273 288.349 128.93C289.378 128.338 290.188 128.805 290.188 129.99Z" fill="#28FFFF"/>
<path d="M296.577 126.156C296.54 126.784 296.354 127.395 296.035 127.937C295.715 128.479 295.271 128.937 294.738 129.273C293.741 129.865 292.9 129.273 292.9 128.213C292.944 127.587 293.133 126.979 293.452 126.438C293.771 125.897 294.211 125.438 294.738 125.097C295.767 124.66 296.577 125.128 296.577 126.156Z" fill="#28FFFF"/>
<path d="M283.8 202.784C283.756 203.411 283.567 204.018 283.248 204.559C282.929 205.1 282.489 205.559 281.962 205.901C280.964 206.462 280.123 205.901 280.123 204.841C280.167 204.215 280.356 203.607 280.675 203.066C280.994 202.526 281.435 202.066 281.962 201.725C282.99 201.133 283.8 201.6 283.8 202.784Z" fill="#706EC4"/>
<path d="M290.188 199.077C290.146 199.704 289.958 200.313 289.639 200.854C289.32 201.395 288.878 201.854 288.349 202.194C287.352 202.786 286.511 202.194 286.511 201.134C286.562 200.51 286.754 199.905 287.072 199.365C287.39 198.825 287.827 198.365 288.349 198.018C289.378 197.426 290.188 197.831 290.188 199.077Z" fill="#706EC4"/>
<path d="M296.577 195.398C296.533 196.024 296.344 196.632 296.025 197.173C295.706 197.713 295.266 198.173 294.738 198.514C293.741 199.075 292.9 198.514 292.9 197.455C292.946 196.829 293.136 196.222 293.455 195.682C293.774 195.141 294.213 194.681 294.738 194.338C295.767 193.746 296.577 194.214 296.577 195.398Z" fill="#706EC4"/>
<defs>
<linearGradient id="paint0_linear_189_2070" x1="-41.6649" y1="321.921" x2="346.655" y2="321.921" gradientUnits="userSpaceOnUse">
<stop stop-color="#706EC4"/>
<stop offset="0.02" stop-color="#6D6BC2"/>
<stop offset="0.25" stop-color="#5651AC"/>
<stop offset="0.49" stop-color="#463F9D"/>
<stop offset="0.73" stop-color="#3C3494"/>
<stop offset="1" stop-color="#393091"/>
</linearGradient>
<linearGradient id="paint1_linear_189_2070" x1="68.247" y1="269.443" x2="301.314" y2="269.443" gradientUnits="userSpaceOnUse">
<stop stop-color="#42E8E0"/>
<stop offset="0.15" stop-color="#43E3E0"/>
<stop offset="0.33" stop-color="#45D5DF"/>
<stop offset="0.52" stop-color="#49BDDD"/>
<stop offset="0.72" stop-color="#4E9CDB"/>
<stop offset="0.93" stop-color="#5472D8"/>
<stop offset="1" stop-color="#5761D7"/>
</linearGradient>
<linearGradient id="paint2_linear_189_2070" x1="49102.7" y1="19050.3" x2="53461.6" y2="19050.3" gradientUnits="userSpaceOnUse">
<stop stop-color="#42E8E0"/>
<stop offset="0.15" stop-color="#43E3E0"/>
<stop offset="0.33" stop-color="#45D5DF"/>
<stop offset="0.52" stop-color="#49BDDD"/>
<stop offset="0.72" stop-color="#4E9CDB"/>
<stop offset="0.93" stop-color="#5472D8"/>
<stop offset="1" stop-color="#5761D7"/>
</linearGradient>
<linearGradient id="paint3_linear_189_2070" x1="44628.4" y1="19050.3" x2="48986.1" y2="19050.3" gradientUnits="userSpaceOnUse">
<stop stop-color="#42E8E0"/>
<stop offset="0.15" stop-color="#43E3E0"/>
<stop offset="0.33" stop-color="#45D5DF"/>
<stop offset="0.52" stop-color="#49BDDD"/>
<stop offset="0.72" stop-color="#4E9CDB"/>
<stop offset="0.93" stop-color="#5472D8"/>
<stop offset="1" stop-color="#5761D7"/>
</linearGradient>
<linearGradient id="paint4_linear_189_2070" x1="89188.5" y1="31405.2" x2="106622" y2="31405.2" gradientUnits="userSpaceOnUse">
<stop stop-color="#42E8E0"/>
<stop offset="0.15" stop-color="#43E3E0"/>
<stop offset="0.33" stop-color="#45D5DF"/>
<stop offset="0.52" stop-color="#49BDDD"/>
<stop offset="0.72" stop-color="#4E9CDB"/>
<stop offset="0.93" stop-color="#5472D8"/>
<stop offset="1" stop-color="#5761D7"/>
</linearGradient>
<linearGradient id="paint5_linear_189_2070" x1="49102.7" y1="20929.2" x2="53461.6" y2="20929.2" gradientUnits="userSpaceOnUse">
<stop stop-color="#42E8E0"/>
<stop offset="0.15" stop-color="#43E3E0"/>
<stop offset="0.33" stop-color="#45D5DF"/>
<stop offset="0.52" stop-color="#49BDDD"/>
<stop offset="0.72" stop-color="#4E9CDB"/>
<stop offset="0.93" stop-color="#5472D8"/>
<stop offset="1" stop-color="#5761D7"/>
</linearGradient>
<linearGradient id="paint6_linear_189_2070" x1="44628.4" y1="20929.2" x2="48986.1" y2="20929.2" gradientUnits="userSpaceOnUse">
<stop stop-color="#42E8E0"/>
<stop offset="0.15" stop-color="#43E3E0"/>
<stop offset="0.33" stop-color="#45D5DF"/>
<stop offset="0.52" stop-color="#49BDDD"/>
<stop offset="0.72" stop-color="#4E9CDB"/>
<stop offset="0.93" stop-color="#5472D8"/>
<stop offset="1" stop-color="#5761D7"/>
</linearGradient>
<linearGradient id="paint7_linear_189_2070" x1="89188.5" y1="28803.1" x2="106622" y2="28803.1" gradientUnits="userSpaceOnUse">
<stop stop-color="#42E8E0"/>
<stop offset="0.15" stop-color="#43E3E0"/>
<stop offset="0.33" stop-color="#45D5DF"/>
<stop offset="0.52" stop-color="#49BDDD"/>
<stop offset="0.72" stop-color="#4E9CDB"/>
<stop offset="0.93" stop-color="#5472D8"/>
<stop offset="1" stop-color="#5761D7"/>
</linearGradient>
<linearGradient id="paint8_linear_189_2070" x1="187.274" y1="137.802" x2="244.474" y2="237.328" gradientUnits="userSpaceOnUse">
<stop stop-color="#BCBEFF"/>
<stop offset="0.17" stop-color="#B6B8FC"/>
<stop offset="0.4" stop-color="#A4A8F5"/>
<stop offset="0.66" stop-color="#868DEA"/>
<stop offset="0.96" stop-color="#5E67DA"/>
<stop offset="1" stop-color="#5761D7"/>
</linearGradient>
<linearGradient id="paint9_linear_189_2070" x1="229663" y1="-302369" x2="234176" y2="-294516" gradientUnits="userSpaceOnUse">
<stop stop-color="#706EC4"/>
<stop offset="0.02" stop-color="#6D6BC2"/>
<stop offset="0.25" stop-color="#5651AC"/>
<stop offset="0.49" stop-color="#463F9D"/>
<stop offset="0.73" stop-color="#3C3494"/>
<stop offset="1" stop-color="#393091"/>
</linearGradient>
<linearGradient id="paint10_linear_189_2070" x1="-152735" y1="317357" x2="-142795" y2="317357" gradientUnits="userSpaceOnUse">
<stop stop-color="#BCBEFF"/>
<stop offset="0.17" stop-color="#B6B8FC"/>
<stop offset="0.4" stop-color="#A4A8F5"/>
<stop offset="0.66" stop-color="#868DEA"/>
<stop offset="0.96" stop-color="#5E67DA"/>
<stop offset="1" stop-color="#5761D7"/>
</linearGradient>
<linearGradient id="paint11_linear_189_2070" x1="194941" y1="-286784" x2="203906" y2="-271184" gradientUnits="userSpaceOnUse">
<stop stop-color="#706EC4"/>
<stop offset="0.02" stop-color="#6D6BC2"/>
<stop offset="0.25" stop-color="#5651AC"/>
<stop offset="0.49" stop-color="#463F9D"/>
<stop offset="0.73" stop-color="#3C3494"/>
<stop offset="1" stop-color="#393091"/>
</linearGradient>
<linearGradient id="paint12_linear_189_2070" x1="-152731" y1="355929" x2="-143704" y2="355929" gradientUnits="userSpaceOnUse">
<stop stop-color="#BCBEFF"/>
<stop offset="0.17" stop-color="#B6B8FC"/>
<stop offset="0.4" stop-color="#A4A8F5"/>
<stop offset="0.66" stop-color="#868DEA"/>
<stop offset="0.96" stop-color="#5E67DA"/>
<stop offset="1" stop-color="#5761D7"/>
</linearGradient>
<linearGradient id="paint13_linear_189_2070" x1="229187" y1="-304874" x2="233700" y2="-297020" gradientUnits="userSpaceOnUse">
<stop stop-color="#706EC4"/>
<stop offset="0.02" stop-color="#6D6BC2"/>
<stop offset="0.25" stop-color="#5651AC"/>
<stop offset="0.49" stop-color="#463F9D"/>
<stop offset="0.73" stop-color="#3C3494"/>
<stop offset="1" stop-color="#393091"/>
</linearGradient>
<linearGradient id="paint14_linear_189_2070" x1="-155132" y1="318119" x2="-145195" y2="318119" gradientUnits="userSpaceOnUse">
<stop stop-color="#BCBEFF"/>
<stop offset="0.17" stop-color="#B6B8FC"/>
<stop offset="0.4" stop-color="#A4A8F5"/>
<stop offset="0.66" stop-color="#868DEA"/>
<stop offset="0.96" stop-color="#5E67DA"/>
<stop offset="1" stop-color="#5761D7"/>
</linearGradient>
<linearGradient id="paint15_linear_189_2070" x1="194403" y1="-289253" x2="203369" y2="-273653" gradientUnits="userSpaceOnUse">
<stop stop-color="#706EC4"/>
<stop offset="0.02" stop-color="#6D6BC2"/>
<stop offset="0.25" stop-color="#5651AC"/>
<stop offset="0.49" stop-color="#463F9D"/>
<stop offset="0.73" stop-color="#3C3494"/>
<stop offset="1" stop-color="#393091"/>
</linearGradient>
<linearGradient id="paint16_linear_189_2070" x1="-155129" y1="356848" x2="-146101" y2="356848" gradientUnits="userSpaceOnUse">
<stop stop-color="#BCBEFF"/>
<stop offset="0.17" stop-color="#B6B8FC"/>
<stop offset="0.4" stop-color="#A4A8F5"/>
<stop offset="0.66" stop-color="#868DEA"/>
<stop offset="0.96" stop-color="#5E67DA"/>
<stop offset="1" stop-color="#5761D7"/>
</linearGradient>
<linearGradient id="paint17_linear_189_2070" x1="228787" y1="-307419" x2="233301" y2="-299565" gradientUnits="userSpaceOnUse">
<stop stop-color="#706EC4"/>
<stop offset="0.02" stop-color="#6D6BC2"/>
<stop offset="0.25" stop-color="#5651AC"/>
<stop offset="0.49" stop-color="#463F9D"/>
<stop offset="0.73" stop-color="#3C3494"/>
<stop offset="1" stop-color="#393091"/>
</linearGradient>
<linearGradient id="paint18_linear_189_2070" x1="-157533" y1="318854" x2="-147593" y2="318854" gradientUnits="userSpaceOnUse">
<stop stop-color="#BCBEFF"/>
<stop offset="0.17" stop-color="#B6B8FC"/>
<stop offset="0.4" stop-color="#A4A8F5"/>
<stop offset="0.66" stop-color="#868DEA"/>
<stop offset="0.96" stop-color="#5E67DA"/>
<stop offset="1" stop-color="#5761D7"/>
</linearGradient>
<linearGradient id="paint19_linear_189_2070" x1="193844" y1="-291707" x2="202810" y2="-276106" gradientUnits="userSpaceOnUse">
<stop stop-color="#706EC4"/>
<stop offset="0.02" stop-color="#6D6BC2"/>
<stop offset="0.25" stop-color="#5651AC"/>
<stop offset="0.49" stop-color="#463F9D"/>
<stop offset="0.73" stop-color="#3C3494"/>
<stop offset="1" stop-color="#393091"/>
</linearGradient>
<linearGradient id="paint20_linear_189_2070" x1="-157526" y1="357366" x2="-148499" y2="357366" gradientUnits="userSpaceOnUse">
<stop stop-color="#BCBEFF"/>
<stop offset="0.17" stop-color="#B6B8FC"/>
<stop offset="0.4" stop-color="#A4A8F5"/>
<stop offset="0.66" stop-color="#868DEA"/>
<stop offset="0.96" stop-color="#5E67DA"/>
<stop offset="1" stop-color="#5761D7"/>
</linearGradient>
<linearGradient id="paint21_linear_189_2070" x1="228039" y1="-309763" x2="232552" y2="-301910" gradientUnits="userSpaceOnUse">
<stop stop-color="#706EC4"/>
<stop offset="0.02" stop-color="#6D6BC2"/>
<stop offset="0.25" stop-color="#5651AC"/>
<stop offset="0.49" stop-color="#463F9D"/>
<stop offset="0.73" stop-color="#3C3494"/>
<stop offset="1" stop-color="#393091"/>
</linearGradient>
<linearGradient id="paint22_linear_189_2070" x1="-159930" y1="319768" x2="-149993" y2="319768" gradientUnits="userSpaceOnUse">
<stop stop-color="#BCBEFF"/>
<stop offset="0.17" stop-color="#B6B8FC"/>
<stop offset="0.4" stop-color="#A4A8F5"/>
<stop offset="0.66" stop-color="#868DEA"/>
<stop offset="0.96" stop-color="#5E67DA"/>
<stop offset="1" stop-color="#5761D7"/>
</linearGradient>
<linearGradient id="paint23_linear_189_2070" x1="193440" y1="-294250" x2="202405" y2="-278651" gradientUnits="userSpaceOnUse">
<stop stop-color="#706EC4"/>
<stop offset="0.02" stop-color="#6D6BC2"/>
<stop offset="0.25" stop-color="#5651AC"/>
<stop offset="0.49" stop-color="#463F9D"/>
<stop offset="0.73" stop-color="#3C3494"/>
<stop offset="1" stop-color="#393091"/>
</linearGradient>
</defs>
</svg>
