<svg width="48" height="48" viewBox="0 0 48 48" fill="none" xmlns="http://www.w3.org/2000/svg">
<path d="M40.1707 39.0496C39.4032 39.4516 38.5612 39.7007 37.6683 39.7901C37.4766 39.8093 37.3011 39.9063 37.1829 40.0586C37.0647 40.2108 37.0142 40.4049 37.0432 40.5955C37.0837 40.8611 37.1024 41.08 37.1024 41.2844C37.1024 44.2118 34.3213 46.5933 30.9028 46.5933C28.4126 46.5933 26.1721 45.3235 25.195 43.3581C25.0838 43.1346 24.9121 42.9541 24.7032 42.8297V33.9453C24.7566 33.9435 24.8099 33.9416 24.8645 33.9397C26.2385 33.891 27.9476 33.8297 28.8996 34.7483C29.3897 35.2212 29.6752 35.9591 29.753 36.9445C28.9453 37.2407 28.3675 38.0168 28.3675 38.9251C28.3675 40.0881 29.3146 41.0343 30.4787 41.0343C31.6428 41.0343 32.59 40.0881 32.59 38.9251C32.59 38.0012 31.9918 37.2146 31.1623 36.9302C31.0692 35.5441 30.6378 34.4713 29.8762 33.7363C28.4942 32.4028 26.3674 32.4789 24.8144 32.5343C24.7768 32.5356 24.7403 32.5369 24.7033 32.5382V28.1179C31.8757 28.1325 35.4959 28.4265 35.8094 32.2909C35.0019 32.5873 34.4241 33.3632 34.4241 34.2716C34.4241 35.4346 35.3713 36.3808 36.5353 36.3808C37.6994 36.3808 38.6466 35.4346 38.6466 34.2716C38.6466 33.3471 38.0479 32.5604 37.2178 32.2762C37.0444 29.7838 35.7407 28.193 33.2454 27.4237C31.0808 26.7564 28.1254 26.7139 24.7033 26.7113V22.3181C28.1254 22.3154 31.0808 22.273 33.2454 21.6057C35.7407 20.8364 37.0444 19.2456 37.2178 16.7532C38.0479 16.469 38.6466 15.6822 38.6466 14.7577C38.6466 13.5948 37.6994 12.6486 36.5353 12.6486C35.3713 12.6486 34.4241 13.5948 34.4241 14.7577C34.4241 15.6661 35.0019 16.4421 35.8094 16.7385C35.4959 20.6029 31.8757 20.8969 24.7033 20.9115V16.6308C24.7403 16.6321 24.7768 16.6333 24.8144 16.6347C25.1435 16.6464 25.4983 16.6592 25.8662 16.6592C27.2353 16.6592 28.787 16.4837 29.8762 15.4327C30.6379 14.6978 31.0692 13.6249 31.1623 12.2389C31.9918 11.9544 32.59 11.1679 32.59 10.2439C32.59 9.08089 31.6428 8.13477 30.4787 8.13477C29.3146 8.13477 28.3675 9.08089 28.3675 10.2439C28.3675 11.1522 28.9452 11.9284 29.753 12.2246C29.6752 13.21 29.3897 13.9479 28.8996 14.4207C27.9476 15.3394 26.2379 15.2779 24.8646 15.2293C24.81 15.2273 24.7567 15.2254 24.7032 15.2237V12.1774C24.7032 11.7889 24.3884 11.4742 24 11.4742C23.6116 11.4742 23.2969 11.7889 23.2969 12.1774V42.8299C23.0879 42.9542 22.9162 43.1349 22.805 43.3585C21.8279 45.3235 19.5875 46.5933 17.0972 46.5933C13.6787 46.5933 10.8976 44.2118 10.8976 41.2844C10.8976 41.08 10.9164 40.8611 10.9569 40.5955C10.9585 40.5839 11.1293 39.4186 11.9307 38.6455C12.2101 38.376 12.2181 37.9308 11.9485 37.6514C11.6788 37.372 11.2336 37.3637 10.9543 37.6336C10.264 38.2996 9.9065 39.1258 9.72828 39.7012C8.09131 39.3909 6.63481 38.5084 5.75413 37.2677C5.52941 36.9512 5.09038 36.8766 4.77369 37.1013C4.4571 37.3262 4.38256 37.7651 4.60738 38.0818C5.71925 39.6481 7.47463 40.7214 9.49541 41.0912C9.49288 41.1565 9.49156 41.2207 9.49156 41.2846C9.49156 44.9873 12.9036 47.9998 17.0974 47.9998C20.0648 47.9998 22.7572 46.4776 24.0002 44.1102C25.2432 46.4775 27.9355 47.9996 30.9028 47.9996C35.0967 47.9996 38.5087 44.9871 38.5087 41.2844C38.5087 41.2205 38.5074 41.1564 38.5048 41.0911C39.3216 40.9412 40.0989 40.6747 40.8233 40.2952C41.1673 40.115 41.3 39.6901 41.1198 39.3461C40.9396 39.002 40.5148 38.8693 40.1707 39.0496ZM30.4786 38.2224C30.8673 38.2224 31.1836 38.5377 31.1836 38.9252C31.1836 39.3129 30.8674 39.6282 30.4786 39.6282C30.0898 39.6282 29.7736 39.3129 29.7736 38.9252C29.7737 38.5377 30.0899 38.2224 30.4786 38.2224ZM36.5353 33.5687C36.9239 33.5687 37.2402 33.884 37.2402 34.2716C37.2402 34.6592 36.924 34.9745 36.5353 34.9745C36.1465 34.9745 35.8302 34.6592 35.8302 34.2716C35.8302 33.8841 36.1466 33.5687 36.5353 33.5687ZM36.5353 14.0549C36.9239 14.0549 37.2402 14.3702 37.2402 14.7577C37.2402 15.1454 36.924 15.4607 36.5353 15.4607C36.1465 15.4607 35.8302 15.1454 35.8302 14.7577C35.8302 14.3702 36.1466 14.0549 36.5353 14.0549ZM30.4786 9.54083C30.8673 9.54083 31.1836 9.85611 31.1836 10.2437C31.1836 10.6313 30.8674 10.9466 30.4786 10.9466C30.0898 10.9466 29.7736 10.6313 29.7736 10.2437C29.7737 9.8562 30.0899 9.54083 30.4786 9.54083Z" fill="white"/>
<path d="M4.85766 34.5203C4.85766 33.2487 5.39213 31.9817 6.32409 31.0445C6.50391 30.8635 6.57178 30.5995 6.50128 30.3544C6.43078 30.1093 6.23306 29.9215 5.98453 29.8639C3.28894 29.2377 1.40625 27.1351 1.40625 24.7506C1.40625 23.2675 2.09709 21.8581 3.35147 20.7819C3.50166 20.6532 3.59053 20.4672 3.59644 20.2695C3.60244 20.0719 3.52491 19.8808 3.38297 19.7433C2.66475 19.0475 2.26922 18.1569 2.26922 17.2355C2.26922 15.17 4.17253 13.5011 6.60216 13.4364C6.61312 13.4365 7.68553 13.4542 8.43919 14.1208C8.57297 14.2391 8.73919 14.2972 8.90475 14.2972C9.09919 14.2972 9.29278 14.2171 9.43172 14.06C9.68897 13.7691 9.66169 13.3247 9.37088 13.0674C8.56069 12.3509 7.55541 12.1296 6.99975 12.0612C6.72769 11.562 6.58341 11.0189 6.58341 10.4721C6.58341 9.3103 7.19784 8.22608 8.26912 7.49746C8.59022 7.27911 8.67347 6.84177 8.45503 6.52068C8.23669 6.19958 7.79925 6.11624 7.47825 6.33477C6.01575 7.32936 5.17706 8.83743 5.17706 10.4721C5.17706 11.0425 5.28384 11.6078 5.49028 12.1453C2.82375 12.6499 0.862969 14.7286 0.862969 17.2357C0.862969 18.3064 1.23112 19.3392 1.91184 20.2072C0.673875 21.4837 0 23.0737 0 24.7506C0 27.4596 1.84763 29.8702 4.60819 30.9129C3.86437 31.9774 3.45141 33.2451 3.45141 34.5203C3.45141 34.9087 3.76612 35.2235 4.15453 35.2235C4.54294 35.2235 4.85766 34.9086 4.85766 34.5203Z" fill="#53E3F2"/>
<path d="M47.9998 24.7515C47.9998 23.0744 47.326 21.4844 46.0878 20.2079C46.7686 19.3398 47.1367 18.3069 47.1367 17.2364C47.1367 14.7293 45.1758 12.6505 42.5093 12.146C42.7159 11.6085 42.8226 11.0431 42.8226 10.4728C42.8226 7.59881 40.1848 5.26059 36.9424 5.26059C36.8778 5.26059 36.8083 5.26209 36.7357 5.26472C36.5559 3.93863 35.8637 2.70094 34.7468 1.72969C33.4889 0.635719 31.8512 0.0215625 30.1353 0.00065625C30.1041 0.0001875 30.0729 0 30.0417 0C27.4853 0 25.1362 1.28728 23.9998 3.30731C22.8633 1.28719 20.5145 0 17.9579 0C17.9268 0 17.8953 0.0001875 17.8642 0.00065625C16.1483 0.0216563 14.5106 0.635719 13.2527 1.72969C12.136 2.70075 11.4438 3.93834 11.2638 5.26472C11.1913 5.26209 11.1218 5.26059 11.0571 5.26059C10.6687 5.26059 10.354 5.57531 10.354 5.96372C10.354 6.35213 10.6687 6.66684 11.0571 6.66684C11.272 6.66684 11.5713 6.68869 11.8383 6.72384C12.0498 6.75169 12.2604 6.68278 12.4142 6.53681C12.5681 6.39075 12.6478 6.18309 12.6311 5.97159L12.6269 5.92359C12.6258 5.91094 12.6243 5.89838 12.6238 5.89247C12.6665 3.49538 15.0743 1.44113 17.8815 1.40663C20.0021 1.38506 21.9404 2.43047 22.8206 4.08131C22.9317 4.28972 23.0975 4.45903 23.2968 4.57772V8.93147C23.2968 9.31988 23.6115 9.63459 23.9999 9.63459C24.3883 9.63459 24.703 9.31988 24.703 8.93147V4.57781C24.9022 4.45922 25.0681 4.28981 25.1792 4.08141C26.0486 2.45063 27.9511 1.40625 30.0409 1.40625C30.0666 1.40625 30.0924 1.40644 30.1181 1.40672C32.9253 1.44113 35.333 3.49538 35.3758 5.88572C35.3644 5.87766 35.3558 7.29525 34.5999 8.19872C34.3507 8.49656 34.3902 8.93991 34.6879 9.18909C34.8195 9.29925 34.9795 9.35297 35.1388 9.35297C35.3398 9.35297 35.5393 9.26728 35.6784 9.10097C36.3332 8.31844 36.5993 7.34513 36.7077 6.67369C36.7922 6.66928 36.8721 6.66675 36.9425 6.66675C39.4094 6.66675 41.4165 8.37413 41.4165 10.4727C41.4165 11.124 41.2143 11.771 40.8318 12.3437C40.6894 12.5566 40.6743 12.8301 40.792 13.0574C40.9097 13.2848 41.1417 13.4303 41.3977 13.4371C43.8274 13.5018 45.7307 15.1706 45.7307 17.2362C45.7307 18.1576 45.3351 19.0481 44.6169 19.7439C44.6098 19.7513 43.8577 20.4998 42.8769 20.5778C42.4898 20.6085 42.201 20.9472 42.2317 21.3344C42.2611 21.7026 42.5688 21.9818 42.9319 21.9818C42.9506 21.9818 42.9694 21.981 42.9885 21.9796C43.8793 21.9088 44.6114 21.5102 45.0738 21.1832C46.0577 22.1976 46.5935 23.4458 46.5935 24.7515C46.5935 27.136 44.7108 29.2386 42.0153 29.8646C41.7668 29.9223 41.569 30.1101 41.4985 30.3551C41.428 30.6003 41.4958 30.8644 41.6757 31.0452C42.6076 31.9825 43.1421 33.2495 43.1421 34.5211C43.1421 35.4107 42.8793 36.2906 42.3824 37.0659C42.1728 37.3928 42.2678 37.8278 42.5948 38.0373C42.7123 38.1127 42.8437 38.1487 42.9737 38.1487C43.2052 38.1487 43.432 38.0344 43.5662 37.8249C44.2087 36.8228 44.5485 35.6803 44.5485 34.5212C44.5485 33.2461 44.1354 31.9783 43.3916 30.9138C46.1522 29.8712 47.9998 27.4606 47.9998 24.7515Z" fill="#53E3F2"/>
<path d="M7.94204 24.0558C7.92029 24.4435 8.21701 24.7755 8.60457 24.7972C8.61807 24.798 8.63139 24.7984 8.6447 24.7984C9.01492 24.7984 9.32504 24.5089 9.34604 24.1347C9.34801 24.0994 9.58529 20.595 13.1319 19.7323C13.5092 19.6405 13.7407 19.2603 13.6489 18.8829C13.5571 18.5056 13.1771 18.2738 12.7995 18.3659C10.4227 18.944 9.22604 20.4606 8.64067 21.6311C8.01423 22.8838 7.94467 24.0085 7.94204 24.0558Z" fill="#53E3F2"/>
<path d="M18.8301 7.79216C18.4456 7.75607 18.1007 8.03947 18.0641 8.42619C17.8559 10.6329 15.5707 11.4781 15.4706 11.514C15.1055 11.6433 14.9136 12.0436 15.0417 12.4094C15.1431 12.699 15.4148 12.8802 15.7053 12.8802C15.7823 12.8802 15.8609 12.8673 15.9378 12.8404C16.0696 12.7942 19.1703 11.6729 19.4641 8.55819C19.5006 8.17157 19.2168 7.82863 18.8301 7.79216Z" fill="#53E3F2"/>
<path d="M18.2638 39.1246C18.3614 39.171 18.4642 39.1929 18.5655 39.1929C18.8283 39.1929 19.0803 39.0449 19.2008 38.7917C19.3676 38.4411 19.2186 38.0215 18.868 37.8547C16.1621 36.5672 16.3937 33.5064 16.4051 33.3738C16.44 32.9881 16.1563 32.6465 15.7703 32.6103C15.3844 32.5755 15.0408 32.8582 15.0047 33.2449C14.989 33.4141 14.6582 37.4089 18.2638 39.1246Z" fill="#53E3F2"/>
<path d="M16.598 26.0752C16.2473 26.242 16.0983 26.6615 16.2651 27.0121C16.3855 27.2653 16.6377 27.4134 16.9005 27.4134C17.0017 27.4134 17.1046 27.3914 17.2021 27.345C19.4784 26.262 19.2702 23.746 19.2602 23.6395C19.2239 23.2527 18.88 22.97 18.4945 23.0049C18.1079 23.0411 17.8238 23.3839 17.8599 23.7705C17.8615 23.7868 17.9967 25.4096 16.598 26.0752Z" fill="#53E3F2"/>
<path d="M33.313 24.584C33.313 24.9723 33.6278 25.2871 34.0162 25.2871C34.4046 25.2871 34.7194 24.9723 34.7194 24.584C34.7194 24.1957 34.4046 23.8809 34.0162 23.8809C33.6278 23.8809 33.313 24.1957 33.313 24.584Z" fill="white"/>
<path d="M38.7965 25.2871C39.1849 25.2871 39.4997 24.9723 39.4997 24.584C39.4997 24.1957 39.1849 23.8809 38.7965 23.8809C38.4081 23.8809 38.0933 24.1957 38.0933 24.584C38.0933 24.9723 38.4082 25.2871 38.7965 25.2871Z" fill="white"/>
<path d="M29.7759 43.9434C29.7759 44.3317 30.0907 44.6465 30.4791 44.6465C30.8675 44.6465 31.1823 44.3317 31.1823 43.9434C31.1823 43.555 30.8675 43.2402 30.4791 43.2402C30.0907 43.2402 29.7759 43.555 29.7759 43.9434Z" fill="white"/>
<path d="M31.1823 5.22461C31.1823 4.8363 30.8675 4.52148 30.4791 4.52148C30.0907 4.52148 29.7759 4.8363 29.7759 5.22461C29.7759 5.61292 30.0907 5.92773 30.4791 5.92773C30.8675 5.92773 31.1823 5.61292 31.1823 5.22461Z" fill="white"/>
</svg>
