<svg width="308" height="141" viewBox="0 0 308 141" fill="none" xmlns="http://www.w3.org/2000/svg">
<path style="mix-blend-mode:screen" d="M212.198 51.0116C212.196 48.9187 212.88 46.8722 214.163 45.131C215.446 43.3898 217.271 42.0321 219.407 41.2297C221.543 40.4273 223.895 40.2162 226.163 40.6232C228.432 41.0301 230.516 42.0369 232.153 43.516C233.789 44.9951 234.904 46.8802 235.356 48.9327C235.808 50.9852 235.577 53.1129 234.692 55.0467C233.808 56.9805 232.309 58.6334 230.386 59.7963C228.464 60.9593 226.203 61.5801 223.89 61.5801C220.791 61.5801 217.819 60.467 215.627 58.4853C213.435 56.5036 212.201 53.8155 212.198 51.0116Z" fill="url(#paint0_radial_1504_543)"/>
<path style="mix-blend-mode:screen" d="M209.657 88.0291C209.655 85.9362 210.339 83.8897 211.622 82.1485C212.905 80.4073 214.73 79.0496 216.866 78.2472C219.002 77.4448 221.354 77.2337 223.622 77.6407C225.891 78.0476 227.975 79.0544 229.612 80.5335C231.248 82.0126 232.363 83.8977 232.815 85.9502C233.267 88.0027 233.036 90.1305 232.151 92.0642C231.267 93.998 229.768 95.6509 227.845 96.8139C225.923 97.9769 223.662 98.5977 221.349 98.5977C218.25 98.5977 215.278 97.4845 213.086 95.5029C210.894 93.5212 209.66 90.8331 209.657 88.0291Z" fill="url(#paint1_radial_1504_543)"/>
<path style="mix-blend-mode:screen" d="M199.198 10.5788C199.198 8.48635 199.884 6.44093 201.169 4.70115C202.453 2.96137 204.279 1.60538 206.416 0.804644C208.552 0.00391006 210.903 -0.205597 213.171 0.202614C215.439 0.610823 217.522 1.61841 219.157 3.09797C220.792 4.57754 221.906 6.46262 222.357 8.51482C222.808 10.567 222.576 12.6942 221.691 14.6273C220.806 16.5605 219.308 18.2128 217.385 19.3753C215.463 20.5377 213.202 21.1582 210.89 21.1582C207.789 21.1582 204.815 20.0436 202.623 18.0596C200.43 16.0755 199.198 13.3846 199.198 10.5788Z" fill="url(#paint2_radial_1504_543)"/>
<path style="mix-blend-mode:screen" d="M247.282 34.0954C253.568 35.4326 257.466 41.1275 255.988 46.8153C254.51 52.5031 248.217 56.0299 241.931 54.6927C235.645 53.3555 231.748 47.6606 233.226 41.9729C234.703 36.2851 240.997 32.7582 247.282 34.0954Z" fill="url(#paint3_radial_1504_543)"/>
<path style="mix-blend-mode:screen" d="M244.741 71.113C251.027 72.4502 254.925 78.1451 253.447 83.8329C251.969 89.5206 245.676 93.0475 239.39 91.7103C233.104 90.3731 229.207 84.6782 230.685 78.9904C232.162 73.3027 238.456 69.7758 244.741 71.113Z" fill="url(#paint4_radial_1504_543)"/>
<path d="M176 53.5716C176 53.4262 176.048 53.284 176.137 53.1633C176.227 53.0425 176.354 52.9486 176.503 52.8934C176.652 52.8383 176.815 52.8244 176.973 52.8536C177.13 52.8828 177.274 52.9537 177.387 53.0573C177.5 53.1609 177.576 53.2925 177.606 53.4354C177.636 53.5783 177.618 53.726 177.555 53.8598C177.492 53.9935 177.386 54.1072 177.251 54.1864C177.116 54.2656 176.959 54.3068 176.798 54.3046C176.585 54.3017 176.382 54.2232 176.233 54.0861C176.084 53.9489 176 53.7641 176 53.5716Z" fill="#07EAD3"/>
<path d="M159.854 35.1711C159.851 34.9256 159.93 34.6851 160.079 34.4802C160.228 34.2752 160.441 34.115 160.691 34.0201C160.941 33.9252 161.217 33.8998 161.483 33.9471C161.749 33.9945 161.994 34.1124 162.186 34.286C162.378 34.4596 162.508 34.6808 162.56 34.9216C162.613 35.1625 162.585 35.412 162.48 35.6383C162.375 35.8647 162.198 36.0576 161.971 36.1926C161.745 36.3276 161.479 36.3986 161.208 36.3964C160.849 36.3964 160.504 36.2673 160.25 36.0375C159.996 35.8077 159.854 35.496 159.854 35.1711Z" fill="#07EAD3"/>
<path d="M289.657 34.3705C289.657 34.2255 289.705 34.0838 289.794 33.9632C289.883 33.8427 290.009 33.7487 290.157 33.6933C290.305 33.6378 290.468 33.6233 290.625 33.6515C290.782 33.6798 290.927 33.7496 291.04 33.8522C291.153 33.9547 291.231 34.0853 291.262 34.2275C291.293 34.3697 291.277 34.5171 291.216 34.651C291.154 34.785 291.051 34.8994 290.917 34.98C290.784 35.0605 290.628 35.1035 290.467 35.1035C290.252 35.1035 290.046 35.0263 289.894 34.8888C289.743 34.7514 289.657 34.5649 289.657 34.3705Z" fill="#07EAD3"/>
<path d="M237.116 89.4877C237.116 89.3427 237.164 89.201 237.253 89.0805C237.342 88.9599 237.468 88.866 237.616 88.8105C237.764 88.755 237.927 88.7405 238.084 88.7688C238.241 88.7971 238.386 88.8669 238.499 88.9694C238.612 89.0719 238.69 89.2025 238.721 89.3447C238.752 89.4869 238.736 89.6343 238.675 89.7682C238.613 89.9022 238.51 90.0166 238.376 90.0972C238.243 90.1777 238.086 90.2207 237.926 90.2207C237.711 90.2207 237.505 90.1435 237.353 90.006C237.202 89.8686 237.116 89.6821 237.116 89.4877Z" fill="#07EAD3"/>
<path d="M247.454 18.9233C247.454 18.827 247.475 18.7317 247.516 18.6427C247.556 18.5538 247.616 18.473 247.691 18.4049C247.767 18.3369 247.856 18.2829 247.954 18.246C248.052 18.2092 248.158 18.1902 248.264 18.1902C248.371 18.1902 248.476 18.2092 248.574 18.246C248.672 18.2829 248.762 18.3369 248.837 18.4049C248.912 18.473 248.972 18.5538 249.013 18.6427C249.053 18.7317 249.074 18.827 249.074 18.9233C249.074 19.1177 248.989 19.3041 248.837 19.4416C248.685 19.579 248.479 19.6563 248.264 19.6562C248.049 19.6563 247.843 19.579 247.691 19.4416C247.539 19.3041 247.454 19.1177 247.454 18.9233Z" fill="#07EAD3"/>
<path d="M244.913 55.9408C244.913 55.8446 244.934 55.7493 244.975 55.6603C245.015 55.5714 245.075 55.4906 245.15 55.4225C245.226 55.3544 245.315 55.3005 245.413 55.2636C245.511 55.2268 245.617 55.2078 245.723 55.2078C245.83 55.2078 245.935 55.2268 246.033 55.2636C246.131 55.3005 246.221 55.3544 246.296 55.4225C246.371 55.4906 246.431 55.5714 246.472 55.6603C246.512 55.7493 246.533 55.8446 246.533 55.9408C246.533 56.1352 246.448 56.3217 246.296 56.4591C246.144 56.5966 245.938 56.6738 245.723 56.6738C245.508 56.6738 245.302 56.5966 245.15 56.4591C244.998 56.3217 244.913 56.1352 244.913 55.9408Z" fill="#07EAD3"/>
<path d="M210.657 36.9361C210.657 36.7417 210.743 36.5552 210.894 36.4177C211.046 36.2803 211.252 36.2031 211.467 36.2031C211.573 36.2031 211.678 36.2221 211.775 36.2591C211.873 36.296 211.962 36.3502 212.036 36.4184C212.11 36.4866 212.169 36.5675 212.208 36.6564C212.247 36.7453 212.267 36.8403 212.265 36.9361C212.267 37.0313 212.247 37.1259 212.208 37.2141C212.168 37.3024 212.11 37.3826 212.035 37.4499C211.961 37.5173 211.872 37.5704 211.775 37.6062C211.677 37.6419 211.573 37.6596 211.467 37.6581C211.361 37.6596 211.256 37.642 211.158 37.6063C211.06 37.5707 210.971 37.5177 210.895 37.4505C210.82 37.3834 210.76 37.3033 210.719 37.2149C210.678 37.1266 210.657 37.0318 210.657 36.9361Z" fill="#07EAD3"/>
<path d="M279.847 35.3932C279.844 35.2478 279.89 35.105 279.977 34.983C280.065 34.861 280.191 34.7654 280.338 34.7082C280.486 34.6511 280.649 34.635 280.807 34.662C280.965 34.689 281.111 34.758 281.225 34.86C281.34 34.9621 281.418 35.0927 281.45 35.2352C281.483 35.3776 281.467 35.5256 281.406 35.6602C281.345 35.7947 281.242 35.9099 281.108 35.9909C280.975 36.0719 280.818 36.1152 280.657 36.1152C280.444 36.1153 280.24 36.0395 280.088 35.9044C279.937 35.7693 279.85 35.5857 279.847 35.3932Z" fill="#07EAD3"/>
<path d="M227.306 90.5084C227.303 90.363 227.349 90.2202 227.436 90.0982C227.524 89.9763 227.65 89.8806 227.797 89.8235C227.945 89.7663 228.108 89.7502 228.266 89.7772C228.424 89.8043 228.57 89.8732 228.684 89.9753C228.799 90.0773 228.877 90.2079 228.909 90.3504C228.942 90.4929 228.926 90.6408 228.865 90.7754C228.804 90.91 228.701 91.0251 228.567 91.1061C228.434 91.1872 228.277 91.2305 228.116 91.2305C227.903 91.2305 227.699 91.1548 227.547 91.0197C227.396 90.8846 227.309 90.7009 227.306 90.5084Z" fill="#07EAD3"/>
<path d="M279.091 72.8484C279.091 72.5688 279.183 72.2955 279.355 72.0631C279.527 71.8308 279.771 71.6499 280.057 71.5434C280.342 71.437 280.656 71.4097 280.959 71.465C281.262 71.5204 281.54 71.6559 281.758 71.8543C281.975 72.0528 282.123 72.3053 282.182 72.5798C282.241 72.8543 282.208 73.1384 282.088 73.3961C281.968 73.6538 281.766 73.8734 281.508 74.0272C281.25 74.181 280.947 74.2619 280.638 74.2597C280.434 74.2597 280.232 74.2231 280.043 74.1521C279.855 74.081 279.684 73.9769 279.54 73.8457C279.396 73.7145 279.282 73.5588 279.205 73.3877C279.128 73.2165 279.089 73.0332 279.091 72.8484Z" fill="#07EAD3"/>
<path d="M220.59 37.5769C220.59 37.2978 220.681 37.0249 220.853 36.7928C221.024 36.5607 221.268 36.3799 221.553 36.273C221.838 36.1662 222.151 36.1382 222.454 36.1927C222.756 36.2472 223.034 36.3816 223.252 36.579C223.471 36.7764 223.619 37.0278 223.679 37.3016C223.739 37.5754 223.709 37.8591 223.59 38.117C223.472 38.3749 223.273 38.5953 223.016 38.7504C222.76 38.9055 222.458 38.9883 222.15 38.9883C221.736 38.9883 221.339 38.8396 221.047 38.5749C220.754 38.3102 220.59 37.9513 220.59 37.5769Z" fill="#07EAD3"/>
<path d="M303.512 47.7913C303.509 47.4398 303.622 47.0956 303.837 46.8025C304.051 46.5094 304.357 46.2805 304.715 46.145C305.074 46.0095 305.468 45.9735 305.85 46.0415C306.231 46.1096 306.581 46.2786 306.855 46.5271C307.13 46.7756 307.317 47.0925 307.392 47.4373C307.467 47.7821 307.427 48.1394 307.278 48.4637C307.128 48.788 306.875 49.0647 306.551 49.2586C306.227 49.4525 305.847 49.5549 305.458 49.5527C304.943 49.5498 304.45 49.3633 304.085 49.0336C303.721 48.7039 303.515 48.2576 303.512 47.7913Z" fill="white"/>
<path d="M250.97 102.909C250.967 102.557 251.08 102.213 251.295 101.92C251.509 101.627 251.815 101.398 252.173 101.262C252.532 101.127 252.926 101.091 253.308 101.159C253.689 101.227 254.039 101.396 254.313 101.644C254.588 101.893 254.775 102.21 254.85 102.554C254.925 102.899 254.885 103.257 254.736 103.581C254.586 103.905 254.333 104.182 254.009 104.376C253.685 104.57 253.305 104.672 252.916 104.67C252.401 104.667 251.908 104.481 251.543 104.151C251.179 103.821 250.973 103.375 250.97 102.909Z" fill="white"/>
<path d="M271.68 51.0663C271.677 50.4449 271.879 49.8367 272.259 49.3189C272.638 48.8011 273.18 48.397 273.813 48.1576C274.447 47.9183 275.145 47.8546 275.819 47.9745C276.493 48.0944 277.113 48.3926 277.599 48.8313C278.086 49.27 278.417 49.8294 278.552 50.4388C278.687 51.0482 278.619 51.6801 278.357 52.2544C278.094 52.8288 277.65 53.3199 277.079 53.6654C276.508 54.0109 275.837 54.1953 275.15 54.1953C274.231 54.1953 273.351 53.866 272.7 53.2795C272.05 52.693 271.683 51.8972 271.68 51.0663Z" fill="#53E3F2"/>
<path d="M219.139 106.182C219.136 105.56 219.338 104.952 219.718 104.434C220.097 103.916 220.639 103.512 221.272 103.273C221.906 103.033 222.604 102.97 223.278 103.09C223.952 103.21 224.572 103.508 225.058 103.946C225.545 104.385 225.876 104.945 226.011 105.554C226.146 106.163 226.078 106.795 225.816 107.37C225.553 107.944 225.109 108.435 224.538 108.781C223.967 109.126 223.295 109.311 222.609 109.311C221.69 109.311 220.81 108.981 220.159 108.395C219.509 107.808 219.142 107.012 219.139 106.182Z" fill="#53E3F2"/>
<path d="M239.346 39.6269C239.655 39.6335 239.954 39.7226 240.206 39.883C240.459 40.0435 240.653 40.2681 240.764 40.5284C240.876 40.7887 240.899 41.073 240.832 41.3454C240.765 41.6178 240.61 41.866 240.387 42.0588C240.164 42.2515 239.882 42.38 239.578 42.4281C239.275 42.4762 238.962 42.4417 238.68 42.3289C238.398 42.2162 238.159 42.0303 237.993 41.7947C237.828 41.5591 237.743 41.2844 237.75 41.0054C237.763 40.632 237.938 40.2781 238.236 40.0202C238.535 39.7622 238.934 39.621 239.346 39.6269Z" fill="#07EAD3"/>
<path d="M236.805 76.6465C237.114 76.653 237.413 76.7422 237.665 76.9026C237.918 77.0631 238.112 77.2877 238.223 77.548C238.335 77.8082 238.358 78.0926 238.291 78.365C238.224 78.6374 238.069 78.8856 237.846 79.0783C237.622 79.271 237.341 79.3996 237.037 79.4476C236.734 79.4957 236.421 79.4612 236.139 79.3485C235.857 79.2357 235.618 79.0498 235.452 78.8143C235.287 78.5787 235.202 78.304 235.209 78.025C235.222 77.6516 235.397 77.2977 235.695 77.0398C235.994 76.7818 236.393 76.6406 236.805 76.6465Z" fill="#07EAD3"/>
<path d="M254.331 39.4623C254.331 39.3173 254.379 39.1756 254.468 39.0551C254.557 38.9345 254.683 38.8406 254.831 38.7851C254.979 38.7296 255.142 38.7151 255.299 38.7434C255.456 38.7717 255.601 38.8415 255.714 38.944C255.827 39.0465 255.904 39.1771 255.936 39.3193C255.967 39.4615 255.951 39.6089 255.89 39.7428C255.828 39.8768 255.724 39.9912 255.591 40.0718C255.458 40.1523 255.301 40.1953 255.141 40.1953C255.035 40.1953 254.929 40.1764 254.831 40.1395C254.733 40.1027 254.644 40.0487 254.568 39.9806C254.493 39.9126 254.433 39.8317 254.393 39.7428C254.352 39.6539 254.331 39.5586 254.331 39.4623Z" fill="#07EAD3"/>
<path d="M251.79 76.4818C251.79 76.3369 251.838 76.1952 251.927 76.0746C252.016 75.9541 252.142 75.8601 252.29 75.8046C252.438 75.7492 252.601 75.7346 252.758 75.7629C252.915 75.7912 253.06 75.861 253.173 75.9635C253.286 76.066 253.363 76.1967 253.395 76.3388C253.426 76.481 253.41 76.6284 253.349 76.7623C253.287 76.8963 253.183 77.0108 253.05 77.0913C252.917 77.1719 252.76 77.2148 252.6 77.2148C252.494 77.2148 252.388 77.1959 252.29 77.159C252.192 77.1222 252.103 77.0682 252.027 77.0002C251.952 76.9321 251.892 76.8513 251.852 76.7623C251.811 76.6734 251.79 76.5781 251.79 76.4818Z" fill="#07EAD3"/>
<path d="M239.637 47.935C239.625 47.5 239.757 47.0717 240.015 46.7048C240.274 46.3378 240.647 46.0489 241.088 45.8748C241.528 45.7008 242.016 45.6496 242.489 45.7277C242.962 45.8059 243.399 46.0098 243.743 46.3136C244.087 46.6173 244.324 47.007 244.422 47.4328C244.52 47.8587 244.476 48.3015 244.295 48.7045C244.114 49.1075 243.804 49.4525 243.405 49.6954C243.006 49.9384 242.536 50.0682 242.056 50.0684C241.425 50.0685 240.819 49.8455 240.367 49.4469C239.915 49.0483 239.653 48.5058 239.637 47.935Z" fill="#07EAD3"/>
<path d="M195.175 37.4226C195.623 37.4226 195.985 37.7508 195.985 38.1556C195.985 38.5605 195.623 38.8887 195.175 38.8887C194.728 38.8887 194.365 38.5605 194.365 38.1556C194.365 37.7508 194.728 37.4226 195.175 37.4226Z" fill="#07EAD3"/>
<path d="M196.53 61.5697C196.533 61.3772 196.62 61.1936 196.772 61.0585C196.923 60.9234 197.128 60.8476 197.34 60.8477C197.537 60.8695 197.717 60.9555 197.848 61.0895C197.979 61.2235 198.052 61.3963 198.052 61.5752C198.052 61.7541 197.979 61.9269 197.848 62.0609C197.717 62.1949 197.537 62.2809 197.34 62.3027C197.234 62.3027 197.129 62.2838 197.03 62.2469C196.932 62.2101 196.843 62.1561 196.768 62.088C196.692 62.02 196.633 61.9392 196.592 61.8502C196.551 61.7613 196.53 61.666 196.53 61.5697Z" fill="#07EAD3"/>
<path d="M140.884 45.6967C140.884 45.5517 140.931 45.41 141.02 45.2894C141.109 45.1689 141.236 45.075 141.384 45.0195C141.532 44.964 141.695 44.9495 141.852 44.9778C142.009 45.0061 142.153 45.0759 142.267 45.1784C142.38 45.2809 142.457 45.4115 142.488 45.5537C142.52 45.6959 142.504 45.8432 142.442 45.9772C142.381 46.1111 142.277 46.2256 142.144 46.3062C142.011 46.3867 141.854 46.4297 141.694 46.4297C141.479 46.4297 141.273 46.3525 141.121 46.215C140.969 46.0775 140.884 45.8911 140.884 45.6967Z" fill="#07EAD3"/>
<path d="M157.768 18.5385C157.768 18.3935 157.815 18.2518 157.904 18.1312C157.993 18.0107 158.12 17.9167 158.268 17.8613C158.416 17.8058 158.579 17.7913 158.736 17.8196C158.893 17.8479 159.037 17.9177 159.15 18.0202C159.264 18.1227 159.341 18.2533 159.372 18.3955C159.403 18.5377 159.387 18.685 159.326 18.819C159.265 18.9529 159.161 19.0674 159.028 19.148C158.894 19.2285 158.738 19.2715 158.578 19.2715C158.363 19.2715 158.157 19.1943 158.005 19.0568C157.853 18.9193 157.768 18.7329 157.768 18.5385Z" fill="#07EAD3"/>
<path d="M243.948 23.7259C243.948 23.5315 244.034 23.3451 244.185 23.2076C244.337 23.0701 244.543 22.9929 244.758 22.9929C244.919 22.9929 245.075 23.0359 245.208 23.1165C245.342 23.197 245.445 23.3115 245.507 23.4454C245.568 23.5794 245.584 23.7267 245.553 23.8689C245.522 24.0111 245.444 24.1418 245.331 24.2443C245.218 24.3468 245.073 24.4166 244.916 24.4449C244.759 24.4732 244.596 24.4587 244.448 24.4032C244.3 24.3477 244.174 24.2537 244.085 24.1332C243.996 24.0126 243.948 23.8709 243.948 23.7259Z" fill="#41EAF7"/>
<path d="M241.407 60.7435C241.407 60.5491 241.493 60.3627 241.644 60.2252C241.796 60.0878 242.002 60.0106 242.217 60.0106C242.378 60.0106 242.534 60.0535 242.667 60.1341C242.801 60.2146 242.904 60.3291 242.966 60.463C243.027 60.597 243.043 60.7444 243.012 60.8865C242.981 61.0287 242.903 61.1593 242.79 61.2619C242.677 61.3644 242.532 61.4342 242.375 61.4625C242.218 61.4908 242.055 61.4762 241.907 61.4207C241.759 61.3653 241.633 61.2713 241.544 61.1508C241.455 61.0302 241.407 60.8885 241.407 60.7435Z" fill="#41EAF7"/>
<path d="M262.483 31.4057C262.483 31.2607 262.531 31.119 262.62 30.9984C262.709 30.8779 262.835 30.7839 262.983 30.7285C263.131 30.673 263.294 30.6585 263.452 30.6868C263.609 30.715 263.753 30.7848 263.866 30.8873C263.98 30.9899 264.057 31.1205 264.088 31.2627C264.119 31.4048 264.103 31.5522 264.042 31.6862C263.981 31.8201 263.877 31.9346 263.744 32.0151C263.61 32.0957 263.454 32.1387 263.293 32.1387C263.079 32.1387 262.873 32.0615 262.721 31.924C262.569 31.7865 262.483 31.6001 262.483 31.4057Z" fill="#41EAF7"/>
<path d="M259.941 68.4252C259.941 68.2802 259.989 68.1385 260.078 68.0179C260.167 67.8974 260.293 67.8034 260.441 67.7479C260.59 67.6924 260.752 67.6779 260.91 67.7062C261.067 67.7345 261.211 67.8043 261.324 67.9068C261.438 68.0093 261.515 68.14 261.546 68.2821C261.577 68.4243 261.561 68.5717 261.5 68.7057C261.439 68.8396 261.335 68.9541 261.202 69.0347C261.068 69.1152 260.912 69.1582 260.751 69.1582C260.537 69.1582 260.331 69.081 260.179 68.9435C260.027 68.806 259.941 68.6196 259.941 68.4252Z" fill="#41EAF7"/>
<path d="M203.586 32.0951C203.586 31.9007 203.671 31.7142 203.823 31.5768C203.975 31.4393 204.181 31.3621 204.396 31.3621C204.611 31.3621 204.817 31.4393 204.969 31.5768C205.121 31.7142 205.206 31.9007 205.206 32.0951C205.206 32.2895 205.121 32.476 204.969 32.6134C204.817 32.7509 204.611 32.8281 204.396 32.8281C204.181 32.8281 203.975 32.7509 203.823 32.6134C203.671 32.476 203.586 32.2895 203.586 32.0951Z" fill="#07EAD3"/>
<path d="M230.455 18.3423C230.455 18.1479 230.54 17.9614 230.692 17.8239C230.844 17.6865 231.05 17.6093 231.265 17.6093C231.371 17.6092 231.476 17.6283 231.573 17.6652C231.671 17.7022 231.759 17.7564 231.834 17.8246C231.908 17.8928 231.966 17.9737 232.006 18.0626C232.045 18.1515 232.065 18.2466 232.063 18.3423C232.065 18.4375 232.045 18.5321 232.006 18.6204C231.966 18.7086 231.907 18.7888 231.833 18.8562C231.759 18.9235 231.67 18.9766 231.572 19.0124C231.475 19.0482 231.37 19.0658 231.265 19.0644C231.159 19.0658 231.054 19.0482 230.956 19.0126C230.858 18.9769 230.768 18.924 230.693 18.8568C230.618 18.7896 230.558 18.7095 230.517 18.6212C230.476 18.5328 230.455 18.4381 230.455 18.3423Z" fill="#07EAD3"/>
<path d="M227.914 55.3618C227.914 55.1674 227.999 54.9809 228.151 54.8435C228.303 54.706 228.509 54.6288 228.724 54.6288C228.83 54.6288 228.935 54.6478 229.032 54.6848C229.13 54.7217 229.218 54.7759 229.293 54.8441C229.367 54.9124 229.425 54.9933 229.465 55.0821C229.504 55.171 229.524 55.2661 229.522 55.3618C229.524 55.4571 229.504 55.5516 229.465 55.6399C229.425 55.7282 229.366 55.8084 229.292 55.8757C229.218 55.9431 229.129 55.9962 229.031 56.0319C228.934 56.0677 228.829 56.0854 228.724 56.0839C228.618 56.0853 228.513 56.0678 228.415 56.0321C228.317 55.9965 228.227 55.9435 228.152 55.8763C228.077 55.8091 228.017 55.729 227.976 55.6407C227.935 55.5524 227.914 55.4576 227.914 55.3618Z" fill="#07EAD3"/>
<path d="M202.986 27.27C202.97 27.1342 202.985 26.9969 203.032 26.867C203.078 26.737 203.154 26.6174 203.255 26.5159C203.356 26.4143 203.48 26.3331 203.618 26.2775C203.755 26.222 203.905 26.1932 204.056 26.1932C204.206 26.1932 204.356 26.222 204.494 26.2775C204.631 26.3331 204.755 26.4143 204.856 26.5159C204.957 26.6174 205.033 26.737 205.079 26.867C205.126 26.9969 205.142 27.1342 205.126 27.27C205.097 27.509 204.973 27.7302 204.775 27.891C204.577 28.0517 204.321 28.1406 204.056 28.1406C203.79 28.1406 203.534 28.0517 203.336 27.891C203.138 27.7302 203.014 27.509 202.986 27.27Z" fill="#07EAD3"/>
<path d="M282.771 53.5599C282.771 53.4149 282.819 53.2732 282.908 53.1527C282.997 53.0321 283.124 52.9382 283.272 52.8827C283.42 52.8272 283.582 52.8127 283.74 52.841C283.897 52.8693 284.041 52.9391 284.154 53.0416C284.268 53.1441 284.345 53.2747 284.376 53.4169C284.407 53.5591 284.391 53.7065 284.33 53.8405C284.269 53.9744 284.165 54.0889 284.032 54.1694C283.898 54.25 283.742 54.293 283.582 54.293C283.367 54.293 283.161 54.2157 283.009 54.0783C282.857 53.9408 282.771 53.7543 282.771 53.5599Z" fill="#07EAD3"/>
<path d="M230.23 108.677C230.23 108.532 230.278 108.39 230.367 108.27C230.456 108.149 230.583 108.055 230.731 108C230.879 107.944 231.041 107.93 231.199 107.958C231.356 107.986 231.5 108.056 231.613 108.159C231.727 108.261 231.804 108.392 231.835 108.534C231.866 108.676 231.85 108.824 231.789 108.958C231.728 109.092 231.624 109.206 231.491 109.287C231.357 109.367 231.201 109.41 231.041 109.41C230.826 109.41 230.62 109.333 230.468 109.195C230.316 109.058 230.23 108.872 230.23 108.677Z" fill="#07EAD3"/>
<path d="M305.142 38.431C305.142 38.2855 305.189 38.1434 305.279 38.0226C305.369 37.9019 305.496 37.8079 305.645 37.7528C305.793 37.6977 305.957 37.6838 306.114 37.713C306.272 37.7421 306.416 37.8131 306.529 37.9167C306.642 38.0203 306.718 38.1519 306.748 38.2948C306.778 38.4377 306.76 38.5854 306.697 38.7192C306.633 38.8529 306.528 38.9666 306.393 39.0458C306.258 39.125 306.1 39.1662 305.94 39.164C305.727 39.1611 305.524 39.0826 305.375 38.9455C305.225 38.8083 305.142 38.6235 305.142 38.431Z" fill="#07EAD3"/>
<path d="M252.6 93.5482C252.6 93.4027 252.647 93.2606 252.737 93.1398C252.827 93.0191 252.954 92.9251 253.103 92.87C253.251 92.8148 253.415 92.801 253.572 92.8302C253.73 92.8593 253.874 92.9302 253.987 93.0339C254.1 93.1375 254.176 93.2691 254.206 93.412C254.236 93.5549 254.218 93.7026 254.155 93.8363C254.091 93.9701 253.986 94.0838 253.851 94.163C253.716 94.2422 253.558 94.2833 253.398 94.2812C253.185 94.2783 252.982 94.1998 252.833 94.0626C252.683 93.9255 252.6 93.7407 252.6 93.5482Z" fill="#07EAD3"/>
<path d="M181.657 26.5593C181.657 26.2802 181.749 26.0073 181.92 25.7752C182.092 25.5431 182.335 25.3623 182.62 25.2554C182.905 25.1486 183.219 25.1207 183.521 25.1751C183.824 25.2296 184.102 25.364 184.32 25.5614C184.538 25.7588 184.686 26.0102 184.747 26.284C184.807 26.5578 184.776 26.8415 184.658 27.0994C184.54 27.3573 184.34 27.5777 184.083 27.7328C183.827 27.8879 183.525 27.9707 183.217 27.9707C183.012 27.9721 182.808 27.9366 182.618 27.8662C182.428 27.7958 182.256 27.6919 182.111 27.5605C181.965 27.4292 181.851 27.273 181.773 27.1011C181.695 26.9293 181.656 26.7451 181.657 26.5593Z" fill="#07EAD3"/>
<path d="M229.217 30.7125C230.078 30.7125 230.777 31.3444 230.777 32.1238C230.777 32.9033 230.078 33.5352 229.217 33.5352C228.356 33.5352 227.657 32.9033 227.657 32.1238C227.657 31.3444 228.356 30.7125 229.217 30.7125Z" fill="#07EAD3"/>
<path d="M226.676 67.7321C227.537 67.7321 228.236 68.3639 228.236 69.1434C228.236 69.9228 227.537 70.5547 226.676 70.5547C225.815 70.5547 225.116 69.9228 225.116 69.1434C225.116 68.3639 225.815 67.7321 226.676 67.7321Z" fill="#07EAD3"/>
<path style="mix-blend-mode:screen" d="M95.2305 89.1642C95.2329 91.2571 94.5492 93.3036 93.266 95.0448C91.9827 96.7861 90.1576 98.1438 88.0215 98.9462C85.8853 99.7486 83.5342 99.9597 81.2655 99.5527C78.9967 99.1457 76.9124 98.139 75.2761 96.6598C73.6398 95.1807 72.5251 93.2957 72.073 91.2431C71.6209 89.1906 71.8517 87.0629 72.7362 85.1291C73.6208 83.1953 75.1193 81.5424 77.0422 80.3794C78.9652 79.2165 81.2261 78.5957 83.5389 78.5957C86.6376 78.5957 89.6096 79.7088 91.8018 81.6905C93.9941 83.6721 95.2273 86.3603 95.2305 89.1642Z" fill="url(#paint5_radial_1504_543)"/>
<path style="mix-blend-mode:screen" d="M97.7715 52.1466C97.7739 54.2395 97.0902 56.286 95.807 58.0272C94.5237 59.7684 92.6986 61.1261 90.5625 61.9285C88.4264 62.7309 86.0752 62.942 83.8065 62.5351C81.5378 62.1281 79.4534 61.1213 77.8171 59.6422C76.1808 58.1631 75.0661 56.278 74.614 54.2255C74.1619 52.173 74.3927 50.0453 75.2773 48.1115C76.1618 46.1777 77.6603 44.5248 79.5833 43.3619C81.5062 42.1989 83.7671 41.5781 86.08 41.5781C89.1787 41.5781 92.1506 42.6912 94.3428 44.6729C96.5351 46.6546 97.7683 49.3427 97.7715 52.1466Z" fill="url(#paint6_radial_1504_543)"/>
<path style="mix-blend-mode:screen" d="M108.23 129.597C108.23 131.689 107.545 133.735 106.26 135.475C104.975 137.214 103.149 138.57 101.013 139.371C98.8768 140.172 96.526 140.381 94.2581 139.973C91.9901 139.565 89.9069 138.557 88.2718 137.078C86.6367 135.598 85.5232 133.713 85.0721 131.661C84.621 129.609 84.8525 127.482 85.7374 125.548C86.6223 123.615 88.1208 121.963 90.0435 120.801C91.9662 119.638 94.2266 119.018 96.5389 119.018C99.6397 119.018 102.614 120.132 104.806 122.116C106.999 124.1 108.23 126.791 108.23 129.597Z" fill="url(#paint7_radial_1504_543)"/>
<path style="mix-blend-mode:screen" d="M60.1462 106.08C53.8606 104.743 49.963 99.0483 51.4407 93.3605C52.9185 87.6727 59.212 84.1459 65.4977 85.4831C71.7834 86.8203 75.6809 92.5151 74.2032 98.2029C72.7254 103.891 66.4319 107.418 60.1462 106.08Z" fill="url(#paint8_radial_1504_543)"/>
<path style="mix-blend-mode:screen" d="M62.6872 69.0628C56.4016 67.7256 52.504 62.0307 53.9818 56.3429C55.4595 50.6551 61.753 47.1283 68.0387 48.4655C74.3244 49.8027 78.222 55.4976 76.7442 61.1854C75.2664 66.8732 68.9729 70.4 62.6872 69.0628Z" fill="url(#paint9_radial_1504_543)"/>
<path d="M131.428 86.6042C131.428 86.7497 131.38 86.8918 131.29 87.0126C131.201 87.1333 131.074 87.2273 130.925 87.2824C130.776 87.3376 130.613 87.3514 130.455 87.3222C130.298 87.2931 130.153 87.2222 130.041 87.1185C129.928 87.0149 129.852 86.8833 129.822 86.7404C129.792 86.5975 129.81 86.4498 129.873 86.316C129.936 86.1823 130.042 86.0686 130.176 85.9894C130.311 85.9101 130.469 85.869 130.63 85.8712C130.842 85.874 131.045 85.9525 131.195 86.0897C131.344 86.2269 131.428 86.4117 131.428 86.6042Z" fill="#07EAD3"/>
<path d="M147.575 105.005C147.578 105.25 147.499 105.491 147.35 105.696C147.201 105.901 146.987 106.061 146.737 106.156C146.487 106.251 146.212 106.276 145.945 106.229C145.679 106.181 145.435 106.063 145.243 105.89C145.051 105.716 144.921 105.495 144.868 105.254C144.816 105.013 144.844 104.764 144.949 104.537C145.054 104.311 145.231 104.118 145.457 103.983C145.684 103.848 145.95 103.777 146.221 103.779C146.58 103.779 146.925 103.908 147.179 104.138C147.432 104.368 147.575 104.68 147.575 105.005Z" fill="#07EAD3"/>
<path d="M17.7715 105.805C17.7715 105.95 17.724 106.092 17.635 106.213C17.546 106.333 17.4194 106.427 17.2714 106.483C17.1234 106.538 16.9605 106.553 16.8034 106.524C16.6462 106.496 16.5019 106.426 16.3886 106.324C16.2753 106.221 16.1982 106.091 16.1669 105.948C16.1357 105.806 16.1517 105.659 16.213 105.525C16.2743 105.391 16.3782 105.276 16.5114 105.196C16.6446 105.115 16.8012 105.072 16.9614 105.072C17.1763 105.072 17.3823 105.149 17.5342 105.287C17.6861 105.424 17.7715 105.611 17.7715 105.805Z" fill="#07EAD3"/>
<path d="M70.3125 50.6881C70.3125 50.8331 70.265 50.9748 70.176 51.0953C70.087 51.2159 69.9604 51.3098 69.8124 51.3653C69.6644 51.4208 69.5015 51.4353 69.3444 51.407C69.1873 51.3787 69.0429 51.3089 68.9296 51.2064C68.8163 51.1039 68.7392 50.9733 68.7079 50.8311C68.6767 50.6889 68.6927 50.5415 68.754 50.4076C68.8153 50.2736 68.9192 50.1592 69.0524 50.0786C69.1856 49.9981 69.3422 49.9551 69.5024 49.9551C69.7173 49.9551 69.9233 50.0323 70.0752 50.1698C70.2272 50.3072 70.3125 50.4937 70.3125 50.6881Z" fill="#07EAD3"/>
<path d="M59.9746 121.253C59.9746 121.349 59.9537 121.444 59.913 121.533C59.8722 121.622 59.8126 121.703 59.7374 121.771C59.6621 121.839 59.5728 121.893 59.4745 121.93C59.3763 121.967 59.2709 121.986 59.1646 121.986C59.0582 121.986 58.9528 121.967 58.8546 121.93C58.7563 121.893 58.667 121.839 58.5917 121.771C58.5165 121.703 58.4569 121.622 58.4161 121.533C58.3754 121.444 58.3545 121.349 58.3545 121.253C58.3545 121.058 58.4398 120.872 58.5917 120.734C58.7437 120.597 58.9497 120.52 59.1646 120.52C59.3794 120.52 59.5854 120.597 59.7374 120.734C59.8893 120.872 59.9746 121.058 59.9746 121.253Z" fill="#07EAD3"/>
<path d="M62.5156 84.2349C62.5156 84.3312 62.4947 84.4265 62.454 84.5155C62.4133 84.6044 62.3536 84.6852 62.2784 84.7533C62.2032 84.8213 62.1138 84.8753 62.0156 84.9122C61.9173 84.949 61.812 84.968 61.7056 84.968C61.5992 84.968 61.4939 84.949 61.3956 84.9122C61.2973 84.8753 61.208 84.8213 61.1328 84.7533C61.0575 84.6852 60.9979 84.6044 60.9572 84.5155C60.9165 84.4265 60.8955 84.3312 60.8955 84.2349C60.8955 84.0405 60.9808 83.8541 61.1328 83.7166C61.2847 83.5792 61.4907 83.502 61.7056 83.502C61.9204 83.502 62.1265 83.5792 62.2784 83.7166C62.4303 83.8541 62.5156 84.0405 62.5156 84.2349Z" fill="#07EAD3"/>
<path d="M96.7715 103.24C96.7715 103.434 96.6861 103.621 96.5342 103.758C96.3823 103.896 96.1763 103.973 95.9614 103.973C95.8556 103.973 95.7508 103.954 95.6532 103.917C95.5556 103.88 95.4671 103.826 95.3928 103.757C95.3186 103.689 95.2601 103.608 95.2207 103.519C95.1813 103.431 95.1618 103.335 95.1634 103.24C95.1618 103.144 95.1813 103.05 95.2209 102.962C95.2604 102.873 95.3191 102.793 95.3935 102.726C95.468 102.658 95.5566 102.605 95.6541 102.57C95.7517 102.534 95.8562 102.516 95.9614 102.518C96.0672 102.516 96.1723 102.534 96.2705 102.569C96.3687 102.605 96.4581 102.658 96.5335 102.725C96.6089 102.792 96.6688 102.873 96.7096 102.961C96.7505 103.049 96.7715 103.144 96.7715 103.24Z" fill="#07EAD3"/>
<path d="M27.5819 104.783C27.5843 104.928 27.5389 105.071 27.4513 105.193C27.3638 105.315 27.2381 105.41 27.0903 105.468C26.9425 105.525 26.7793 105.541 26.6214 105.514C26.4635 105.487 26.318 105.418 26.2035 105.316C26.089 105.214 26.0106 105.083 25.9784 104.941C25.9461 104.798 25.9614 104.65 26.0224 104.516C26.0833 104.381 26.1871 104.266 26.3206 104.185C26.4541 104.104 26.6112 104.061 26.7719 104.061C26.9846 104.061 27.1889 104.136 27.3404 104.271C27.492 104.406 27.5788 104.59 27.5819 104.783Z" fill="#07EAD3"/>
<path d="M80.123 49.6654C80.1254 49.8108 80.0799 49.9536 79.9924 50.0756C79.9048 50.1976 79.7791 50.2932 79.6314 50.3504C79.4836 50.4075 79.3203 50.4236 79.1624 50.3966C79.0045 50.3696 78.859 50.3006 78.7445 50.1985C78.63 50.0965 78.5517 49.9659 78.5194 49.8234C78.4872 49.6809 78.5025 49.533 78.5634 49.3984C78.6243 49.2639 78.7282 49.1487 78.8616 49.0677C78.9951 48.9867 79.1522 48.9434 79.3129 48.9434C79.5257 48.9433 79.7299 49.0191 79.8815 49.1542C80.033 49.2893 80.1198 49.4729 80.123 49.6654Z" fill="#07EAD3"/>
<path d="M28.3378 67.3274C28.3378 67.607 28.246 67.8803 28.0741 68.1126C27.9022 68.3449 27.6579 68.5258 27.3722 68.6323C27.0865 68.7388 26.7723 68.7661 26.4694 68.7107C26.1665 68.6554 25.8887 68.5199 25.671 68.3214C25.4534 68.1229 25.3058 67.8704 25.247 67.5959C25.1882 67.3215 25.2208 67.0373 25.3407 66.7797C25.4606 66.522 25.6624 66.3023 25.9205 66.1486C26.1786 65.9948 26.4813 65.9139 26.7902 65.9161C26.9945 65.9161 27.1967 65.9526 27.3853 66.0237C27.5738 66.0948 27.745 66.1989 27.8889 66.3301C28.0327 66.4613 28.1465 66.6169 28.2235 66.7881C28.3006 66.9593 28.3394 67.1426 28.3378 67.3274Z" fill="#07EAD3"/>
<path d="M86.8389 102.599C86.8389 102.878 86.7474 103.151 86.576 103.383C86.4047 103.615 86.161 103.796 85.8761 103.903C85.5911 104.01 85.2775 104.037 84.9749 103.983C84.6724 103.929 84.3945 103.794 84.1763 103.597C83.9582 103.399 83.8097 103.148 83.7495 102.874C83.6893 102.6 83.7202 102.317 83.8383 102.059C83.9563 101.801 84.1562 101.58 84.4127 101.425C84.6692 101.27 84.9707 101.188 85.2792 101.188C85.6929 101.187 86.0896 101.336 86.3821 101.601C86.6746 101.866 86.8389 102.225 86.8389 102.599Z" fill="#07EAD3"/>
<path d="M3.91696 92.3845C3.91935 92.736 3.80622 93.0801 3.59193 93.3733C3.37763 93.6664 3.07186 93.8953 2.71348 94.0308C2.35509 94.1663 1.96025 94.2023 1.57918 94.1343C1.19811 94.0662 0.848008 93.8972 0.573359 93.6487C0.298709 93.4001 0.111914 93.0833 0.0367246 92.7385C-0.038465 92.3937 0.00136328 92.0364 0.151106 91.7121C0.300849 91.3878 0.553741 91.1111 0.877688 90.9172C1.20163 90.7233 1.582 90.6209 1.9704 90.6231C2.48569 90.6259 2.97894 90.8125 3.34331 91.1422C3.70768 91.4719 3.91378 91.9182 3.91696 92.3845Z" fill="white"/>
<path d="M56.4589 37.2673C56.4613 37.6188 56.3482 37.963 56.1339 38.2561C55.9196 38.5492 55.6139 38.7781 55.2555 38.9136C54.8971 39.0491 54.5022 39.0851 54.1212 39.0171C53.7401 38.949 53.39 38.78 53.1154 38.5315C52.8407 38.2829 52.6539 37.9661 52.5787 37.6213C52.5035 37.2765 52.5434 36.9192 52.6931 36.5949C52.8428 36.2706 53.0957 35.9939 53.4197 35.8C53.7436 35.6061 54.124 35.5037 54.5124 35.5059C55.0277 35.5088 55.5209 35.6953 55.8853 36.025C56.2497 36.3547 56.4558 36.801 56.4589 37.2673Z" fill="white"/>
<path d="M35.749 89.1094C35.7514 89.7309 35.5499 90.3391 35.1701 90.8569C34.7903 91.3747 34.2492 91.7788 33.6153 92.0181C32.9815 92.2575 32.2834 92.3212 31.6095 92.2013C30.9356 92.0814 30.3162 91.7832 29.8297 91.3445C29.3432 90.9058 29.0115 90.3464 28.8766 89.737C28.7418 89.1276 28.8098 88.4957 29.072 87.9213C29.3343 87.347 29.7791 86.8559 30.35 86.5104C30.9209 86.1649 31.5922 85.9805 32.279 85.9805C33.1972 85.9805 34.078 86.3098 34.7284 86.8963C35.3788 87.4827 35.7458 88.2786 35.749 89.1094Z" fill="#53E3F2"/>
<path d="M88.29 33.9942C88.2924 34.6157 88.0909 35.2238 87.7111 35.7416C87.3313 36.2594 86.7902 36.6635 86.1563 36.9029C85.5225 37.1422 84.8244 37.2059 84.1505 37.086C83.4766 36.9661 82.8572 36.6679 82.3707 36.2292C81.8842 35.7905 81.5525 35.2311 81.4176 34.6217C81.2828 34.0124 81.3508 33.3805 81.6131 32.8061C81.8753 32.2317 82.3201 31.7407 82.891 31.3952C83.4619 31.0497 84.1332 30.8652 84.82 30.8652C85.7382 30.8652 86.619 31.1945 87.2694 31.781C87.9198 32.3675 88.2868 33.1633 88.29 33.9942Z" fill="#53E3F2"/>
<path d="M68.0823 100.549C67.774 100.542 67.4747 100.453 67.2223 100.293C66.97 100.132 66.7758 99.9076 66.6645 99.6473C66.5532 99.387 66.5296 99.1027 66.5968 98.8303C66.664 98.5579 66.819 98.3097 67.0421 98.117C67.2652 97.9243 67.5465 97.7958 67.8503 97.7477C68.1541 97.6996 68.4669 97.7341 68.749 97.8468C69.0312 97.9596 69.2701 98.1455 69.4355 98.381C69.6009 98.6166 69.6854 98.8913 69.6783 99.1703C69.6656 99.5437 69.4911 99.8976 69.1925 100.156C68.8939 100.413 68.4951 100.555 68.0823 100.549Z" fill="#07EAD3"/>
<path d="M70.6234 63.5292C70.315 63.5227 70.0157 63.4336 69.7634 63.2731C69.511 63.1126 69.3168 62.8881 69.2055 62.6278C69.0942 62.3675 69.0706 62.0832 69.1378 61.8108C69.2051 61.5384 69.36 61.2902 69.5831 61.0975C69.8062 60.9048 70.0875 60.7762 70.3913 60.7281C70.6951 60.68 71.0079 60.7146 71.2901 60.8273C71.5722 60.94 71.8111 61.1259 71.9765 61.3615C72.1419 61.5971 72.2264 61.8718 72.2193 62.1508C72.2067 62.5242 72.0321 62.878 71.7335 63.136C71.4349 63.3939 71.0361 63.5352 70.6234 63.5292Z" fill="#07EAD3"/>
<path d="M53.0977 100.713C53.0977 100.858 53.0501 101 52.9611 101.121C52.8721 101.241 52.7456 101.335 52.5976 101.391C52.4496 101.446 52.2867 101.461 52.1296 101.432C51.9724 101.404 51.8281 101.334 51.7148 101.232C51.6015 101.129 51.5244 100.999 51.4931 100.856C51.4619 100.714 51.4779 100.567 51.5392 100.433C51.6005 100.299 51.7043 100.185 51.8375 100.104C51.9708 100.023 52.1274 99.9805 52.2876 99.9805C52.394 99.9805 52.4993 99.9994 52.5976 100.036C52.6959 100.073 52.7852 100.127 52.8604 100.195C52.9356 100.263 52.9953 100.344 53.036 100.433C53.0767 100.522 53.0977 100.617 53.0977 100.713Z" fill="#07EAD3"/>
<path d="M55.6387 63.6939C55.6387 63.8389 55.5912 63.9806 55.5022 64.1012C55.4131 64.2217 55.2866 64.3157 55.1386 64.3711C54.9906 64.4266 54.8277 64.4411 54.6706 64.4129C54.5135 64.3846 54.3691 64.3148 54.2558 64.2122C54.1425 64.1097 54.0654 63.9791 54.0341 63.8369C54.0029 63.6948 54.0189 63.5474 54.0802 63.4134C54.1415 63.2795 54.2453 63.165 54.3786 63.0845C54.5118 63.0039 54.6684 62.9609 54.8286 62.9609C54.935 62.9609 55.0403 62.9799 55.1386 63.0167C55.2369 63.0536 55.3262 63.1076 55.4014 63.1756C55.4766 63.2437 55.5363 63.3245 55.577 63.4134C55.6177 63.5024 55.6387 63.5977 55.6387 63.6939Z" fill="#07EAD3"/>
<path d="M67.7912 92.2408C67.8033 92.6757 67.6717 93.104 67.4134 93.471C67.1551 93.8379 66.7818 94.1269 66.3412 94.3009C65.9005 94.4749 65.4125 94.5261 64.9395 94.448C64.4666 94.3698 64.0301 94.1659 63.6858 93.8622C63.3415 93.5585 63.1052 93.1688 63.0069 92.7429C62.9086 92.317 62.9528 91.8743 63.1339 91.4713C63.315 91.0683 63.6248 90.7233 64.0236 90.4803C64.4225 90.2374 64.8923 90.1076 65.3731 90.1074C66.0041 90.1072 66.6102 90.3302 67.062 90.7288C67.5137 91.1274 67.7755 91.67 67.7912 92.2408Z" fill="#07EAD3"/>
<path d="M112.253 102.753C111.806 102.753 111.443 102.425 111.443 102.02C111.443 101.615 111.806 101.287 112.253 101.287C112.701 101.287 113.063 101.615 113.063 102.02C113.063 102.425 112.701 102.753 112.253 102.753Z" fill="#07EAD3"/>
<path d="M110.898 78.6061C110.895 78.7986 110.809 78.9822 110.657 79.1173C110.505 79.2524 110.301 79.3281 110.088 79.3281C109.892 79.3063 109.711 79.2203 109.58 79.0863C109.449 78.9523 109.377 78.7795 109.377 78.6006C109.377 78.4217 109.449 78.2489 109.58 78.1149C109.711 77.9809 109.892 77.8949 110.088 77.873C110.195 77.873 110.3 77.892 110.398 77.9288C110.497 77.9657 110.586 78.0197 110.661 78.0877C110.736 78.1558 110.796 78.2366 110.837 78.3255C110.877 78.4145 110.898 78.5098 110.898 78.6061Z" fill="#07EAD3"/>
<path d="M166.545 94.4791C166.545 94.6241 166.497 94.7658 166.408 94.8863C166.319 95.0069 166.193 95.1008 166.045 95.1563C165.897 95.2118 165.734 95.2263 165.577 95.198C165.42 95.1697 165.275 95.0999 165.162 94.9974C165.049 94.8949 164.972 94.7643 164.94 94.6221C164.909 94.4799 164.925 94.3325 164.986 94.1986C165.048 94.0647 165.152 93.9502 165.285 93.8696C165.418 93.7891 165.575 93.7461 165.735 93.7461C165.95 93.7461 166.156 93.8233 166.308 93.9608C166.46 94.0982 166.545 94.2847 166.545 94.4791Z" fill="#07EAD3"/>
<path d="M149.662 121.635C149.662 121.78 149.615 121.922 149.526 122.043C149.437 122.163 149.31 122.257 149.162 122.313C149.014 122.368 148.851 122.383 148.694 122.354C148.537 122.326 148.393 122.256 148.279 122.154C148.166 122.051 148.089 121.921 148.058 121.778C148.026 121.636 148.042 121.489 148.104 121.355C148.165 121.221 148.269 121.106 148.402 121.026C148.535 120.945 148.692 120.902 148.852 120.902C149.067 120.902 149.273 120.98 149.425 121.117C149.577 121.255 149.662 121.441 149.662 121.635Z" fill="#07EAD3"/>
<path d="M63.4805 116.45C63.4805 116.644 63.3951 116.831 63.2432 116.968C63.0913 117.106 62.8853 117.183 62.6704 117.183C62.5102 117.183 62.3536 117.14 62.2204 117.059C62.0871 116.979 61.9833 116.864 61.922 116.73C61.8607 116.596 61.8447 116.449 61.8759 116.307C61.9072 116.165 61.9843 116.034 62.0976 115.932C62.2109 115.829 62.3553 115.759 62.5124 115.731C62.6695 115.703 62.8324 115.717 62.9804 115.773C63.1284 115.828 63.2549 115.922 63.3439 116.043C63.433 116.163 63.4805 116.305 63.4805 116.45Z" fill="#41EAF7"/>
<path d="M66.0215 79.4322C66.0215 79.6266 65.9362 79.8131 65.7842 79.9505C65.6323 80.088 65.4263 80.1652 65.2114 80.1652C65.0512 80.1652 64.8946 80.1222 64.7614 80.0417C64.6282 79.9611 64.5243 79.8467 64.463 79.7128C64.4017 79.5788 64.3857 79.4314 64.4169 79.2892C64.4482 79.147 64.5254 79.0164 64.6387 78.9139C64.7519 78.8114 64.8963 78.7416 65.0534 78.7133C65.2105 78.685 65.3734 78.6996 65.5214 78.755C65.6694 78.8105 65.796 78.9045 65.885 79.025C65.974 79.1455 66.0215 79.2873 66.0215 79.4322Z" fill="#41EAF7"/>
<path d="M44.9453 108.77C44.9453 108.915 44.8978 109.057 44.8088 109.177C44.7198 109.298 44.5933 109.392 44.4452 109.447C44.2972 109.503 44.1343 109.517 43.9772 109.489C43.8201 109.461 43.6757 109.391 43.5624 109.288C43.4492 109.186 43.372 109.055 43.3408 108.913C43.3095 108.771 43.3255 108.624 43.3868 108.49C43.4482 108.356 43.552 108.241 43.6852 108.161C43.8184 108.08 43.975 108.037 44.1352 108.037C44.3501 108.037 44.5561 108.114 44.7081 108.252C44.86 108.389 44.9453 108.576 44.9453 108.77Z" fill="#41EAF7"/>
<path d="M47.4863 71.7506C47.4863 71.8956 47.4388 72.0373 47.3498 72.1578C47.2608 72.2784 47.1343 72.3723 46.9863 72.4278C46.8382 72.4833 46.6754 72.4978 46.5182 72.4695C46.3611 72.4412 46.2167 72.3714 46.1035 72.2689C45.9902 72.1664 45.913 72.0358 45.8818 71.8936C45.8505 71.7514 45.8666 71.604 45.9279 71.4701C45.9892 71.3361 46.093 71.2217 46.2262 71.1411C46.3594 71.0606 46.516 71.0176 46.6763 71.0176C46.8911 71.0176 47.0972 71.0948 47.2491 71.2323C47.401 71.3697 47.4863 71.5562 47.4863 71.7506Z" fill="#41EAF7"/>
<path d="M103.843 108.081C103.843 108.275 103.757 108.462 103.606 108.599C103.454 108.736 103.248 108.814 103.033 108.814C102.818 108.814 102.612 108.736 102.46 108.599C102.308 108.462 102.223 108.275 102.223 108.081C102.223 107.886 102.308 107.7 102.46 107.562C102.612 107.425 102.818 107.348 103.033 107.348C103.248 107.348 103.454 107.425 103.606 107.562C103.757 107.7 103.843 107.886 103.843 108.081Z" fill="#07EAD3"/>
<path d="M76.9736 121.833C76.9736 122.028 76.8883 122.214 76.7364 122.352C76.5845 122.489 76.3784 122.566 76.1636 122.566C76.0578 122.566 75.953 122.547 75.8554 122.51C75.7578 122.474 75.6693 122.419 75.595 122.351C75.5207 122.283 75.4622 122.202 75.4228 122.113C75.3835 122.024 75.364 121.929 75.3656 121.833C75.364 121.738 75.3835 121.644 75.423 121.555C75.4626 121.467 75.5213 121.387 75.5957 121.32C75.6701 121.252 75.7587 121.199 75.8563 121.163C75.9538 121.128 76.0583 121.11 76.1636 121.111C76.2694 121.11 76.3744 121.128 76.4727 121.163C76.5709 121.199 76.6603 121.252 76.7357 121.319C76.811 121.386 76.8709 121.466 76.9118 121.555C76.9526 121.643 76.9736 121.738 76.9736 121.833Z" fill="#07EAD3"/>
<path d="M79.5146 84.8139C79.5146 85.0083 79.4293 85.1948 79.2774 85.3323C79.1255 85.4697 78.9194 85.5469 78.7046 85.5469C78.5988 85.5469 78.494 85.5279 78.3964 85.4909C78.2988 85.454 78.2103 85.3998 78.136 85.3316C78.0618 85.2634 78.0032 85.1825 77.9639 85.0936C77.9245 85.0047 77.905 84.9097 77.9066 84.8139C77.905 84.7187 77.9245 84.6241 77.964 84.5359C78.0036 84.4476 78.0623 84.3674 78.1367 84.3001C78.2111 84.2327 78.2998 84.1796 78.3973 84.1438C78.4949 84.1081 78.5993 84.0904 78.7046 84.0919C78.8104 84.0904 78.9155 84.108 79.0137 84.1437C79.1119 84.1793 79.2013 84.2323 79.2767 84.2995C79.3521 84.3666 79.4119 84.4467 79.4528 84.5351C79.4936 84.6234 79.5147 84.7182 79.5146 84.8139Z" fill="#07EAD3"/>
<path d="M104.443 112.906C104.459 113.042 104.443 113.179 104.397 113.309C104.35 113.439 104.274 113.558 104.173 113.66C104.072 113.761 103.949 113.843 103.811 113.898C103.673 113.954 103.524 113.983 103.373 113.983C103.222 113.983 103.073 113.954 102.935 113.898C102.797 113.843 102.674 113.761 102.573 113.66C102.472 113.558 102.396 113.439 102.349 113.309C102.303 113.179 102.287 113.042 102.303 112.906C102.331 112.667 102.456 112.446 102.654 112.285C102.851 112.124 103.108 112.035 103.373 112.035C103.639 112.035 103.895 112.124 104.093 112.285C104.29 112.446 104.415 112.667 104.443 112.906Z" fill="#07EAD3"/>
<path d="M24.6572 86.6159C24.6572 86.7608 24.6097 86.9025 24.5207 87.0231C24.4317 87.1436 24.3052 87.2376 24.1572 87.2931C24.0091 87.3486 23.8463 87.3631 23.6891 87.3348C23.532 87.3065 23.3876 87.2367 23.2744 87.1342C23.1611 87.0317 23.0839 86.9011 23.0527 86.7589C23.0214 86.6167 23.0374 86.4693 23.0988 86.3353C23.1601 86.2014 23.2639 86.0869 23.3971 86.0063C23.5303 85.9258 23.6869 85.8828 23.8471 85.8828C24.062 85.8828 24.2681 85.96 24.42 86.0975C24.5719 86.235 24.6572 86.4214 24.6572 86.6159Z" fill="#07EAD3"/>
<path d="M77.1982 31.4986C77.1982 31.6436 77.1507 31.7853 77.0617 31.9059C76.9727 32.0264 76.8462 32.1203 76.6982 32.1758C76.5502 32.2313 76.3873 32.2458 76.2301 32.2175C76.073 32.1893 75.9287 32.1195 75.8154 32.0169C75.7021 31.9144 75.625 31.7838 75.5937 31.6416C75.5624 31.4994 75.5785 31.3521 75.6398 31.2181C75.7011 31.0842 75.8049 30.9697 75.9381 30.8892C76.0713 30.8086 76.2279 30.7656 76.3882 30.7656C76.603 30.7656 76.8091 30.8429 76.961 30.9803C77.1129 31.1178 77.1982 31.3042 77.1982 31.4986Z" fill="#07EAD3"/>
<path d="M2.28711 101.745C2.28709 101.89 2.23926 102.032 2.1497 102.153C2.06015 102.274 1.93289 102.368 1.78416 102.423C1.63544 102.478 1.47196 102.492 1.3145 102.463C1.15704 102.434 1.01275 102.363 0.899957 102.259C0.787164 102.156 0.71096 102.024 0.681082 101.881C0.651204 101.738 0.668978 101.59 0.732148 101.457C0.795318 101.323 0.901017 101.209 1.03581 101.13C1.17061 101.051 1.32842 101.01 1.48913 101.012C1.70187 101.015 1.90483 101.093 2.05414 101.23C2.20345 101.367 2.28713 101.552 2.28711 101.745Z" fill="#07EAD3"/>
<path d="M54.8281 46.6276C54.8281 46.773 54.7803 46.9152 54.6907 47.036C54.6012 47.1567 54.4739 47.2507 54.3252 47.3058C54.1765 47.3609 54.013 47.3748 53.8555 47.3456C53.6981 47.3164 53.5538 47.2455 53.441 47.1419C53.3282 47.0383 53.252 46.9067 53.2221 46.7638C53.1922 46.6209 53.21 46.4732 53.2732 46.3394C53.3363 46.2057 53.442 46.092 53.5768 46.0128C53.7116 45.9336 53.8694 45.8924 54.0301 45.8946C54.2429 45.8975 54.4458 45.976 54.5952 46.1131C54.7445 46.2503 54.8281 46.4351 54.8281 46.6276Z" fill="#07EAD3"/>
<path d="M125.771 113.616C125.771 113.896 125.68 114.168 125.509 114.4C125.337 114.633 125.094 114.813 124.809 114.92C124.524 115.027 124.21 115.055 123.907 115.001C123.605 114.946 123.327 114.812 123.109 114.614C122.891 114.417 122.742 114.165 122.682 113.892C122.622 113.618 122.653 113.334 122.771 113.076C122.889 112.818 123.089 112.598 123.345 112.443C123.602 112.288 123.903 112.205 124.212 112.205C124.417 112.204 124.621 112.239 124.811 112.31C125 112.38 125.173 112.484 125.318 112.615C125.463 112.747 125.578 112.903 125.656 113.075C125.734 113.246 125.773 113.431 125.771 113.616Z" fill="#07EAD3"/>
<path d="M78.2118 109.463C77.3504 109.463 76.6521 108.831 76.6521 108.052C76.6521 107.272 77.3504 106.641 78.2118 106.641C79.0732 106.641 79.7715 107.272 79.7715 108.052C79.7715 108.831 79.0732 109.463 78.2118 109.463Z" fill="#07EAD3"/>
<path d="M80.7528 72.4437C79.8914 72.4437 79.1932 71.8118 79.1932 71.0324C79.1932 70.253 79.8914 69.6211 80.7528 69.6211C81.6142 69.6211 82.3125 70.253 82.3125 71.0324C82.3125 71.8118 81.6142 72.4437 80.7528 72.4437Z" fill="#07EAD3"/>
<defs>
<radialGradient id="paint0_radial_1504_543" cx="0" cy="0" r="1" gradientUnits="userSpaceOnUse" gradientTransform="translate(-10715.9 -7365.61) rotate(180) scale(226.114 204.606)">
<stop stop-color="#00AEEF"/>
<stop offset="0.06" stop-color="#0094CB"/>
<stop offset="0.15" stop-color="#00719C"/>
<stop offset="0.24" stop-color="#005372"/>
<stop offset="0.34" stop-color="#00394F"/>
<stop offset="0.44" stop-color="#002432"/>
<stop offset="0.55" stop-color="#00141C"/>
<stop offset="0.67" stop-color="#00090C"/>
<stop offset="0.81" stop-color="#000203"/>
<stop offset="1"/>
</radialGradient>
<radialGradient id="paint1_radial_1504_543" cx="0" cy="0" r="1" gradientUnits="userSpaceOnUse" gradientTransform="translate(-10718.5 -7328.61) rotate(180) scale(226.114 204.607)">
<stop stop-color="#00AEEF"/>
<stop offset="0.06" stop-color="#0094CB"/>
<stop offset="0.15" stop-color="#00719C"/>
<stop offset="0.24" stop-color="#005372"/>
<stop offset="0.34" stop-color="#00394F"/>
<stop offset="0.44" stop-color="#002432"/>
<stop offset="0.55" stop-color="#00141C"/>
<stop offset="0.67" stop-color="#00090C"/>
<stop offset="0.81" stop-color="#000203"/>
<stop offset="1"/>
</radialGradient>
<radialGradient id="paint2_radial_1504_543" cx="0" cy="0" r="1" gradientUnits="userSpaceOnUse" gradientTransform="translate(-10728.9 -2919.93) rotate(180) scale(226.114 204.606)">
<stop stop-color="#00AEEF"/>
<stop offset="0.06" stop-color="#0094CB"/>
<stop offset="0.15" stop-color="#00719C"/>
<stop offset="0.24" stop-color="#005372"/>
<stop offset="0.34" stop-color="#00394F"/>
<stop offset="0.44" stop-color="#002432"/>
<stop offset="0.55" stop-color="#00141C"/>
<stop offset="0.67" stop-color="#00090C"/>
<stop offset="0.81" stop-color="#000203"/>
<stop offset="1"/>
</radialGradient>
<radialGradient id="paint3_radial_1504_543" cx="0" cy="0" r="1" gradientUnits="userSpaceOnUse" gradientTransform="translate(-13200.2 -5514.64) rotate(179.901) scale(225.412 203.971)">
<stop stop-color="#00AEEF"/>
<stop offset="0.06" stop-color="#0094CB"/>
<stop offset="0.15" stop-color="#00719C"/>
<stop offset="0.24" stop-color="#005372"/>
<stop offset="0.34" stop-color="#00394F"/>
<stop offset="0.44" stop-color="#002432"/>
<stop offset="0.55" stop-color="#00141C"/>
<stop offset="0.67" stop-color="#00090C"/>
<stop offset="0.81" stop-color="#000203"/>
<stop offset="1"/>
</radialGradient>
<radialGradient id="paint4_radial_1504_543" cx="0" cy="0" r="1" gradientUnits="userSpaceOnUse" gradientTransform="translate(-13202.8 -5477.62) rotate(179.901) scale(225.412 203.971)">
<stop stop-color="#00AEEF"/>
<stop offset="0.06" stop-color="#0094CB"/>
<stop offset="0.15" stop-color="#00719C"/>
<stop offset="0.24" stop-color="#005372"/>
<stop offset="0.34" stop-color="#00394F"/>
<stop offset="0.44" stop-color="#002432"/>
<stop offset="0.55" stop-color="#00141C"/>
<stop offset="0.67" stop-color="#00090C"/>
<stop offset="0.81" stop-color="#000203"/>
<stop offset="1"/>
</radialGradient>
<radialGradient id="paint5_radial_1504_543" cx="0" cy="0" r="1" gradientUnits="userSpaceOnUse" gradientTransform="translate(11023.3 7505.81) scale(226.114 204.607)">
<stop stop-color="#00AEEF"/>
<stop offset="0.06" stop-color="#0094CB"/>
<stop offset="0.15" stop-color="#00719C"/>
<stop offset="0.24" stop-color="#005372"/>
<stop offset="0.34" stop-color="#00394F"/>
<stop offset="0.44" stop-color="#002432"/>
<stop offset="0.55" stop-color="#00141C"/>
<stop offset="0.67" stop-color="#00090C"/>
<stop offset="0.81" stop-color="#000203"/>
<stop offset="1"/>
</radialGradient>
<radialGradient id="paint6_radial_1504_543" cx="0" cy="0" r="1" gradientUnits="userSpaceOnUse" gradientTransform="translate(11025.9 7468.77) scale(226.114 204.606)">
<stop stop-color="#00AEEF"/>
<stop offset="0.06" stop-color="#0094CB"/>
<stop offset="0.15" stop-color="#00719C"/>
<stop offset="0.24" stop-color="#005372"/>
<stop offset="0.34" stop-color="#00394F"/>
<stop offset="0.44" stop-color="#002432"/>
<stop offset="0.55" stop-color="#00141C"/>
<stop offset="0.67" stop-color="#00090C"/>
<stop offset="0.81" stop-color="#000203"/>
<stop offset="1"/>
</radialGradient>
<radialGradient id="paint7_radial_1504_543" cx="0" cy="0" r="1" gradientUnits="userSpaceOnUse" gradientTransform="translate(11036.3 3060.11) scale(226.114 204.607)">
<stop stop-color="#00AEEF"/>
<stop offset="0.06" stop-color="#0094CB"/>
<stop offset="0.15" stop-color="#00719C"/>
<stop offset="0.24" stop-color="#005372"/>
<stop offset="0.34" stop-color="#00394F"/>
<stop offset="0.44" stop-color="#002432"/>
<stop offset="0.55" stop-color="#00141C"/>
<stop offset="0.67" stop-color="#00090C"/>
<stop offset="0.81" stop-color="#000203"/>
<stop offset="1"/>
</radialGradient>
<radialGradient id="paint8_radial_1504_543" cx="0" cy="0" r="1" gradientUnits="userSpaceOnUse" gradientTransform="translate(13507.6 5654.81) rotate(-0.0988652) scale(225.412 203.971)">
<stop stop-color="#00AEEF"/>
<stop offset="0.06" stop-color="#0094CB"/>
<stop offset="0.15" stop-color="#00719C"/>
<stop offset="0.24" stop-color="#005372"/>
<stop offset="0.34" stop-color="#00394F"/>
<stop offset="0.44" stop-color="#002432"/>
<stop offset="0.55" stop-color="#00141C"/>
<stop offset="0.67" stop-color="#00090C"/>
<stop offset="0.81" stop-color="#000203"/>
<stop offset="1"/>
</radialGradient>
<radialGradient id="paint9_radial_1504_543" cx="0" cy="0" r="1" gradientUnits="userSpaceOnUse" gradientTransform="translate(13510.2 5617.81) rotate(-0.0988651) scale(225.412 203.971)">
<stop stop-color="#00AEEF"/>
<stop offset="0.06" stop-color="#0094CB"/>
<stop offset="0.15" stop-color="#00719C"/>
<stop offset="0.24" stop-color="#005372"/>
<stop offset="0.34" stop-color="#00394F"/>
<stop offset="0.44" stop-color="#002432"/>
<stop offset="0.55" stop-color="#00141C"/>
<stop offset="0.67" stop-color="#00090C"/>
<stop offset="0.81" stop-color="#000203"/>
<stop offset="1"/>
</radialGradient>
</defs>
</svg>
