<svg width="48" height="48" viewBox="0 0 48 48" fill="none" xmlns="http://www.w3.org/2000/svg">
<path d="M44.8247 18.7119C44.737 18.6299 44.6934 18.5088 44.7078 18.3878C44.7867 17.7315 44.7876 17.0432 44.71 16.397C44.6947 16.2682 44.7369 16.1467 44.8258 16.0635L45.9044 15.0557C46.5081 14.4917 46.6412 13.5981 46.2281 12.8825L45.3891 11.4293C44.9761 10.7137 44.1357 10.3821 43.3452 10.6229L41.9321 11.0534C41.8169 11.0886 41.689 11.0648 41.5901 10.9899C41.0602 10.5879 40.4821 10.2532 39.872 9.99497C39.7529 9.94453 39.6656 9.84422 39.6383 9.72647L39.3052 8.29041C39.1186 7.48556 38.4113 6.92344 37.585 6.92344H35.9069C35.0808 6.92344 34.3735 7.48556 34.1868 8.29041L33.8536 9.72656C33.8263 9.84422 33.739 9.94453 33.62 9.99497C33.0099 10.2533 32.4318 10.588 31.9019 10.9899C31.8029 11.0648 31.6749 11.0885 31.5597 11.0534L30.1467 10.6229C29.3564 10.3819 28.5159 10.7137 28.1029 11.4292L27.2638 12.8825C26.8508 13.598 26.9839 14.4916 27.5875 15.0556L28.6674 16.0644C28.7687 16.2648 28.8125 16.1616 28.7546 16.685H18.0343L12.3792 4.01512V2.34309C12.3792 1.05113 11.3281 0 10.0361 0H3.87639C2.58433 0 1.5332 1.05113 1.5332 2.34309V5.98678C1.5332 7.27875 2.58433 8.32987 3.8763 8.32987H10.0361C10.9753 8.32987 11.7868 7.77412 12.1601 6.97444L16.4944 16.6852H12.3792V15.5665C12.3792 14.2746 11.3281 13.2234 10.0361 13.2234H3.87639C2.58442 13.2234 1.5333 14.2746 1.5333 15.5665V19.2102C1.5333 20.5022 2.58442 21.5533 3.87639 21.5533H10.0362C11.3282 21.5533 12.3793 20.5022 12.3793 19.2102V18.0915H17.1221L20.8513 26.4468H19.2323C17.9403 26.4468 16.8892 27.4979 16.8892 28.7899V29.9088H12.3793V28.7899C12.3793 27.4979 11.3282 26.4468 10.0362 26.4468H3.87639C2.58442 26.4468 1.5333 27.4979 1.5333 28.7899V32.4336C1.5333 33.7255 2.58442 34.7767 3.87639 34.7767H6.25314V39.6701H3.87639C2.58442 39.6701 1.5333 40.7212 1.5333 42.0132V45.6569C1.5333 46.9489 2.58442 48 3.87639 48H10.0362C11.3282 48 12.3793 46.9489 12.3793 45.6569V42.0132C12.3793 40.7212 11.3282 39.6701 10.0362 39.6701H7.65939V34.7767H10.0361C11.3281 34.7767 12.3792 33.7255 12.3792 32.4336V31.315H16.8891V32.4336C16.8891 33.7255 17.9402 34.7767 19.2322 34.7767H25.3919C26.684 34.7767 27.7351 33.7255 27.7351 32.4336V28.7899C27.7351 27.4979 26.684 26.4468 25.3919 26.4468H24.8997L28.6176 23.911C29.051 24.2163 29.6103 24.3172 30.1466 24.1536L31.5596 23.7231C31.675 23.688 31.803 23.7116 31.9017 23.7865C32.4317 24.1885 33.0098 24.5233 33.6199 24.7815C33.739 24.8319 33.8262 24.9323 33.8536 25.05L34.1867 26.4861C34.3733 27.2909 35.0806 27.853 35.9068 27.853H37.585C38.4111 27.853 39.1184 27.2909 39.3051 26.4861L39.6383 25.0499C39.6655 24.9323 39.7529 24.8319 39.8719 24.7815C40.482 24.5232 41.0601 24.1884 41.59 23.7865C41.6889 23.7115 41.8168 23.6878 41.9321 23.7231L43.3451 24.1536C44.1355 24.3944 44.9759 24.0627 45.389 23.3473L46.228 21.894C46.6411 21.1785 46.508 20.2849 45.9043 19.7209L44.8247 18.7119ZM10.0361 6.92362H3.87639C3.35983 6.92362 2.93955 6.50334 2.93955 5.98678V4.86797H6.13267C6.52098 4.86797 6.8358 4.55316 6.8358 4.16484C6.8358 3.77653 6.52098 3.46172 6.13267 3.46172H2.93955V2.34309C2.93955 1.82653 3.35983 1.40625 3.87639 1.40625H10.0362C10.5528 1.40625 10.9731 1.82653 10.9731 2.34309V3.46172H9.61689C9.22858 3.46172 8.91377 3.77653 8.91377 4.16484C8.91377 4.55316 9.22858 4.86797 9.61689 4.86797H10.973V5.98678C10.973 6.50334 10.5527 6.92362 10.0361 6.92362ZM3.87639 14.6296H10.0362C10.5528 14.6296 10.9731 15.0499 10.9731 15.5664V16.6852H2.93945V15.5664C2.93945 15.0499 3.35973 14.6296 3.87639 14.6296ZM10.0361 20.147H3.87639C3.35983 20.147 2.93955 19.7267 2.93955 19.2101V18.0914H10.9731V19.2101C10.973 19.7267 10.5527 20.147 10.0361 20.147ZM10.0361 46.5938H3.87639C3.35983 46.5938 2.93955 46.1735 2.93955 45.6569V44.5385H10.9731V45.6569C10.973 46.1735 10.5527 46.5938 10.0361 46.5938ZM10.973 42.0132V43.1322H2.93945V42.0132C2.93945 41.4967 3.35973 41.0764 3.8763 41.0764H10.0361C10.5527 41.0764 10.973 41.4967 10.973 42.0132ZM3.87639 27.853H10.0362C10.5528 27.853 10.9731 28.2733 10.9731 28.7899V29.9088H2.93945V28.7899C2.93945 28.2733 3.35973 27.853 3.87639 27.853ZM10.0361 33.3704H3.87639C3.35983 33.3704 2.93955 32.9501 2.93955 32.4336V31.315H10.9731V32.4336C10.973 32.9501 10.5527 33.3704 10.0361 33.3704ZM25.392 33.3704H19.2323C18.7157 33.3704 18.2954 32.9501 18.2954 32.4336V31.315H26.329V32.4336C26.329 32.9501 25.9087 33.3704 25.392 33.3704ZM26.329 28.7899V29.9088H18.2954V28.7899C18.2954 28.2733 18.7157 27.853 19.2323 27.853H21.931C21.9325 27.853 21.934 27.8533 21.9355 27.8533C21.9376 27.8533 21.9397 27.853 21.9417 27.853H22.6185C22.6195 27.853 22.6206 27.8532 22.6216 27.8532C22.6225 27.8532 22.6233 27.853 22.6241 27.853H25.3921C25.9087 27.853 26.329 28.2733 26.329 28.7899ZM22.3912 26.4468L18.662 18.0915H28.7533C28.6999 18.1462 28.9146 18.2401 28.6661 18.7131L27.5875 19.7209C26.9839 20.2849 26.8508 21.1785 27.2638 21.8941L27.7767 22.7825L22.4041 26.4468H22.3912ZM45.0104 21.1909L44.1714 22.6442C44.0874 22.7899 43.9165 22.8572 43.7552 22.8083L42.3422 22.3778C41.7965 22.2114 41.1979 22.3193 40.7405 22.666C40.3033 22.9976 39.8267 23.2736 39.3239 23.4865C38.7916 23.7118 38.3971 24.1776 38.2686 24.7323L37.9355 26.1683C37.8974 26.3322 37.7534 26.4467 37.5852 26.4467H35.9071C35.7389 26.4467 35.5949 26.3322 35.5569 26.1683L35.2239 24.7323C35.0952 24.1776 34.7007 23.7118 34.1684 23.4864C33.6656 23.2735 33.189 22.9975 32.7518 22.6659C32.4361 22.4265 32.053 22.3011 31.6663 22.3011C31.493 22.3011 31.3191 22.3263 31.1501 22.3778L29.7371 22.8083C29.5762 22.8575 29.4051 22.7898 29.321 22.6441L28.4819 21.1909C28.3978 21.0451 28.425 20.8631 28.5478 20.7483L29.6264 19.7406C30.0404 19.3538 30.2469 18.7823 30.1784 18.2122C30.1289 17.7631 30.1075 17.2213 30.1807 16.5563C30.2485 15.9919 30.0417 15.4239 29.6276 15.037L28.5478 14.0282C28.4249 13.9132 28.3977 13.7313 28.4819 13.5856L29.321 12.1323C29.4051 11.9866 29.5761 11.9193 29.7371 11.9681L31.15 12.3986C31.6957 12.5647 32.2945 12.4572 32.7519 12.1104C33.189 11.7788 33.6656 11.5028 34.1684 11.2899C34.7007 11.0647 35.0952 10.5989 35.2238 10.0442L35.5569 8.60812C35.5949 8.44416 35.7389 8.32978 35.9071 8.32978H37.5852C37.7534 8.32978 37.8974 8.44425 37.9355 8.60812L38.2685 10.0442C38.3971 10.5989 38.7916 11.0647 39.3239 11.29C39.8267 11.5029 40.3033 11.7789 40.7406 12.1105C41.1979 12.4572 41.7967 12.5649 42.3422 12.3987L43.7552 11.9682C43.9165 11.9193 44.0874 11.9867 44.1714 12.1324L45.0104 13.5856C45.0945 13.7314 45.0673 13.9133 44.9445 14.0282L43.8659 15.0359C43.4519 15.4226 43.2455 15.994 43.3139 16.5642C43.3782 17.1007 43.3774 17.6733 43.3117 18.2199V18.2201C43.2439 18.7845 43.4506 19.3524 43.8647 19.7393L44.9445 20.7482C45.0673 20.8632 45.0945 21.0452 45.0104 21.1909Z" fill="#53E3F2"/>
<path d="M36.746 12.6504C34.1334 12.6504 32.0078 14.776 32.0078 17.3887C32.0078 18.2394 32.2361 19.074 32.6679 19.8024C32.866 20.1364 33.2973 20.2468 33.6313 20.0486C33.9652 19.8506 34.0755 19.4192 33.8775 19.0852C33.5743 18.5738 33.4141 17.9872 33.4141 17.3887C33.4141 15.5514 34.9087 14.0566 36.746 14.0566C38.5833 14.0566 40.078 15.5514 40.078 17.3887C40.078 19.2259 38.5833 20.7207 36.746 20.7207C36.5609 20.7207 36.3754 20.7054 36.1946 20.6754C35.8114 20.6115 35.4494 20.8705 35.3856 21.2536C35.3219 21.6367 35.5808 21.9989 35.9639 22.0626C36.2207 22.1054 36.4838 22.127 36.746 22.127C39.3587 22.127 41.4842 20.0015 41.4842 17.3888C41.4842 14.7761 39.3588 12.6504 36.746 12.6504Z" fill="#53E3F2"/>
<path d="M25.392 39.6699H22.5743C22.186 39.6699 21.8712 39.9847 21.8712 40.373C21.8712 40.7614 22.186 41.0762 22.5743 41.0762H25.392C25.9087 41.0762 26.3289 41.4965 26.3289 42.013V43.132H18.2954V42.013C18.2954 41.4965 18.7157 41.0762 19.2323 41.0762C19.6206 41.0762 19.9354 40.7614 19.9354 40.373C19.9354 39.9847 19.6206 39.6699 19.2323 39.6699C17.9403 39.6699 16.8892 40.721 16.8892 42.013V45.6567C16.8892 46.9487 17.9403 47.9998 19.2323 47.9998H25.392C26.6841 47.9998 27.7352 46.9487 27.7352 45.6567V42.013C27.7352 40.721 26.6841 39.6699 25.392 39.6699ZM25.392 46.5935H19.2323C18.7157 46.5935 18.2954 46.1733 18.2954 45.6567V44.5383H26.3289V45.6567C26.3289 46.1733 25.9087 46.5935 25.392 46.5935Z" fill="white"/>
<path d="M40.7481 39.6699H34.5882C33.2962 39.6699 32.2451 40.721 32.2451 42.013V45.6567C32.2451 46.9487 33.2962 47.9998 34.5882 47.9998H40.7481C42.04 47.9998 43.0911 46.9487 43.0911 45.6567V42.013C43.0911 40.721 42.04 39.6699 40.7481 39.6699ZM34.5882 41.0762H40.7481C41.2646 41.0762 41.6849 41.4965 41.6849 42.013V43.132H33.6514V42.013C33.6514 41.4965 34.0716 41.0762 34.5882 41.0762ZM40.7481 46.5935H34.5882C34.0716 46.5935 33.6514 46.1733 33.6514 45.6567V44.5383H41.6849V45.6567C41.6849 46.1733 41.2646 46.5935 40.7481 46.5935Z" fill="white"/>
<path d="M19.2323 8.32987H25.392C26.6841 8.32987 27.7352 7.27875 27.7352 5.98678V2.34309C27.7352 1.05113 26.6841 0 25.392 0H19.2323C17.9403 0 16.8892 1.05113 16.8892 2.34309V5.98678C16.8892 7.27875 17.9403 8.32987 19.2323 8.32987ZM25.392 6.92362H19.2323C18.7157 6.92362 18.2954 6.50334 18.2954 5.98678V4.86797H26.3289V5.98678C26.3289 6.50334 25.9087 6.92362 25.392 6.92362ZM19.2323 1.40625H25.392C25.9087 1.40625 26.3289 1.82653 26.3289 2.34309V3.46172H18.2954V2.34309C18.2954 1.82653 18.7157 1.40625 19.2323 1.40625Z" fill="white"/>
</svg>
