<svg width="48" height="48" viewBox="0 0 48 48" fill="none" xmlns="http://www.w3.org/2000/svg">
<g clip-path="url(#clip0_189_1507)">
<path d="M23.6853 1.40297C28.248 1.40297 32.5958 2.66691 36.2583 5.05828C39.8312 7.39106 42.4521 10.587 43.8378 14.3004L44.4517 16.0461L43.0595 15.1541C42.7332 14.9451 42.2994 15.04 42.0904 15.3664C41.8814 15.6926 41.9764 16.1265 42.3027 16.3355C42.3027 16.3355 45.19 18.1852 45.1901 18.1852C45.5414 18.4101 45.9876 18.2962 46.1863 17.9268L47.7217 15.0712C47.9052 14.7299 47.7773 14.3047 47.436 14.1212C47.095 13.9379 46.6694 14.0656 46.4861 14.4068L45.8068 15.6702L45.1591 13.8287C45.1576 13.8246 45.1562 13.8204 45.1547 13.8165C43.6641 9.8175 40.853 6.38287 37.0254 3.88369C33.1341 1.34288 28.5212 0 23.6853 0C23.2979 0 22.9839 0.314062 22.9839 0.701437C22.9839 1.08881 23.2979 1.40297 23.6853 1.40297Z" fill="white"/>
<path d="M24.3146 46.5975C19.7519 46.5975 15.4041 45.3336 11.7416 42.9422C8.16868 40.6094 5.5479 37.4137 4.16218 33.7002L3.54821 31.9544L4.9404 32.8464C5.26675 33.0553 5.70043 32.9604 5.9095 32.6341C6.11856 32.308 6.0235 31.874 5.69725 31.665L2.80984 29.8152C2.48368 29.6064 1.99881 29.7294 1.81356 30.0738C1.80587 30.088 0.27812 32.9293 0.27812 32.9293C0.0946514 33.2706 0.222526 33.6958 0.563776 33.8793C0.669433 33.9361 0.783245 33.9632 0.89537 33.9631C1.14531 33.9631 1.38718 33.8293 1.51375 33.5937L2.19306 32.3304L2.84068 34.1719C2.84218 34.176 2.84359 34.1801 2.84509 34.1842C4.33571 38.1832 7.14681 41.6178 10.9744 44.117C14.8658 46.6576 19.4787 48.0005 24.3146 48.0005C24.702 48.0005 25.016 47.6864 25.016 47.2991C25.016 46.9116 24.702 46.5975 24.3146 46.5975Z" fill="white"/>
<path d="M41.4357 30.1C42.1062 28.1895 42.472 26.137 42.472 24.0003C42.472 13.8148 34.1854 5.52822 23.9999 5.52822C20.4711 5.52822 17.1711 6.52394 14.364 8.24772C13.3773 5.35806 10.6374 3.27344 7.41793 3.27344C3.37102 3.27344 0.0786133 6.56584 0.0786133 10.6127C0.0786133 10.9233 0.098207 11.2358 0.136926 11.5419C0.185582 11.9263 0.536582 12.1997 0.920957 12.1498C1.30533 12.1012 1.57749 11.7502 1.52883 11.3658C1.49743 11.1181 1.48158 10.8647 1.48158 10.6127C1.48158 7.33947 4.14464 4.67641 7.41793 4.67641C10.6912 4.67641 13.3543 7.33947 13.3543 10.6127C13.3543 13.886 10.6912 16.549 7.41793 16.549C5.46952 16.549 3.64327 15.5911 2.53271 13.9864C2.3123 13.6681 1.87533 13.5883 1.55668 13.8089C1.23811 14.0294 1.15861 14.4663 1.37911 14.7849C2.58793 16.5315 4.48308 17.6576 6.56349 17.9016C5.89336 19.8119 5.52774 21.8641 5.52774 24.0003C5.52774 34.1859 13.8143 42.4725 23.9998 42.4725C27.5284 42.4725 30.8286 41.477 33.6359 39.7535C34.6227 42.6429 37.3624 44.7272 40.5817 44.7272C44.6286 44.7272 47.921 41.4348 47.921 37.3879C47.9211 33.63 45.0815 30.5245 41.4357 30.1ZM37.7965 13.9626C39.7242 16.605 40.912 19.8192 41.0534 23.2989H33.2155C33.171 21.1548 32.9232 19.0815 32.4971 17.1417C34.7329 16.3652 36.5729 15.2793 37.7965 13.9626ZM41.0535 24.7018C40.9768 26.5882 40.5918 28.3962 39.9488 30.0778C38.1842 30.2294 36.5958 31.0063 35.4085 32.1874C34.548 31.6858 33.5705 31.2412 32.4968 30.8668C32.9233 28.9256 33.1711 26.8497 33.2155 24.7018H41.0535ZM36.9119 12.8481C35.8796 14.0379 34.2153 15.0391 32.1593 15.7674C31.2224 12.3306 29.7048 9.39512 27.7619 7.34978C31.3792 8.16662 34.5651 10.1347 36.9119 12.8481ZM31.8125 23.2989H16.1872C16.2301 21.3183 16.4557 19.3868 16.8505 17.5595C19.0007 18.1488 21.4375 18.4736 23.9997 18.4736C26.562 18.4736 28.9988 18.1488 31.1491 17.5594C31.5439 19.3866 31.7697 21.3182 31.8125 23.2989ZM22.8076 6.97347C23.2016 6.94609 23.599 6.93119 23.9999 6.93119C24.4007 6.93119 24.7982 6.94619 25.1923 6.97347C27.0979 8.29103 28.7332 10.5494 29.9222 13.5069C30.266 14.3619 30.5631 15.2596 30.8157 16.1891C28.7704 16.7539 26.4349 17.0705 23.9998 17.0705C21.5647 17.0705 19.2293 16.7539 17.1841 16.1891C17.4366 15.2595 17.7337 14.3617 18.0776 13.5066C19.2666 10.5493 20.9019 8.29103 22.8076 6.97347ZM14.7571 10.6127C14.7571 10.3024 14.7356 9.99719 14.698 9.69691C16.3666 8.60809 18.2356 7.80194 20.2379 7.34978C18.2949 9.39512 16.7775 12.3306 15.8404 15.7675C14.9847 15.4643 14.1984 15.1132 13.4962 14.7215C14.2918 13.5483 14.7571 12.1339 14.7571 10.6127ZM8.05111 17.9229C9.81286 17.7715 11.399 16.9967 12.5857 15.8185C13.4513 16.3247 14.4302 16.7694 15.5026 17.1417C15.0765 19.0815 14.8287 21.1547 14.7841 23.2988H6.94627C7.02296 21.4124 7.40818 19.6044 8.05111 17.9229ZM10.2031 34.0379C8.27546 31.3955 7.08765 28.1814 6.94627 24.7018H14.7841C14.8286 26.847 15.0757 28.9203 15.5011 30.8594C13.266 31.6357 11.4266 32.7214 10.2031 34.0379ZM11.0878 35.1525C12.1198 33.963 13.7835 32.9621 15.8387 32.2337C16.7752 35.6716 18.2928 38.6055 20.2367 40.6506C16.6199 39.8336 13.4343 37.8656 11.0878 35.1525ZM25.1921 41.0272C24.7981 41.0546 24.4006 41.0695 23.9998 41.0695C23.599 41.0695 23.2016 41.0545 22.8076 41.0272C20.9095 39.7153 19.2795 37.4702 18.0907 34.5272C17.7413 33.662 17.4397 32.7531 17.1839 31.8116C19.2291 31.2467 21.5645 30.9302 23.9997 30.9302C24.7398 30.9302 25.4829 30.9592 26.2084 31.0165C26.5941 31.0463 26.9325 30.7587 26.9629 30.3724C26.9934 29.9862 26.7051 29.6484 26.3189 29.6178C25.5569 29.5577 24.7766 29.5272 23.9998 29.5272C21.4375 29.5272 19.0006 29.8519 16.8504 30.4413C16.4557 28.6143 16.2301 26.6828 16.1873 24.7019H31.8125C31.7697 26.685 31.5436 28.6185 31.1481 30.4473C30.6259 30.3033 30.0866 30.1742 29.5309 30.0623C29.1512 29.9859 28.7812 30.2316 28.7047 30.6114C28.6282 30.9912 28.874 31.3611 29.2538 31.4376C29.7925 31.5462 30.3137 31.671 30.8162 31.8099C30.5604 32.7521 30.2586 33.6616 29.9089 34.5272C28.7202 37.4702 27.0901 39.7153 25.1921 41.0272ZM33.2426 37.3879C33.2426 37.6986 33.2642 38.0042 33.3019 38.3049C31.6336 39.3932 29.7646 40.1985 27.763 40.6506C29.7072 38.6051 31.225 35.6705 32.1615 32.232C33.0211 32.5368 33.8056 32.8887 34.504 33.2786C33.7081 34.4519 33.2426 35.8665 33.2426 37.3879ZM40.5818 43.3243C37.3085 43.3243 34.6455 40.6612 34.6455 37.3879C34.6455 34.1147 37.3085 31.4517 40.5818 31.4517C43.8551 31.4517 46.5181 34.1147 46.5181 37.3879C46.5181 40.6612 43.8552 43.3243 40.5818 43.3243Z" fill="#53E3F2"/>
<path d="M41.5016 36.6875C41.4156 36.6571 41.3284 36.6258 41.2409 36.5937V35.0469C41.2786 35.0863 41.3173 35.1283 41.3584 35.1753C41.6129 35.4673 42.056 35.4977 42.3481 35.2433C42.6401 34.9888 42.6706 34.5456 42.4161 34.2536C42.1096 33.9019 41.7421 33.563 41.2409 33.4051V33.1233C41.2409 32.7358 40.9269 32.4219 40.5395 32.4219C40.1521 32.4219 39.8381 32.7358 39.8381 33.1233V33.4325C39.822 33.4371 39.8064 33.4411 39.7901 33.446C39.035 33.6734 38.4713 34.3171 38.3189 35.1259C38.1786 35.8707 38.4223 36.5929 38.9549 37.0107C39.1878 37.1933 39.469 37.3611 39.8381 37.5337V39.9365C39.6245 39.8904 39.4404 39.7993 39.1705 39.6227C38.8464 39.4107 38.4116 39.5015 38.1995 39.8258C37.9874 40.15 38.0783 40.5847 38.4025 40.7968C38.9471 41.1531 39.3505 41.2997 39.8381 41.3543V41.6506C39.8381 42.0381 40.1521 42.3521 40.5395 42.3521C40.9269 42.3521 41.2409 42.038 41.2409 41.6506V41.2848C42.2513 40.9974 42.8983 40.121 43.0437 39.2562C43.2358 38.1137 42.6161 37.0814 41.5016 36.6875ZM39.838 35.9196C39.8323 35.9153 39.8262 35.9111 39.8207 35.9068C39.7053 35.8164 39.6558 35.6068 39.6975 35.3858C39.7091 35.3243 39.7445 35.1828 39.838 35.0496V35.9196ZM41.6602 39.0237C41.6168 39.2818 41.4752 39.5517 41.2409 39.7388V38.1048C41.708 38.3726 41.6936 38.8247 41.6602 39.0237Z" fill="#53E3F2"/>
<path d="M3.4624 11.5666C3.4624 11.9541 3.77647 12.2681 4.16384 12.2681H4.47687C5.13134 13.8664 6.70296 14.9957 8.53409 14.9957C8.8475 14.9957 9.15284 14.9622 9.44159 14.8963C9.81931 14.8101 10.0557 14.4341 9.9694 14.0564C9.88315 13.6787 9.50675 13.4421 9.1294 13.5287C8.94293 13.5713 8.74259 13.5928 8.53409 13.5928C7.50303 13.5928 6.59281 13.0663 6.05768 12.2682H8.62043C9.00781 12.2682 9.32187 11.9542 9.32187 11.5667C9.32187 11.1792 9.00781 10.8652 8.62043 10.8652H5.56578C5.55875 10.782 5.55434 10.6981 5.55434 10.6131C5.55434 10.5281 5.55875 10.4442 5.56578 10.3609H8.62034C9.00771 10.3609 9.32178 10.0468 9.32178 9.65947C9.32178 9.27209 9.00771 8.95803 8.62034 8.95803H6.05768C6.5929 8.15994 7.50303 7.63344 8.53409 7.63344C8.74475 7.63344 8.95475 7.65537 9.15818 7.69878C9.53722 7.77894 9.90968 7.53762 9.9904 7.15869C10.0711 6.77984 9.82934 6.40728 9.4504 6.32647C9.15106 6.26281 8.84281 6.23047 8.53418 6.23047C6.70306 6.23047 5.13143 7.35969 4.47697 8.95803H4.16393C3.77656 8.95803 3.4625 9.27209 3.4625 9.65947C3.4625 10.0453 3.77403 10.3582 4.15934 10.3607C4.15456 10.4443 4.15156 10.5283 4.15156 10.6131C4.15156 10.6978 4.15456 10.7818 4.15934 10.8655C3.77393 10.8679 3.4624 11.1807 3.4624 11.5666Z" fill="#53E3F2"/>
</g>
<defs>
<clipPath id="clip0_189_1507">
<rect width="48" height="48" fill="white"/>
</clipPath>
</defs>
</svg>
