<svg width="83" height="84" viewBox="0 0 83 84" fill="none" xmlns="http://www.w3.org/2000/svg">
<path d="M41.4194 42.2532C46.8963 42.2532 51.3521 37.7437 51.3521 32.2009C51.3521 29.665 50.4151 27.2427 48.7138 25.38C48.2585 24.8816 47.4901 24.8509 46.9978 25.3119C46.5053 25.7726 46.475 26.5501 46.9303 27.0486C48.2155 28.4556 48.9235 30.2854 48.9235 32.2009C48.9235 36.3884 45.5573 39.7953 41.4194 39.7953C37.2816 39.7953 33.9154 36.3884 33.9154 32.2009C33.9154 28.0132 37.2816 24.6065 41.4194 24.6065C41.9649 24.6065 42.5159 24.6682 43.0568 24.79C43.7122 24.9374 44.3601 24.5198 44.5059 23.8573C44.6514 23.1948 44.2389 22.5383 43.5843 22.3908C42.8705 22.23 42.1422 22.1484 41.4194 22.1484C35.9426 22.1484 31.4868 26.6579 31.4868 32.2007C31.4868 37.7438 35.9426 42.2532 41.4194 42.2532V42.2532Z" fill="white"/>
<path d="M56.421 68.1819C54.9192 68.1819 53.4431 68.6253 52.1878 69.4426C51.1447 67.852 49.3608 66.8614 47.4443 66.8614C46.9898 66.8614 46.5438 66.9148 46.1097 67.0208V64.4107C47.8238 63.8995 49.1768 62.4582 49.5335 60.6132L50.2187 57.0703C51.3087 56.8595 52.2102 56.0034 52.455 54.879L53.3545 50.7467H60.4708C62.3285 50.7467 63.8397 49.2172 63.8397 47.3373V44.2501C63.8397 43.5714 63.2962 43.0212 62.6254 43.0212C61.9547 43.0212 61.4111 43.5714 61.4111 44.2501V47.3373C61.4111 47.862 60.9894 48.2888 60.4708 48.2888H53.8896L54.8259 43.9879C56.1769 37.7825 56.2884 31.4525 55.253 25.3438L56.1254 26.1419C59.4846 29.2154 61.4111 33.6066 61.4111 38.1897V39.0129C61.4111 39.6916 61.9547 40.2418 62.6254 40.2418C63.2962 40.2418 63.8397 39.6916 63.8397 39.0129V38.1897C63.8397 32.913 61.6216 27.8572 57.7538 24.3187L54.3716 21.2241C52.438 13.7587 48.7549 6.75894 43.4968 0.894987C42.9868 0.326239 42.2591 0 41.5004 0C40.7415 0 40.0138 0.326239 39.5039 0.894823C34.2457 6.75877 30.5628 13.7586 28.6291 21.2239L25.2469 24.3185C21.3791 27.857 19.161 32.9128 19.161 38.1895V39.0127C19.161 39.6914 19.7045 40.2416 20.3753 40.2416C21.0461 40.2416 21.5896 39.6914 21.5896 39.0127V38.1895C21.5896 33.6064 23.5161 29.2152 26.8754 26.1417L27.7477 25.3436C26.7122 31.4524 26.8239 37.7825 28.1748 43.9877L29.1111 48.2887H22.53C22.0115 48.2887 21.5896 47.8618 21.5896 47.3371V44.2499C21.5896 43.5712 21.0461 43.021 20.3753 43.021C19.7045 43.021 19.161 43.5712 19.161 44.2499V47.3371C19.161 49.2171 20.6723 50.7465 22.53 50.7465H29.6462L30.5458 54.879C30.778 55.9446 31.5996 56.7694 32.6129 57.0321L33.3053 60.613C33.6732 62.5159 35.1005 63.9894 36.8911 64.4561V67.0206C36.457 66.9146 36.0108 66.8612 35.5565 66.8612C33.6401 66.8612 31.8564 67.8519 30.8131 69.4421C29.4452 68.5493 27.8301 68.1082 26.1808 68.1917C22.2397 68.3908 19.06 71.5431 18.7846 75.5238C18.6309 77.7452 19.3691 79.8618 20.8631 81.4833C22.3367 83.0826 24.4202 83.9997 26.5799 83.9997C27.6698 83.9997 28.7271 83.775 29.7223 83.3323C30.3361 83.0591 30.6151 82.3339 30.345 81.7126C30.0753 81.0912 29.3593 80.8092 28.7446 81.0822C28.0596 81.3871 27.3313 81.5418 26.5799 81.5418C25.0695 81.5418 23.6701 80.9257 22.6394 79.8072C21.6099 78.6897 21.1011 77.2294 21.2072 75.6956C21.3969 72.9544 23.5871 70.7838 26.3019 70.6466C27.6282 70.5785 28.9217 71.0027 29.9488 71.8375C30.3683 72.1784 30.9081 72.3039 31.4308 72.181C31.9498 72.0591 32.3774 71.7089 32.6038 71.2201C33.1387 70.0653 34.2976 69.3191 35.5563 69.3191C36.0163 69.3191 36.4607 69.4141 36.8768 69.6014C37.4187 69.8455 38.038 69.7967 38.5334 69.4711C39.0256 69.1477 39.3193 68.5994 39.3193 68.0048V64.6124H43.6809V68.0048C43.6809 68.5994 43.9746 69.1477 44.4668 69.4711C44.9626 69.7969 45.5817 69.8454 46.123 69.6017C46.5395 69.4141 46.984 69.3191 47.444 69.3191C48.7025 69.3191 49.8615 70.0653 50.3965 71.2201C50.6228 71.7088 51.0504 72.0589 51.5693 72.1807C52.0916 72.3034 52.6324 72.178 53.0521 71.8371C54.0164 71.0538 55.181 70.6397 56.4205 70.6397C57.9277 70.6397 59.325 71.2536 60.3552 72.3681C61.3843 73.4817 61.8956 74.9379 61.7944 76.4683C61.6208 79.0953 59.5384 81.2654 56.9509 81.5163C56.013 81.607 55.1067 81.4612 54.2558 81.0825C53.6421 80.8097 52.9253 81.0915 52.6556 81.7129C52.3855 82.3342 52.6645 83.0593 53.2784 83.3324C54.268 83.7729 55.3448 83.9992 56.4304 83.9992C56.6809 83.9992 56.9322 83.9872 57.1826 83.9628C60.9411 83.5985 63.9657 80.4471 64.2178 76.6323C64.3641 74.4157 63.6225 72.3049 62.1292 70.6891C60.6566 69.0959 58.576 68.1819 56.421 68.1819V68.1819ZM35.5948 10.4693H47.4059C47.9009 11.3376 48.3665 12.2209 48.8033 13.1171H34.1976C34.6341 12.2208 35.0997 11.3376 35.5948 10.4693V10.4693ZM41.3022 2.54667C41.3679 2.47326 41.4463 2.45786 41.5004 2.45786C41.5545 2.45786 41.6327 2.47326 41.6986 2.54667C43.2449 4.2711 44.6477 6.09909 45.9023 8.01146H37.0986C38.3531 6.09892 39.756 4.2711 41.3022 2.54667V2.54667ZM30.5463 43.4591C28.4909 34.0175 29.457 24.2723 33.0868 15.5749H49.9137C53.5435 24.2723 54.5096 34.0177 52.4542 43.4591L50.0832 54.3501C50.043 54.5346 49.8844 54.6637 49.6977 54.6637H44.9985L45.1912 47.3235C45.2111 46.5705 44.936 45.8585 44.4166 45.3188C43.8974 44.779 43.2014 44.4818 42.4569 44.4818H40.5432C39.7987 44.4818 39.1029 44.779 38.5835 45.3188C38.0641 45.8585 37.789 46.5705 37.8089 47.3235L38.0016 54.6639H33.3024C33.1157 54.6639 32.9571 54.5349 32.9169 54.3504L30.5463 43.4591ZM42.7637 47.2582L42.5351 55.969C42.5307 56.1384 42.396 56.271 42.2285 56.271H40.772C40.6046 56.271 40.4698 56.1382 40.4653 55.9688L40.2367 47.258C40.2338 47.1499 40.2824 47.0761 40.3235 47.0334C40.3648 46.9906 40.4362 46.9395 40.5432 46.9395H42.4569C42.5639 46.9395 42.6355 46.9906 42.6766 47.0334C42.7181 47.0761 42.7666 47.1499 42.7637 47.2582V47.2582ZM35.6884 60.1411L35.1044 57.1215H38.2859C38.7167 58.0758 39.6631 58.7288 40.772 58.7288H42.2285C43.3374 58.7288 44.2837 58.0758 44.7145 57.1215H47.7341L47.1501 60.1411C46.9244 61.3079 45.9081 62.1547 44.7333 62.1547H38.105C36.9304 62.1547 35.9141 61.3079 35.6884 60.1411V60.1411Z" fill="#53E3F2"/>
<path d="M16.5276 70.3872C15.9107 70.1191 15.1974 70.4082 14.9328 71.0318C14.3726 72.3527 14.0384 73.7486 13.9392 75.1808C13.8341 76.7 13.9967 78.2168 14.4226 79.6897C14.5777 80.2259 15.062 80.5739 15.5875 80.5739C15.7004 80.5739 15.8152 80.5578 15.929 80.5241C16.5727 80.3333 16.9417 79.6507 16.7534 78.9994C16.4086 77.807 16.2768 76.5799 16.3616 75.3524C16.4418 74.1957 16.7117 73.0682 17.1642 72.0012C17.4289 71.3775 17.1438 70.6549 16.5276 70.3872V70.3872Z" fill="white"/>
<path d="M68.0583 71.0322C67.7942 70.4084 67.0807 70.1193 66.4637 70.3869C65.8473 70.6543 65.5618 71.3769 65.8261 72.0007C66.4667 73.5131 66.7486 75.1715 66.6413 76.7963C66.5922 77.5376 66.4616 78.2784 66.2527 78.9982C66.0638 79.6496 66.4321 80.3325 67.0757 80.5237C67.1898 80.5578 67.3051 80.5739 67.4183 80.5739C67.9433 80.5739 68.4274 80.2265 68.5829 79.691C68.8416 78.7993 69.0036 77.8807 69.0645 76.9604C69.1973 74.9497 68.8494 72.8998 68.0583 71.0322V71.0322Z" fill="white"/>
<path d="M33.6352 73.8555C32.9644 73.8555 32.4209 74.4057 32.4209 75.0844C32.4209 75.7631 32.9644 76.3133 33.6352 76.3133C35.8462 76.3133 37.645 78.1338 37.645 80.3714C37.645 81.0501 38.1885 81.6003 38.8593 81.6003C39.53 81.6003 40.0736 81.0501 40.0736 80.3714C40.0734 76.7785 37.1851 73.8555 33.6352 73.8555Z" fill="white"/>
<path d="M49.3656 73.8555C45.8155 73.8555 42.9272 76.7785 42.9272 80.3714C42.9272 81.0501 43.4708 81.6003 44.1415 81.6003C44.8123 81.6003 45.3558 81.0501 45.3558 80.3714C45.3558 78.1338 47.1545 76.3133 49.3656 76.3133C50.0364 76.3133 50.5799 75.7631 50.5799 75.0844C50.5799 74.4057 50.0363 73.8555 49.3656 73.8555Z" fill="white"/>
</svg>
