<svg width="837" height="454" viewBox="0 0 837 454" fill="none" xmlns="http://www.w3.org/2000/svg">
<path style="mix-blend-mode:screen" d="M383.345 227.662C391.189 225.987 396.047 218.875 394.195 211.777C392.344 204.68 384.485 200.284 376.641 201.959C368.797 203.634 363.939 210.746 365.791 217.844C367.642 224.941 375.501 229.337 383.345 227.662Z" fill="url(#paint0_radial_189_1131)"/>
<path style="mix-blend-mode:screen" d="M67.9375 307.173C67.9345 309.785 68.7878 312.34 70.3895 314.513C71.9911 316.686 74.2691 318.381 76.9353 319.382C79.6015 320.384 82.536 320.647 85.3677 320.139C88.1994 319.631 90.8009 318.375 92.8433 316.529C94.8856 314.683 96.2769 312.33 96.8412 309.768C97.4055 307.206 97.1174 304.551 96.0133 302.137C94.9093 299.723 93.0389 297.66 90.6389 296.209C88.2388 294.757 85.4169 293.982 82.5301 293.982C78.6625 293.982 74.9531 295.372 72.2169 297.845C69.4807 300.318 67.9415 303.674 67.9375 307.173Z" fill="url(#paint1_radial_189_1131)"/>
<path style="mix-blend-mode:screen" d="M351.126 383.953C351.123 386.565 351.977 389.119 353.578 391.292C355.18 393.466 357.458 395.16 360.124 396.162C362.79 397.163 365.725 397.427 368.557 396.919C371.388 396.411 373.99 395.154 376.032 393.308C378.075 391.462 379.466 389.109 380.03 386.547C380.594 383.986 380.306 381.33 379.202 378.916C378.098 376.503 376.228 374.44 373.828 372.988C371.428 371.537 368.606 370.762 365.719 370.762C361.851 370.762 358.142 372.151 355.406 374.624C352.67 377.098 351.13 380.453 351.126 383.953Z" fill="url(#paint2_radial_189_1131)"/>
<path style="mix-blend-mode:screen" d="M67.9375 17.6831C67.9375 20.2947 68.7933 22.8477 70.3968 25.0192C72.0002 27.1907 74.2793 28.8831 76.9457 29.8826C79.6122 30.882 82.5463 31.1435 85.377 30.634C88.2076 30.1245 90.8078 28.8669 92.8486 27.0202C94.8894 25.1735 96.2792 22.8206 96.8423 20.2592C97.4053 17.6977 97.1164 15.0428 96.0119 12.6299C94.9074 10.2171 93.037 8.15482 90.6373 6.70388C88.2376 5.25295 85.4162 4.47852 82.5301 4.47852C78.6599 4.47852 74.9482 5.86971 72.2116 8.34605C69.4749 10.8224 67.9375 14.181 67.9375 17.6831Z" fill="url(#paint3_radial_189_1131)"/>
<path style="mix-blend-mode:screen" d="M428.914 450.312C436.758 448.637 441.615 441.525 439.764 434.428C437.913 427.33 430.053 422.934 422.21 424.609C414.366 426.285 409.508 433.396 411.359 440.494C413.211 447.592 421.07 451.987 428.914 450.312Z" fill="url(#paint4_radial_189_1131)"/>
<path style="mix-blend-mode:screen" d="M365.198 437.103C373.041 435.428 377.899 428.316 376.048 421.219C374.197 414.121 366.337 409.725 358.493 411.4C350.65 413.076 345.792 420.187 347.643 427.285C349.494 434.383 357.354 438.778 365.198 437.103Z" fill="url(#paint5_radial_189_1131)"/>
<path style="mix-blend-mode:screen" d="M565.549 370.478C565.02 373.244 565.478 376.09 566.856 378.605C568.234 381.119 570.461 383.171 573.214 384.464C575.967 385.757 579.104 386.223 582.17 385.795C585.235 385.368 588.071 384.068 590.265 382.084C592.46 380.101 593.9 377.537 594.377 374.763C594.854 371.99 594.342 369.151 592.917 366.658C591.492 364.165 589.227 362.148 586.449 360.897C583.672 359.647 580.528 359.229 577.47 359.704C574.497 360.166 571.755 361.45 569.62 363.379C567.485 365.308 566.063 367.788 565.549 370.478Z" fill="url(#paint6_radial_189_1131)"/>
<path style="mix-blend-mode:screen" d="M278.23 309.881C286.073 308.206 290.931 301.094 289.08 293.996C287.229 286.898 279.369 282.502 271.526 284.178C263.682 285.853 258.824 292.965 260.675 300.062C262.527 307.16 270.386 311.556 278.23 309.881Z" fill="url(#paint7_radial_189_1131)"/>
<path d="M1.53955 156.024C1.53957 156.206 1.59927 156.383 1.71105 156.534C1.82283 156.685 1.98165 156.802 2.16728 156.871C2.35291 156.94 2.55696 156.957 2.75349 156.92C2.95002 156.884 3.13014 156.796 3.27092 156.666C3.4117 156.537 3.50679 156.373 3.54408 156.194C3.58137 156.016 3.55919 155.832 3.48034 155.665C3.4015 155.498 3.26955 155.356 3.1013 155.257C2.93306 155.158 2.73613 155.107 2.53554 155.109C2.27001 155.113 2.01669 155.211 1.83033 155.382C1.64397 155.553 1.53952 155.784 1.53955 156.024Z" fill="#07EAD3"/>
<path d="M43.793 201.578C43.7901 201.885 43.8879 202.185 44.0741 202.441C44.2603 202.697 44.5265 202.896 44.8387 203.015C45.1509 203.133 45.495 203.165 45.8271 203.106C46.1593 203.047 46.4645 202.9 46.7039 202.683C46.9433 202.466 47.106 202.19 47.1713 201.89C47.2366 201.589 47.2016 201.278 47.0707 200.995C46.9398 200.713 46.7189 200.472 46.4361 200.303C46.1534 200.135 45.8217 200.046 45.4831 200.049C45.0349 200.049 44.605 200.21 44.288 200.497C43.9711 200.784 43.793 201.173 43.793 201.578Z" fill="#07EAD3"/>
<path d="M555.861 184.276C555.861 184.457 555.92 184.634 556.031 184.785C556.142 184.935 556.3 185.052 556.485 185.121C556.67 185.191 556.873 185.209 557.069 185.174C557.265 185.138 557.445 185.051 557.587 184.923C557.728 184.795 557.824 184.632 557.863 184.455C557.903 184.277 557.883 184.093 557.806 183.926C557.729 183.759 557.6 183.616 557.434 183.516C557.267 183.415 557.072 183.361 556.872 183.361C556.604 183.361 556.347 183.458 556.157 183.629C555.967 183.801 555.861 184.034 555.861 184.276Z" fill="#07EAD3"/>
<path d="M111.941 347.224C111.941 347.344 111.968 347.463 112.018 347.574C112.069 347.685 112.144 347.786 112.238 347.871C112.331 347.956 112.443 348.023 112.566 348.069C112.688 348.115 112.82 348.139 112.952 348.139C113.085 348.139 113.217 348.115 113.339 348.069C113.462 348.023 113.574 347.956 113.667 347.871C113.761 347.786 113.836 347.685 113.887 347.574C113.937 347.463 113.964 347.344 113.964 347.224C113.964 346.981 113.857 346.748 113.667 346.577C113.478 346.405 113.221 346.309 112.952 346.309C112.684 346.309 112.427 346.405 112.238 346.577C112.048 346.748 111.941 346.981 111.941 347.224Z" fill="#07EAD3"/>
<path d="M395.131 424.003C395.131 424.123 395.157 424.242 395.208 424.353C395.259 424.464 395.333 424.565 395.427 424.65C395.521 424.735 395.632 424.802 395.755 424.848C395.878 424.894 396.009 424.918 396.142 424.918C396.275 424.918 396.406 424.894 396.529 424.848C396.651 424.802 396.763 424.735 396.857 424.65C396.951 424.565 397.025 424.464 397.076 424.353C397.127 424.242 397.153 424.123 397.153 424.003C397.153 423.76 397.046 423.527 396.857 423.356C396.667 423.184 396.41 423.088 396.142 423.088C395.874 423.088 395.617 423.184 395.427 423.356C395.237 423.527 395.131 423.76 395.131 424.003Z" fill="#07EAD3"/>
<path d="M483.774 52.108C483.774 52.3483 483.852 52.5833 484 52.7831C484.147 52.983 484.357 53.1388 484.603 53.2307C484.848 53.3227 485.118 53.3468 485.379 53.2999C485.639 53.253 485.879 53.1372 486.066 52.9673C486.254 52.7973 486.382 52.5808 486.434 52.345C486.486 52.1093 486.459 51.8649 486.358 51.6429C486.256 51.4208 486.084 51.231 485.863 51.0975C485.642 50.9639 485.382 50.8927 485.117 50.8927C484.94 50.8908 484.764 50.921 484.6 50.9814C484.436 51.0418 484.288 51.1313 484.162 51.2445C484.037 51.3577 483.938 51.4924 483.872 51.6407C483.805 51.789 483.772 51.9478 483.774 52.108Z" fill="#07EAD3"/>
<path d="M556.872 157.854C556.872 157.974 556.898 158.092 556.949 158.202C557 158.313 557.075 158.413 557.169 158.497C557.263 158.58 557.374 158.647 557.497 158.691C557.619 158.735 557.751 158.757 557.883 158.756C558.014 158.757 558.144 158.735 558.266 158.691C558.388 158.646 558.499 158.58 558.591 158.496C558.684 158.412 558.758 158.312 558.807 158.201C558.856 158.091 558.881 157.973 558.879 157.854C558.881 157.735 558.856 157.616 558.807 157.505C558.758 157.394 558.685 157.293 558.592 157.208C558.5 157.123 558.389 157.055 558.267 157.009C558.146 156.963 558.015 156.939 557.883 156.939C557.614 156.939 557.357 157.036 557.168 157.207C556.978 157.379 556.872 157.612 556.872 157.854Z" fill="#07EAD3"/>
<path d="M677.717 300.005C677.717 300.186 677.776 300.363 677.887 300.513C677.998 300.664 678.156 300.781 678.341 300.85C678.526 300.919 678.729 300.937 678.925 300.902C679.121 300.867 679.301 300.78 679.443 300.652C679.584 300.524 679.68 300.361 679.719 300.183C679.758 300.006 679.738 299.822 679.662 299.655C679.585 299.487 679.456 299.345 679.29 299.244C679.123 299.144 678.928 299.09 678.728 299.09C678.46 299.09 678.203 299.186 678.013 299.358C677.823 299.529 677.717 299.762 677.717 300.005Z" fill="#07EAD3"/>
<path d="M585.031 371.804C585.031 371.985 585.09 372.161 585.201 372.312C585.312 372.462 585.47 372.58 585.655 372.649C585.84 372.718 586.043 372.736 586.239 372.701C586.435 372.666 586.615 372.579 586.757 372.451C586.898 372.323 586.994 372.16 587.033 371.982C587.072 371.805 587.052 371.621 586.976 371.453C586.899 371.286 586.77 371.143 586.604 371.043C586.437 370.942 586.242 370.889 586.042 370.889C585.774 370.889 585.517 370.985 585.327 371.157C585.137 371.328 585.031 371.561 585.031 371.804Z" fill="#07EAD3"/>
<path d="M577.999 154.235C577.999 154.416 578.058 154.593 578.169 154.743C578.28 154.894 578.438 155.011 578.623 155.08C578.807 155.15 579.011 155.168 579.207 155.132C579.403 155.097 579.583 155.01 579.725 154.882C579.866 154.754 579.962 154.591 580.001 154.414C580.04 154.236 580.02 154.052 579.944 153.885C579.867 153.718 579.738 153.575 579.571 153.474C579.405 153.374 579.21 153.32 579.01 153.32C578.741 153.32 578.484 153.417 578.295 153.588C578.105 153.76 577.999 153.993 577.999 154.235Z" fill="#07EAD3"/>
<path d="M271.585 297C271.582 297.596 271.775 298.178 272.138 298.674C272.502 299.171 273.02 299.558 273.627 299.787C274.235 300.016 274.903 300.076 275.549 299.961C276.194 299.846 276.787 299.559 277.252 299.138C277.718 298.717 278.034 298.181 278.162 297.597C278.289 297.013 278.222 296.407 277.969 295.858C277.716 295.309 277.288 294.839 276.74 294.51C276.192 294.181 275.548 294.007 274.89 294.01C274.015 294.013 273.176 294.33 272.557 294.89C271.938 295.45 271.589 296.208 271.585 297Z" fill="#07EAD3"/>
<path d="M265.76 408.222C265.76 408.403 265.819 408.579 265.93 408.73C266.041 408.88 266.199 408.998 266.384 409.067C266.569 409.136 266.772 409.154 266.968 409.119C267.164 409.084 267.344 408.996 267.486 408.868C267.627 408.741 267.723 408.578 267.762 408.4C267.801 408.223 267.781 408.039 267.705 407.871C267.628 407.704 267.499 407.561 267.333 407.461C267.166 407.36 266.971 407.307 266.771 407.307C266.503 407.307 266.245 407.403 266.056 407.575C265.866 407.746 265.76 407.979 265.76 408.222Z" fill="#07EAD3"/>
<path d="M545.795 441.909C545.795 442.152 545.902 442.384 546.091 442.556C546.281 442.728 546.538 442.824 546.806 442.824C547.074 442.824 547.331 442.728 547.521 442.556C547.711 442.384 547.817 442.152 547.817 441.909C547.817 441.666 547.711 441.434 547.521 441.262C547.331 441.091 547.074 440.994 546.806 440.994C546.538 440.994 546.281 441.091 546.091 441.262C545.902 441.434 545.795 441.666 545.795 441.909Z" fill="#07EAD3"/>
<path d="M64.0591 42.7401C64.0592 43.089 64.1737 43.4301 64.3883 43.7201C64.6029 44.01 64.9078 44.2358 65.2644 44.3687C65.621 44.5016 66.0132 44.5357 66.3912 44.4666C66.7692 44.3975 67.1161 44.2284 67.3877 43.9807C67.6593 43.733 67.8435 43.4178 67.9169 43.0752C67.9903 42.7327 67.9496 42.3781 67.8 42.0564C67.6503 41.7348 67.3984 41.4607 67.0763 41.2688C66.7542 41.0769 66.3764 40.9759 65.9908 40.9786C65.7358 40.9786 65.4834 41.0242 65.2481 41.1129C65.0127 41.2016 64.7991 41.3316 64.6195 41.4953C64.44 41.6591 64.298 41.8533 64.2018 42.067C64.1057 42.2806 64.0571 42.5094 64.0591 42.7401Z" fill="#07EAD3"/>
<path d="M576.112 55.072C576.112 55.4203 576.226 55.7609 576.44 56.0505C576.654 56.3402 576.958 56.566 577.314 56.6993C577.67 56.8326 578.061 56.8675 578.439 56.7995C578.816 56.7316 579.163 56.5638 579.436 56.3175C579.708 56.0711 579.893 55.7573 579.968 55.4156C580.043 55.0739 580.005 54.7198 579.858 54.3979C579.71 54.076 579.461 53.8009 579.141 53.6074C578.82 53.4139 578.444 53.3105 578.059 53.3105C577.543 53.3105 577.048 53.4961 576.682 53.8265C576.317 54.1568 576.112 54.6048 576.112 55.072Z" fill="#07EAD3"/>
<path d="M437.279 8.00167C437.276 8.6666 437.492 9.31738 437.898 9.87157C438.304 10.4258 438.882 10.8584 439.561 11.1148C440.239 11.3711 440.985 11.4396 441.707 11.3115C442.428 11.1834 443.091 10.8646 443.611 10.3954C444.132 9.92615 444.487 9.32764 444.631 8.67568C444.776 8.02371 444.703 7.34762 444.423 6.73303C444.142 6.11845 443.666 5.59302 443.056 5.22331C442.445 4.8536 441.726 4.65626 440.992 4.65625C440.01 4.65624 439.068 5.00825 438.372 5.63525C437.676 6.26225 437.283 7.11315 437.279 8.00167Z" fill="white"/>
<path d="M255.679 44.2968C255.679 44.6457 255.793 44.9868 256.008 45.2768C256.222 45.5668 256.527 45.7925 256.884 45.9255C257.241 46.0584 257.633 46.0925 258.011 46.0234C258.389 45.9543 258.736 45.7852 259.007 45.5374C259.279 45.2897 259.463 44.9746 259.537 44.632C259.61 44.2894 259.569 43.9347 259.42 43.6131C259.27 43.2915 259.018 43.0173 258.696 42.8254C258.374 42.6335 257.996 42.5325 257.61 42.5352C257.355 42.5352 257.103 42.5809 256.868 42.6696C256.632 42.7583 256.419 42.8882 256.239 43.052C256.06 43.2157 255.918 43.41 255.821 43.6237C255.725 43.8373 255.677 44.0661 255.679 44.2968Z" fill="#07EAD3"/>
<path d="M57.1934 175.988C57.1934 176.337 57.3075 176.677 57.5214 176.967C57.7353 177.257 58.0394 177.482 58.3951 177.616C58.7508 177.749 59.1422 177.784 59.5198 177.716C59.8974 177.648 60.2443 177.48 60.5165 177.234C60.7888 176.987 60.9742 176.674 61.0493 176.332C61.1244 175.99 61.0858 175.636 60.9385 175.314C60.7911 174.992 60.5416 174.717 60.2215 174.523C59.9014 174.33 59.525 174.227 59.14 174.227C58.6237 174.227 58.1286 174.412 57.7635 174.743C57.3984 175.073 57.1934 175.521 57.1934 175.988Z" fill="#07EAD3"/>
<path d="M119.502 288.603C119.499 289.041 119.64 289.471 119.908 289.837C120.175 290.203 120.557 290.488 121.004 290.658C121.451 290.827 121.944 290.872 122.42 290.787C122.895 290.702 123.332 290.491 123.675 290.181C124.018 289.87 124.251 289.475 124.345 289.045C124.439 288.614 124.389 288.168 124.202 287.764C124.015 287.359 123.7 287.013 123.295 286.771C122.891 286.529 122.416 286.402 121.932 286.404C121.288 286.408 120.673 286.641 120.218 287.052C119.763 287.464 119.506 288.021 119.502 288.603Z" fill="white"/>
<path d="M402.69 365.382C402.687 365.821 402.829 366.251 403.096 366.616C403.364 366.982 403.745 367.268 404.193 367.437C404.64 367.606 405.133 367.651 405.608 367.566C406.084 367.481 406.521 367.27 406.864 366.96C407.207 366.65 407.44 366.255 407.534 365.824C407.627 365.394 407.578 364.948 407.391 364.543C407.204 364.138 406.888 363.793 406.484 363.551C406.08 363.309 405.605 363.181 405.12 363.184C404.477 363.187 403.861 363.42 403.406 363.832C402.952 364.243 402.694 364.8 402.69 365.382Z" fill="white"/>
<path d="M168.471 347.702C168.447 347.946 168.48 348.191 168.566 348.422C168.653 348.654 168.792 348.866 168.974 349.047C169.157 349.227 169.379 349.371 169.626 349.469C169.873 349.568 170.14 349.619 170.41 349.619C170.68 349.619 170.947 349.568 171.194 349.469C171.442 349.371 171.663 349.227 171.846 349.047C172.028 348.866 172.167 348.654 172.254 348.422C172.34 348.191 172.373 347.946 172.349 347.702C172.306 347.264 172.084 346.855 171.725 346.558C171.366 346.261 170.897 346.096 170.41 346.096C169.923 346.096 169.454 346.261 169.095 346.558C168.737 346.855 168.514 347.264 168.471 347.702Z" fill="#07EAD3"/>
<path d="M261.05 383.741C261.026 383.985 261.059 384.23 261.145 384.462C261.232 384.693 261.371 384.906 261.553 385.086C261.736 385.266 261.958 385.41 262.205 385.509C262.452 385.607 262.719 385.658 262.989 385.658C263.259 385.658 263.526 385.607 263.773 385.509C264.021 385.41 264.243 385.266 264.425 385.086C264.607 384.906 264.746 384.693 264.833 384.462C264.92 384.23 264.952 383.985 264.928 383.741C264.885 383.303 264.663 382.894 264.304 382.597C263.945 382.3 263.476 382.135 262.989 382.135C262.502 382.135 262.034 382.3 261.675 382.597C261.316 382.894 261.093 383.303 261.05 383.741Z" fill="#07EAD3"/>
<path d="M555.861 366.287C556.936 366.287 557.807 365.498 557.807 364.525C557.807 363.552 556.936 362.764 555.861 362.764C554.786 362.764 553.914 363.552 553.914 364.525C553.914 365.498 554.786 366.287 555.861 366.287Z" fill="#07EAD3"/>
<path d="M677.43 4.3279C677.427 4.67686 677.538 5.01875 677.75 5.31022C677.963 5.60168 678.265 5.82958 678.621 5.965C678.976 6.10042 679.368 6.13724 679.747 6.07083C680.125 6.00441 680.474 5.83773 680.747 5.59194C681.021 5.34614 681.208 5.03231 681.284 4.69025C681.361 4.34819 681.323 3.99332 681.176 3.67066C681.029 3.34799 680.78 3.07207 680.459 2.8779C680.139 2.68374 679.762 2.58009 679.376 2.58008C678.863 2.58006 678.37 2.76376 678.005 3.09116C677.641 3.41855 677.434 3.8631 677.43 4.3279Z" fill="#07EAD3"/>
<path d="M532.697 332.449C533.772 332.449 534.643 331.66 534.643 330.687C534.643 329.714 533.772 328.926 532.697 328.926C531.622 328.926 530.75 329.714 530.75 330.687C530.75 331.66 531.622 332.449 532.697 332.449Z" fill="#07EAD3"/>
<path d="M539.019 406.57C540.094 406.57 540.966 405.781 540.966 404.808C540.966 403.836 540.094 403.047 539.019 403.047C537.944 403.047 537.072 403.836 537.072 404.808C537.072 405.781 537.944 406.57 539.019 406.57Z" fill="#07EAD3"/>
<path d="M677.626 322.385C677.626 323.047 677.843 323.694 678.25 324.245C678.657 324.795 679.235 325.224 679.912 325.477C680.588 325.729 681.332 325.795 682.05 325.665C682.768 325.534 683.426 325.214 683.943 324.745C684.459 324.276 684.81 323.679 684.951 323.029C685.092 322.379 685.017 321.706 684.735 321.095C684.452 320.484 683.976 319.962 683.366 319.596C682.756 319.23 682.04 319.036 681.308 319.039C680.823 319.039 680.343 319.126 679.895 319.294C679.448 319.462 679.041 319.709 678.699 320.02C678.357 320.331 678.086 320.7 677.902 321.105C677.718 321.511 677.624 321.946 677.626 322.385Z" fill="#1CB0EA"/>
<path d="M798.245 201.291C798.245 201.953 798.462 202.601 798.869 203.151C799.276 203.702 799.854 204.13 800.531 204.383C801.207 204.636 801.952 204.701 802.669 204.571C803.387 204.441 804.045 204.121 804.562 203.652C805.078 203.182 805.429 202.585 805.57 201.935C805.711 201.285 805.636 200.612 805.354 200.001C805.072 199.39 804.595 198.868 803.985 198.503C803.375 198.137 802.659 197.943 801.927 197.945C801.442 197.945 800.962 198.032 800.515 198.2C800.067 198.369 799.66 198.615 799.318 198.926C798.976 199.237 798.705 199.606 798.521 200.012C798.337 200.417 798.243 200.852 798.245 201.291Z" fill="#33599E"/>
<path d="M729.84 356.66C731.873 356.66 733.522 355.168 733.522 353.328C733.522 351.488 731.873 349.996 729.84 349.996C727.806 349.996 726.158 351.488 726.158 353.328C726.158 355.168 727.806 356.66 729.84 356.66Z" fill="#16316D"/>
<path d="M719.85 80.5926C719.495 80.9136 719.214 81.2946 719.022 81.714C718.83 82.1334 718.731 82.5829 718.731 83.0369C718.731 83.4908 718.83 83.9403 719.022 84.3597C719.214 84.7791 719.495 85.1602 719.85 85.4812C720.205 85.8022 720.626 86.0568 721.089 86.2305C721.553 86.4042 722.049 86.4937 722.551 86.4937C723.053 86.4937 723.549 86.4042 724.013 86.2305C724.476 86.0568 724.898 85.8022 725.252 85.4812C725.969 84.8329 726.371 83.9537 726.371 83.0369C726.371 82.1201 725.969 81.2408 725.252 80.5926C724.536 79.9443 723.564 79.5801 722.551 79.5801C721.538 79.5801 720.566 79.9443 719.85 80.5926Z" fill="#20417A"/>
<path d="M527.506 276.763C529.539 276.763 531.188 275.271 531.188 273.431C531.188 271.591 529.539 270.1 527.506 270.1C525.472 270.1 523.824 271.591 523.824 273.431C523.824 275.271 525.472 276.763 527.506 276.763Z" fill="#0D225B"/>
<path d="M540.725 251.023C540.725 251.447 540.864 251.861 541.124 252.214C541.384 252.567 541.754 252.841 542.187 253.004C542.62 253.166 543.096 253.208 543.556 253.126C544.016 253.043 544.438 252.839 544.769 252.539C545.101 252.239 545.326 251.857 545.418 251.441C545.509 251.025 545.462 250.594 545.283 250.202C545.103 249.811 544.8 249.476 544.41 249.24C544.021 249.005 543.562 248.879 543.094 248.879C542.466 248.879 541.863 249.105 541.419 249.507C540.974 249.909 540.725 250.454 540.725 251.023Z" fill="#0D225B"/>
<path d="M54.8086 69.9288C54.8056 70.7045 55.0571 71.4635 55.5312 72.1098C56.0052 72.7561 56.6806 73.2605 57.4717 73.5592C58.2629 73.8579 59.1341 73.9375 59.9753 73.7878C60.8164 73.6381 61.5895 73.266 62.1967 72.7184C62.8039 72.1709 63.2179 71.4726 63.3862 70.712C63.5546 69.9515 63.4697 69.1628 63.1424 68.4459C62.815 67.729 62.2599 67.1161 61.5473 66.6849C60.8348 66.2536 59.9968 66.0234 59.1396 66.0234C57.9936 66.0234 56.8942 66.4345 56.0825 67.1665C55.2707 67.8985 54.8126 68.8918 54.8086 69.9288Z" fill="#53E3F2"/>
<path d="M206.303 215.396C207.378 215.396 208.25 214.607 208.25 213.635C208.25 212.662 207.378 211.873 206.303 211.873C205.228 211.873 204.356 212.662 204.356 213.635C204.356 214.607 205.228 215.396 206.303 215.396Z" fill="#8CEFF4"/>
<path d="M199.346 151.068C199.346 151.417 199.461 151.758 199.675 152.048C199.89 152.338 200.195 152.564 200.551 152.697C200.908 152.83 201.3 152.864 201.678 152.795C202.056 152.726 202.403 152.556 202.675 152.309C202.946 152.061 203.131 151.746 203.204 151.403C203.277 151.061 203.237 150.706 203.087 150.385C202.937 150.063 202.686 149.789 202.363 149.597C202.041 149.405 201.663 149.304 201.278 149.307C201.023 149.307 200.771 149.352 200.535 149.441C200.3 149.53 200.086 149.66 199.907 149.823C199.727 149.987 199.585 150.181 199.489 150.395C199.393 150.609 199.344 150.837 199.346 151.068Z" fill="#07EAD3"/>
<path d="M136.871 240.591C137.256 240.583 137.63 240.471 137.945 240.271C138.26 240.071 138.502 239.791 138.641 239.466C138.78 239.141 138.809 238.786 138.726 238.446C138.642 238.106 138.448 237.796 138.17 237.556C137.891 237.315 137.54 237.155 137.161 237.095C136.782 237.035 136.391 237.078 136.039 237.218C135.687 237.359 135.389 237.591 135.182 237.885C134.976 238.179 134.871 238.522 134.879 238.87C134.895 239.336 135.113 239.778 135.486 240.1C135.858 240.422 136.356 240.598 136.871 240.591Z" fill="#07EAD3"/>
<path d="M758.784 261.989C758.784 262.154 758.838 262.315 758.939 262.452C759.04 262.589 759.184 262.696 759.352 262.759C759.52 262.822 759.705 262.838 759.884 262.806C760.062 262.774 760.226 262.695 760.355 262.578C760.484 262.462 760.572 262.313 760.607 262.152C760.643 261.99 760.624 261.823 760.555 261.671C760.485 261.518 760.367 261.388 760.216 261.297C760.064 261.205 759.886 261.156 759.704 261.156C759.46 261.156 759.226 261.244 759.053 261.4C758.881 261.556 758.784 261.768 758.784 261.989Z" fill="#07EAD3"/>
<path d="M287.596 0.9012C287.593 1.0827 287.65 1.2609 287.759 1.41313C287.868 1.56537 288.025 1.68475 288.209 1.75609C288.394 1.82743 288.598 1.84751 288.795 1.81376C288.992 1.78002 289.173 1.69399 289.316 1.56661C289.459 1.43922 289.557 1.27624 289.597 1.09842C289.637 0.920588 289.618 0.735946 289.542 0.567981C289.466 0.400015 289.337 0.256324 289.17 0.155181C289.004 0.0540385 288.807 2.0225e-05 288.607 5.68368e-09C288.341 -2.67599e-05 288.086 0.0944808 287.897 0.263108C287.708 0.431735 287.6 0.660938 287.596 0.9012Z" fill="#07EAD3"/>
<path d="M260.885 293.587C260.885 293.768 260.945 293.945 261.056 294.095C261.167 294.246 261.325 294.363 261.509 294.432C261.694 294.501 261.897 294.519 262.094 294.484C262.29 294.449 262.47 294.362 262.611 294.234C262.753 294.106 262.849 293.943 262.888 293.765C262.927 293.588 262.907 293.404 262.83 293.237C262.754 293.069 262.624 292.927 262.458 292.826C262.292 292.726 262.096 292.672 261.896 292.672C261.628 292.672 261.371 292.768 261.181 292.94C260.992 293.111 260.885 293.344 260.885 293.587Z" fill="#07EAD3"/>
<path d="M262.893 206.726C263.451 206.726 263.904 206.316 263.904 205.811C263.904 205.306 263.451 204.896 262.893 204.896C262.335 204.896 261.882 205.306 261.882 205.811C261.882 206.316 262.335 206.726 262.893 206.726Z" fill="#07EAD3"/>
<path d="M39.7783 288.424C39.7633 288.967 39.9275 289.502 40.2498 289.96C40.5722 290.418 41.0382 290.779 41.5882 290.996C42.1381 291.213 42.7472 291.277 43.3375 291.179C43.9279 291.082 44.4727 290.827 44.9023 290.448C45.332 290.069 45.627 289.583 45.7497 289.051C45.8724 288.52 45.8172 287.967 45.5912 287.464C45.3651 286.961 44.9785 286.53 44.4807 286.227C43.9829 285.924 43.3964 285.762 42.7964 285.762C42.0088 285.761 41.2524 286.04 40.6885 286.537C40.1246 287.035 39.798 287.712 39.7783 288.424Z" fill="#07EAD3"/>
<path d="M322.968 365.204C322.953 365.747 323.117 366.281 323.439 366.739C323.762 367.197 324.228 367.558 324.778 367.775C325.328 367.992 325.937 368.056 326.527 367.959C327.117 367.861 327.662 367.606 328.092 367.227C328.522 366.848 328.817 366.362 328.939 365.83C329.062 365.299 329.007 364.746 328.781 364.243C328.555 363.74 328.168 363.31 327.67 363.006C327.172 362.703 326.586 362.541 325.986 362.541C325.198 362.541 324.442 362.819 323.878 363.317C323.314 363.814 322.987 364.491 322.968 365.204Z" fill="#07EAD3"/>
<path d="M729.644 66.2011C729.641 66.5419 729.75 66.8759 729.957 67.1607C730.164 67.4454 730.46 67.6681 730.807 67.8004C731.154 67.9327 731.537 67.9687 731.907 67.9039C732.276 67.8391 732.617 67.6763 732.884 67.4362C733.151 67.1961 733.334 66.8896 733.409 66.5555C733.483 66.2213 733.447 65.8747 733.303 65.5595C733.16 65.2443 732.916 64.9748 732.603 64.7851C732.29 64.5954 731.922 64.4942 731.545 64.4941C731.043 64.4941 730.562 64.6735 730.206 64.9933C729.85 65.313 729.648 65.7471 729.644 66.2011Z" fill="#07EAD3"/>
<path d="M46.6902 324.133C47.2486 324.133 47.7013 323.723 47.7013 323.218C47.7013 322.712 47.2486 322.303 46.6902 322.303C46.1319 322.303 45.6792 322.712 45.6792 323.218C45.6792 323.723 46.1319 324.133 46.6902 324.133Z" fill="#07EAD3"/>
<path d="M329.879 400.912C330.438 400.912 330.89 400.502 330.89 399.997C330.89 399.492 330.438 399.082 329.879 399.082C329.321 399.082 328.868 399.492 328.868 399.997C328.868 400.502 329.321 400.912 329.879 400.912Z" fill="#07EAD3"/>
<path d="M224.638 5.24377C225.196 5.24377 225.649 4.83418 225.649 4.32892C225.649 3.82366 225.196 3.41406 224.638 3.41406C224.079 3.41406 223.626 3.82366 223.626 4.32892C223.626 4.83418 224.079 5.24377 224.638 5.24377Z" fill="#07EAD3"/>
<path d="M27.1631 146.042C27.167 146.282 27.2753 146.511 27.4645 146.68C27.6537 146.849 27.9086 146.943 28.1742 146.943C28.4191 146.916 28.6446 146.809 28.8082 146.641C28.9717 146.474 29.062 146.258 29.062 146.035C29.062 145.812 28.9717 145.596 28.8082 145.429C28.6446 145.262 28.4191 145.154 28.1742 145.127C28.0414 145.127 27.9099 145.151 27.7872 145.197C27.6646 145.243 27.5531 145.31 27.4592 145.395C27.3653 145.48 27.2909 145.581 27.2401 145.692C27.1893 145.803 27.1631 145.922 27.1631 146.042Z" fill="#07EAD3"/>
<path d="M286.373 346.772C286.37 346.954 286.427 347.132 286.536 347.284C286.645 347.437 286.802 347.556 286.987 347.627C287.171 347.699 287.375 347.719 287.572 347.685C287.769 347.651 287.951 347.565 288.094 347.438C288.237 347.31 288.334 347.147 288.375 346.97C288.415 346.792 288.396 346.607 288.32 346.439C288.244 346.271 288.114 346.127 287.948 346.026C287.781 345.925 287.585 345.871 287.384 345.871C287.119 345.871 286.864 345.966 286.675 346.134C286.485 346.303 286.377 346.532 286.373 346.772Z" fill="#07EAD3"/>
<path d="M20.1157 188.442C20.1157 188.623 20.175 188.8 20.2861 188.95C20.3972 189.101 20.5551 189.218 20.7399 189.287C20.9246 189.357 21.1279 189.375 21.3241 189.339C21.5202 189.304 21.7003 189.217 21.8417 189.089C21.9831 188.961 22.0794 188.798 22.1185 188.621C22.1575 188.443 22.1374 188.259 22.0609 188.092C21.9844 187.925 21.8548 187.782 21.6885 187.682C21.5223 187.581 21.3268 187.527 21.1268 187.527C20.8586 187.527 20.6015 187.624 20.4119 187.795C20.2223 187.967 20.1157 188.199 20.1157 188.442Z" fill="#07EAD3"/>
<path d="M375.408 132.647C375.408 132.89 375.515 133.123 375.704 133.294C375.894 133.466 376.151 133.562 376.419 133.562C376.687 133.562 376.945 133.466 377.134 133.294C377.324 133.123 377.43 132.89 377.43 132.647C377.43 132.405 377.324 132.172 377.134 132C376.945 131.829 376.687 131.732 376.419 131.732C376.151 131.732 375.894 131.829 375.704 132C375.515 132.172 375.408 132.405 375.408 132.647Z" fill="#07EAD3"/>
<path d="M734.563 219.917C734.563 220.098 734.623 220.275 734.734 220.425C734.845 220.575 735.003 220.693 735.188 220.762C735.372 220.831 735.576 220.849 735.772 220.814C735.968 220.779 736.148 220.692 736.289 220.564C736.431 220.436 736.527 220.273 736.566 220.095C736.605 219.918 736.585 219.734 736.509 219.567C736.432 219.4 736.303 219.257 736.136 219.156C735.97 219.056 735.775 219.002 735.575 219.002C735.442 219.002 735.31 219.026 735.188 219.072C735.065 219.118 734.953 219.185 734.86 219.27C734.766 219.355 734.691 219.456 734.64 219.567C734.59 219.678 734.563 219.797 734.563 219.917Z" fill="#07EAD3"/>
<path d="M454.573 45.8679C454.573 46.0489 454.632 46.2257 454.743 46.3762C454.854 46.5266 455.012 46.6439 455.197 46.7131C455.382 46.7823 455.585 46.8004 455.781 46.7651C455.977 46.7298 456.157 46.6427 456.299 46.5148C456.44 46.3868 456.537 46.2238 456.576 46.0464C456.615 45.8689 456.595 45.685 456.518 45.5178C456.441 45.3507 456.312 45.2078 456.146 45.1073C455.979 45.0068 455.784 44.9531 455.584 44.9531C455.316 44.9531 455.059 45.0495 454.869 45.2211C454.679 45.3926 454.573 45.6253 454.573 45.8679Z" fill="#07EAD3"/>
<path d="M432.752 69.6826C432.749 69.8647 432.806 70.0435 432.916 70.196C433.026 70.3485 433.184 70.4679 433.369 70.5388C433.554 70.6098 433.759 70.629 433.957 70.5942C434.154 70.5593 434.336 70.4719 434.478 70.3431C434.62 70.2143 434.717 70.0501 434.755 69.8713C434.794 69.6926 434.773 69.5075 434.694 69.3398C434.616 69.1721 434.484 69.0293 434.315 68.9299C434.147 68.8304 433.949 68.7787 433.748 68.7814C433.484 68.7814 433.231 68.8763 433.044 69.0453C432.857 69.2143 432.752 69.4436 432.752 69.6826Z" fill="#07EAD3"/>
<path d="M415.413 94.9169C415.411 95.0364 415.435 95.155 415.485 95.266C415.534 95.3769 415.607 95.4779 415.7 95.563C415.792 95.6482 415.903 95.7158 416.024 95.7619C416.146 95.808 416.277 95.8318 416.409 95.8318C416.677 95.8318 416.934 95.7354 417.124 95.5638C417.314 95.3922 417.42 95.1595 417.42 94.9169C417.42 94.6742 417.314 94.4415 417.124 94.2699C416.934 94.0984 416.677 94.002 416.409 94.002C416.277 94.0019 416.146 94.0257 416.024 94.0718C415.903 94.118 415.792 94.1856 415.7 94.2707C415.607 94.3559 415.534 94.4568 415.485 94.5678C415.435 94.6787 415.411 94.7974 415.413 94.9169Z" fill="#07EAD3"/>
<path d="M828.291 276.408C828.288 277.162 828.532 277.9 828.993 278.528C829.454 279.156 830.11 279.647 830.879 279.937C831.648 280.228 832.495 280.305 833.313 280.16C834.131 280.014 834.882 279.652 835.473 279.12C836.063 278.588 836.465 277.909 836.629 277.17C836.793 276.43 836.71 275.663 836.392 274.966C836.074 274.269 835.534 273.674 834.841 273.254C834.149 272.835 833.334 272.611 832.501 272.611C831.949 272.61 831.402 272.706 830.891 272.896C830.38 273.086 829.916 273.366 829.525 273.718C829.134 274.071 828.823 274.49 828.611 274.952C828.4 275.413 828.291 275.908 828.291 276.408Z" fill="white"/>
<path d="M545.267 33.6199C545.267 33.8008 545.326 33.9777 545.437 34.1281C545.549 34.2785 545.706 34.3958 545.891 34.465C546.076 34.5343 546.279 34.5524 546.475 34.5171C546.672 34.4818 546.852 34.3947 546.993 34.2667C547.134 34.1388 547.231 33.9758 547.27 33.7983C547.309 33.6209 547.289 33.437 547.212 33.2698C547.136 33.1026 547.006 32.9598 546.84 32.8592C546.674 32.7587 546.478 32.7051 546.278 32.7051C546.01 32.7051 545.753 32.8015 545.563 32.973C545.374 33.1446 545.267 33.3772 545.267 33.6199Z" fill="#07EAD3"/>
<path d="M566.379 141.331C566.379 141.512 566.438 141.689 566.549 141.839C566.66 141.99 566.818 142.107 567.003 142.176C567.188 142.245 567.391 142.263 567.587 142.228C567.783 142.193 567.964 142.106 568.105 141.978C568.246 141.85 568.343 141.687 568.382 141.509C568.421 141.332 568.401 141.148 568.324 140.981C568.248 140.814 568.118 140.671 567.952 140.57C567.785 140.47 567.59 140.416 567.39 140.416C567.122 140.416 566.865 140.512 566.675 140.684C566.485 140.856 566.379 141.088 566.379 141.331Z" fill="#07EAD3"/>
<path d="M654.432 215.397C654.432 215.578 654.491 215.755 654.603 215.906C654.714 216.056 654.871 216.173 655.056 216.243C655.241 216.312 655.444 216.33 655.64 216.295C655.836 216.259 656.017 216.172 656.158 216.044C656.299 215.916 656.396 215.753 656.435 215.576C656.474 215.398 656.454 215.214 656.377 215.047C656.301 214.88 656.171 214.737 656.005 214.637C655.839 214.536 655.643 214.482 655.443 214.482C655.175 214.482 654.918 214.579 654.728 214.75C654.539 214.922 654.432 215.155 654.432 215.397Z" fill="#07EAD3"/>
<path d="M520.911 126.473C520.911 126.654 520.97 126.831 521.081 126.982C521.192 127.132 521.35 127.249 521.535 127.319C521.72 127.388 521.923 127.406 522.119 127.371C522.315 127.335 522.495 127.248 522.637 127.12C522.778 126.992 522.874 126.829 522.913 126.652C522.952 126.474 522.932 126.291 522.856 126.123C522.779 125.956 522.65 125.813 522.483 125.713C522.317 125.612 522.122 125.559 521.922 125.559C521.654 125.559 521.396 125.655 521.207 125.827C521.017 125.998 520.911 126.231 520.911 126.473Z" fill="#07EAD3"/>
<path d="M785.071 251.638C785.068 251.82 785.126 251.999 785.236 252.151C785.345 252.304 785.503 252.423 785.689 252.494C785.874 252.565 786.078 252.584 786.276 252.549C786.473 252.514 786.655 252.427 786.797 252.298C786.94 252.169 787.036 252.005 787.075 251.826C787.113 251.648 787.092 251.463 787.014 251.295C786.935 251.127 786.803 250.984 786.635 250.885C786.466 250.785 786.269 250.734 786.067 250.736C785.937 250.736 785.807 250.76 785.686 250.805C785.565 250.85 785.456 250.917 785.363 251C785.271 251.084 785.197 251.183 785.147 251.293C785.097 251.402 785.071 251.519 785.071 251.638Z" fill="#07EAD3"/>
<path d="M766.721 233.149C766.721 233.33 766.78 233.507 766.892 233.658C767.003 233.808 767.161 233.925 767.345 233.995C767.53 234.064 767.733 234.082 767.93 234.047C768.126 234.011 768.306 233.924 768.447 233.796C768.589 233.668 768.685 233.505 768.724 233.328C768.763 233.15 768.743 232.966 768.666 232.799C768.59 232.632 768.46 232.489 768.294 232.389C768.128 232.288 767.932 232.234 767.732 232.234C767.464 232.234 767.207 232.331 767.017 232.502C766.828 232.674 766.721 232.907 766.721 233.149Z" fill="#07EAD3"/>
<path d="M771.007 295.497C771.007 295.678 771.067 295.856 771.178 296.007C771.29 296.157 771.449 296.274 771.635 296.343C771.82 296.412 772.024 296.429 772.221 296.393C772.417 296.357 772.597 296.268 772.738 296.139C772.879 296.009 772.974 295.845 773.011 295.667C773.049 295.489 773.026 295.304 772.948 295.137C772.869 294.97 772.737 294.828 772.569 294.73C772.4 294.631 772.203 294.579 772.003 294.582C771.737 294.586 771.484 294.684 771.298 294.855C771.111 295.026 771.007 295.257 771.007 295.497Z" fill="#07EAD3"/>
<path d="M384.085 319.04C384.085 319.221 384.144 319.398 384.255 319.548C384.366 319.698 384.524 319.816 384.709 319.885C384.894 319.954 385.097 319.972 385.293 319.937C385.489 319.902 385.67 319.815 385.811 319.687C385.952 319.559 386.049 319.396 386.088 319.218C386.127 319.041 386.107 318.857 386.03 318.69C385.954 318.523 385.824 318.38 385.658 318.279C385.491 318.179 385.296 318.125 385.096 318.125C384.828 318.125 384.571 318.221 384.381 318.393C384.191 318.565 384.085 318.797 384.085 319.04Z" fill="#07EAD3"/>
<path d="M356.65 334.046C356.65 334.227 356.71 334.404 356.821 334.554C356.932 334.705 357.09 334.822 357.275 334.891C357.459 334.961 357.663 334.979 357.859 334.943C358.055 334.908 358.235 334.821 358.376 334.693C358.518 334.565 358.614 334.402 358.653 334.224C358.692 334.047 358.672 333.863 358.596 333.696C358.519 333.529 358.39 333.386 358.223 333.285C358.057 333.185 357.861 333.131 357.661 333.131C357.393 333.131 357.136 333.227 356.947 333.399C356.757 333.57 356.65 333.803 356.65 334.046Z" fill="#07EAD3"/>
<path d="M203.074 449.186C203.074 449.367 203.133 449.544 203.244 449.695C203.355 449.845 203.513 449.962 203.698 450.032C203.883 450.101 204.086 450.119 204.282 450.084C204.478 450.048 204.658 449.961 204.8 449.833C204.941 449.705 205.037 449.542 205.076 449.365C205.115 449.187 205.095 449.003 205.019 448.836C204.942 448.669 204.813 448.526 204.646 448.426C204.48 448.325 204.285 448.271 204.085 448.271C203.817 448.271 203.559 448.368 203.37 448.539C203.18 448.711 203.074 448.944 203.074 449.186Z" fill="#07EAD3"/>
<path d="M464.442 404.808C464.442 404.988 464.501 405.165 464.612 405.316C464.723 405.466 464.881 405.584 465.066 405.653C465.251 405.722 465.454 405.74 465.65 405.705C465.846 405.67 466.027 405.582 466.168 405.454C466.309 405.326 466.406 405.163 466.445 404.986C466.484 404.809 466.464 404.625 466.387 404.457C466.311 404.29 466.181 404.147 466.015 404.047C465.848 403.946 465.653 403.893 465.453 403.893C465.185 403.893 464.928 403.989 464.738 404.161C464.548 404.332 464.442 404.565 464.442 404.808Z" fill="#07EAD3"/>
<path d="M283.446 444.175C283.446 444.417 283.552 444.65 283.742 444.822C283.932 444.993 284.189 445.09 284.457 445.09C284.725 445.09 284.982 444.993 285.172 444.822C285.361 444.65 285.468 444.417 285.468 444.175C285.468 443.932 285.361 443.699 285.172 443.528C284.982 443.356 284.725 443.26 284.457 443.26C284.189 443.26 283.932 443.356 283.742 443.528C283.552 443.699 283.446 443.932 283.446 444.175Z" fill="#07EAD3"/>
<path d="M601.103 299.704C601.103 299.947 601.209 300.179 601.399 300.351C601.588 300.522 601.845 300.619 602.114 300.619C602.382 300.619 602.639 300.522 602.829 300.351C603.018 300.179 603.125 299.947 603.125 299.704C603.125 299.461 603.018 299.229 602.829 299.057C602.639 298.885 602.382 298.789 602.114 298.789C601.845 298.789 601.588 298.885 601.399 299.057C601.209 299.229 601.103 299.461 601.103 299.704Z" fill="#07EAD3"/>
<path d="M517.983 4.32955C517.98 5.035 518.208 5.72539 518.639 6.31326C519.07 6.90114 519.684 7.36004 520.404 7.63188C521.123 7.90372 521.916 7.97625 522.681 7.84028C523.446 7.70431 524.149 7.36596 524.701 6.86809C525.254 6.37022 525.63 5.73522 525.783 5.04352C525.937 4.35182 525.859 3.63454 525.562 2.98252C525.264 2.33051 524.759 1.7731 524.111 1.38088C523.463 0.988669 522.701 0.779302 521.922 0.779297C520.88 0.77929 519.88 1.15289 519.142 1.81831C518.404 2.48372 517.987 3.38671 517.983 4.32955Z" fill="#1CB0EA"/>
<path d="M651.656 377.497C651.656 377.678 651.715 377.855 651.826 378.005C651.937 378.156 652.095 378.273 652.28 378.342C652.465 378.411 652.668 378.43 652.864 378.394C653.06 378.359 653.24 378.272 653.382 378.144C653.523 378.016 653.62 377.853 653.659 377.675C653.698 377.498 653.678 377.314 653.601 377.147C653.524 376.98 653.395 376.837 653.229 376.736C653.062 376.636 652.867 376.582 652.667 376.582C652.399 376.582 652.142 376.678 651.952 376.85C651.762 377.022 651.656 377.254 651.656 377.497Z" fill="#07EAD3"/>
<path d="M229.874 416.415C229.874 416.596 229.933 416.773 230.044 416.923C230.156 417.074 230.313 417.191 230.498 417.26C230.683 417.329 230.886 417.348 231.082 417.312C231.279 417.277 231.459 417.19 231.6 417.062C231.742 416.934 231.838 416.771 231.877 416.593C231.916 416.416 231.896 416.232 231.819 416.065C231.743 415.898 231.613 415.755 231.447 415.654C231.281 415.554 231.085 415.5 230.885 415.5C230.617 415.5 230.36 415.596 230.17 415.768C229.981 415.94 229.874 416.172 229.874 416.415Z" fill="#07EAD3"/>
<path d="M572.008 282.28C572.008 282.461 572.067 282.638 572.178 282.788C572.289 282.939 572.447 283.056 572.632 283.125C572.817 283.194 573.02 283.213 573.216 283.177C573.412 283.142 573.592 283.055 573.734 282.927C573.875 282.799 573.971 282.636 574.01 282.458C574.049 282.281 574.029 282.097 573.953 281.93C573.876 281.763 573.747 281.62 573.58 281.519C573.414 281.419 573.219 281.365 573.019 281.365C572.751 281.365 572.494 281.462 572.304 281.633C572.114 281.805 572.008 282.037 572.008 282.28Z" fill="#07EAD3"/>
<path d="M668.286 303.269C668.284 303.388 668.308 303.507 668.357 303.618C668.406 303.728 668.479 303.829 668.572 303.915C668.665 304 668.775 304.067 668.897 304.113C669.019 304.16 669.15 304.183 669.282 304.183C669.55 304.183 669.807 304.087 669.997 303.915C670.186 303.744 670.293 303.511 670.293 303.269C670.293 303.149 670.267 303.031 670.216 302.92C670.165 302.81 670.09 302.71 669.996 302.626C669.902 302.542 669.79 302.476 669.668 302.432C669.545 302.387 669.414 302.365 669.282 302.367C669.15 302.365 669.02 302.387 668.898 302.432C668.776 302.477 668.666 302.543 668.573 302.627C668.48 302.711 668.407 302.811 668.357 302.921C668.308 303.032 668.284 303.15 668.286 303.269Z" fill="#07EAD3"/>
<path d="M628.371 337.405C628.371 337.587 628.43 337.764 628.542 337.915C628.654 338.066 628.813 338.183 628.998 338.252C629.184 338.321 629.388 338.338 629.585 338.301C629.781 338.265 629.961 338.177 630.102 338.047C630.243 337.918 630.338 337.754 630.375 337.575C630.412 337.397 630.39 337.212 630.311 337.046C630.232 336.879 630.101 336.737 629.932 336.638C629.764 336.539 629.567 336.488 629.367 336.49C629.101 336.494 628.848 336.592 628.661 336.763C628.475 336.934 628.371 337.165 628.371 337.405Z" fill="#07EAD3"/>
<path d="M652.199 389.104C652.199 389.374 652.287 389.638 652.453 389.862C652.619 390.087 652.855 390.262 653.13 390.365C653.406 390.469 653.71 390.496 654.002 390.443C654.295 390.39 654.564 390.26 654.775 390.069C654.986 389.878 655.13 389.635 655.188 389.37C655.246 389.105 655.216 388.831 655.102 388.581C654.988 388.332 654.794 388.118 654.546 387.968C654.298 387.818 654.006 387.738 653.708 387.738C653.308 387.738 652.924 387.882 652.641 388.138C652.358 388.394 652.199 388.742 652.199 389.104Z" fill="#07EAD3"/>
<path d="M144.778 326.29C144.778 326.695 144.911 327.091 145.16 327.428C145.408 327.765 145.762 328.028 146.176 328.183C146.589 328.338 147.044 328.378 147.483 328.299C147.923 328.22 148.326 328.025 148.642 327.739C148.959 327.452 149.175 327.087 149.262 326.69C149.349 326.293 149.304 325.881 149.133 325.507C148.962 325.132 148.672 324.812 148.299 324.587C147.927 324.362 147.49 324.242 147.042 324.242C146.443 324.246 145.869 324.463 145.446 324.846C145.022 325.229 144.782 325.748 144.778 326.29Z" fill="#07EAD3"/>
<path d="M237.357 362.33C237.357 362.735 237.49 363.131 237.739 363.468C237.988 363.804 238.341 364.067 238.755 364.222C239.168 364.377 239.623 364.418 240.063 364.339C240.502 364.26 240.905 364.064 241.222 363.778C241.538 363.492 241.754 363.127 241.841 362.729C241.928 362.332 241.884 361.92 241.712 361.546C241.541 361.171 241.251 360.852 240.879 360.626C240.506 360.401 240.069 360.281 239.621 360.281C239.022 360.285 238.448 360.502 238.025 360.885C237.601 361.269 237.361 361.787 237.357 362.33Z" fill="#07EAD3"/>
<path d="M427.968 403.07C427.968 403.475 428.101 403.871 428.349 404.208C428.598 404.545 428.952 404.807 429.365 404.962C429.779 405.117 430.234 405.158 430.673 405.079C431.112 405 431.515 404.805 431.832 404.518C432.149 404.232 432.364 403.867 432.451 403.469C432.539 403.072 432.494 402.66 432.323 402.286C432.151 401.912 431.861 401.592 431.489 401.367C431.117 401.142 430.679 401.021 430.231 401.021C429.632 401.025 429.059 401.242 428.635 401.625C428.211 402.009 427.972 402.528 427.968 403.07Z" fill="#07EAD3"/>
<path d="M556.796 302.366C556.796 302.547 556.856 302.724 556.967 302.874C557.078 303.025 557.236 303.142 557.42 303.211C557.605 303.28 557.809 303.298 558.005 303.263C558.201 303.228 558.381 303.141 558.522 303.013C558.664 302.885 558.76 302.722 558.799 302.544C558.838 302.367 558.818 302.183 558.742 302.016C558.665 301.849 558.535 301.706 558.369 301.605C558.203 301.505 558.007 301.451 557.807 301.451C557.539 301.451 557.282 301.548 557.093 301.719C556.903 301.891 556.796 302.123 556.796 302.366Z" fill="#07EAD3"/>
<path d="M750.272 205.811C750.272 205.992 750.332 206.169 750.443 206.32C750.554 206.47 750.712 206.587 750.897 206.656C751.081 206.726 751.285 206.744 751.481 206.708C751.677 206.673 751.857 206.586 751.999 206.458C752.14 206.33 752.236 206.167 752.275 205.99C752.314 205.812 752.294 205.628 752.218 205.461C752.141 205.294 752.012 205.151 751.845 205.051C751.679 204.95 751.484 204.896 751.284 204.896C751.015 204.896 750.758 204.993 750.569 205.164C750.379 205.336 750.272 205.569 750.272 205.811Z" fill="#07EAD3"/>
<path d="M0 347.702C0 347.883 0.0592979 348.06 0.170396 348.21C0.281494 348.361 0.439407 348.478 0.624156 348.547C0.808906 348.617 1.01221 348.635 1.20834 348.599C1.40447 348.564 1.58462 348.477 1.72602 348.349C1.86742 348.221 1.96372 348.058 2.00273 347.88C2.04174 347.703 2.02171 347.519 1.94519 347.352C1.86866 347.185 1.73907 347.042 1.5728 346.941C1.40653 346.841 1.21104 346.787 1.01107 346.787C0.742917 346.787 0.485757 346.883 0.296144 347.055C0.106531 347.227 0 347.459 0 347.702Z" fill="#07EAD3"/>
<path d="M283.189 424.481C283.189 424.662 283.248 424.839 283.359 424.99C283.47 425.14 283.628 425.257 283.813 425.327C283.998 425.396 284.201 425.414 284.397 425.379C284.593 425.343 284.774 425.256 284.915 425.128C285.056 425 285.153 424.837 285.192 424.66C285.231 424.482 285.211 424.298 285.134 424.131C285.058 423.964 284.928 423.821 284.762 423.721C284.596 423.62 284.4 423.566 284.2 423.566C283.932 423.566 283.675 423.663 283.485 423.834C283.295 424.006 283.189 424.239 283.189 424.481Z" fill="#07EAD3"/>
<path d="M587.461 352.413C587.459 352.532 587.483 352.651 587.532 352.762C587.581 352.873 587.654 352.974 587.747 353.059C587.84 353.144 587.95 353.212 588.072 353.258C588.194 353.304 588.324 353.328 588.456 353.328C588.725 353.328 588.982 353.232 589.171 353.06C589.361 352.888 589.468 352.656 589.468 352.413C589.468 352.17 589.361 351.938 589.171 351.766C588.982 351.594 588.725 351.498 588.456 351.498C588.324 351.498 588.194 351.522 588.072 351.568C587.95 351.614 587.84 351.682 587.747 351.767C587.654 351.852 587.581 351.953 587.532 352.064C587.483 352.175 587.459 352.293 587.461 352.413Z" fill="#07EAD3"/>
<path d="M591.535 329.118C591.773 329.228 592.05 329.248 592.304 329.173C592.559 329.099 592.771 328.937 592.893 328.722C593.009 328.504 593.027 328.254 592.943 328.024C592.858 327.794 592.678 327.604 592.44 327.493C592.323 327.439 592.194 327.407 592.063 327.399C591.931 327.39 591.799 327.406 591.674 327.444C591.549 327.482 591.434 327.542 591.335 327.621C591.236 327.699 591.155 327.795 591.097 327.902C591.035 328.008 590.998 328.123 590.986 328.242C590.975 328.361 590.99 328.481 591.031 328.594C591.072 328.708 591.137 328.812 591.224 328.902C591.31 328.992 591.416 329.066 591.535 329.118Z" fill="#07EAD3"/>
<path d="M347.128 301.452C347.128 301.633 347.187 301.81 347.298 301.96C347.409 302.111 347.567 302.228 347.752 302.297C347.937 302.367 348.14 302.385 348.336 302.349C348.532 302.314 348.712 302.227 348.854 302.099C348.995 301.971 349.092 301.808 349.131 301.631C349.17 301.453 349.15 301.269 349.073 301.102C348.997 300.935 348.867 300.792 348.701 300.691C348.534 300.591 348.339 300.537 348.139 300.537C347.871 300.537 347.614 300.633 347.424 300.805C347.234 300.977 347.128 301.209 347.128 301.452Z" fill="#41EAF7"/>
<path d="M345.061 279.534C345.058 279.716 345.114 279.894 345.224 280.046C345.333 280.199 345.49 280.318 345.674 280.389C345.859 280.461 346.062 280.481 346.26 280.447C346.457 280.413 346.638 280.327 346.781 280.2C346.924 280.072 347.022 279.909 347.062 279.731C347.102 279.554 347.083 279.369 347.007 279.201C346.931 279.033 346.802 278.889 346.635 278.788C346.468 278.687 346.272 278.633 346.072 278.633C345.806 278.633 345.551 278.727 345.362 278.896C345.173 279.065 345.065 279.294 345.061 279.534Z" fill="#41EAF7"/>
<path d="M154.934 347.702C154.934 348.159 155.084 348.605 155.364 348.985C155.644 349.364 156.042 349.66 156.508 349.835C156.974 350.009 157.487 350.055 157.982 349.966C158.477 349.877 158.931 349.657 159.288 349.334C159.644 349.012 159.887 348.6 159.986 348.153C160.084 347.705 160.034 347.241 159.841 346.819C159.648 346.398 159.321 346.037 158.901 345.783C158.482 345.53 157.989 345.395 157.484 345.395C156.808 345.395 156.159 345.638 155.681 346.07C155.203 346.503 154.934 347.09 154.934 347.702Z" fill="#41EAF7"/>
<path d="M247.513 383.741C247.513 384.198 247.663 384.644 247.943 385.023C248.223 385.403 248.622 385.699 249.088 385.873C249.554 386.048 250.066 386.094 250.561 386.005C251.056 385.916 251.51 385.696 251.867 385.373C252.223 385.05 252.466 384.639 252.565 384.192C252.663 383.744 252.613 383.28 252.42 382.858C252.227 382.437 251.9 382.076 251.48 381.823C251.061 381.569 250.568 381.434 250.063 381.434C249.387 381.434 248.738 381.677 248.26 382.11C247.782 382.542 247.513 383.129 247.513 383.741Z" fill="#41EAF7"/>
<path d="M438.123 424.48C438.123 424.936 438.273 425.382 438.553 425.762C438.833 426.141 439.231 426.437 439.697 426.612C440.163 426.787 440.676 426.832 441.171 426.743C441.666 426.654 442.12 426.434 442.477 426.112C442.833 425.789 443.076 425.378 443.175 424.93C443.273 424.482 443.223 424.018 443.03 423.597C442.836 423.175 442.51 422.814 442.09 422.561C441.671 422.307 441.178 422.172 440.673 422.172C439.997 422.172 439.348 422.415 438.87 422.848C438.392 423.281 438.123 423.868 438.123 424.48Z" fill="#41EAF7"/>
<path d="M441.641 94.0027C441.639 94.1222 441.663 94.2408 441.712 94.3517C441.761 94.4626 441.834 94.5636 441.927 94.6487C442.02 94.7339 442.13 94.8015 442.252 94.8476C442.374 94.8937 442.505 94.9175 442.637 94.9175C442.905 94.9175 443.162 94.8211 443.352 94.6495C443.541 94.478 443.648 94.2453 443.648 94.0027C443.648 93.7601 443.541 93.5274 443.352 93.3558C443.162 93.1843 442.905 93.0879 442.637 93.0879C442.505 93.0879 442.374 93.1116 442.252 93.1578C442.13 93.2039 442.02 93.2715 441.927 93.3566C441.834 93.4418 441.761 93.5427 441.712 93.6536C441.663 93.7645 441.639 93.8832 441.641 94.0027Z" fill="#41EAF7"/>
<path d="M385.851 91.2723C385.851 91.4532 385.91 91.6301 386.021 91.7806C386.132 91.931 386.29 92.0483 386.475 92.1175C386.659 92.1867 386.863 92.2049 387.059 92.1696C387.255 92.1343 387.435 92.0471 387.577 91.9192C387.718 91.7912 387.814 91.6282 387.853 91.4508C387.892 91.2733 387.872 91.0894 387.796 90.9222C387.719 90.755 387.59 90.6121 387.423 90.5116C387.257 90.4111 387.062 90.3574 386.862 90.3574C386.593 90.3574 386.336 90.4538 386.147 90.6254C385.957 90.797 385.851 91.0296 385.851 91.2723Z" fill="#41EAF7"/>
<path d="M414.402 56.7919C414.402 56.9728 414.462 57.1497 414.573 57.3002C414.684 57.4506 414.842 57.5679 415.026 57.6372C415.211 57.7064 415.415 57.7245 415.611 57.6892C415.807 57.6539 415.987 57.5668 416.128 57.4388C416.27 57.3109 416.366 57.1478 416.405 56.9704C416.444 56.7929 416.424 56.6089 416.347 56.4418C416.271 56.2746 416.141 56.1317 415.975 56.0311C415.809 55.9306 415.613 55.877 415.413 55.877C415.145 55.877 414.888 55.9734 414.698 56.1449C414.509 56.3165 414.402 56.5492 414.402 56.7919Z" fill="#41EAF7"/>
<path d="M342.435 16.4814C342.432 16.6635 342.489 16.8423 342.599 16.9948C342.709 17.1473 342.866 17.2667 343.052 17.3376C343.237 17.4086 343.442 17.4279 343.639 17.393C343.837 17.3581 344.018 17.2707 344.161 17.1419C344.303 17.0132 344.399 16.8489 344.438 16.6702C344.476 16.4914 344.455 16.3063 344.377 16.1386C344.298 15.9709 344.166 15.8281 343.998 15.7287C343.829 15.6292 343.632 15.5775 343.431 15.5802C343.168 15.5837 342.917 15.6798 342.731 15.848C342.545 16.0163 342.439 16.2435 342.435 16.4814Z" fill="#41EAF7"/>
<path d="M107.565 341.229C107.565 341.472 107.672 341.705 107.862 341.876C108.051 342.048 108.308 342.144 108.576 342.144C108.776 342.144 108.972 342.091 109.138 341.99C109.304 341.89 109.434 341.747 109.511 341.58C109.587 341.412 109.607 341.228 109.568 341.051C109.529 340.873 109.433 340.71 109.291 340.582C109.15 340.454 108.97 340.367 108.774 340.332C108.578 340.297 108.374 340.315 108.19 340.384C108.005 340.453 107.847 340.571 107.736 340.721C107.625 340.872 107.565 341.048 107.565 341.229Z" fill="#41EAF7"/>
<path d="M390.754 418.009C390.754 418.251 390.861 418.484 391.051 418.656C391.24 418.827 391.497 418.924 391.765 418.924C391.965 418.924 392.161 418.87 392.327 418.769C392.494 418.669 392.623 418.526 392.7 418.359C392.776 418.192 392.796 418.008 392.757 417.83C392.718 417.653 392.622 417.49 392.48 417.362C392.339 417.234 392.159 417.147 391.963 417.111C391.767 417.076 391.563 417.094 391.379 417.163C391.194 417.233 391.036 417.35 390.925 417.5C390.814 417.651 390.754 417.828 390.754 418.009Z" fill="#41EAF7"/>
<path d="M130.7 331.643C130.7 331.824 130.759 332.001 130.87 332.152C130.981 332.302 131.139 332.419 131.324 332.488C131.509 332.558 131.712 332.576 131.908 332.541C132.104 332.505 132.284 332.418 132.426 332.29C132.567 332.162 132.663 331.999 132.702 331.822C132.741 331.644 132.721 331.46 132.645 331.293C132.568 331.126 132.439 330.983 132.272 330.883C132.106 330.782 131.911 330.729 131.711 330.729C131.443 330.729 131.185 330.825 130.996 330.996C130.806 331.168 130.7 331.401 130.7 331.643Z" fill="#41EAF7"/>
<path d="M223.279 367.683C223.279 367.864 223.338 368.041 223.449 368.191C223.56 368.341 223.718 368.459 223.903 368.528C224.088 368.597 224.291 368.615 224.487 368.58C224.683 368.545 224.863 368.458 225.005 368.33C225.146 368.202 225.242 368.039 225.281 367.861C225.32 367.684 225.3 367.5 225.224 367.332C225.147 367.165 225.018 367.022 224.852 366.922C224.685 366.821 224.49 366.768 224.29 366.768C224.022 366.768 223.765 366.864 223.575 367.036C223.385 367.207 223.279 367.44 223.279 367.683Z" fill="#41EAF7"/>
<path d="M413.889 408.423C413.889 408.604 413.948 408.781 414.059 408.931C414.17 409.081 414.328 409.199 414.513 409.268C414.698 409.337 414.901 409.355 415.097 409.32C415.293 409.285 415.473 409.198 415.615 409.07C415.756 408.942 415.852 408.779 415.891 408.601C415.93 408.424 415.91 408.24 415.834 408.073C415.757 407.905 415.628 407.763 415.462 407.662C415.295 407.561 415.1 407.508 414.9 407.508C414.632 407.508 414.374 407.604 414.185 407.776C413.995 407.947 413.889 408.18 413.889 408.423Z" fill="#41EAF7"/>
<path d="M417.661 25.9853C417.661 26.4526 417.814 26.9093 418.101 27.2978C418.388 27.6863 418.796 27.989 419.273 28.1678C419.75 28.3466 420.275 28.3934 420.781 28.3023C421.288 28.2111 421.753 27.9861 422.118 27.6558C422.483 27.3254 422.732 26.9045 422.832 26.4462C422.933 25.988 422.881 25.513 422.684 25.0813C422.486 24.6497 422.152 24.2807 421.722 24.0212C421.293 23.7616 420.788 23.623 420.272 23.623C419.581 23.6266 418.919 23.8767 418.43 24.3189C417.941 24.7611 417.665 25.3599 417.661 25.9853Z" fill="#07EAD3"/>
<path d="M143.104 292.671C143.104 292.913 143.21 293.146 143.4 293.318C143.589 293.489 143.846 293.586 144.115 293.586C144.383 293.586 144.64 293.489 144.83 293.318C145.019 293.146 145.126 292.913 145.126 292.671C145.126 292.428 145.019 292.195 144.83 292.024C144.64 291.852 144.383 291.756 144.115 291.756C143.846 291.756 143.589 291.852 143.4 292.024C143.21 292.195 143.104 292.428 143.104 292.671Z" fill="#07EAD3"/>
<path d="M426.293 369.45C426.293 369.693 426.399 369.925 426.589 370.097C426.779 370.269 427.036 370.365 427.304 370.365C427.572 370.365 427.829 370.269 428.019 370.097C428.209 369.925 428.315 369.693 428.315 369.45C428.315 369.207 428.209 368.975 428.019 368.803C427.829 368.632 427.572 368.535 427.304 368.535C427.036 368.535 426.779 368.632 426.589 368.803C426.399 368.975 426.293 369.207 426.293 369.45Z" fill="#07EAD3"/>
<path d="M733.521 254.122C733.521 254.365 733.628 254.597 733.818 254.769C734.007 254.941 734.264 255.037 734.533 255.037C734.801 255.037 735.058 254.941 735.247 254.769C735.437 254.597 735.544 254.365 735.544 254.122C735.544 253.879 735.437 253.647 735.247 253.475C735.058 253.303 734.801 253.207 734.533 253.207C734.264 253.207 734.007 253.303 733.818 253.475C733.628 253.647 733.521 253.879 733.521 254.122Z" fill="#07EAD3"/>
<path d="M223.747 285.625C224.306 285.625 224.758 285.215 224.758 284.71C224.758 284.205 224.306 283.795 223.747 283.795C223.189 283.795 222.736 284.205 222.736 284.71C222.736 285.215 223.189 285.625 223.747 285.625Z" fill="#07EAD3"/>
<path d="M244.497 238.282C244.497 238.463 244.556 238.64 244.667 238.79C244.779 238.941 244.936 239.058 245.121 239.127C245.306 239.197 245.509 239.215 245.705 239.179C245.902 239.144 246.082 239.057 246.223 238.929C246.364 238.801 246.461 238.638 246.5 238.461C246.539 238.283 246.519 238.099 246.442 237.932C246.366 237.765 246.236 237.622 246.07 237.521C245.904 237.421 245.708 237.367 245.508 237.367C245.24 237.367 244.983 237.464 244.793 237.635C244.604 237.807 244.497 238.039 244.497 238.282Z" fill="#07EAD3"/>
<path d="M397.651 221.829C397.651 222.01 397.711 222.187 397.822 222.337C397.933 222.488 398.091 222.605 398.276 222.674C398.46 222.743 398.664 222.762 398.86 222.726C399.056 222.691 399.236 222.604 399.377 222.476C399.519 222.348 399.615 222.185 399.654 222.007C399.693 221.83 399.673 221.646 399.597 221.479C399.52 221.312 399.39 221.169 399.224 221.068C399.058 220.968 398.862 220.914 398.662 220.914C398.53 220.914 398.398 220.938 398.276 220.984C398.153 221.03 398.041 221.097 397.948 221.182C397.854 221.267 397.779 221.368 397.728 221.479C397.678 221.59 397.651 221.709 397.651 221.829Z" fill="#07EAD3"/>
<path d="M518.315 365.44C518.315 365.621 518.375 365.798 518.486 365.948C518.597 366.099 518.755 366.216 518.94 366.285C519.124 366.355 519.328 366.373 519.524 366.337C519.72 366.302 519.9 366.215 520.041 366.087C520.183 365.959 520.279 365.796 520.318 365.619C520.357 365.441 520.337 365.257 520.261 365.09C520.184 364.923 520.054 364.78 519.888 364.68C519.722 364.579 519.526 364.525 519.326 364.525C519.058 364.525 518.801 364.622 518.612 364.793C518.422 364.965 518.315 365.198 518.315 365.44Z" fill="#07EAD3"/>
<path d="M393.365 146.956C393.362 147.138 393.419 147.317 393.529 147.47C393.639 147.622 393.797 147.742 393.983 147.812C394.168 147.883 394.372 147.903 394.57 147.868C394.767 147.833 394.949 147.746 395.091 147.617C395.234 147.488 395.33 147.324 395.369 147.145C395.407 146.966 395.386 146.781 395.308 146.613C395.229 146.446 395.097 146.303 394.929 146.203C394.76 146.104 394.563 146.052 394.361 146.055C394.097 146.055 393.844 146.15 393.657 146.319C393.47 146.488 393.365 146.717 393.365 146.956Z" fill="#07EAD3"/>
<path d="M90.7241 347.948C90.7241 348.191 90.8306 348.424 91.0202 348.595C91.2099 348.767 91.4671 348.863 91.7352 348.863C91.8673 348.863 91.998 348.839 92.1199 348.793C92.2417 348.747 92.3522 348.679 92.4449 348.594C92.5376 348.509 92.6106 348.408 92.6598 348.297C92.7089 348.186 92.7332 348.068 92.7312 347.948C92.7332 347.829 92.7089 347.711 92.6595 347.601C92.6102 347.491 92.5369 347.391 92.444 347.307C92.3511 347.223 92.2405 347.156 92.1188 347.112C91.997 347.067 91.8666 347.045 91.7352 347.047C91.6032 347.045 91.472 347.067 91.3494 347.112C91.2268 347.156 91.1152 347.222 91.0211 347.306C90.9271 347.39 90.8523 347.49 90.8014 347.6C90.7504 347.71 90.7241 347.829 90.7241 347.948Z" fill="#07EAD3"/>
<path d="M373.913 424.726C373.913 424.968 374.02 425.201 374.209 425.373C374.399 425.544 374.656 425.641 374.924 425.641C375.056 425.641 375.187 425.617 375.309 425.571C375.431 425.525 375.541 425.457 375.634 425.372C375.726 425.287 375.799 425.186 375.849 425.075C375.898 424.964 375.922 424.845 375.92 424.726C375.922 424.607 375.898 424.489 375.848 424.379C375.799 424.268 375.726 424.168 375.633 424.084C375.54 424 375.429 423.934 375.308 423.889C375.186 423.845 375.055 423.822 374.924 423.824C374.792 423.823 374.661 423.844 374.538 423.889C374.416 423.933 374.304 424 374.21 424.083C374.116 424.167 374.041 424.267 373.99 424.378C373.939 424.488 373.913 424.606 373.913 424.726Z" fill="#07EAD3"/>
<path d="M336.52 130.817C336.52 130.998 336.579 131.175 336.69 131.326C336.801 131.476 336.959 131.593 337.144 131.663C337.328 131.732 337.532 131.75 337.728 131.715C337.924 131.679 338.104 131.592 338.245 131.464C338.387 131.336 338.483 131.173 338.522 130.996C338.561 130.818 338.541 130.634 338.465 130.467C338.388 130.3 338.259 130.157 338.092 130.057C337.926 129.956 337.731 129.902 337.531 129.902C337.262 129.902 337.005 129.999 336.816 130.17C336.626 130.342 336.52 130.575 336.52 130.817Z" fill="#07EAD3"/>
<path d="M56.4382 336.805C56.4183 336.975 56.438 337.146 56.496 337.308C56.554 337.471 56.6491 337.62 56.775 337.747C56.901 337.873 57.055 337.975 57.2271 338.044C57.3991 338.114 57.5854 338.149 57.7737 338.149C57.9621 338.149 58.1484 338.114 58.3204 338.044C58.4925 337.975 58.6465 337.873 58.7724 337.747C58.8984 337.62 58.9935 337.471 59.0515 337.308C59.1095 337.146 59.1292 336.975 59.1093 336.805C59.0742 336.507 58.9184 336.231 58.6718 336.03C58.4252 335.83 58.1053 335.719 57.7737 335.719C57.4421 335.719 57.1223 335.83 56.8757 336.03C56.6291 336.231 56.4733 336.507 56.4382 336.805Z" fill="#07EAD3"/>
<path d="M339.627 413.585C339.607 413.754 339.627 413.926 339.685 414.088C339.743 414.25 339.838 414.399 339.964 414.526C340.09 414.653 340.244 414.754 340.416 414.823C340.588 414.893 340.774 414.929 340.963 414.929C341.151 414.929 341.337 414.893 341.509 414.823C341.681 414.754 341.835 414.653 341.961 414.526C342.087 414.399 342.182 414.25 342.24 414.088C342.298 413.926 342.318 413.754 342.298 413.585C342.263 413.286 342.107 413.01 341.861 412.81C341.614 412.609 341.294 412.498 340.963 412.498C340.631 412.498 340.311 412.609 340.065 412.81C339.818 413.01 339.662 413.286 339.627 413.585Z" fill="#07EAD3"/>
<path d="M201.277 110.198C201.274 110.38 201.331 110.558 201.44 110.71C201.55 110.862 201.707 110.982 201.891 111.053C202.075 111.124 202.279 111.144 202.476 111.111C202.673 111.077 202.855 110.991 202.998 110.863C203.141 110.736 203.239 110.573 203.279 110.395C203.319 110.217 203.3 110.033 203.224 109.865C203.148 109.697 203.018 109.553 202.852 109.452C202.685 109.351 202.489 109.297 202.289 109.297C202.023 109.297 201.768 109.391 201.579 109.56C201.39 109.729 201.281 109.958 201.277 110.198Z" fill="#07EAD3"/>
<path d="M205.654 131.731C205.654 131.912 205.714 132.089 205.825 132.24C205.936 132.39 206.094 132.507 206.278 132.577C206.463 132.646 206.666 132.664 206.863 132.629C207.059 132.593 207.239 132.506 207.38 132.378C207.522 132.25 207.618 132.087 207.657 131.91C207.696 131.732 207.676 131.548 207.599 131.381C207.523 131.214 207.393 131.071 207.227 130.971C207.061 130.87 206.865 130.816 206.665 130.816C206.397 130.816 206.14 130.913 205.95 131.084C205.761 131.256 205.654 131.489 205.654 131.731Z" fill="#07EAD3"/>
<path d="M631.389 323.286C631.386 323.467 631.443 323.646 631.552 323.798C631.661 323.95 631.818 324.069 632.002 324.141C632.187 324.212 632.391 324.232 632.588 324.198C632.785 324.165 632.966 324.079 633.109 323.951C633.252 323.824 633.35 323.661 633.39 323.483C633.43 323.305 633.411 323.121 633.335 322.953C633.259 322.785 633.13 322.641 632.963 322.54C632.797 322.439 632.6 322.385 632.4 322.385C632.134 322.385 631.879 322.479 631.69 322.648C631.501 322.816 631.393 323.046 631.389 323.286Z" fill="#07EAD3"/>
<path d="M134.804 156.038C134.804 156.219 134.863 156.396 134.975 156.546C135.086 156.697 135.244 156.814 135.428 156.883C135.613 156.952 135.816 156.97 136.013 156.935C136.209 156.9 136.389 156.813 136.53 156.685C136.672 156.557 136.768 156.394 136.807 156.216C136.846 156.039 136.826 155.855 136.749 155.688C136.673 155.521 136.543 155.378 136.377 155.277C136.211 155.177 136.015 155.123 135.815 155.123C135.547 155.123 135.29 155.219 135.1 155.391C134.911 155.563 134.804 155.795 134.804 156.038Z" fill="#07EAD3"/>
<path d="M317.49 122.378C317.49 122.621 317.597 122.853 317.786 123.025C317.976 123.196 318.233 123.293 318.501 123.293C318.769 123.293 319.027 123.196 319.216 123.025C319.406 122.853 319.512 122.621 319.512 122.378C319.512 122.135 319.406 121.902 319.216 121.731C319.027 121.559 318.769 121.463 318.501 121.463C318.233 121.463 317.976 121.559 317.786 121.731C317.597 121.902 317.49 122.135 317.49 122.378Z" fill="#07EAD3"/>
<path d="M314.909 294.501C314.909 294.743 315.016 294.976 315.205 295.148C315.395 295.319 315.652 295.416 315.92 295.416C316.188 295.416 316.446 295.319 316.635 295.148C316.825 294.976 316.931 294.743 316.931 294.501C316.931 294.258 316.825 294.025 316.635 293.854C316.446 293.682 316.188 293.586 315.92 293.586C315.652 293.586 315.395 293.682 315.205 293.854C315.016 294.025 314.909 294.258 314.909 294.501Z" fill="#07EAD3"/>
<path d="M144.824 175.47C144.691 175.916 144.724 176.39 144.919 176.817C145.113 177.245 145.458 177.602 145.9 177.835C146.341 178.067 146.855 178.161 147.362 178.103C147.869 178.044 148.34 177.836 148.703 177.511C149.066 177.185 149.301 176.761 149.37 176.303C149.439 175.844 149.34 175.379 149.087 174.977C148.835 174.575 148.443 174.26 147.972 174.08C147.501 173.9 146.978 173.865 146.484 173.982C146.083 174.07 145.717 174.255 145.425 174.517C145.132 174.779 144.925 175.109 144.824 175.47Z" fill="#59F7F7"/>
<path d="M175.232 74.285C175.229 74.6346 175.341 74.977 175.554 75.2688C175.767 75.5606 176.07 75.7885 176.427 75.9235C176.783 76.0585 177.176 76.0945 177.555 76.027C177.934 75.9595 178.282 75.7914 178.555 75.5442C178.828 75.2971 179.014 74.9819 179.089 74.639C179.163 74.296 179.124 73.9407 178.974 73.6183C178.825 73.2958 178.573 73.0209 178.251 72.8283C177.928 72.6358 177.55 72.5345 177.164 72.5372C176.651 72.5372 176.16 72.7213 175.798 73.0491C175.436 73.3769 175.232 73.8215 175.232 74.285Z" fill="#07EAD3"/>
<path d="M189.794 24.2244C189.791 24.5734 189.902 24.9153 190.114 25.2068C190.326 25.4983 190.629 25.7262 190.985 25.8616C191.34 25.997 191.732 26.0339 192.111 25.9674C192.489 25.901 192.838 25.7343 193.111 25.4885C193.385 25.2427 193.572 24.9289 193.648 24.5868C193.725 24.2448 193.687 23.8899 193.54 23.5672C193.393 23.2445 193.144 22.9686 192.823 22.7744C192.503 22.5802 192.126 22.4766 191.74 22.4766C191.227 22.4765 190.734 22.6603 190.369 22.9877C190.004 23.3151 189.797 23.7596 189.794 24.2244Z" fill="#07EAD3"/>
<path d="M170.418 44.2968C170.418 44.6457 170.532 44.9868 170.747 45.2768C170.961 45.5668 171.266 45.7925 171.623 45.9255C171.979 46.0584 172.372 46.0925 172.75 46.0234C173.128 45.9543 173.474 45.7852 173.746 45.5374C174.018 45.2897 174.202 44.9746 174.275 44.632C174.349 44.2894 174.308 43.9347 174.158 43.6131C174.009 43.2915 173.757 43.0173 173.435 42.8254C173.113 42.6335 172.735 42.5325 172.349 42.5352C172.094 42.5352 171.842 42.5809 171.606 42.6696C171.371 42.7583 171.157 42.8882 170.978 43.052C170.798 43.2157 170.656 43.41 170.56 43.6237C170.464 43.8373 170.416 44.0661 170.418 44.2968Z" fill="#07EAD3"/>
<path d="M99.2655 37.1283C100.341 37.1283 101.212 36.3397 101.212 35.3669C101.212 34.3941 100.341 33.6055 99.2655 33.6055C98.1904 33.6055 97.3188 34.3941 97.3188 35.3669C97.3188 36.3397 98.1904 37.1283 99.2655 37.1283Z" fill="#07EAD3"/>
<defs>
<radialGradient id="paint0_radial_189_1131" cx="0" cy="0" r="1" gradientUnits="userSpaceOnUse" gradientTransform="translate(380.901 213.226) rotate(-179.946) scale(14.5473 13.1636)">
<stop stop-color="#00AEEF"/>
<stop offset="0.06" stop-color="#0094CB"/>
<stop offset="0.15" stop-color="#00719C"/>
<stop offset="0.24" stop-color="#005372"/>
<stop offset="0.34" stop-color="#00394F"/>
<stop offset="0.44" stop-color="#002432"/>
<stop offset="0.55" stop-color="#00141C"/>
<stop offset="0.67" stop-color="#00090C"/>
<stop offset="0.81" stop-color="#000203"/>
<stop offset="1"/>
</radialGradient>
<radialGradient id="paint1_radial_189_1131" cx="0" cy="0" r="1" gradientUnits="userSpaceOnUse" gradientTransform="translate(-13571.8 9564.05) rotate(180) scale(282.221 255.374)">
<stop stop-color="#00AEEF"/>
<stop offset="0.06" stop-color="#0094CB"/>
<stop offset="0.15" stop-color="#00719C"/>
<stop offset="0.24" stop-color="#005372"/>
<stop offset="0.34" stop-color="#00394F"/>
<stop offset="0.44" stop-color="#002432"/>
<stop offset="0.55" stop-color="#00141C"/>
<stop offset="0.67" stop-color="#00090C"/>
<stop offset="0.81" stop-color="#000203"/>
<stop offset="1"/>
</radialGradient>
<radialGradient id="paint2_radial_189_1131" cx="0" cy="0" r="1" gradientUnits="userSpaceOnUse" gradientTransform="translate(-13288.6 9640.91) rotate(180) scale(282.221 255.377)">
<stop stop-color="#00AEEF"/>
<stop offset="0.06" stop-color="#0094CB"/>
<stop offset="0.15" stop-color="#00719C"/>
<stop offset="0.24" stop-color="#005372"/>
<stop offset="0.34" stop-color="#00394F"/>
<stop offset="0.44" stop-color="#002432"/>
<stop offset="0.55" stop-color="#00141C"/>
<stop offset="0.67" stop-color="#00090C"/>
<stop offset="0.81" stop-color="#000203"/>
<stop offset="1"/>
</radialGradient>
<radialGradient id="paint3_radial_189_1131" cx="0" cy="0" r="1" gradientUnits="userSpaceOnUse" gradientTransform="translate(-13571.8 3675.35) rotate(180) scale(282.221 255.377)">
<stop stop-color="#00AEEF"/>
<stop offset="0.06" stop-color="#0094CB"/>
<stop offset="0.15" stop-color="#00719C"/>
<stop offset="0.24" stop-color="#005372"/>
<stop offset="0.34" stop-color="#00394F"/>
<stop offset="0.44" stop-color="#002432"/>
<stop offset="0.55" stop-color="#00141C"/>
<stop offset="0.67" stop-color="#00090C"/>
<stop offset="0.81" stop-color="#000203"/>
<stop offset="1"/>
</radialGradient>
<radialGradient id="paint4_radial_189_1131" cx="0" cy="0" r="1" gradientUnits="userSpaceOnUse" gradientTransform="translate(-7269.19 12167) rotate(-179.946) scale(281.345 254.583)">
<stop stop-color="#00AEEF"/>
<stop offset="0.06" stop-color="#0094CB"/>
<stop offset="0.15" stop-color="#00719C"/>
<stop offset="0.24" stop-color="#005372"/>
<stop offset="0.34" stop-color="#00394F"/>
<stop offset="0.44" stop-color="#002432"/>
<stop offset="0.55" stop-color="#00141C"/>
<stop offset="0.67" stop-color="#00090C"/>
<stop offset="0.81" stop-color="#000203"/>
<stop offset="1"/>
</radialGradient>
<radialGradient id="paint5_radial_189_1131" cx="0" cy="0" r="1" gradientUnits="userSpaceOnUse" gradientTransform="translate(-8433.74 11898.2) rotate(-179.946) scale(281.345 254.583)">
<stop stop-color="#00AEEF"/>
<stop offset="0.06" stop-color="#0094CB"/>
<stop offset="0.15" stop-color="#00719C"/>
<stop offset="0.24" stop-color="#005372"/>
<stop offset="0.34" stop-color="#00394F"/>
<stop offset="0.44" stop-color="#002432"/>
<stop offset="0.55" stop-color="#00141C"/>
<stop offset="0.67" stop-color="#00090C"/>
<stop offset="0.81" stop-color="#000203"/>
<stop offset="1"/>
</radialGradient>
<radialGradient id="paint6_radial_189_1131" cx="0" cy="0" r="1" gradientUnits="userSpaceOnUse" gradientTransform="translate(-4453.76 10907.6) rotate(180) scale(282.513 255.639)">
<stop stop-color="#00AEEF"/>
<stop offset="0.06" stop-color="#0094CB"/>
<stop offset="0.15" stop-color="#00719C"/>
<stop offset="0.24" stop-color="#005372"/>
<stop offset="0.34" stop-color="#00394F"/>
<stop offset="0.44" stop-color="#002432"/>
<stop offset="0.55" stop-color="#00141C"/>
<stop offset="0.67" stop-color="#00090C"/>
<stop offset="0.81" stop-color="#000203"/>
<stop offset="1"/>
</radialGradient>
<radialGradient id="paint7_radial_189_1131" cx="0" cy="0" r="1" gradientUnits="userSpaceOnUse" gradientTransform="translate(-10021 9317.03) rotate(-179.946) scale(281.344 254.585)">
<stop stop-color="#00AEEF"/>
<stop offset="0.06" stop-color="#0094CB"/>
<stop offset="0.15" stop-color="#00719C"/>
<stop offset="0.24" stop-color="#005372"/>
<stop offset="0.34" stop-color="#00394F"/>
<stop offset="0.44" stop-color="#002432"/>
<stop offset="0.55" stop-color="#00141C"/>
<stop offset="0.67" stop-color="#00090C"/>
<stop offset="0.81" stop-color="#000203"/>
<stop offset="1"/>
</radialGradient>
</defs>
</svg>
