<svg width="16" height="16" viewBox="0 0 16 16" fill="none" xmlns="http://www.w3.org/2000/svg">
<g clip-path="url(#clip0_189_1443)">
<path d="M15.9958 15.9995V15.9988H15.9998V10.1308C15.9998 7.26016 15.3818 5.04883 12.0258 5.04883C10.4125 5.04883 9.32985 5.93416 8.88785 6.77349H8.84118V5.31683H5.65918V15.9988H8.97251V10.7095C8.97251 9.31683 9.23651 7.97016 10.9612 7.97016C12.6605 7.97016 12.6858 9.55949 12.6858 10.7988V15.9995H15.9958Z" fill="white"/>
<path d="M0.26416 5.31836H3.58149V16.0004H0.26416V5.31836Z" fill="white"/>
<path d="M1.92133 0C0.860667 0 0 0.860667 0 1.92133C0 2.982 0.860667 3.86067 1.92133 3.86067C2.982 3.86067 3.84267 2.982 3.84267 1.92133C3.842 0.860667 2.98133 0 1.92133 0V0Z" fill="white"/>
</g>
<defs>
<clipPath id="clip0_189_1443">
<rect width="16" height="16" fill="white"/>
</clipPath>
</defs>
</svg>
