<svg width="120" height="109" viewBox="0 0 120 109" fill="none" xmlns="http://www.w3.org/2000/svg">
<path d="M20.5824 81.7892C20.5824 82.6178 20.4705 83.4009 20.2468 84.1383C20.0314 84.8675 19.7206 85.5304 19.3146 86.127C18.9169 86.7235 18.4322 87.2456 17.8604 87.693C17.297 88.1404 16.6673 88.4926 15.9712 88.7495L19.7496 91.7449H15.0639L11.9567 89.2466H8.77486C7.70597 89.2466 6.71579 89.0643 5.80433 88.6998C4.89287 88.3269 4.10571 87.809 3.44283 87.1461C2.77995 86.4833 2.25793 85.6961 1.87678 84.7846C1.50391 83.8732 1.31747 82.8747 1.31747 81.7892V78.3837C1.31747 77.3065 1.50391 76.3122 1.87678 75.4007C2.25793 74.481 2.77995 73.6938 3.44283 73.0392C4.10571 72.3764 4.89287 71.8585 5.80433 71.4856C6.71579 71.1127 7.70597 70.9263 8.77486 70.9263H13.1499C14.2188 70.9263 15.2048 71.1127 16.108 71.4856C17.0194 71.8585 17.8066 72.3764 18.4695 73.0392C19.1323 73.6938 19.6502 74.481 20.0231 75.4007C20.396 76.3122 20.5824 77.3065 20.5824 78.3837V81.7892ZM17.3509 78.3837C17.3509 77.7457 17.2473 77.1698 17.0401 76.6561C16.8413 76.1341 16.5554 75.6908 16.1825 75.3262C15.8179 74.9533 15.3746 74.6674 14.8526 74.4686C14.3389 74.2614 13.7713 74.1578 13.1499 74.1578H8.77486C8.14512 74.1578 7.56925 74.2614 7.04723 74.4686C6.5335 74.6674 6.0902 74.9533 5.71733 75.3262C5.34446 75.6908 5.05445 76.1341 4.8473 76.6561C4.64844 77.1698 4.54901 77.7457 4.54901 78.3837V81.7892C4.54901 82.4273 4.64844 83.0073 4.8473 83.5293C5.05445 84.043 5.34446 84.4863 5.71733 84.8592C6.0902 85.2238 6.5335 85.5096 7.04723 85.7168C7.56925 85.9157 8.14512 86.0151 8.77486 86.0151H13.125C13.7547 86.0151 14.3265 85.9157 14.8402 85.7168C15.3622 85.5096 15.8097 85.2238 16.1825 84.8592C16.5554 84.4863 16.8413 84.043 17.0401 83.5293C17.2473 83.0073 17.3509 82.4273 17.3509 81.7892V78.3837ZM39.636 74.4064H32.5142V88.998H29.2827V74.4064H22.1484V71.1749H39.636V74.4064ZM59.8331 77.1657C59.8331 77.9031 59.742 78.5618 59.5597 79.1419C59.3774 79.7219 59.1288 80.2356 58.8139 80.6831C58.5073 81.1222 58.151 81.4992 57.745 81.8141C57.339 82.129 56.9123 82.39 56.4648 82.5971C56.0257 82.796 55.5782 82.941 55.1225 83.0321C54.6751 83.1233 54.2525 83.1689 53.8548 83.1689L60.6037 88.998H55.6072L48.8707 83.1689H46.5465V79.9373H53.8548C54.2608 79.9042 54.6295 79.8213 54.9609 79.6887C55.3007 79.5479 55.5907 79.3614 55.831 79.1294C56.0795 78.8974 56.2701 78.6199 56.4027 78.2967C56.5353 77.9653 56.6016 77.5882 56.6016 77.1657V75.1273C56.6016 74.945 56.5767 74.8083 56.527 74.7172C56.4856 74.6177 56.4276 74.5473 56.353 74.5059C56.2867 74.4561 56.2121 74.4271 56.1293 74.4189C56.0547 74.4106 55.9843 74.4064 55.918 74.4064H45.2539V88.998H42.0224V72.8031C42.0224 72.5794 42.0638 72.3681 42.1467 72.1692C42.2295 71.9703 42.3414 71.7963 42.4822 71.6472C42.6314 71.498 42.8054 71.382 43.0043 71.2992C43.2031 71.2163 43.4186 71.1749 43.6506 71.1749H55.918C56.6389 71.1749 57.2479 71.3075 57.745 71.5726C58.2422 71.8295 58.6441 72.1568 58.9506 72.5545C59.2655 72.944 59.4892 73.3665 59.6218 73.8223C59.7627 74.278 59.8331 74.7047 59.8331 75.1025V77.1657ZM80.5646 88.998H77.3331V84.623H65.973V88.998H62.7415V80.0865C62.7415 78.7856 62.9652 77.5882 63.4126 76.4945C63.8601 75.4007 64.4815 74.4603 65.277 73.6731C66.0724 72.8859 67.0129 72.2728 68.0984 71.8336C69.1838 71.3945 70.3687 71.1749 71.6531 71.1749H78.9364C79.1602 71.1749 79.3715 71.2163 79.5703 71.2992C79.7692 71.382 79.9432 71.498 80.0923 71.6472C80.2415 71.7963 80.3575 71.9703 80.4403 72.1692C80.5232 72.3681 80.5646 72.5794 80.5646 72.8031V88.998ZM65.973 81.3915H77.3331V74.4064H71.6531C71.5536 74.4064 71.3423 74.423 71.0192 74.4561C70.7043 74.481 70.3356 74.5514 69.913 74.6674C69.4987 74.7834 69.0595 74.9616 68.5955 75.2019C68.1315 75.4422 67.7048 75.7736 67.3153 76.1962C66.9259 76.6188 66.6027 77.1491 66.3459 77.7871C66.0973 78.4168 65.973 79.1833 65.973 80.0865V81.3915ZM100.289 88.998H88.631C88.3327 88.998 88.0096 88.9649 87.6616 88.8986C87.3219 88.824 86.9821 88.7122 86.6424 88.563C86.311 88.4139 85.992 88.2233 85.6854 87.9913C85.3788 87.751 85.1053 87.4651 84.8651 87.1337C84.633 86.794 84.4466 86.4045 84.3058 85.9654C84.1649 85.5179 84.0945 85.0166 84.0945 84.4615V75.7115C84.0945 75.4132 84.1276 75.0942 84.1939 74.7544C84.2685 74.4064 84.3803 74.0667 84.5295 73.7353C84.6786 73.3955 84.8733 73.0724 85.1136 72.7658C85.3539 72.4592 85.6398 72.1899 85.9712 71.9579C86.311 71.7176 86.7004 71.527 87.1396 71.3862C87.5787 71.2453 88.0759 71.1749 88.631 71.1749H100.289V74.4064H88.631C88.2085 74.4064 87.8853 74.5183 87.6616 74.742C87.4379 74.9657 87.326 75.2972 87.326 75.7363V84.4615C87.326 84.8758 87.4379 85.1989 87.6616 85.4309C87.8936 85.6547 88.2167 85.7665 88.631 85.7665H100.289V88.998ZM119.455 74.4064H112.333V88.998H109.102V74.4064H101.967V71.1749H119.455V74.4064Z" fill="white"/>
<path d="M36.7899 103.304C36.7899 103.54 36.7579 103.764 36.694 103.975C36.6324 104.183 36.5436 104.373 36.4276 104.543C36.314 104.713 36.1755 104.863 36.0122 104.99C35.8512 105.118 35.6713 105.219 35.4724 105.292L36.5519 106.148H35.2132L34.3254 105.434H33.4163C33.1109 105.434 32.828 105.382 32.5676 105.278C32.3071 105.172 32.0822 105.024 31.8928 104.834C31.7035 104.645 31.5543 104.42 31.4454 104.159C31.3389 103.899 31.2856 103.614 31.2856 103.304V102.331C31.2856 102.023 31.3389 101.739 31.4454 101.478C31.5543 101.216 31.7035 100.991 31.8928 100.804C32.0822 100.614 32.3071 100.466 32.5676 100.36C32.828 100.253 33.1109 100.2 33.4163 100.2H34.6663C34.9717 100.2 35.2534 100.253 35.5115 100.36C35.7719 100.466 35.9968 100.614 36.1862 100.804C36.3756 100.991 36.5235 101.216 36.6301 101.478C36.7366 101.739 36.7899 102.023 36.7899 102.331V103.304ZM35.8666 102.331C35.8666 102.148 35.837 101.984 35.7778 101.837C35.721 101.688 35.6393 101.561 35.5328 101.457C35.4286 101.35 35.3019 101.269 35.1528 101.212C35.006 101.153 34.8438 101.123 34.6663 101.123H33.4163C33.2364 101.123 33.0718 101.153 32.9227 101.212C32.7759 101.269 32.6492 101.35 32.5427 101.457C32.4362 101.561 32.3533 101.688 32.2941 101.837C32.2373 101.984 32.2089 102.148 32.2089 102.331V103.304C32.2089 103.486 32.2373 103.652 32.2941 103.801C32.3533 103.948 32.4362 104.074 32.5427 104.181C32.6492 104.285 32.7759 104.367 32.9227 104.426C33.0718 104.483 33.2364 104.511 33.4163 104.511H34.6592C34.8391 104.511 35.0025 104.483 35.1492 104.426C35.2984 104.367 35.4262 104.285 35.5328 104.181C35.6393 104.074 35.721 103.948 35.7778 103.801C35.837 103.652 35.8666 103.486 35.8666 103.304V102.331ZM41.797 104.898C41.797 104.964 41.7851 105.026 41.7615 105.083C41.7378 105.14 41.7046 105.189 41.662 105.232C41.6218 105.272 41.5732 105.304 41.5164 105.328C41.462 105.351 41.4028 105.363 41.3389 105.363H39.2508C39.1372 105.363 39.0152 105.35 38.885 105.324C38.7572 105.298 38.6305 105.257 38.5051 105.2C38.3796 105.141 38.2577 105.067 38.1393 104.98C38.0233 104.89 37.9215 104.782 37.8339 104.657C37.7463 104.529 37.6753 104.382 37.6208 104.216C37.5687 104.051 37.5427 103.864 37.5427 103.655V101.525H38.466V103.655C38.466 103.776 38.4861 103.885 38.5264 103.982C38.569 104.077 38.6258 104.158 38.6968 104.227C38.7678 104.296 38.8507 104.349 38.9454 104.387C39.0425 104.422 39.1466 104.44 39.2579 104.44H40.8737V101.525H41.797V104.898ZM46.6265 104.092C46.6265 104.22 46.604 104.358 46.559 104.507C46.5141 104.654 46.4407 104.792 46.3389 104.919C46.2394 105.045 46.108 105.15 45.9447 105.235C45.7837 105.321 45.5872 105.363 45.3552 105.363H43.6897C43.5619 105.363 43.4234 105.341 43.2742 105.296C43.1275 105.251 42.9901 105.179 42.8623 105.079C42.7368 104.977 42.6315 104.846 42.5463 104.685C42.461 104.522 42.4184 104.324 42.4184 104.092C42.4184 103.964 42.4409 103.826 42.4859 103.676C42.5309 103.527 42.6031 103.39 42.7025 103.265C42.8043 103.137 42.9357 103.03 43.0967 102.945C43.26 102.86 43.4577 102.817 43.6897 102.817H45.3552V103.698H43.6897C43.5642 103.698 43.4672 103.737 43.3985 103.815C43.3299 103.891 43.2955 103.985 43.2955 104.099C43.2955 104.22 43.3346 104.315 43.4127 104.383C43.4932 104.449 43.5879 104.483 43.6968 104.483H45.3552C45.4807 104.483 45.5777 104.445 45.6464 104.369C45.7151 104.293 45.7494 104.199 45.7494 104.085V102.796C45.7494 102.675 45.7115 102.579 45.6357 102.508C45.5624 102.437 45.4688 102.402 45.3552 102.402H43.3275V101.525H45.3552C45.483 101.525 45.6204 101.547 45.7671 101.592C45.9163 101.637 46.0536 101.71 46.1791 101.812C46.3069 101.912 46.4134 102.043 46.4987 102.206C46.5839 102.367 46.6265 102.564 46.6265 102.796V104.092ZM51.6691 105.363H50.7458V103.233C50.7458 103.112 50.7245 103.004 50.6819 102.909C50.6417 102.812 50.586 102.73 50.515 102.661C50.444 102.592 50.3599 102.54 50.2629 102.505C50.1682 102.467 50.0652 102.448 49.9539 102.448H48.3382V105.363H47.4149V101.983C47.4149 101.919 47.4267 101.859 47.4504 101.805C47.474 101.748 47.5072 101.7 47.5498 101.659C47.5924 101.617 47.6421 101.584 47.699 101.56C47.7558 101.536 47.8161 101.525 47.8801 101.525H49.961C50.077 101.525 50.199 101.538 50.3268 101.564C50.457 101.59 50.5848 101.632 50.7103 101.691C50.8382 101.748 50.9589 101.822 51.0725 101.912C51.1885 101.999 51.2903 102.107 51.3779 102.235C51.4679 102.36 51.5389 102.506 51.591 102.672C51.6431 102.837 51.6691 103.024 51.6691 103.233V105.363ZM55.8559 102.448H54.2437V105.363H53.3097V102.448H52.1095V101.525H53.3097V100.271H54.2437V101.525H55.8559V102.448ZM60.6606 104.898C60.6606 104.964 60.6488 105.026 60.6251 105.083C60.6014 105.14 60.5683 105.189 60.5257 105.232C60.4854 105.272 60.4369 105.304 60.3801 105.328C60.3256 105.351 60.2664 105.363 60.2025 105.363H58.1144C58.0008 105.363 57.8789 105.35 57.7487 105.324C57.6208 105.298 57.4942 105.257 57.3687 105.2C57.2432 105.141 57.1213 105.067 57.0029 104.98C56.8869 104.89 56.7851 104.782 56.6975 104.657C56.6099 104.529 56.5389 104.382 56.4845 104.216C56.4324 104.051 56.4063 103.864 56.4063 103.655V101.525H57.3296V103.655C57.3296 103.776 57.3498 103.885 57.39 103.982C57.4326 104.077 57.4894 104.158 57.5605 104.227C57.6315 104.296 57.7143 104.349 57.809 104.387C57.9061 104.422 58.0103 104.44 58.1215 104.44H59.7373V101.525H60.6606V104.898ZM64.9539 105.363H64.0306V102.817C64.0306 102.696 63.9987 102.605 63.9347 102.544C63.8708 102.48 63.7761 102.448 63.6507 102.448H62.4504V105.363H61.5271V101.983C61.5271 101.919 61.5389 101.859 61.5626 101.805C61.5863 101.748 61.6194 101.7 61.662 101.659C61.7046 101.617 61.7544 101.584 61.8112 101.56C61.868 101.536 61.9284 101.525 61.9923 101.525H63.6578C63.7856 101.525 63.9229 101.547 64.0697 101.592C64.2165 101.637 64.3562 101.709 64.4887 101.809V101.525H65.7387C65.8263 101.525 65.9187 101.535 66.0157 101.556C66.1128 101.575 66.2087 101.606 66.3034 101.649C66.4004 101.691 66.4928 101.747 66.5803 101.816C66.6679 101.882 66.7449 101.964 66.8112 102.061C66.8775 102.155 66.9307 102.266 66.971 102.391C67.0112 102.516 67.0313 102.658 67.0313 102.817V105.363H66.108V102.817C66.108 102.696 66.0773 102.605 66.0157 102.544C65.9565 102.48 65.8642 102.448 65.7387 102.448H64.9078C64.9385 102.561 64.9539 102.685 64.9539 102.817V105.363ZM75.0285 105.363H70.8169C70.7506 105.363 70.689 105.351 70.6322 105.328C70.5754 105.304 70.5257 105.272 70.483 105.232C70.4428 105.189 70.4108 105.14 70.3872 105.083C70.3635 105.026 70.3517 104.964 70.3517 104.898V100.271H71.2749V104.44H75.0285V105.363ZM79.7799 104.067C79.7799 104.226 79.7598 104.369 79.7195 104.497C79.6793 104.622 79.626 104.734 79.5597 104.831C79.4935 104.925 79.4165 105.007 79.3289 105.076C79.2413 105.142 79.149 105.196 79.0519 105.239C78.9572 105.282 78.8602 105.314 78.7607 105.335C78.6637 105.354 78.5713 105.363 78.4838 105.363H76.8183C76.6904 105.363 76.5508 105.341 76.3992 105.296C76.2477 105.251 76.1069 105.177 75.9767 105.076C75.8488 104.971 75.7411 104.838 75.6535 104.674C75.5683 104.509 75.5257 104.306 75.5257 104.067V102.817C75.5257 102.58 75.5683 102.38 75.6535 102.217C75.7411 102.051 75.8488 101.917 75.9767 101.816C76.1069 101.712 76.2477 101.637 76.3992 101.592C76.5508 101.547 76.6904 101.525 76.8183 101.525H78.4838C78.7205 101.525 78.9217 101.567 79.0874 101.652C79.2532 101.738 79.3869 101.845 79.4887 101.975C79.5905 102.103 79.6639 102.243 79.7089 102.395C79.7562 102.546 79.7799 102.687 79.7799 102.817V104.067ZM78.8566 102.824C78.8566 102.696 78.8247 102.602 78.7607 102.54C78.6968 102.479 78.6045 102.448 78.4838 102.448H76.8254C76.7023 102.448 76.6088 102.48 76.5448 102.544C76.4809 102.605 76.449 102.696 76.449 102.817V104.067C76.449 104.188 76.4809 104.28 76.5448 104.344C76.6088 104.408 76.7023 104.44 76.8254 104.44H78.4838C78.6092 104.44 78.7027 104.408 78.7643 104.344C78.8258 104.28 78.8566 104.188 78.8566 104.067V102.824ZM83.9667 102.448H81.8786V101.525H83.9667V102.448ZM83.9667 100.782H81.8857C81.7603 100.782 81.6656 100.814 81.6017 100.878C81.5377 100.94 81.5058 101.031 81.5058 101.152V105.363H80.5825V101.152C80.5825 100.993 80.6026 100.851 80.6428 100.725C80.6831 100.6 80.7364 100.49 80.8026 100.395C80.8713 100.298 80.9494 100.217 81.037 100.15C81.1246 100.082 81.2158 100.026 81.3105 99.9833C81.4075 99.9407 81.5046 99.9099 81.6017 99.891C81.6987 99.8697 81.791 99.859 81.8786 99.859H83.9667V100.782ZM88.0647 102.448H86.4525V105.363H85.5186V102.448H84.3183V101.525H85.5186V100.271H86.4525V101.525H88.0647V102.448Z" fill="white"/>
<path d="M80.627 60.3246C79.5164 61.2417 77.9162 61.629 75.8145 61.3763C73.7092 61.1232 71.2032 60.2354 68.4489 58.7389C62.9456 55.7489 56.6529 50.4395 50.9203 43.4968C45.1877 36.5542 41.1649 29.3705 39.2702 23.4009C38.3219 20.4131 37.9243 17.7844 38.0742 15.6693C38.2237 13.5577 38.9068 12.0598 40.0174 11.1427C41.128 10.2257 42.7282 9.83839 44.8299 10.0911C46.9352 10.3441 49.4412 11.232 52.1956 12.7284C57.6988 15.7184 63.9915 21.0278 69.7241 27.9705C75.4567 34.9132 79.4795 42.0969 81.3742 48.0664C82.3225 51.0542 82.7201 53.6829 82.5703 55.7981C82.4207 57.9096 81.7376 59.4076 80.627 60.3246Z" stroke="white" stroke-width="2.18182"/>
<path d="M42.358 62.0812C41.168 61.2699 40.3504 59.8409 40.0078 57.7519C39.6646 55.6594 39.8194 53.0054 40.4896 49.9432C41.8288 43.825 45.1757 36.3026 50.2473 28.8634C55.3189 21.4242 61.0981 15.5599 66.3039 12.0778C68.9094 10.335 71.3234 9.22105 73.3966 8.77592C75.4663 8.33155 77.0952 8.5704 78.2853 9.38171C79.4754 10.193 80.2929 11.6221 80.6355 13.711C80.9787 15.8035 80.8239 18.4575 80.1537 21.5197C78.8146 27.6379 75.4676 35.1603 70.396 42.5995C65.3244 50.0387 59.5452 55.903 54.3394 59.3851C51.7339 61.1279 49.3199 62.2419 47.2467 62.687C45.177 63.1314 43.5481 62.8925 42.358 62.0812Z" stroke="white" stroke-width="2.18182"/>
<path d="M26.6133 35.567C26.6207 34.1267 27.3485 32.65 28.889 31.1981C30.432 29.7438 32.7192 28.3884 35.6329 27.2322C41.4543 24.9222 49.5625 23.492 58.5659 23.5382C67.5693 23.5845 75.6624 25.0979 81.4598 27.4675C84.3615 28.6536 86.6346 30.0324 88.1626 31.5025C89.6881 32.9701 90.4007 34.4543 90.3933 35.8945C90.3859 37.3348 89.6581 38.8116 88.1176 40.2635C86.5746 41.7178 84.2874 43.0732 81.3737 44.2294C75.5523 46.5394 67.4441 47.9696 58.4407 47.9233C49.4373 47.8771 41.3442 46.3637 35.5468 43.994C32.6452 42.808 30.372 41.4292 28.844 39.9591C27.3185 38.4915 26.6059 37.0073 26.6133 35.567Z" stroke="white" stroke-width="2.18182"/>
<circle cx="60.0372" cy="35.5806" r="6.18182" transform="rotate(-179.706 60.0372 35.5806)" stroke="white" stroke-width="2.18182"/>
<circle cx="30.3026" cy="35.7697" r="3.68329" transform="rotate(-179.706 30.3026 35.7697)" stroke="white" stroke-width="2.18182"/>
<path d="M76.5457 60.0945C76.5561 58.0603 78.2136 56.4198 80.2478 56.4302C82.282 56.4407 83.9226 58.0982 83.9121 60.1324C83.9017 62.1666 82.2442 63.8071 80.21 63.7967C78.1758 63.7863 76.5352 62.1287 76.5457 60.0945Z" fill="#000001" stroke="white" stroke-width="2.18182"/>
<path d="M74.2693 10.0477C74.2797 8.01347 75.9372 6.37289 77.9714 6.38334C80.0056 6.39379 81.6462 8.0513 81.6358 10.0855C81.6253 12.1197 79.9678 13.7603 77.9336 13.7498C75.8994 13.7394 74.2588 12.0819 74.2693 10.0477Z" fill="#000001" stroke="white" stroke-width="2.18182"/>
</svg>
