<svg width="48" height="48" viewBox="0 0 48 48" fill="none" xmlns="http://www.w3.org/2000/svg">
<path d="M4.66415 21.1677C4.30668 21.3193 4.13971 21.732 4.29121 22.0896C6.42806 27.1293 11.3392 30.3857 16.8027 30.3857C24.2921 30.3857 30.3852 24.2926 30.3852 16.8032C30.3852 9.3138 24.2921 3.2207 16.8027 3.2207C9.31331 3.2207 3.22021 9.3138 3.22021 16.8032C3.22021 17.4576 3.26784 18.1168 3.36168 18.7625C3.41756 19.1469 3.77409 19.4127 4.15865 19.3571C4.54293 19.3013 4.80909 18.9445 4.75331 18.5602C4.66921 17.9813 4.62646 17.3902 4.62646 16.8032C4.62646 10.0892 10.0888 4.62695 16.8028 4.62695C23.5168 4.62695 28.9791 10.0892 28.9791 16.8032C28.9791 23.5172 23.5168 28.9795 16.8028 28.9795C11.9049 28.9795 7.50206 26.0595 5.58609 21.5406C5.4344 21.183 5.02143 21.0162 4.66415 21.1677Z" fill="#53E3F2"/>
<path d="M9.63284 23.1029H23.9726C24.7874 23.1029 25.5114 22.6782 25.909 21.9669C26.3065 21.2556 26.2891 20.4165 25.8622 19.7224L18.6924 8.06409C18.2856 7.40269 17.5792 7.00781 16.8027 7.00781C16.0263 7.00781 15.3199 7.40269 14.9131 8.06409L7.74321 19.7224C7.31628 20.4165 7.29884 21.2556 7.69643 21.9669C8.09403 22.6783 8.81796 23.1029 9.63284 23.1029ZM8.94106 20.4591L16.1109 8.80078C16.262 8.55497 16.5142 8.41406 16.8026 8.41406C17.0911 8.41406 17.3433 8.55497 17.4944 8.80078L24.6643 20.4592C24.8896 20.8254 24.7514 21.1558 24.6815 21.2809C24.6116 21.4058 24.4026 21.6967 23.9726 21.6967H9.63284C9.20281 21.6967 8.99384 21.4059 8.9239 21.2809C8.85396 21.1557 8.71578 20.8253 8.94106 20.4591Z" fill="white"/>
<path d="M16.8025 20.0553C17.1948 20.0553 17.5128 19.7373 17.5128 19.345C17.5128 18.9528 17.1948 18.6348 16.8025 18.6348C16.4103 18.6348 16.0923 18.9528 16.0923 19.345C16.0923 19.7373 16.4103 20.0553 16.8025 20.0553Z" fill="white"/>
<path d="M16.813 17.2005C17.2014 17.2005 17.5161 16.8857 17.5161 16.4974V11.9004C17.5161 11.5121 17.2014 11.1973 16.813 11.1973C16.4246 11.1973 16.1099 11.5121 16.1099 11.9004V16.4974C16.1099 16.8858 16.4246 17.2005 16.813 17.2005Z" fill="white"/>
<path d="M47.794 40.1023L41.6281 33.9364C41.3534 33.6618 40.9083 33.6618 40.6337 33.9364C40.3591 34.211 40.3591 34.6562 40.6337 34.9307L46.7996 41.0967C46.937 41.234 47.1169 41.3026 47.2969 41.3026C47.4768 41.3026 47.6568 41.234 47.7941 41.0967C48.0686 40.8221 48.0686 40.3768 47.794 40.1023Z" fill="#53E3F2"/>
<path d="M31.0943 36.7965C31.0326 36.7346 31.0233 36.6621 31.0233 36.6244C31.0233 36.5866 31.0326 36.514 31.0944 36.4522L36.4521 31.0944C36.5139 31.0326 36.5866 31.0233 36.6244 31.0233C36.6621 31.0233 36.7347 31.0326 36.7966 31.0943L38.3143 32.6122C38.589 32.8868 39.0341 32.8867 39.3087 32.6122C39.5833 32.3376 39.5833 31.8923 39.3087 31.6178L37.7909 30.1C37.4795 29.7886 37.0652 29.617 36.6244 29.617C36.1836 29.617 35.7693 29.7886 35.4577 30.1L35.4189 30.1388L34.2702 28.9901L34.3091 28.9512C34.9522 28.308 34.9522 27.2615 34.3091 26.6182L31.8883 24.1973C32.9872 21.9647 33.6056 19.4548 33.6056 16.8028C33.6056 12.1413 31.6442 7.64962 28.2243 4.47937C27.9395 4.21537 27.4946 4.23225 27.2306 4.51697C26.9666 4.80178 26.9834 5.24662 27.2682 5.51062C30.402 8.41566 32.1994 12.5315 32.1994 16.8028C32.1994 25.2925 25.2925 32.1994 16.8029 32.1994C8.31328 32.1994 1.40625 25.2925 1.40625 16.8028C1.40625 8.31309 8.31319 1.40625 16.8028 1.40625C19.6184 1.40625 22.3721 2.17275 24.7662 3.62297C25.0982 3.82416 25.5307 3.71803 25.7319 3.38588C25.9331 3.05372 25.827 2.62134 25.4948 2.42016C22.8809 0.836906 19.8754 0 16.8028 0C7.53769 0 0 7.53769 0 16.8028C0 26.0679 7.53769 33.6056 16.8028 33.6056C19.4547 33.6056 21.9646 32.9872 24.1973 31.8883L26.6181 34.309C26.9295 34.6206 27.3438 34.792 27.7846 34.792C28.2254 34.792 28.6397 34.6205 28.9511 34.309L28.9899 34.2702L30.1387 35.4189L30.0999 35.4577C29.7884 35.7691 29.6169 36.1834 29.6169 36.6243C29.6169 37.0651 29.7884 37.4794 30.0998 37.7908L40.103 47.7939C40.2403 47.9312 40.4203 47.9999 40.6002 47.9999C40.7801 47.9999 40.9601 47.9313 41.0975 47.7939C41.3721 47.5193 41.3721 47.0741 41.0975 46.7996L31.0943 36.7965ZM27.7847 33.3858C27.747 33.3858 27.6743 33.3765 27.6126 33.3147L25.4828 31.1851C27.8126 29.7738 29.7737 27.8126 31.185 25.4829L33.3146 27.6125C33.4096 27.7074 33.4096 27.8619 33.3146 27.9569L27.9568 33.3148C27.895 33.3766 27.8224 33.3858 27.7847 33.3858ZM29.9844 33.2759L33.2758 29.9845L34.4245 31.1333L31.1332 34.4246L29.9844 33.2759Z" fill="#53E3F2"/>
</svg>
